<?xml version="1.0" encoding="UTF-8" standalone="no"?>
<!-- This is a Stata 17.0 generated SVG file (http://www.stata.com) -->

<svg version="1.1" width="7.500in" height="4.500in" viewBox="0 0 5400 3240" xmlns="http://www.w3.org/2000/svg" xmlns:xlink="http://www.w3.org/1999/xlink">
	<desc>Stata Graph - Graph</desc>
	<rect x="0" y="0" width="5400" height="3240" style="fill:#FFFFFF;stroke:none"/>
	<rect x="0.00" y="0.00" width="5400.00" height="3240.00" style="fill:#FFFFFF"/>
	<rect x="3.24" y="3.24" width="5393.52" height="3233.52" style="fill:none;stroke:#FFFFFF;stroke-width:6.48"/>
	<rect x="378.68" y="113.40" width="3793.67" height="2687.01" style="fill:#FFFFFF"/>
	<rect x="381.92" y="116.64" width="3787.19" height="2680.53" style="fill:none;stroke:#FFFFFF;stroke-width:6.48"/>
	<line x1="378.68" y1="2729.03" x2="443.48" y2="2729.03" style="stroke:#EAF2F3;stroke-width:9.72"/>
	<line x1="475.88" y1="2729.03" x2="540.67" y2="2729.03" style="stroke:#EAF2F3;stroke-width:9.72"/>
	<line x1="573.08" y1="2729.03" x2="637.88" y2="2729.03" style="stroke:#EAF2F3;stroke-width:9.72"/>
	<line x1="670.28" y1="2729.03" x2="735.08" y2="2729.03" style="stroke:#EAF2F3;stroke-width:9.72"/>
	<line x1="767.48" y1="2729.03" x2="832.28" y2="2729.03" style="stroke:#EAF2F3;stroke-width:9.72"/>
	<line x1="864.68" y1="2729.03" x2="929.48" y2="2729.03" style="stroke:#EAF2F3;stroke-width:9.72"/>
	<line x1="961.88" y1="2729.03" x2="1026.68" y2="2729.03" style="stroke:#EAF2F3;stroke-width:9.72"/>
	<line x1="1059.08" y1="2729.03" x2="1123.88" y2="2729.03" style="stroke:#EAF2F3;stroke-width:9.72"/>
	<line x1="1156.28" y1="2729.03" x2="1221.08" y2="2729.03" style="stroke:#EAF2F3;stroke-width:9.72"/>
	<line x1="1253.47" y1="2729.03" x2="1318.28" y2="2729.03" style="stroke:#EAF2F3;stroke-width:9.72"/>
	<line x1="1350.68" y1="2729.03" x2="1415.48" y2="2729.03" style="stroke:#EAF2F3;stroke-width:9.72"/>
	<line x1="1447.88" y1="2729.03" x2="1512.68" y2="2729.03" style="stroke:#EAF2F3;stroke-width:9.72"/>
	<line x1="1545.08" y1="2729.03" x2="1609.88" y2="2729.03" style="stroke:#EAF2F3;stroke-width:9.72"/>
	<line x1="1642.28" y1="2729.03" x2="1707.08" y2="2729.03" style="stroke:#EAF2F3;stroke-width:9.72"/>
	<line x1="1739.48" y1="2729.03" x2="1804.28" y2="2729.03" style="stroke:#EAF2F3;stroke-width:9.72"/>
	<line x1="1836.68" y1="2729.03" x2="1901.48" y2="2729.03" style="stroke:#EAF2F3;stroke-width:9.72"/>
	<line x1="1933.88" y1="2729.03" x2="1998.68" y2="2729.03" style="stroke:#EAF2F3;stroke-width:9.72"/>
	<line x1="2031.08" y1="2729.03" x2="2095.88" y2="2729.03" style="stroke:#EAF2F3;stroke-width:9.72"/>
	<line x1="2128.28" y1="2729.03" x2="2193.07" y2="2729.03" style="stroke:#EAF2F3;stroke-width:9.72"/>
	<line x1="2225.48" y1="2729.03" x2="2290.28" y2="2729.03" style="stroke:#EAF2F3;stroke-width:9.72"/>
	<line x1="2322.68" y1="2729.03" x2="2387.48" y2="2729.03" style="stroke:#EAF2F3;stroke-width:9.72"/>
	<line x1="2419.88" y1="2729.03" x2="2484.68" y2="2729.03" style="stroke:#EAF2F3;stroke-width:9.72"/>
	<line x1="2517.07" y1="2729.03" x2="2581.88" y2="2729.03" style="stroke:#EAF2F3;stroke-width:9.72"/>
	<line x1="2614.28" y1="2729.03" x2="2679.08" y2="2729.03" style="stroke:#EAF2F3;stroke-width:9.72"/>
	<line x1="2711.48" y1="2729.03" x2="2776.28" y2="2729.03" style="stroke:#EAF2F3;stroke-width:9.72"/>
	<line x1="2808.68" y1="2729.03" x2="2873.48" y2="2729.03" style="stroke:#EAF2F3;stroke-width:9.72"/>
	<line x1="2905.88" y1="2729.03" x2="2970.68" y2="2729.03" style="stroke:#EAF2F3;stroke-width:9.72"/>
	<line x1="3003.08" y1="2729.03" x2="3067.88" y2="2729.03" style="stroke:#EAF2F3;stroke-width:9.72"/>
	<line x1="3100.28" y1="2729.03" x2="3165.08" y2="2729.03" style="stroke:#EAF2F3;stroke-width:9.72"/>
	<line x1="3197.48" y1="2729.03" x2="3262.28" y2="2729.03" style="stroke:#EAF2F3;stroke-width:9.72"/>
	<line x1="3294.68" y1="2729.03" x2="3359.48" y2="2729.03" style="stroke:#EAF2F3;stroke-width:9.72"/>
	<line x1="3391.88" y1="2729.03" x2="3456.68" y2="2729.03" style="stroke:#EAF2F3;stroke-width:9.72"/>
	<line x1="3489.08" y1="2729.03" x2="3553.88" y2="2729.03" style="stroke:#EAF2F3;stroke-width:9.72"/>
	<line x1="3586.28" y1="2729.03" x2="3651.08" y2="2729.03" style="stroke:#EAF2F3;stroke-width:9.72"/>
	<line x1="3683.48" y1="2729.03" x2="3748.28" y2="2729.03" style="stroke:#EAF2F3;stroke-width:9.72"/>
	<line x1="3780.68" y1="2729.03" x2="3845.48" y2="2729.03" style="stroke:#EAF2F3;stroke-width:9.72"/>
	<line x1="3877.88" y1="2729.03" x2="3942.68" y2="2729.03" style="stroke:#EAF2F3;stroke-width:9.72"/>
	<line x1="3975.08" y1="2729.03" x2="4039.88" y2="2729.03" style="stroke:#EAF2F3;stroke-width:9.72"/>
	<line x1="4072.28" y1="2729.03" x2="4137.08" y2="2729.03" style="stroke:#EAF2F3;stroke-width:9.72"/>
	<line x1="4169.48" y1="2729.03" x2="4172.34" y2="2729.03" style="stroke:#EAF2F3;stroke-width:9.72"/>
	<line x1="378.68" y1="1908.23" x2="443.48" y2="1908.23" style="stroke:#EAF2F3;stroke-width:9.72"/>
	<line x1="475.88" y1="1908.23" x2="540.67" y2="1908.23" style="stroke:#EAF2F3;stroke-width:9.72"/>
	<line x1="573.08" y1="1908.23" x2="637.88" y2="1908.23" style="stroke:#EAF2F3;stroke-width:9.72"/>
	<line x1="670.28" y1="1908.23" x2="735.08" y2="1908.23" style="stroke:#EAF2F3;stroke-width:9.72"/>
	<line x1="767.48" y1="1908.23" x2="832.28" y2="1908.23" style="stroke:#EAF2F3;stroke-width:9.72"/>
	<line x1="864.68" y1="1908.23" x2="929.48" y2="1908.23" style="stroke:#EAF2F3;stroke-width:9.72"/>
	<line x1="961.88" y1="1908.23" x2="1026.68" y2="1908.23" style="stroke:#EAF2F3;stroke-width:9.72"/>
	<line x1="1059.08" y1="1908.23" x2="1123.88" y2="1908.23" style="stroke:#EAF2F3;stroke-width:9.72"/>
	<line x1="1156.28" y1="1908.23" x2="1221.08" y2="1908.23" style="stroke:#EAF2F3;stroke-width:9.72"/>
	<line x1="1253.47" y1="1908.23" x2="1318.28" y2="1908.23" style="stroke:#EAF2F3;stroke-width:9.72"/>
	<line x1="1350.68" y1="1908.23" x2="1415.48" y2="1908.23" style="stroke:#EAF2F3;stroke-width:9.72"/>
	<line x1="1447.88" y1="1908.23" x2="1512.68" y2="1908.23" style="stroke:#EAF2F3;stroke-width:9.72"/>
	<line x1="1545.08" y1="1908.23" x2="1609.88" y2="1908.23" style="stroke:#EAF2F3;stroke-width:9.72"/>
	<line x1="1642.28" y1="1908.23" x2="1707.08" y2="1908.23" style="stroke:#EAF2F3;stroke-width:9.72"/>
	<line x1="1739.48" y1="1908.23" x2="1804.28" y2="1908.23" style="stroke:#EAF2F3;stroke-width:9.72"/>
	<line x1="1836.68" y1="1908.23" x2="1901.48" y2="1908.23" style="stroke:#EAF2F3;stroke-width:9.72"/>
	<line x1="1933.88" y1="1908.23" x2="1998.68" y2="1908.23" style="stroke:#EAF2F3;stroke-width:9.72"/>
	<line x1="2031.08" y1="1908.23" x2="2095.88" y2="1908.23" style="stroke:#EAF2F3;stroke-width:9.72"/>
	<line x1="2128.28" y1="1908.23" x2="2193.07" y2="1908.23" style="stroke:#EAF2F3;stroke-width:9.72"/>
	<line x1="2225.48" y1="1908.23" x2="2290.28" y2="1908.23" style="stroke:#EAF2F3;stroke-width:9.72"/>
	<line x1="2322.68" y1="1908.23" x2="2387.48" y2="1908.23" style="stroke:#EAF2F3;stroke-width:9.72"/>
	<line x1="2419.88" y1="1908.23" x2="2484.68" y2="1908.23" style="stroke:#EAF2F3;stroke-width:9.72"/>
	<line x1="2517.07" y1="1908.23" x2="2581.88" y2="1908.23" style="stroke:#EAF2F3;stroke-width:9.72"/>
	<line x1="2614.28" y1="1908.23" x2="2679.08" y2="1908.23" style="stroke:#EAF2F3;stroke-width:9.72"/>
	<line x1="2711.48" y1="1908.23" x2="2776.28" y2="1908.23" style="stroke:#EAF2F3;stroke-width:9.72"/>
	<line x1="2808.68" y1="1908.23" x2="2873.48" y2="1908.23" style="stroke:#EAF2F3;stroke-width:9.72"/>
	<line x1="2905.88" y1="1908.23" x2="2970.68" y2="1908.23" style="stroke:#EAF2F3;stroke-width:9.72"/>
	<line x1="3003.08" y1="1908.23" x2="3067.88" y2="1908.23" style="stroke:#EAF2F3;stroke-width:9.72"/>
	<line x1="3100.28" y1="1908.23" x2="3165.08" y2="1908.23" style="stroke:#EAF2F3;stroke-width:9.72"/>
	<line x1="3197.48" y1="1908.23" x2="3262.28" y2="1908.23" style="stroke:#EAF2F3;stroke-width:9.72"/>
	<line x1="3294.68" y1="1908.23" x2="3359.48" y2="1908.23" style="stroke:#EAF2F3;stroke-width:9.72"/>
	<line x1="3391.88" y1="1908.23" x2="3456.68" y2="1908.23" style="stroke:#EAF2F3;stroke-width:9.72"/>
	<line x1="3489.08" y1="1908.23" x2="3553.88" y2="1908.23" style="stroke:#EAF2F3;stroke-width:9.72"/>
	<line x1="3586.28" y1="1908.23" x2="3651.08" y2="1908.23" style="stroke:#EAF2F3;stroke-width:9.72"/>
	<line x1="3683.48" y1="1908.23" x2="3748.28" y2="1908.23" style="stroke:#EAF2F3;stroke-width:9.72"/>
	<line x1="3780.68" y1="1908.23" x2="3845.48" y2="1908.23" style="stroke:#EAF2F3;stroke-width:9.72"/>
	<line x1="3877.88" y1="1908.23" x2="3942.68" y2="1908.23" style="stroke:#EAF2F3;stroke-width:9.72"/>
	<line x1="3975.08" y1="1908.23" x2="4039.88" y2="1908.23" style="stroke:#EAF2F3;stroke-width:9.72"/>
	<line x1="4072.28" y1="1908.23" x2="4137.08" y2="1908.23" style="stroke:#EAF2F3;stroke-width:9.72"/>
	<line x1="4169.48" y1="1908.23" x2="4172.34" y2="1908.23" style="stroke:#EAF2F3;stroke-width:9.72"/>
	<line x1="378.68" y1="1087.59" x2="443.48" y2="1087.59" style="stroke:#EAF2F3;stroke-width:9.72"/>
	<line x1="475.88" y1="1087.59" x2="540.67" y2="1087.59" style="stroke:#EAF2F3;stroke-width:9.72"/>
	<line x1="573.08" y1="1087.59" x2="637.88" y2="1087.59" style="stroke:#EAF2F3;stroke-width:9.72"/>
	<line x1="670.28" y1="1087.59" x2="735.08" y2="1087.59" style="stroke:#EAF2F3;stroke-width:9.72"/>
	<line x1="767.48" y1="1087.59" x2="832.28" y2="1087.59" style="stroke:#EAF2F3;stroke-width:9.72"/>
	<line x1="864.68" y1="1087.59" x2="929.48" y2="1087.59" style="stroke:#EAF2F3;stroke-width:9.72"/>
	<line x1="961.88" y1="1087.59" x2="1026.68" y2="1087.59" style="stroke:#EAF2F3;stroke-width:9.72"/>
	<line x1="1059.08" y1="1087.59" x2="1123.88" y2="1087.59" style="stroke:#EAF2F3;stroke-width:9.72"/>
	<line x1="1156.28" y1="1087.59" x2="1221.08" y2="1087.59" style="stroke:#EAF2F3;stroke-width:9.72"/>
	<line x1="1253.47" y1="1087.59" x2="1318.28" y2="1087.59" style="stroke:#EAF2F3;stroke-width:9.72"/>
	<line x1="1350.68" y1="1087.59" x2="1415.48" y2="1087.59" style="stroke:#EAF2F3;stroke-width:9.72"/>
	<line x1="1447.88" y1="1087.59" x2="1512.68" y2="1087.59" style="stroke:#EAF2F3;stroke-width:9.72"/>
	<line x1="1545.08" y1="1087.59" x2="1609.88" y2="1087.59" style="stroke:#EAF2F3;stroke-width:9.72"/>
	<line x1="1642.28" y1="1087.59" x2="1707.08" y2="1087.59" style="stroke:#EAF2F3;stroke-width:9.72"/>
	<line x1="1739.48" y1="1087.59" x2="1804.28" y2="1087.59" style="stroke:#EAF2F3;stroke-width:9.72"/>
	<line x1="1836.68" y1="1087.59" x2="1901.48" y2="1087.59" style="stroke:#EAF2F3;stroke-width:9.72"/>
	<line x1="1933.88" y1="1087.59" x2="1998.68" y2="1087.59" style="stroke:#EAF2F3;stroke-width:9.72"/>
	<line x1="2031.08" y1="1087.59" x2="2095.88" y2="1087.59" style="stroke:#EAF2F3;stroke-width:9.72"/>
	<line x1="2128.28" y1="1087.59" x2="2193.07" y2="1087.59" style="stroke:#EAF2F3;stroke-width:9.72"/>
	<line x1="2225.48" y1="1087.59" x2="2290.28" y2="1087.59" style="stroke:#EAF2F3;stroke-width:9.72"/>
	<line x1="2322.68" y1="1087.59" x2="2387.48" y2="1087.59" style="stroke:#EAF2F3;stroke-width:9.72"/>
	<line x1="2419.88" y1="1087.59" x2="2484.68" y2="1087.59" style="stroke:#EAF2F3;stroke-width:9.72"/>
	<line x1="2517.07" y1="1087.59" x2="2581.88" y2="1087.59" style="stroke:#EAF2F3;stroke-width:9.72"/>
	<line x1="2614.28" y1="1087.59" x2="2679.08" y2="1087.59" style="stroke:#EAF2F3;stroke-width:9.72"/>
	<line x1="2711.48" y1="1087.59" x2="2776.28" y2="1087.59" style="stroke:#EAF2F3;stroke-width:9.72"/>
	<line x1="2808.68" y1="1087.59" x2="2873.48" y2="1087.59" style="stroke:#EAF2F3;stroke-width:9.72"/>
	<line x1="2905.88" y1="1087.59" x2="2970.68" y2="1087.59" style="stroke:#EAF2F3;stroke-width:9.72"/>
	<line x1="3003.08" y1="1087.59" x2="3067.88" y2="1087.59" style="stroke:#EAF2F3;stroke-width:9.72"/>
	<line x1="3100.28" y1="1087.59" x2="3165.08" y2="1087.59" style="stroke:#EAF2F3;stroke-width:9.72"/>
	<line x1="3197.48" y1="1087.59" x2="3262.28" y2="1087.59" style="stroke:#EAF2F3;stroke-width:9.72"/>
	<line x1="3294.68" y1="1087.59" x2="3359.48" y2="1087.59" style="stroke:#EAF2F3;stroke-width:9.72"/>
	<line x1="3391.88" y1="1087.59" x2="3456.68" y2="1087.59" style="stroke:#EAF2F3;stroke-width:9.72"/>
	<line x1="3489.08" y1="1087.59" x2="3553.88" y2="1087.59" style="stroke:#EAF2F3;stroke-width:9.72"/>
	<line x1="3586.28" y1="1087.59" x2="3651.08" y2="1087.59" style="stroke:#EAF2F3;stroke-width:9.72"/>
	<line x1="3683.48" y1="1087.59" x2="3748.28" y2="1087.59" style="stroke:#EAF2F3;stroke-width:9.72"/>
	<line x1="3780.68" y1="1087.59" x2="3845.48" y2="1087.59" style="stroke:#EAF2F3;stroke-width:9.72"/>
	<line x1="3877.88" y1="1087.59" x2="3942.68" y2="1087.59" style="stroke:#EAF2F3;stroke-width:9.72"/>
	<line x1="3975.08" y1="1087.59" x2="4039.88" y2="1087.59" style="stroke:#EAF2F3;stroke-width:9.72"/>
	<line x1="4072.28" y1="1087.59" x2="4137.08" y2="1087.59" style="stroke:#EAF2F3;stroke-width:9.72"/>
	<line x1="4169.48" y1="1087.59" x2="4172.34" y2="1087.59" style="stroke:#EAF2F3;stroke-width:9.72"/>
	<line x1="378.68" y1="266.79" x2="443.48" y2="266.79" style="stroke:#EAF2F3;stroke-width:9.72"/>
	<line x1="475.88" y1="266.79" x2="540.67" y2="266.79" style="stroke:#EAF2F3;stroke-width:9.72"/>
	<line x1="573.08" y1="266.79" x2="637.88" y2="266.79" style="stroke:#EAF2F3;stroke-width:9.72"/>
	<line x1="670.28" y1="266.79" x2="735.08" y2="266.79" style="stroke:#EAF2F3;stroke-width:9.72"/>
	<line x1="767.48" y1="266.79" x2="832.28" y2="266.79" style="stroke:#EAF2F3;stroke-width:9.72"/>
	<line x1="864.68" y1="266.79" x2="929.48" y2="266.79" style="stroke:#EAF2F3;stroke-width:9.72"/>
	<line x1="961.88" y1="266.79" x2="1026.68" y2="266.79" style="stroke:#EAF2F3;stroke-width:9.72"/>
	<line x1="1059.08" y1="266.79" x2="1123.88" y2="266.79" style="stroke:#EAF2F3;stroke-width:9.72"/>
	<line x1="1156.28" y1="266.79" x2="1221.08" y2="266.79" style="stroke:#EAF2F3;stroke-width:9.72"/>
	<line x1="1253.47" y1="266.79" x2="1318.28" y2="266.79" style="stroke:#EAF2F3;stroke-width:9.72"/>
	<line x1="1350.68" y1="266.79" x2="1415.48" y2="266.79" style="stroke:#EAF2F3;stroke-width:9.72"/>
	<line x1="1447.88" y1="266.79" x2="1512.68" y2="266.79" style="stroke:#EAF2F3;stroke-width:9.72"/>
	<line x1="1545.08" y1="266.79" x2="1609.88" y2="266.79" style="stroke:#EAF2F3;stroke-width:9.72"/>
	<line x1="1642.28" y1="266.79" x2="1707.08" y2="266.79" style="stroke:#EAF2F3;stroke-width:9.72"/>
	<line x1="1739.48" y1="266.79" x2="1804.28" y2="266.79" style="stroke:#EAF2F3;stroke-width:9.72"/>
	<line x1="1836.68" y1="266.79" x2="1901.48" y2="266.79" style="stroke:#EAF2F3;stroke-width:9.72"/>
	<line x1="1933.88" y1="266.79" x2="1998.68" y2="266.79" style="stroke:#EAF2F3;stroke-width:9.72"/>
	<line x1="2031.08" y1="266.79" x2="2095.88" y2="266.79" style="stroke:#EAF2F3;stroke-width:9.72"/>
	<line x1="2128.28" y1="266.79" x2="2193.07" y2="266.79" style="stroke:#EAF2F3;stroke-width:9.72"/>
	<line x1="2225.48" y1="266.79" x2="2290.28" y2="266.79" style="stroke:#EAF2F3;stroke-width:9.72"/>
	<line x1="2322.68" y1="266.79" x2="2387.48" y2="266.79" style="stroke:#EAF2F3;stroke-width:9.72"/>
	<line x1="2419.88" y1="266.79" x2="2484.68" y2="266.79" style="stroke:#EAF2F3;stroke-width:9.72"/>
	<line x1="2517.07" y1="266.79" x2="2581.88" y2="266.79" style="stroke:#EAF2F3;stroke-width:9.72"/>
	<line x1="2614.28" y1="266.79" x2="2679.08" y2="266.79" style="stroke:#EAF2F3;stroke-width:9.72"/>
	<line x1="2711.48" y1="266.79" x2="2776.28" y2="266.79" style="stroke:#EAF2F3;stroke-width:9.72"/>
	<line x1="2808.68" y1="266.79" x2="2873.48" y2="266.79" style="stroke:#EAF2F3;stroke-width:9.72"/>
	<line x1="2905.88" y1="266.79" x2="2970.68" y2="266.79" style="stroke:#EAF2F3;stroke-width:9.72"/>
	<line x1="3003.08" y1="266.79" x2="3067.88" y2="266.79" style="stroke:#EAF2F3;stroke-width:9.72"/>
	<line x1="3100.28" y1="266.79" x2="3165.08" y2="266.79" style="stroke:#EAF2F3;stroke-width:9.72"/>
	<line x1="3197.48" y1="266.79" x2="3262.28" y2="266.79" style="stroke:#EAF2F3;stroke-width:9.72"/>
	<line x1="3294.68" y1="266.79" x2="3359.48" y2="266.79" style="stroke:#EAF2F3;stroke-width:9.72"/>
	<line x1="3391.88" y1="266.79" x2="3456.68" y2="266.79" style="stroke:#EAF2F3;stroke-width:9.72"/>
	<line x1="3489.08" y1="266.79" x2="3553.88" y2="266.79" style="stroke:#EAF2F3;stroke-width:9.72"/>
	<line x1="3586.28" y1="266.79" x2="3651.08" y2="266.79" style="stroke:#EAF2F3;stroke-width:9.72"/>
	<line x1="3683.48" y1="266.79" x2="3748.28" y2="266.79" style="stroke:#EAF2F3;stroke-width:9.72"/>
	<line x1="3780.68" y1="266.79" x2="3845.48" y2="266.79" style="stroke:#EAF2F3;stroke-width:9.72"/>
	<line x1="3877.88" y1="266.79" x2="3942.68" y2="266.79" style="stroke:#EAF2F3;stroke-width:9.72"/>
	<line x1="3975.08" y1="266.79" x2="4039.88" y2="266.79" style="stroke:#EAF2F3;stroke-width:9.72"/>
	<line x1="4072.28" y1="266.79" x2="4137.08" y2="266.79" style="stroke:#EAF2F3;stroke-width:9.72"/>
	<line x1="4169.48" y1="266.79" x2="4172.34" y2="266.79" style="stroke:#EAF2F3;stroke-width:9.72"/>
	<line x1="1597.73" y1="2800.41" x2="1597.73" y2="2735.61" style="stroke:#EAF2F3;stroke-width:9.72"/>
	<line x1="1597.73" y1="2703.21" x2="1597.73" y2="2638.41" style="stroke:#EAF2F3;stroke-width:9.72"/>
	<line x1="1597.73" y1="2606.01" x2="1597.73" y2="2541.21" style="stroke:#EAF2F3;stroke-width:9.72"/>
	<line x1="1597.73" y1="2508.81" x2="1597.73" y2="2444.01" style="stroke:#EAF2F3;stroke-width:9.72"/>
	<line x1="1597.73" y1="2411.61" x2="1597.73" y2="2346.81" style="stroke:#EAF2F3;stroke-width:9.72"/>
	<line x1="1597.73" y1="2314.41" x2="1597.73" y2="2249.61" style="stroke:#EAF2F3;stroke-width:9.72"/>
	<line x1="1597.73" y1="2217.21" x2="1597.73" y2="2152.41" style="stroke:#EAF2F3;stroke-width:9.72"/>
	<line x1="1597.73" y1="2120.01" x2="1597.73" y2="2055.21" style="stroke:#EAF2F3;stroke-width:9.72"/>
	<line x1="1597.73" y1="2022.81" x2="1597.73" y2="1958.01" style="stroke:#EAF2F3;stroke-width:9.72"/>
	<line x1="1597.73" y1="1925.61" x2="1597.73" y2="1860.81" style="stroke:#EAF2F3;stroke-width:9.72"/>
	<line x1="1597.73" y1="1828.41" x2="1597.73" y2="1763.61" style="stroke:#EAF2F3;stroke-width:9.72"/>
	<line x1="1597.73" y1="1731.21" x2="1597.73" y2="1666.41" style="stroke:#EAF2F3;stroke-width:9.72"/>
	<line x1="1597.73" y1="1634.01" x2="1597.73" y2="1569.21" style="stroke:#EAF2F3;stroke-width:9.72"/>
	<line x1="1597.73" y1="1536.81" x2="1597.73" y2="1472.01" style="stroke:#EAF2F3;stroke-width:9.72"/>
	<line x1="1597.73" y1="1439.61" x2="1597.73" y2="1374.81" style="stroke:#EAF2F3;stroke-width:9.72"/>
	<line x1="1597.73" y1="1342.41" x2="1597.73" y2="1277.61" style="stroke:#EAF2F3;stroke-width:9.72"/>
	<line x1="1597.73" y1="1245.21" x2="1597.73" y2="1180.41" style="stroke:#EAF2F3;stroke-width:9.72"/>
	<line x1="1597.73" y1="1148.01" x2="1597.73" y2="1083.21" style="stroke:#EAF2F3;stroke-width:9.72"/>
	<line x1="1597.73" y1="1050.81" x2="1597.73" y2="986.01" style="stroke:#EAF2F3;stroke-width:9.72"/>
	<line x1="1597.73" y1="953.61" x2="1597.73" y2="888.81" style="stroke:#EAF2F3;stroke-width:9.72"/>
	<line x1="1597.73" y1="856.41" x2="1597.73" y2="791.61" style="stroke:#EAF2F3;stroke-width:9.72"/>
	<line x1="1597.73" y1="759.21" x2="1597.73" y2="694.41" style="stroke:#EAF2F3;stroke-width:9.72"/>
	<line x1="1597.73" y1="662.01" x2="1597.73" y2="597.21" style="stroke:#EAF2F3;stroke-width:9.72"/>
	<line x1="1597.73" y1="564.81" x2="1597.73" y2="500.01" style="stroke:#EAF2F3;stroke-width:9.72"/>
	<line x1="1597.73" y1="467.61" x2="1597.73" y2="402.81" style="stroke:#EAF2F3;stroke-width:9.72"/>
	<line x1="1597.73" y1="370.41" x2="1597.73" y2="305.61" style="stroke:#EAF2F3;stroke-width:9.72"/>
	<line x1="1597.73" y1="273.21" x2="1597.73" y2="208.41" style="stroke:#EAF2F3;stroke-width:9.72"/>
	<line x1="1597.73" y1="176.01" x2="1597.73" y2="113.40" style="stroke:#EAF2F3;stroke-width:9.72"/>
	<line x1="2745.39" y1="2800.41" x2="2745.39" y2="2735.61" style="stroke:#EAF2F3;stroke-width:9.72"/>
	<line x1="2745.39" y1="2703.21" x2="2745.39" y2="2638.41" style="stroke:#EAF2F3;stroke-width:9.72"/>
	<line x1="2745.39" y1="2606.01" x2="2745.39" y2="2541.21" style="stroke:#EAF2F3;stroke-width:9.72"/>
	<line x1="2745.39" y1="2508.81" x2="2745.39" y2="2444.01" style="stroke:#EAF2F3;stroke-width:9.72"/>
	<line x1="2745.39" y1="2411.61" x2="2745.39" y2="2346.81" style="stroke:#EAF2F3;stroke-width:9.72"/>
	<line x1="2745.39" y1="2314.41" x2="2745.39" y2="2249.61" style="stroke:#EAF2F3;stroke-width:9.72"/>
	<line x1="2745.39" y1="2217.21" x2="2745.39" y2="2152.41" style="stroke:#EAF2F3;stroke-width:9.72"/>
	<line x1="2745.39" y1="2120.01" x2="2745.39" y2="2055.21" style="stroke:#EAF2F3;stroke-width:9.72"/>
	<line x1="2745.39" y1="2022.81" x2="2745.39" y2="1958.01" style="stroke:#EAF2F3;stroke-width:9.72"/>
	<line x1="2745.39" y1="1925.61" x2="2745.39" y2="1860.81" style="stroke:#EAF2F3;stroke-width:9.72"/>
	<line x1="2745.39" y1="1828.41" x2="2745.39" y2="1763.61" style="stroke:#EAF2F3;stroke-width:9.72"/>
	<line x1="2745.39" y1="1731.21" x2="2745.39" y2="1666.41" style="stroke:#EAF2F3;stroke-width:9.72"/>
	<line x1="2745.39" y1="1634.01" x2="2745.39" y2="1569.21" style="stroke:#EAF2F3;stroke-width:9.72"/>
	<line x1="2745.39" y1="1536.81" x2="2745.39" y2="1472.01" style="stroke:#EAF2F3;stroke-width:9.72"/>
	<line x1="2745.39" y1="1439.61" x2="2745.39" y2="1374.81" style="stroke:#EAF2F3;stroke-width:9.72"/>
	<line x1="2745.39" y1="1342.41" x2="2745.39" y2="1277.61" style="stroke:#EAF2F3;stroke-width:9.72"/>
	<line x1="2745.39" y1="1245.21" x2="2745.39" y2="1180.41" style="stroke:#EAF2F3;stroke-width:9.72"/>
	<line x1="2745.39" y1="1148.01" x2="2745.39" y2="1083.21" style="stroke:#EAF2F3;stroke-width:9.72"/>
	<line x1="2745.39" y1="1050.81" x2="2745.39" y2="986.01" style="stroke:#EAF2F3;stroke-width:9.72"/>
	<line x1="2745.39" y1="953.61" x2="2745.39" y2="888.81" style="stroke:#EAF2F3;stroke-width:9.72"/>
	<line x1="2745.39" y1="856.41" x2="2745.39" y2="791.61" style="stroke:#EAF2F3;stroke-width:9.72"/>
	<line x1="2745.39" y1="759.21" x2="2745.39" y2="694.41" style="stroke:#EAF2F3;stroke-width:9.72"/>
	<line x1="2745.39" y1="662.01" x2="2745.39" y2="597.21" style="stroke:#EAF2F3;stroke-width:9.72"/>
	<line x1="2745.39" y1="564.81" x2="2745.39" y2="500.01" style="stroke:#EAF2F3;stroke-width:9.72"/>
	<line x1="2745.39" y1="467.61" x2="2745.39" y2="402.81" style="stroke:#EAF2F3;stroke-width:9.72"/>
	<line x1="2745.39" y1="370.41" x2="2745.39" y2="305.61" style="stroke:#EAF2F3;stroke-width:9.72"/>
	<line x1="2745.39" y1="273.21" x2="2745.39" y2="208.41" style="stroke:#EAF2F3;stroke-width:9.72"/>
	<line x1="2745.39" y1="176.01" x2="2745.39" y2="113.40" style="stroke:#EAF2F3;stroke-width:9.72"/>
	<line x1="3893.06" y1="2800.41" x2="3893.06" y2="2735.61" style="stroke:#EAF2F3;stroke-width:9.72"/>
	<line x1="3893.06" y1="2703.21" x2="3893.06" y2="2638.41" style="stroke:#EAF2F3;stroke-width:9.72"/>
	<line x1="3893.06" y1="2606.01" x2="3893.06" y2="2541.21" style="stroke:#EAF2F3;stroke-width:9.72"/>
	<line x1="3893.06" y1="2508.81" x2="3893.06" y2="2444.01" style="stroke:#EAF2F3;stroke-width:9.72"/>
	<line x1="3893.06" y1="2411.61" x2="3893.06" y2="2346.81" style="stroke:#EAF2F3;stroke-width:9.72"/>
	<line x1="3893.06" y1="2314.41" x2="3893.06" y2="2249.61" style="stroke:#EAF2F3;stroke-width:9.72"/>
	<line x1="3893.06" y1="2217.21" x2="3893.06" y2="2152.41" style="stroke:#EAF2F3;stroke-width:9.72"/>
	<line x1="3893.06" y1="2120.01" x2="3893.06" y2="2055.21" style="stroke:#EAF2F3;stroke-width:9.72"/>
	<line x1="3893.06" y1="2022.81" x2="3893.06" y2="1958.01" style="stroke:#EAF2F3;stroke-width:9.72"/>
	<line x1="3893.06" y1="1925.61" x2="3893.06" y2="1860.81" style="stroke:#EAF2F3;stroke-width:9.72"/>
	<line x1="3893.06" y1="1828.41" x2="3893.06" y2="1763.61" style="stroke:#EAF2F3;stroke-width:9.72"/>
	<line x1="3893.06" y1="1731.21" x2="3893.06" y2="1666.41" style="stroke:#EAF2F3;stroke-width:9.72"/>
	<line x1="3893.06" y1="1634.01" x2="3893.06" y2="1569.21" style="stroke:#EAF2F3;stroke-width:9.72"/>
	<line x1="3893.06" y1="1536.81" x2="3893.06" y2="1472.01" style="stroke:#EAF2F3;stroke-width:9.72"/>
	<line x1="3893.06" y1="1439.61" x2="3893.06" y2="1374.81" style="stroke:#EAF2F3;stroke-width:9.72"/>
	<line x1="3893.06" y1="1342.41" x2="3893.06" y2="1277.61" style="stroke:#EAF2F3;stroke-width:9.72"/>
	<line x1="3893.06" y1="1245.21" x2="3893.06" y2="1180.41" style="stroke:#EAF2F3;stroke-width:9.72"/>
	<line x1="3893.06" y1="1148.01" x2="3893.06" y2="1083.21" style="stroke:#EAF2F3;stroke-width:9.72"/>
	<line x1="3893.06" y1="1050.81" x2="3893.06" y2="986.01" style="stroke:#EAF2F3;stroke-width:9.72"/>
	<line x1="3893.06" y1="953.61" x2="3893.06" y2="888.81" style="stroke:#EAF2F3;stroke-width:9.72"/>
	<line x1="3893.06" y1="856.41" x2="3893.06" y2="791.61" style="stroke:#EAF2F3;stroke-width:9.72"/>
	<line x1="3893.06" y1="759.21" x2="3893.06" y2="694.41" style="stroke:#EAF2F3;stroke-width:9.72"/>
	<line x1="3893.06" y1="662.01" x2="3893.06" y2="597.21" style="stroke:#EAF2F3;stroke-width:9.72"/>
	<line x1="3893.06" y1="564.81" x2="3893.06" y2="500.01" style="stroke:#EAF2F3;stroke-width:9.72"/>
	<line x1="3893.06" y1="467.61" x2="3893.06" y2="402.81" style="stroke:#EAF2F3;stroke-width:9.72"/>
	<line x1="3893.06" y1="370.41" x2="3893.06" y2="305.61" style="stroke:#EAF2F3;stroke-width:9.72"/>
	<line x1="3893.06" y1="273.21" x2="3893.06" y2="208.41" style="stroke:#EAF2F3;stroke-width:9.72"/>
	<line x1="3893.06" y1="176.01" x2="3893.06" y2="113.40" style="stroke:#EAF2F3;stroke-width:9.72"/>
	<circle cx="1390.84" cy="1744.20" r="21.74" style="fill:#4361ED"/>
	<circle cx="1390.84" cy="1744.20" r="16.88" style="fill:none;stroke:#4361ED;stroke-width:9.72"/>
	<circle cx="1540.01" cy="2154.60" r="21.74" style="fill:#4361ED"/>
	<circle cx="1540.01" cy="2154.60" r="16.88" style="fill:none;stroke:#4361ED;stroke-width:9.72"/>
	<circle cx="1321.99" cy="1744.20" r="21.74" style="fill:#4361ED"/>
	<circle cx="1321.99" cy="1744.20" r="16.88" style="fill:none;stroke:#4361ED;stroke-width:9.72"/>
	<circle cx="1555.37" cy="1908.39" r="21.74" style="fill:#4361ED"/>
	<circle cx="1555.37" cy="1908.39" r="16.88" style="fill:none;stroke:#4361ED;stroke-width:9.72"/>
	<circle cx="2246.40" cy="2318.79" r="21.74" style="fill:#4361ED"/>
	<circle cx="2246.40" cy="2318.79" r="16.88" style="fill:none;stroke:#4361ED;stroke-width:9.72"/>
	<circle cx="1778.46" cy="2072.59" r="21.74" style="fill:#4361ED"/>
	<circle cx="1778.46" cy="2072.59" r="16.88" style="fill:none;stroke:#4361ED;stroke-width:9.72"/>
	<circle cx="1472.01" cy="1415.98" r="21.74" style="fill:#4361ED"/>
	<circle cx="1472.01" cy="1415.98" r="16.88" style="fill:none;stroke:#4361ED;stroke-width:9.72"/>
	<circle cx="1640.93" cy="1908.39" r="21.74" style="fill:#4361ED"/>
	<circle cx="1640.93" cy="1908.39" r="16.88" style="fill:none;stroke:#4361ED;stroke-width:9.72"/>
	<circle cx="2830.61" cy="2236.78" r="21.74" style="fill:#4361ED"/>
	<circle cx="2830.61" cy="2236.78" r="16.88" style="fill:none;stroke:#4361ED;stroke-width:9.72"/>
	<circle cx="1386.79" cy="1990.41" r="21.74" style="fill:#4361ED"/>
	<circle cx="1386.79" cy="1990.41" r="16.88" style="fill:none;stroke:#4361ED;stroke-width:9.72"/>
	<circle cx="3063.15" cy="2400.81" r="21.74" style="fill:#4361ED"/>
	<circle cx="3063.15" cy="2400.81" r="16.88" style="fill:none;stroke:#4361ED;stroke-width:9.72"/>
	<circle cx="3778.14" cy="2400.81" r="21.74" style="fill:#4361ED"/>
	<circle cx="3778.14" cy="2400.81" r="16.88" style="fill:none;stroke:#4361ED;stroke-width:9.72"/>
	<circle cx="4100.96" cy="1826.38" r="21.74" style="fill:#4361ED"/>
	<circle cx="4100.96" cy="1826.38" r="16.88" style="fill:none;stroke:#4361ED;stroke-width:9.72"/>
	<circle cx="1207.07" cy="1169.78" r="21.74" style="fill:#4361ED"/>
	<circle cx="1207.07" cy="1169.78" r="16.88" style="fill:none;stroke:#4361ED;stroke-width:9.72"/>
	<circle cx="1759.39" cy="2236.78" r="21.74" style="fill:#4361ED"/>
	<circle cx="1759.39" cy="2236.78" r="16.88" style="fill:none;stroke:#4361ED;stroke-width:9.72"/>
	<circle cx="1483.65" cy="1744.20" r="21.74" style="fill:#4361ED"/>
	<circle cx="1483.65" cy="1744.20" r="16.88" style="fill:none;stroke:#4361ED;stroke-width:9.72"/>
	<circle cx="1621.52" cy="1744.20" r="21.74" style="fill:#4361ED"/>
	<circle cx="1621.52" cy="1744.20" r="16.88" style="fill:none;stroke:#4361ED;stroke-width:9.72"/>
	<circle cx="1291.61" cy="1580.01" r="21.74" style="fill:#4361ED"/>
	<circle cx="1291.61" cy="1580.01" r="16.88" style="fill:none;stroke:#4361ED;stroke-width:9.72"/>
	<circle cx="1357.76" cy="1990.41" r="21.74" style="fill:#4361ED"/>
	<circle cx="1357.76" cy="1990.41" r="16.88" style="fill:none;stroke:#4361ED;stroke-width:9.72"/>
	<circle cx="1364.34" cy="1087.59" r="21.74" style="fill:#4361ED"/>
	<circle cx="1364.34" cy="1087.59" r="16.88" style="fill:none;stroke:#4361ED;stroke-width:9.72"/>
	<circle cx="1370.42" cy="2072.59" r="21.74" style="fill:#4361ED"/>
	<circle cx="1370.42" cy="2072.59" r="16.88" style="fill:none;stroke:#4361ED;stroke-width:9.72"/>
	<circle cx="1800.90" cy="2236.78" r="21.74" style="fill:#4361ED"/>
	<circle cx="1800.90" cy="2236.78" r="16.88" style="fill:none;stroke:#4361ED;stroke-width:9.72"/>
	<circle cx="1905.69" cy="2154.60" r="21.74" style="fill:#4361ED"/>
	<circle cx="1905.69" cy="2154.60" r="16.88" style="fill:none;stroke:#4361ED;stroke-width:9.72"/>
	<circle cx="1457.33" cy="1251.79" r="21.74" style="fill:#4361ED"/>
	<circle cx="1457.33" cy="1251.79" r="16.88" style="fill:none;stroke:#4361ED;stroke-width:9.72"/>
	<circle cx="1410.92" cy="1826.38" r="21.74" style="fill:#4361ED"/>
	<circle cx="1410.92" cy="1826.38" r="16.88" style="fill:none;stroke:#4361ED;stroke-width:9.72"/>
	<circle cx="3088.80" cy="2565.00" r="21.74" style="fill:#4361ED"/>
	<circle cx="3088.80" cy="2565.00" r="16.88" style="fill:none;stroke:#4361ED;stroke-width:9.72"/>
	<circle cx="3570.24" cy="2565.00" r="21.74" style="fill:#4361ED"/>
	<circle cx="3570.24" cy="2565.00" r="16.88" style="fill:none;stroke:#4361ED;stroke-width:9.72"/>
	<circle cx="3540.88" cy="2400.81" r="21.74" style="fill:#4361ED"/>
	<circle cx="3540.88" cy="2400.81" r="16.88" style="fill:none;stroke:#4361ED;stroke-width:9.72"/>
	<circle cx="1328.74" cy="1744.20" r="21.74" style="fill:#4361ED"/>
	<circle cx="1328.74" cy="1744.20" r="16.88" style="fill:none;stroke:#4361ED;stroke-width:9.72"/>
	<circle cx="1684.63" cy="2400.81" r="21.74" style="fill:#4361ED"/>
	<circle cx="1684.63" cy="2400.81" r="16.88" style="fill:none;stroke:#4361ED;stroke-width:9.72"/>
	<circle cx="1865.03" cy="2318.79" r="21.74" style="fill:#4361ED"/>
	<circle cx="1865.03" cy="2318.79" r="16.88" style="fill:none;stroke:#4361ED;stroke-width:9.72"/>
	<circle cx="1486.52" cy="2072.59" r="21.74" style="fill:#4361ED"/>
	<circle cx="1486.52" cy="2072.59" r="16.88" style="fill:none;stroke:#4361ED;stroke-width:9.72"/>
	<circle cx="1896.75" cy="2400.81" r="21.74" style="fill:#4361ED"/>
	<circle cx="1896.75" cy="2400.81" r="16.88" style="fill:none;stroke:#4361ED;stroke-width:9.72"/>
	<circle cx="1205.38" cy="1908.39" r="21.74" style="fill:#4361ED"/>
	<circle cx="1205.38" cy="1908.39" r="16.88" style="fill:none;stroke:#4361ED;stroke-width:9.72"/>
	<circle cx="2473.03" cy="1826.38" r="21.74" style="fill:#4361ED"/>
	<circle cx="2473.03" cy="1826.38" r="16.88" style="fill:none;stroke:#4361ED;stroke-width:9.72"/>
	<circle cx="1637.04" cy="1990.41" r="21.74" style="fill:#4361ED"/>
	<circle cx="1637.04" cy="1990.41" r="16.88" style="fill:none;stroke:#4361ED;stroke-width:9.72"/>
	<circle cx="1536.30" cy="1990.41" r="21.74" style="fill:#4361ED"/>
	<circle cx="1536.30" cy="1990.41" r="16.88" style="fill:none;stroke:#4361ED;stroke-width:9.72"/>
	<circle cx="1572.41" cy="2072.59" r="21.74" style="fill:#4361ED"/>
	<circle cx="1572.41" cy="2072.59" r="16.88" style="fill:none;stroke:#4361ED;stroke-width:9.72"/>
	<circle cx="1409.57" cy="1990.41" r="21.74" style="fill:#4361ED"/>
	<circle cx="1409.57" cy="1990.41" r="16.88" style="fill:none;stroke:#4361ED;stroke-width:9.72"/>
	<circle cx="1412.78" cy="1580.01" r="21.74" style="fill:#4361ED"/>
	<circle cx="1412.78" cy="1580.01" r="16.88" style="fill:none;stroke:#4361ED;stroke-width:9.72"/>
	<circle cx="2830.44" cy="2236.78" r="21.74" style="fill:#4361ED"/>
	<circle cx="2830.44" cy="2236.78" r="16.88" style="fill:none;stroke:#4361ED;stroke-width:9.72"/>
	<circle cx="1516.56" cy="1251.79" r="21.74" style="fill:#4361ED"/>
	<circle cx="1516.56" cy="1251.79" r="16.88" style="fill:none;stroke:#4361ED;stroke-width:9.72"/>
	<circle cx="1465.59" cy="759.38" r="21.74" style="fill:#4361ED"/>
	<circle cx="1465.59" cy="759.38" r="16.88" style="fill:none;stroke:#4361ED;stroke-width:9.72"/>
	<circle cx="1478.76" cy="1497.99" r="21.74" style="fill:#4361ED"/>
	<circle cx="1478.76" cy="1497.99" r="16.88" style="fill:none;stroke:#4361ED;stroke-width:9.72"/>
	<circle cx="1938.60" cy="1415.98" r="21.74" style="fill:#4361ED"/>
	<circle cx="1938.60" cy="1415.98" r="16.88" style="fill:none;stroke:#4361ED;stroke-width:9.72"/>
	<circle cx="1381.89" cy="2072.59" r="21.74" style="fill:#4361ED"/>
	<circle cx="1381.89" cy="2072.59" r="16.88" style="fill:none;stroke:#4361ED;stroke-width:9.72"/>
	<circle cx="1780.82" cy="2072.59" r="21.74" style="fill:#4361ED"/>
	<circle cx="1780.82" cy="2072.59" r="16.88" style="fill:none;stroke:#4361ED;stroke-width:9.72"/>
	<circle cx="1582.37" cy="2072.59" r="21.74" style="fill:#4361ED"/>
	<circle cx="1582.37" cy="2072.59" r="16.88" style="fill:none;stroke:#4361ED;stroke-width:9.72"/>
	<circle cx="1648.52" cy="1990.41" r="21.74" style="fill:#4361ED"/>
	<circle cx="1648.52" cy="1990.41" r="16.88" style="fill:none;stroke:#4361ED;stroke-width:9.72"/>
	<circle cx="1533.94" cy="1990.41" r="21.74" style="fill:#4361ED"/>
	<circle cx="1533.94" cy="1990.41" r="16.88" style="fill:none;stroke:#4361ED;stroke-width:9.72"/>
	<circle cx="1465.43" cy="1990.41" r="21.74" style="fill:#4361ED"/>
	<circle cx="1465.43" cy="1990.41" r="16.88" style="fill:none;stroke:#4361ED;stroke-width:9.72"/>
	<circle cx="1407.54" cy="1580.01" r="21.74" style="fill:#4361ED"/>
	<circle cx="1407.54" cy="1580.01" r="16.88" style="fill:none;stroke:#4361ED;stroke-width:9.72"/>
	<circle cx="2674.18" cy="2154.60" r="21.74" style="fill:#4361ED"/>
	<circle cx="2674.18" cy="2154.60" r="16.88" style="fill:none;stroke:#4361ED;stroke-width:9.72"/>
	<circle cx="1894.89" cy="1662.19" r="21.74" style="fill:#4361ED"/>
	<circle cx="1894.89" cy="1662.19" r="16.88" style="fill:none;stroke:#4361ED;stroke-width:9.72"/>
	<circle cx="2684.48" cy="1497.99" r="21.74" style="fill:#4361ED"/>
	<circle cx="2684.48" cy="1497.99" r="16.88" style="fill:none;stroke:#4361ED;stroke-width:9.72"/>
	<circle cx="1879.71" cy="1662.19" r="21.74" style="fill:#4361ED"/>
	<circle cx="1879.71" cy="1662.19" r="16.88" style="fill:none;stroke:#4361ED;stroke-width:9.72"/>
	<circle cx="1503.23" cy="677.19" r="21.74" style="fill:#4361ED"/>
	<circle cx="1503.23" cy="677.19" r="16.88" style="fill:none;stroke:#4361ED;stroke-width:9.72"/>
	<circle cx="1615.78" cy="1580.01" r="21.74" style="fill:#4361ED"/>
	<circle cx="1615.78" cy="1580.01" r="16.88" style="fill:none;stroke:#4361ED;stroke-width:9.72"/>
	<circle cx="2315.76" cy="1826.38" r="21.74" style="fill:#4361ED"/>
	<circle cx="2315.76" cy="1826.38" r="16.88" style="fill:none;stroke:#4361ED;stroke-width:9.72"/>
	<circle cx="1436.06" cy="1826.38" r="21.74" style="fill:#4361ED"/>
	<circle cx="1436.06" cy="1826.38" r="16.88" style="fill:none;stroke:#4361ED;stroke-width:9.72"/>
	<circle cx="1780.99" cy="1497.99" r="21.74" style="fill:#4361ED"/>
	<circle cx="1780.99" cy="1497.99" r="16.88" style="fill:none;stroke:#4361ED;stroke-width:9.72"/>
	<circle cx="1482.64" cy="1251.79" r="21.74" style="fill:#4361ED"/>
	<circle cx="1482.64" cy="1251.79" r="16.88" style="fill:none;stroke:#4361ED;stroke-width:9.72"/>
	<circle cx="1366.88" cy="1087.59" r="21.74" style="fill:#4361ED"/>
	<circle cx="1366.88" cy="1087.59" r="16.88" style="fill:none;stroke:#4361ED;stroke-width:9.72"/>
	<circle cx="3431.53" cy="2400.81" r="21.74" style="fill:#4361ED"/>
	<circle cx="3431.53" cy="2400.81" r="16.88" style="fill:none;stroke:#4361ED;stroke-width:9.72"/>
	<circle cx="1343.93" cy="1415.98" r="21.74" style="fill:#4361ED"/>
	<circle cx="1343.93" cy="1415.98" r="16.88" style="fill:none;stroke:#4361ED;stroke-width:9.72"/>
	<circle cx="1321.65" cy="677.19" r="21.74" style="fill:#4361ED"/>
	<circle cx="1321.65" cy="677.19" r="16.88" style="fill:none;stroke:#4361ED;stroke-width:9.72"/>
	<circle cx="1803.94" cy="2072.59" r="21.74" style="fill:#4361ED"/>
	<circle cx="1803.94" cy="2072.59" r="16.88" style="fill:none;stroke:#4361ED;stroke-width:9.72"/>
	<circle cx="1310.18" cy="1005.58" r="21.74" style="fill:#4361ED"/>
	<circle cx="1310.18" cy="1005.58" r="16.88" style="fill:none;stroke:#4361ED;stroke-width:9.72"/>
	<circle cx="1762.59" cy="2072.59" r="21.74" style="fill:#4361ED"/>
	<circle cx="1762.59" cy="2072.59" r="16.88" style="fill:none;stroke:#4361ED;stroke-width:9.72"/>
	<circle cx="2088.79" cy="1662.19" r="21.74" style="fill:#4361ED"/>
	<circle cx="2088.79" cy="1662.19" r="16.88" style="fill:none;stroke:#4361ED;stroke-width:9.72"/>
	<circle cx="1688.68" cy="184.78" r="21.74" style="fill:#4361ED"/>
	<circle cx="1688.68" cy="184.78" r="16.88" style="fill:none;stroke:#4361ED;stroke-width:9.72"/>
	<circle cx="1528.03" cy="1497.99" r="21.74" style="fill:#4361ED"/>
	<circle cx="1528.03" cy="1497.99" r="16.88" style="fill:none;stroke:#4361ED;stroke-width:9.72"/>
	<circle cx="2022.30" cy="1497.99" r="21.74" style="fill:#4361ED"/>
	<circle cx="2022.30" cy="1497.99" r="16.88" style="fill:none;stroke:#4361ED;stroke-width:9.72"/>
	<circle cx="3203.21" cy="2154.60" r="21.74" style="fill:#4361ED"/>
	<circle cx="3203.21" cy="2154.60" r="16.88" style="fill:none;stroke:#4361ED;stroke-width:9.72"/>
	<path d=" M1399.11 1580.01 L1640.93 1990.41 L1901.14 1662.19 L2315.76 1826.38 L2679.24 1826.38 L2946.88 2318.79 L3317.46 2277.79 L3570.24 2400.81 L4100.96 1826.38" stroke-linejoin="round" style="fill:none;stroke:#FD2B3B;stroke-width:9.72"/>
	<line x1="378.68" y1="2800.41" x2="378.68" y2="113.40" style="stroke:#000000;stroke-width:6.48"/>
	<line x1="378.68" y1="2729.03" x2="333.79" y2="2729.03" style="stroke:#000000;stroke-width:6.48"/>
	<text x="311.18" y="2768.46" style="font-family:'Helvetica';font-size:112.56px;fill:#000000" text-anchor="end">10</text>
	<line x1="378.68" y1="1908.23" x2="333.79" y2="1908.23" style="stroke:#000000;stroke-width:6.48"/>
	<text x="311.18" y="1947.66" style="font-family:'Helvetica';font-size:112.56px;fill:#000000" text-anchor="end">20</text>
	<line x1="378.68" y1="1087.59" x2="333.79" y2="1087.59" style="stroke:#000000;stroke-width:6.48"/>
	<text x="311.18" y="1127.03" style="font-family:'Helvetica';font-size:112.56px;fill:#000000" text-anchor="end">30</text>
	<line x1="378.68" y1="266.79" x2="333.79" y2="266.79" style="stroke:#000000;stroke-width:6.48"/>
	<text x="311.18" y="306.23" style="font-family:'Helvetica';font-size:112.56px;fill:#000000" text-anchor="end">40</text>
	<line x1="378.68" y1="2800.41" x2="4172.34" y2="2800.41" style="stroke:#000000;stroke-width:6.48"/>
	<line x1="450.06" y1="2800.41" x2="450.06" y2="2845.29" style="stroke:#000000;stroke-width:6.48"/>
	<text x="450.06" y="2946.61" style="font-family:'Helvetica';font-size:112.56px;fill:#000000" text-anchor="middle">0</text>
	<line x1="1597.73" y1="2800.41" x2="1597.73" y2="2845.29" style="stroke:#000000;stroke-width:6.48"/>
	<text x="1597.73" y="2946.61" style="font-family:'Helvetica';font-size:112.56px;fill:#000000" text-anchor="middle">5,000</text>
	<line x1="2745.39" y1="2800.41" x2="2745.39" y2="2845.29" style="stroke:#000000;stroke-width:6.48"/>
	<text x="2745.39" y="2946.61" style="font-family:'Helvetica';font-size:112.56px;fill:#000000" text-anchor="middle">10,000</text>
	<line x1="3893.06" y1="2800.41" x2="3893.06" y2="2845.29" style="stroke:#000000;stroke-width:6.48"/>
	<text x="3893.06" y="2946.61" style="font-family:'Helvetica';font-size:112.56px;fill:#000000" text-anchor="middle">15,000</text>
	<text x="2275.43" y="3070.31" style="font-family:'Helvetica';font-size:112.56px;fill:#000000" text-anchor="middle">Price</text>
	<rect x="4211.16" y="1273.22" width="1036.63" height="367.20" style="fill:#FFFFFF"/>
	<rect x="4214.40" y="1276.46" width="1030.15" height="360.72" style="fill:none;stroke:#FFFFFF;stroke-width:6.48"/>
	<circle cx="4321.69" cy="1378.18" r="21.74" style="fill:#4361ED"/>
	<circle cx="4321.69" cy="1378.18" r="16.88" style="fill:none;stroke:#4361ED;stroke-width:9.72"/>
	<line x1="4259.76" y1="1535.63" x2="4383.45" y2="1535.63" style="stroke:#FD2B3B;stroke-width:9.72"/>
	<text x="4450.95" y="1417.62" style="font-family:'Helvetica';font-size:112.56px;fill:#000000">Mileage (mpg)</text>
	<text x="4450.95" y="1575.06" style="font-family:'Helvetica';font-size:112.56px;fill:#000000">Median bands</text>
</svg>
