<?xml version="1.0" encoding="UTF-8" standalone="no"?>
<!-- This is a Stata 17.0 generated SVG file (http://www.stata.com) -->

<svg version="1.1" width="7.500in" height="4.500in" viewBox="0 0 5400 3240" xmlns="http://www.w3.org/2000/svg" xmlns:xlink="http://www.w3.org/1999/xlink">
	<desc>Stata Graph - Graph</desc>
	<rect x="0" y="0" width="5400" height="3240" style="fill:#FFFFFF;stroke:none"/>
	<rect x="0.00" y="0.00" width="5400.00" height="3240.00" style="fill:#FFFFFF"/>
	<rect x="3.24" y="3.24" width="5393.52" height="3233.52" style="fill:none;stroke:#FFFFFF;stroke-width:6.48"/>
	<rect x="378.68" y="309.82" width="3793.67" height="2361.66" style="fill:#FFFFFF"/>
	<rect x="381.92" y="313.06" width="3787.19" height="2355.18" style="fill:none;stroke:#FFFFFF;stroke-width:6.48"/>
	<line x1="378.68" y1="2600.27" x2="443.48" y2="2600.27" style="stroke:#EAF2F3;stroke-width:9.72"/>
	<line x1="475.88" y1="2600.27" x2="540.67" y2="2600.27" style="stroke:#EAF2F3;stroke-width:9.72"/>
	<line x1="573.08" y1="2600.27" x2="637.88" y2="2600.27" style="stroke:#EAF2F3;stroke-width:9.72"/>
	<line x1="670.28" y1="2600.27" x2="735.08" y2="2600.27" style="stroke:#EAF2F3;stroke-width:9.72"/>
	<line x1="767.48" y1="2600.27" x2="832.28" y2="2600.27" style="stroke:#EAF2F3;stroke-width:9.72"/>
	<line x1="864.68" y1="2600.27" x2="929.48" y2="2600.27" style="stroke:#EAF2F3;stroke-width:9.72"/>
	<line x1="961.88" y1="2600.27" x2="1026.68" y2="2600.27" style="stroke:#EAF2F3;stroke-width:9.72"/>
	<line x1="1059.08" y1="2600.27" x2="1123.88" y2="2600.27" style="stroke:#EAF2F3;stroke-width:9.72"/>
	<line x1="1156.28" y1="2600.27" x2="1221.08" y2="2600.27" style="stroke:#EAF2F3;stroke-width:9.72"/>
	<line x1="1253.47" y1="2600.27" x2="1318.28" y2="2600.27" style="stroke:#EAF2F3;stroke-width:9.72"/>
	<line x1="1350.68" y1="2600.27" x2="1415.48" y2="2600.27" style="stroke:#EAF2F3;stroke-width:9.72"/>
	<line x1="1447.88" y1="2600.27" x2="1512.68" y2="2600.27" style="stroke:#EAF2F3;stroke-width:9.72"/>
	<line x1="1545.08" y1="2600.27" x2="1609.88" y2="2600.27" style="stroke:#EAF2F3;stroke-width:9.72"/>
	<line x1="1642.28" y1="2600.27" x2="1707.08" y2="2600.27" style="stroke:#EAF2F3;stroke-width:9.72"/>
	<line x1="1739.48" y1="2600.27" x2="1804.28" y2="2600.27" style="stroke:#EAF2F3;stroke-width:9.72"/>
	<line x1="1836.68" y1="2600.27" x2="1901.48" y2="2600.27" style="stroke:#EAF2F3;stroke-width:9.72"/>
	<line x1="1933.88" y1="2600.27" x2="1998.68" y2="2600.27" style="stroke:#EAF2F3;stroke-width:9.72"/>
	<line x1="2031.08" y1="2600.27" x2="2095.88" y2="2600.27" style="stroke:#EAF2F3;stroke-width:9.72"/>
	<line x1="2128.28" y1="2600.27" x2="2193.07" y2="2600.27" style="stroke:#EAF2F3;stroke-width:9.72"/>
	<line x1="2225.48" y1="2600.27" x2="2290.28" y2="2600.27" style="stroke:#EAF2F3;stroke-width:9.72"/>
	<line x1="2322.68" y1="2600.27" x2="2387.48" y2="2600.27" style="stroke:#EAF2F3;stroke-width:9.72"/>
	<line x1="2419.88" y1="2600.27" x2="2484.68" y2="2600.27" style="stroke:#EAF2F3;stroke-width:9.72"/>
	<line x1="2517.07" y1="2600.27" x2="2581.88" y2="2600.27" style="stroke:#EAF2F3;stroke-width:9.72"/>
	<line x1="2614.28" y1="2600.27" x2="2679.08" y2="2600.27" style="stroke:#EAF2F3;stroke-width:9.72"/>
	<line x1="2711.48" y1="2600.27" x2="2776.28" y2="2600.27" style="stroke:#EAF2F3;stroke-width:9.72"/>
	<line x1="2808.68" y1="2600.27" x2="2873.48" y2="2600.27" style="stroke:#EAF2F3;stroke-width:9.72"/>
	<line x1="2905.88" y1="2600.27" x2="2970.68" y2="2600.27" style="stroke:#EAF2F3;stroke-width:9.72"/>
	<line x1="3003.08" y1="2600.27" x2="3067.88" y2="2600.27" style="stroke:#EAF2F3;stroke-width:9.72"/>
	<line x1="3100.28" y1="2600.27" x2="3165.08" y2="2600.27" style="stroke:#EAF2F3;stroke-width:9.72"/>
	<line x1="3197.48" y1="2600.27" x2="3262.28" y2="2600.27" style="stroke:#EAF2F3;stroke-width:9.72"/>
	<line x1="3294.68" y1="2600.27" x2="3359.48" y2="2600.27" style="stroke:#EAF2F3;stroke-width:9.72"/>
	<line x1="3391.88" y1="2600.27" x2="3456.68" y2="2600.27" style="stroke:#EAF2F3;stroke-width:9.72"/>
	<line x1="3489.08" y1="2600.27" x2="3553.88" y2="2600.27" style="stroke:#EAF2F3;stroke-width:9.72"/>
	<line x1="3586.28" y1="2600.27" x2="3651.08" y2="2600.27" style="stroke:#EAF2F3;stroke-width:9.72"/>
	<line x1="3683.48" y1="2600.27" x2="3748.28" y2="2600.27" style="stroke:#EAF2F3;stroke-width:9.72"/>
	<line x1="3780.68" y1="2600.27" x2="3845.48" y2="2600.27" style="stroke:#EAF2F3;stroke-width:9.72"/>
	<line x1="3877.88" y1="2600.27" x2="3942.68" y2="2600.27" style="stroke:#EAF2F3;stroke-width:9.72"/>
	<line x1="3975.08" y1="2600.27" x2="4039.88" y2="2600.27" style="stroke:#EAF2F3;stroke-width:9.72"/>
	<line x1="4072.28" y1="2600.27" x2="4137.08" y2="2600.27" style="stroke:#EAF2F3;stroke-width:9.72"/>
	<line x1="4169.48" y1="2600.27" x2="4172.34" y2="2600.27" style="stroke:#EAF2F3;stroke-width:9.72"/>
	<line x1="378.68" y1="2156.46" x2="443.48" y2="2156.46" style="stroke:#EAF2F3;stroke-width:9.72"/>
	<line x1="475.88" y1="2156.46" x2="540.67" y2="2156.46" style="stroke:#EAF2F3;stroke-width:9.72"/>
	<line x1="573.08" y1="2156.46" x2="637.88" y2="2156.46" style="stroke:#EAF2F3;stroke-width:9.72"/>
	<line x1="670.28" y1="2156.46" x2="735.08" y2="2156.46" style="stroke:#EAF2F3;stroke-width:9.72"/>
	<line x1="767.48" y1="2156.46" x2="832.28" y2="2156.46" style="stroke:#EAF2F3;stroke-width:9.72"/>
	<line x1="864.68" y1="2156.46" x2="929.48" y2="2156.46" style="stroke:#EAF2F3;stroke-width:9.72"/>
	<line x1="961.88" y1="2156.46" x2="1026.68" y2="2156.46" style="stroke:#EAF2F3;stroke-width:9.72"/>
	<line x1="1059.08" y1="2156.46" x2="1123.88" y2="2156.46" style="stroke:#EAF2F3;stroke-width:9.72"/>
	<line x1="1156.28" y1="2156.46" x2="1221.08" y2="2156.46" style="stroke:#EAF2F3;stroke-width:9.72"/>
	<line x1="1253.47" y1="2156.46" x2="1318.28" y2="2156.46" style="stroke:#EAF2F3;stroke-width:9.72"/>
	<line x1="1350.68" y1="2156.46" x2="1415.48" y2="2156.46" style="stroke:#EAF2F3;stroke-width:9.72"/>
	<line x1="1447.88" y1="2156.46" x2="1512.68" y2="2156.46" style="stroke:#EAF2F3;stroke-width:9.72"/>
	<line x1="1545.08" y1="2156.46" x2="1609.88" y2="2156.46" style="stroke:#EAF2F3;stroke-width:9.72"/>
	<line x1="1642.28" y1="2156.46" x2="1707.08" y2="2156.46" style="stroke:#EAF2F3;stroke-width:9.72"/>
	<line x1="1739.48" y1="2156.46" x2="1804.28" y2="2156.46" style="stroke:#EAF2F3;stroke-width:9.72"/>
	<line x1="1836.68" y1="2156.46" x2="1901.48" y2="2156.46" style="stroke:#EAF2F3;stroke-width:9.72"/>
	<line x1="1933.88" y1="2156.46" x2="1998.68" y2="2156.46" style="stroke:#EAF2F3;stroke-width:9.72"/>
	<line x1="2031.08" y1="2156.46" x2="2095.88" y2="2156.46" style="stroke:#EAF2F3;stroke-width:9.72"/>
	<line x1="2128.28" y1="2156.46" x2="2193.07" y2="2156.46" style="stroke:#EAF2F3;stroke-width:9.72"/>
	<line x1="2225.48" y1="2156.46" x2="2290.28" y2="2156.46" style="stroke:#EAF2F3;stroke-width:9.72"/>
	<line x1="2322.68" y1="2156.46" x2="2387.48" y2="2156.46" style="stroke:#EAF2F3;stroke-width:9.72"/>
	<line x1="2419.88" y1="2156.46" x2="2484.68" y2="2156.46" style="stroke:#EAF2F3;stroke-width:9.72"/>
	<line x1="2517.07" y1="2156.46" x2="2581.88" y2="2156.46" style="stroke:#EAF2F3;stroke-width:9.72"/>
	<line x1="2614.28" y1="2156.46" x2="2679.08" y2="2156.46" style="stroke:#EAF2F3;stroke-width:9.72"/>
	<line x1="2711.48" y1="2156.46" x2="2776.28" y2="2156.46" style="stroke:#EAF2F3;stroke-width:9.72"/>
	<line x1="2808.68" y1="2156.46" x2="2873.48" y2="2156.46" style="stroke:#EAF2F3;stroke-width:9.72"/>
	<line x1="2905.88" y1="2156.46" x2="2970.68" y2="2156.46" style="stroke:#EAF2F3;stroke-width:9.72"/>
	<line x1="3003.08" y1="2156.46" x2="3067.88" y2="2156.46" style="stroke:#EAF2F3;stroke-width:9.72"/>
	<line x1="3100.28" y1="2156.46" x2="3165.08" y2="2156.46" style="stroke:#EAF2F3;stroke-width:9.72"/>
	<line x1="3197.48" y1="2156.46" x2="3262.28" y2="2156.46" style="stroke:#EAF2F3;stroke-width:9.72"/>
	<line x1="3294.68" y1="2156.46" x2="3359.48" y2="2156.46" style="stroke:#EAF2F3;stroke-width:9.72"/>
	<line x1="3391.88" y1="2156.46" x2="3456.68" y2="2156.46" style="stroke:#EAF2F3;stroke-width:9.72"/>
	<line x1="3489.08" y1="2156.46" x2="3553.88" y2="2156.46" style="stroke:#EAF2F3;stroke-width:9.72"/>
	<line x1="3586.28" y1="2156.46" x2="3651.08" y2="2156.46" style="stroke:#EAF2F3;stroke-width:9.72"/>
	<line x1="3683.48" y1="2156.46" x2="3748.28" y2="2156.46" style="stroke:#EAF2F3;stroke-width:9.72"/>
	<line x1="3780.68" y1="2156.46" x2="3845.48" y2="2156.46" style="stroke:#EAF2F3;stroke-width:9.72"/>
	<line x1="3877.88" y1="2156.46" x2="3942.68" y2="2156.46" style="stroke:#EAF2F3;stroke-width:9.72"/>
	<line x1="3975.08" y1="2156.46" x2="4039.88" y2="2156.46" style="stroke:#EAF2F3;stroke-width:9.72"/>
	<line x1="4072.28" y1="2156.46" x2="4137.08" y2="2156.46" style="stroke:#EAF2F3;stroke-width:9.72"/>
	<line x1="4169.48" y1="2156.46" x2="4172.34" y2="2156.46" style="stroke:#EAF2F3;stroke-width:9.72"/>
	<line x1="378.68" y1="1712.48" x2="443.48" y2="1712.48" style="stroke:#EAF2F3;stroke-width:9.72"/>
	<line x1="475.88" y1="1712.48" x2="540.67" y2="1712.48" style="stroke:#EAF2F3;stroke-width:9.72"/>
	<line x1="573.08" y1="1712.48" x2="637.88" y2="1712.48" style="stroke:#EAF2F3;stroke-width:9.72"/>
	<line x1="670.28" y1="1712.48" x2="735.08" y2="1712.48" style="stroke:#EAF2F3;stroke-width:9.72"/>
	<line x1="767.48" y1="1712.48" x2="832.28" y2="1712.48" style="stroke:#EAF2F3;stroke-width:9.72"/>
	<line x1="864.68" y1="1712.48" x2="929.48" y2="1712.48" style="stroke:#EAF2F3;stroke-width:9.72"/>
	<line x1="961.88" y1="1712.48" x2="1026.68" y2="1712.48" style="stroke:#EAF2F3;stroke-width:9.72"/>
	<line x1="1059.08" y1="1712.48" x2="1123.88" y2="1712.48" style="stroke:#EAF2F3;stroke-width:9.72"/>
	<line x1="1156.28" y1="1712.48" x2="1221.08" y2="1712.48" style="stroke:#EAF2F3;stroke-width:9.72"/>
	<line x1="1253.47" y1="1712.48" x2="1318.28" y2="1712.48" style="stroke:#EAF2F3;stroke-width:9.72"/>
	<line x1="1350.68" y1="1712.48" x2="1415.48" y2="1712.48" style="stroke:#EAF2F3;stroke-width:9.72"/>
	<line x1="1447.88" y1="1712.48" x2="1512.68" y2="1712.48" style="stroke:#EAF2F3;stroke-width:9.72"/>
	<line x1="1545.08" y1="1712.48" x2="1609.88" y2="1712.48" style="stroke:#EAF2F3;stroke-width:9.72"/>
	<line x1="1642.28" y1="1712.48" x2="1707.08" y2="1712.48" style="stroke:#EAF2F3;stroke-width:9.72"/>
	<line x1="1739.48" y1="1712.48" x2="1804.28" y2="1712.48" style="stroke:#EAF2F3;stroke-width:9.72"/>
	<line x1="1836.68" y1="1712.48" x2="1901.48" y2="1712.48" style="stroke:#EAF2F3;stroke-width:9.72"/>
	<line x1="1933.88" y1="1712.48" x2="1998.68" y2="1712.48" style="stroke:#EAF2F3;stroke-width:9.72"/>
	<line x1="2031.08" y1="1712.48" x2="2095.88" y2="1712.48" style="stroke:#EAF2F3;stroke-width:9.72"/>
	<line x1="2128.28" y1="1712.48" x2="2193.07" y2="1712.48" style="stroke:#EAF2F3;stroke-width:9.72"/>
	<line x1="2225.48" y1="1712.48" x2="2290.28" y2="1712.48" style="stroke:#EAF2F3;stroke-width:9.72"/>
	<line x1="2322.68" y1="1712.48" x2="2387.48" y2="1712.48" style="stroke:#EAF2F3;stroke-width:9.72"/>
	<line x1="2419.88" y1="1712.48" x2="2484.68" y2="1712.48" style="stroke:#EAF2F3;stroke-width:9.72"/>
	<line x1="2517.07" y1="1712.48" x2="2581.88" y2="1712.48" style="stroke:#EAF2F3;stroke-width:9.72"/>
	<line x1="2614.28" y1="1712.48" x2="2679.08" y2="1712.48" style="stroke:#EAF2F3;stroke-width:9.72"/>
	<line x1="2711.48" y1="1712.48" x2="2776.28" y2="1712.48" style="stroke:#EAF2F3;stroke-width:9.72"/>
	<line x1="2808.68" y1="1712.48" x2="2873.48" y2="1712.48" style="stroke:#EAF2F3;stroke-width:9.72"/>
	<line x1="2905.88" y1="1712.48" x2="2970.68" y2="1712.48" style="stroke:#EAF2F3;stroke-width:9.72"/>
	<line x1="3003.08" y1="1712.48" x2="3067.88" y2="1712.48" style="stroke:#EAF2F3;stroke-width:9.72"/>
	<line x1="3100.28" y1="1712.48" x2="3165.08" y2="1712.48" style="stroke:#EAF2F3;stroke-width:9.72"/>
	<line x1="3197.48" y1="1712.48" x2="3262.28" y2="1712.48" style="stroke:#EAF2F3;stroke-width:9.72"/>
	<line x1="3294.68" y1="1712.48" x2="3359.48" y2="1712.48" style="stroke:#EAF2F3;stroke-width:9.72"/>
	<line x1="3391.88" y1="1712.48" x2="3456.68" y2="1712.48" style="stroke:#EAF2F3;stroke-width:9.72"/>
	<line x1="3489.08" y1="1712.48" x2="3553.88" y2="1712.48" style="stroke:#EAF2F3;stroke-width:9.72"/>
	<line x1="3586.28" y1="1712.48" x2="3651.08" y2="1712.48" style="stroke:#EAF2F3;stroke-width:9.72"/>
	<line x1="3683.48" y1="1712.48" x2="3748.28" y2="1712.48" style="stroke:#EAF2F3;stroke-width:9.72"/>
	<line x1="3780.68" y1="1712.48" x2="3845.48" y2="1712.48" style="stroke:#EAF2F3;stroke-width:9.72"/>
	<line x1="3877.88" y1="1712.48" x2="3942.68" y2="1712.48" style="stroke:#EAF2F3;stroke-width:9.72"/>
	<line x1="3975.08" y1="1712.48" x2="4039.88" y2="1712.48" style="stroke:#EAF2F3;stroke-width:9.72"/>
	<line x1="4072.28" y1="1712.48" x2="4137.08" y2="1712.48" style="stroke:#EAF2F3;stroke-width:9.72"/>
	<line x1="4169.48" y1="1712.48" x2="4172.34" y2="1712.48" style="stroke:#EAF2F3;stroke-width:9.72"/>
	<line x1="378.68" y1="1268.66" x2="443.48" y2="1268.66" style="stroke:#EAF2F3;stroke-width:9.72"/>
	<line x1="475.88" y1="1268.66" x2="540.67" y2="1268.66" style="stroke:#EAF2F3;stroke-width:9.72"/>
	<line x1="573.08" y1="1268.66" x2="637.88" y2="1268.66" style="stroke:#EAF2F3;stroke-width:9.72"/>
	<line x1="670.28" y1="1268.66" x2="735.08" y2="1268.66" style="stroke:#EAF2F3;stroke-width:9.72"/>
	<line x1="767.48" y1="1268.66" x2="832.28" y2="1268.66" style="stroke:#EAF2F3;stroke-width:9.72"/>
	<line x1="864.68" y1="1268.66" x2="929.48" y2="1268.66" style="stroke:#EAF2F3;stroke-width:9.72"/>
	<line x1="961.88" y1="1268.66" x2="1026.68" y2="1268.66" style="stroke:#EAF2F3;stroke-width:9.72"/>
	<line x1="1059.08" y1="1268.66" x2="1123.88" y2="1268.66" style="stroke:#EAF2F3;stroke-width:9.72"/>
	<line x1="1156.28" y1="1268.66" x2="1221.08" y2="1268.66" style="stroke:#EAF2F3;stroke-width:9.72"/>
	<line x1="1253.47" y1="1268.66" x2="1318.28" y2="1268.66" style="stroke:#EAF2F3;stroke-width:9.72"/>
	<line x1="1350.68" y1="1268.66" x2="1415.48" y2="1268.66" style="stroke:#EAF2F3;stroke-width:9.72"/>
	<line x1="1447.88" y1="1268.66" x2="1512.68" y2="1268.66" style="stroke:#EAF2F3;stroke-width:9.72"/>
	<line x1="1545.08" y1="1268.66" x2="1609.88" y2="1268.66" style="stroke:#EAF2F3;stroke-width:9.72"/>
	<line x1="1642.28" y1="1268.66" x2="1707.08" y2="1268.66" style="stroke:#EAF2F3;stroke-width:9.72"/>
	<line x1="1739.48" y1="1268.66" x2="1804.28" y2="1268.66" style="stroke:#EAF2F3;stroke-width:9.72"/>
	<line x1="1836.68" y1="1268.66" x2="1901.48" y2="1268.66" style="stroke:#EAF2F3;stroke-width:9.72"/>
	<line x1="1933.88" y1="1268.66" x2="1998.68" y2="1268.66" style="stroke:#EAF2F3;stroke-width:9.72"/>
	<line x1="2031.08" y1="1268.66" x2="2095.88" y2="1268.66" style="stroke:#EAF2F3;stroke-width:9.72"/>
	<line x1="2128.28" y1="1268.66" x2="2193.07" y2="1268.66" style="stroke:#EAF2F3;stroke-width:9.72"/>
	<line x1="2225.48" y1="1268.66" x2="2290.28" y2="1268.66" style="stroke:#EAF2F3;stroke-width:9.72"/>
	<line x1="2322.68" y1="1268.66" x2="2387.48" y2="1268.66" style="stroke:#EAF2F3;stroke-width:9.72"/>
	<line x1="2419.88" y1="1268.66" x2="2484.68" y2="1268.66" style="stroke:#EAF2F3;stroke-width:9.72"/>
	<line x1="2517.07" y1="1268.66" x2="2581.88" y2="1268.66" style="stroke:#EAF2F3;stroke-width:9.72"/>
	<line x1="2614.28" y1="1268.66" x2="2679.08" y2="1268.66" style="stroke:#EAF2F3;stroke-width:9.72"/>
	<line x1="2711.48" y1="1268.66" x2="2776.28" y2="1268.66" style="stroke:#EAF2F3;stroke-width:9.72"/>
	<line x1="2808.68" y1="1268.66" x2="2873.48" y2="1268.66" style="stroke:#EAF2F3;stroke-width:9.72"/>
	<line x1="2905.88" y1="1268.66" x2="2970.68" y2="1268.66" style="stroke:#EAF2F3;stroke-width:9.72"/>
	<line x1="3003.08" y1="1268.66" x2="3067.88" y2="1268.66" style="stroke:#EAF2F3;stroke-width:9.72"/>
	<line x1="3100.28" y1="1268.66" x2="3165.08" y2="1268.66" style="stroke:#EAF2F3;stroke-width:9.72"/>
	<line x1="3197.48" y1="1268.66" x2="3262.28" y2="1268.66" style="stroke:#EAF2F3;stroke-width:9.72"/>
	<line x1="3294.68" y1="1268.66" x2="3359.48" y2="1268.66" style="stroke:#EAF2F3;stroke-width:9.72"/>
	<line x1="3391.88" y1="1268.66" x2="3456.68" y2="1268.66" style="stroke:#EAF2F3;stroke-width:9.72"/>
	<line x1="3489.08" y1="1268.66" x2="3553.88" y2="1268.66" style="stroke:#EAF2F3;stroke-width:9.72"/>
	<line x1="3586.28" y1="1268.66" x2="3651.08" y2="1268.66" style="stroke:#EAF2F3;stroke-width:9.72"/>
	<line x1="3683.48" y1="1268.66" x2="3748.28" y2="1268.66" style="stroke:#EAF2F3;stroke-width:9.72"/>
	<line x1="3780.68" y1="1268.66" x2="3845.48" y2="1268.66" style="stroke:#EAF2F3;stroke-width:9.72"/>
	<line x1="3877.88" y1="1268.66" x2="3942.68" y2="1268.66" style="stroke:#EAF2F3;stroke-width:9.72"/>
	<line x1="3975.08" y1="1268.66" x2="4039.88" y2="1268.66" style="stroke:#EAF2F3;stroke-width:9.72"/>
	<line x1="4072.28" y1="1268.66" x2="4137.08" y2="1268.66" style="stroke:#EAF2F3;stroke-width:9.72"/>
	<line x1="4169.48" y1="1268.66" x2="4172.34" y2="1268.66" style="stroke:#EAF2F3;stroke-width:9.72"/>
	<line x1="378.68" y1="824.85" x2="443.48" y2="824.85" style="stroke:#EAF2F3;stroke-width:9.72"/>
	<line x1="475.88" y1="824.85" x2="540.67" y2="824.85" style="stroke:#EAF2F3;stroke-width:9.72"/>
	<line x1="573.08" y1="824.85" x2="637.88" y2="824.85" style="stroke:#EAF2F3;stroke-width:9.72"/>
	<line x1="670.28" y1="824.85" x2="735.08" y2="824.85" style="stroke:#EAF2F3;stroke-width:9.72"/>
	<line x1="767.48" y1="824.85" x2="832.28" y2="824.85" style="stroke:#EAF2F3;stroke-width:9.72"/>
	<line x1="864.68" y1="824.85" x2="929.48" y2="824.85" style="stroke:#EAF2F3;stroke-width:9.72"/>
	<line x1="961.88" y1="824.85" x2="1026.68" y2="824.85" style="stroke:#EAF2F3;stroke-width:9.72"/>
	<line x1="1059.08" y1="824.85" x2="1123.88" y2="824.85" style="stroke:#EAF2F3;stroke-width:9.72"/>
	<line x1="1156.28" y1="824.85" x2="1221.08" y2="824.85" style="stroke:#EAF2F3;stroke-width:9.72"/>
	<line x1="1253.47" y1="824.85" x2="1318.28" y2="824.85" style="stroke:#EAF2F3;stroke-width:9.72"/>
	<line x1="1350.68" y1="824.85" x2="1415.48" y2="824.85" style="stroke:#EAF2F3;stroke-width:9.72"/>
	<line x1="1447.88" y1="824.85" x2="1512.68" y2="824.85" style="stroke:#EAF2F3;stroke-width:9.72"/>
	<line x1="1545.08" y1="824.85" x2="1609.88" y2="824.85" style="stroke:#EAF2F3;stroke-width:9.72"/>
	<line x1="1642.28" y1="824.85" x2="1707.08" y2="824.85" style="stroke:#EAF2F3;stroke-width:9.72"/>
	<line x1="1739.48" y1="824.85" x2="1804.28" y2="824.85" style="stroke:#EAF2F3;stroke-width:9.72"/>
	<line x1="1836.68" y1="824.85" x2="1901.48" y2="824.85" style="stroke:#EAF2F3;stroke-width:9.72"/>
	<line x1="1933.88" y1="824.85" x2="1998.68" y2="824.85" style="stroke:#EAF2F3;stroke-width:9.72"/>
	<line x1="2031.08" y1="824.85" x2="2095.88" y2="824.85" style="stroke:#EAF2F3;stroke-width:9.72"/>
	<line x1="2128.28" y1="824.85" x2="2193.07" y2="824.85" style="stroke:#EAF2F3;stroke-width:9.72"/>
	<line x1="2225.48" y1="824.85" x2="2290.28" y2="824.85" style="stroke:#EAF2F3;stroke-width:9.72"/>
	<line x1="2322.68" y1="824.85" x2="2387.48" y2="824.85" style="stroke:#EAF2F3;stroke-width:9.72"/>
	<line x1="2419.88" y1="824.85" x2="2484.68" y2="824.85" style="stroke:#EAF2F3;stroke-width:9.72"/>
	<line x1="2517.07" y1="824.85" x2="2581.88" y2="824.85" style="stroke:#EAF2F3;stroke-width:9.72"/>
	<line x1="2614.28" y1="824.85" x2="2679.08" y2="824.85" style="stroke:#EAF2F3;stroke-width:9.72"/>
	<line x1="2711.48" y1="824.85" x2="2776.28" y2="824.85" style="stroke:#EAF2F3;stroke-width:9.72"/>
	<line x1="2808.68" y1="824.85" x2="2873.48" y2="824.85" style="stroke:#EAF2F3;stroke-width:9.72"/>
	<line x1="2905.88" y1="824.85" x2="2970.68" y2="824.85" style="stroke:#EAF2F3;stroke-width:9.72"/>
	<line x1="3003.08" y1="824.85" x2="3067.88" y2="824.85" style="stroke:#EAF2F3;stroke-width:9.72"/>
	<line x1="3100.28" y1="824.85" x2="3165.08" y2="824.85" style="stroke:#EAF2F3;stroke-width:9.72"/>
	<line x1="3197.48" y1="824.85" x2="3262.28" y2="824.85" style="stroke:#EAF2F3;stroke-width:9.72"/>
	<line x1="3294.68" y1="824.85" x2="3359.48" y2="824.85" style="stroke:#EAF2F3;stroke-width:9.72"/>
	<line x1="3391.88" y1="824.85" x2="3456.68" y2="824.85" style="stroke:#EAF2F3;stroke-width:9.72"/>
	<line x1="3489.08" y1="824.85" x2="3553.88" y2="824.85" style="stroke:#EAF2F3;stroke-width:9.72"/>
	<line x1="3586.28" y1="824.85" x2="3651.08" y2="824.85" style="stroke:#EAF2F3;stroke-width:9.72"/>
	<line x1="3683.48" y1="824.85" x2="3748.28" y2="824.85" style="stroke:#EAF2F3;stroke-width:9.72"/>
	<line x1="3780.68" y1="824.85" x2="3845.48" y2="824.85" style="stroke:#EAF2F3;stroke-width:9.72"/>
	<line x1="3877.88" y1="824.85" x2="3942.68" y2="824.85" style="stroke:#EAF2F3;stroke-width:9.72"/>
	<line x1="3975.08" y1="824.85" x2="4039.88" y2="824.85" style="stroke:#EAF2F3;stroke-width:9.72"/>
	<line x1="4072.28" y1="824.85" x2="4137.08" y2="824.85" style="stroke:#EAF2F3;stroke-width:9.72"/>
	<line x1="4169.48" y1="824.85" x2="4172.34" y2="824.85" style="stroke:#EAF2F3;stroke-width:9.72"/>
	<line x1="378.68" y1="381.04" x2="443.48" y2="381.04" style="stroke:#EAF2F3;stroke-width:9.72"/>
	<line x1="475.88" y1="381.04" x2="540.67" y2="381.04" style="stroke:#EAF2F3;stroke-width:9.72"/>
	<line x1="573.08" y1="381.04" x2="637.88" y2="381.04" style="stroke:#EAF2F3;stroke-width:9.72"/>
	<line x1="670.28" y1="381.04" x2="735.08" y2="381.04" style="stroke:#EAF2F3;stroke-width:9.72"/>
	<line x1="767.48" y1="381.04" x2="832.28" y2="381.04" style="stroke:#EAF2F3;stroke-width:9.72"/>
	<line x1="864.68" y1="381.04" x2="929.48" y2="381.04" style="stroke:#EAF2F3;stroke-width:9.72"/>
	<line x1="961.88" y1="381.04" x2="1026.68" y2="381.04" style="stroke:#EAF2F3;stroke-width:9.72"/>
	<line x1="1059.08" y1="381.04" x2="1123.88" y2="381.04" style="stroke:#EAF2F3;stroke-width:9.72"/>
	<line x1="1156.28" y1="381.04" x2="1221.08" y2="381.04" style="stroke:#EAF2F3;stroke-width:9.72"/>
	<line x1="1253.47" y1="381.04" x2="1318.28" y2="381.04" style="stroke:#EAF2F3;stroke-width:9.72"/>
	<line x1="1350.68" y1="381.04" x2="1415.48" y2="381.04" style="stroke:#EAF2F3;stroke-width:9.72"/>
	<line x1="1447.88" y1="381.04" x2="1512.68" y2="381.04" style="stroke:#EAF2F3;stroke-width:9.72"/>
	<line x1="1545.08" y1="381.04" x2="1609.88" y2="381.04" style="stroke:#EAF2F3;stroke-width:9.72"/>
	<line x1="1642.28" y1="381.04" x2="1707.08" y2="381.04" style="stroke:#EAF2F3;stroke-width:9.72"/>
	<line x1="1739.48" y1="381.04" x2="1804.28" y2="381.04" style="stroke:#EAF2F3;stroke-width:9.72"/>
	<line x1="1836.68" y1="381.04" x2="1901.48" y2="381.04" style="stroke:#EAF2F3;stroke-width:9.72"/>
	<line x1="1933.88" y1="381.04" x2="1998.68" y2="381.04" style="stroke:#EAF2F3;stroke-width:9.72"/>
	<line x1="2031.08" y1="381.04" x2="2095.88" y2="381.04" style="stroke:#EAF2F3;stroke-width:9.72"/>
	<line x1="2128.28" y1="381.04" x2="2193.07" y2="381.04" style="stroke:#EAF2F3;stroke-width:9.72"/>
	<line x1="2225.48" y1="381.04" x2="2290.28" y2="381.04" style="stroke:#EAF2F3;stroke-width:9.72"/>
	<line x1="2322.68" y1="381.04" x2="2387.48" y2="381.04" style="stroke:#EAF2F3;stroke-width:9.72"/>
	<line x1="2419.88" y1="381.04" x2="2484.68" y2="381.04" style="stroke:#EAF2F3;stroke-width:9.72"/>
	<line x1="2517.07" y1="381.04" x2="2581.88" y2="381.04" style="stroke:#EAF2F3;stroke-width:9.72"/>
	<line x1="2614.28" y1="381.04" x2="2679.08" y2="381.04" style="stroke:#EAF2F3;stroke-width:9.72"/>
	<line x1="2711.48" y1="381.04" x2="2776.28" y2="381.04" style="stroke:#EAF2F3;stroke-width:9.72"/>
	<line x1="2808.68" y1="381.04" x2="2873.48" y2="381.04" style="stroke:#EAF2F3;stroke-width:9.72"/>
	<line x1="2905.88" y1="381.04" x2="2970.68" y2="381.04" style="stroke:#EAF2F3;stroke-width:9.72"/>
	<line x1="3003.08" y1="381.04" x2="3067.88" y2="381.04" style="stroke:#EAF2F3;stroke-width:9.72"/>
	<line x1="3100.28" y1="381.04" x2="3165.08" y2="381.04" style="stroke:#EAF2F3;stroke-width:9.72"/>
	<line x1="3197.48" y1="381.04" x2="3262.28" y2="381.04" style="stroke:#EAF2F3;stroke-width:9.72"/>
	<line x1="3294.68" y1="381.04" x2="3359.48" y2="381.04" style="stroke:#EAF2F3;stroke-width:9.72"/>
	<line x1="3391.88" y1="381.04" x2="3456.68" y2="381.04" style="stroke:#EAF2F3;stroke-width:9.72"/>
	<line x1="3489.08" y1="381.04" x2="3553.88" y2="381.04" style="stroke:#EAF2F3;stroke-width:9.72"/>
	<line x1="3586.28" y1="381.04" x2="3651.08" y2="381.04" style="stroke:#EAF2F3;stroke-width:9.72"/>
	<line x1="3683.48" y1="381.04" x2="3748.28" y2="381.04" style="stroke:#EAF2F3;stroke-width:9.72"/>
	<line x1="3780.68" y1="381.04" x2="3845.48" y2="381.04" style="stroke:#EAF2F3;stroke-width:9.72"/>
	<line x1="3877.88" y1="381.04" x2="3942.68" y2="381.04" style="stroke:#EAF2F3;stroke-width:9.72"/>
	<line x1="3975.08" y1="381.04" x2="4039.88" y2="381.04" style="stroke:#EAF2F3;stroke-width:9.72"/>
	<line x1="4072.28" y1="381.04" x2="4137.08" y2="381.04" style="stroke:#EAF2F3;stroke-width:9.72"/>
	<line x1="4169.48" y1="381.04" x2="4172.34" y2="381.04" style="stroke:#EAF2F3;stroke-width:9.72"/>
	<line x1="450.06" y1="2671.48" x2="450.06" y2="2606.68" style="stroke:#EAF2F3;stroke-width:9.72"/>
	<line x1="450.06" y1="2574.28" x2="450.06" y2="2509.48" style="stroke:#EAF2F3;stroke-width:9.72"/>
	<line x1="450.06" y1="2477.08" x2="450.06" y2="2412.28" style="stroke:#EAF2F3;stroke-width:9.72"/>
	<line x1="450.06" y1="2379.88" x2="450.06" y2="2315.08" style="stroke:#EAF2F3;stroke-width:9.72"/>
	<line x1="450.06" y1="2282.68" x2="450.06" y2="2217.88" style="stroke:#EAF2F3;stroke-width:9.72"/>
	<line x1="450.06" y1="2185.48" x2="450.06" y2="2120.68" style="stroke:#EAF2F3;stroke-width:9.72"/>
	<line x1="450.06" y1="2088.28" x2="450.06" y2="2023.48" style="stroke:#EAF2F3;stroke-width:9.72"/>
	<line x1="450.06" y1="1991.08" x2="450.06" y2="1926.28" style="stroke:#EAF2F3;stroke-width:9.72"/>
	<line x1="450.06" y1="1893.88" x2="450.06" y2="1829.08" style="stroke:#EAF2F3;stroke-width:9.72"/>
	<line x1="450.06" y1="1796.68" x2="450.06" y2="1731.88" style="stroke:#EAF2F3;stroke-width:9.72"/>
	<line x1="450.06" y1="1699.48" x2="450.06" y2="1634.68" style="stroke:#EAF2F3;stroke-width:9.72"/>
	<line x1="450.06" y1="1602.28" x2="450.06" y2="1537.48" style="stroke:#EAF2F3;stroke-width:9.72"/>
	<line x1="450.06" y1="1505.08" x2="450.06" y2="1440.28" style="stroke:#EAF2F3;stroke-width:9.72"/>
	<line x1="450.06" y1="1407.88" x2="450.06" y2="1343.08" style="stroke:#EAF2F3;stroke-width:9.72"/>
	<line x1="450.06" y1="1310.68" x2="450.06" y2="1245.88" style="stroke:#EAF2F3;stroke-width:9.72"/>
	<line x1="450.06" y1="1213.48" x2="450.06" y2="1148.68" style="stroke:#EAF2F3;stroke-width:9.72"/>
	<line x1="450.06" y1="1116.28" x2="450.06" y2="1051.48" style="stroke:#EAF2F3;stroke-width:9.72"/>
	<line x1="450.06" y1="1019.08" x2="450.06" y2="954.28" style="stroke:#EAF2F3;stroke-width:9.72"/>
	<line x1="450.06" y1="921.88" x2="450.06" y2="857.08" style="stroke:#EAF2F3;stroke-width:9.72"/>
	<line x1="450.06" y1="824.68" x2="450.06" y2="759.88" style="stroke:#EAF2F3;stroke-width:9.72"/>
	<line x1="450.06" y1="727.48" x2="450.06" y2="662.68" style="stroke:#EAF2F3;stroke-width:9.72"/>
	<line x1="450.06" y1="630.28" x2="450.06" y2="565.48" style="stroke:#EAF2F3;stroke-width:9.72"/>
	<line x1="450.06" y1="533.08" x2="450.06" y2="468.28" style="stroke:#EAF2F3;stroke-width:9.72"/>
	<line x1="450.06" y1="435.88" x2="450.06" y2="371.08" style="stroke:#EAF2F3;stroke-width:9.72"/>
	<line x1="450.06" y1="338.68" x2="450.06" y2="309.82" style="stroke:#EAF2F3;stroke-width:9.72"/>
	<line x1="1180.24" y1="2671.48" x2="1180.24" y2="2606.68" style="stroke:#EAF2F3;stroke-width:9.72"/>
	<line x1="1180.24" y1="2574.28" x2="1180.24" y2="2509.48" style="stroke:#EAF2F3;stroke-width:9.72"/>
	<line x1="1180.24" y1="2477.08" x2="1180.24" y2="2412.28" style="stroke:#EAF2F3;stroke-width:9.72"/>
	<line x1="1180.24" y1="2379.88" x2="1180.24" y2="2315.08" style="stroke:#EAF2F3;stroke-width:9.72"/>
	<line x1="1180.24" y1="2282.68" x2="1180.24" y2="2217.88" style="stroke:#EAF2F3;stroke-width:9.72"/>
	<line x1="1180.24" y1="2185.48" x2="1180.24" y2="2120.68" style="stroke:#EAF2F3;stroke-width:9.72"/>
	<line x1="1180.24" y1="2088.28" x2="1180.24" y2="2023.48" style="stroke:#EAF2F3;stroke-width:9.72"/>
	<line x1="1180.24" y1="1991.08" x2="1180.24" y2="1926.28" style="stroke:#EAF2F3;stroke-width:9.72"/>
	<line x1="1180.24" y1="1893.88" x2="1180.24" y2="1829.08" style="stroke:#EAF2F3;stroke-width:9.72"/>
	<line x1="1180.24" y1="1796.68" x2="1180.24" y2="1731.88" style="stroke:#EAF2F3;stroke-width:9.72"/>
	<line x1="1180.24" y1="1699.48" x2="1180.24" y2="1634.68" style="stroke:#EAF2F3;stroke-width:9.72"/>
	<line x1="1180.24" y1="1602.28" x2="1180.24" y2="1537.48" style="stroke:#EAF2F3;stroke-width:9.72"/>
	<line x1="1180.24" y1="1505.08" x2="1180.24" y2="1440.28" style="stroke:#EAF2F3;stroke-width:9.72"/>
	<line x1="1180.24" y1="1407.88" x2="1180.24" y2="1343.08" style="stroke:#EAF2F3;stroke-width:9.72"/>
	<line x1="1180.24" y1="1310.68" x2="1180.24" y2="1245.88" style="stroke:#EAF2F3;stroke-width:9.72"/>
	<line x1="1180.24" y1="1213.48" x2="1180.24" y2="1148.68" style="stroke:#EAF2F3;stroke-width:9.72"/>
	<line x1="1180.24" y1="1116.28" x2="1180.24" y2="1051.48" style="stroke:#EAF2F3;stroke-width:9.72"/>
	<line x1="1180.24" y1="1019.08" x2="1180.24" y2="954.28" style="stroke:#EAF2F3;stroke-width:9.72"/>
	<line x1="1180.24" y1="921.88" x2="1180.24" y2="857.08" style="stroke:#EAF2F3;stroke-width:9.72"/>
	<line x1="1180.24" y1="824.68" x2="1180.24" y2="759.88" style="stroke:#EAF2F3;stroke-width:9.72"/>
	<line x1="1180.24" y1="727.48" x2="1180.24" y2="662.68" style="stroke:#EAF2F3;stroke-width:9.72"/>
	<line x1="1180.24" y1="630.28" x2="1180.24" y2="565.48" style="stroke:#EAF2F3;stroke-width:9.72"/>
	<line x1="1180.24" y1="533.08" x2="1180.24" y2="468.28" style="stroke:#EAF2F3;stroke-width:9.72"/>
	<line x1="1180.24" y1="435.88" x2="1180.24" y2="371.08" style="stroke:#EAF2F3;stroke-width:9.72"/>
	<line x1="1180.24" y1="338.68" x2="1180.24" y2="309.82" style="stroke:#EAF2F3;stroke-width:9.72"/>
	<line x1="1910.42" y1="2671.48" x2="1910.42" y2="2606.68" style="stroke:#EAF2F3;stroke-width:9.72"/>
	<line x1="1910.42" y1="2574.28" x2="1910.42" y2="2509.48" style="stroke:#EAF2F3;stroke-width:9.72"/>
	<line x1="1910.42" y1="2477.08" x2="1910.42" y2="2412.28" style="stroke:#EAF2F3;stroke-width:9.72"/>
	<line x1="1910.42" y1="2379.88" x2="1910.42" y2="2315.08" style="stroke:#EAF2F3;stroke-width:9.72"/>
	<line x1="1910.42" y1="2282.68" x2="1910.42" y2="2217.88" style="stroke:#EAF2F3;stroke-width:9.72"/>
	<line x1="1910.42" y1="2185.48" x2="1910.42" y2="2120.68" style="stroke:#EAF2F3;stroke-width:9.72"/>
	<line x1="1910.42" y1="2088.28" x2="1910.42" y2="2023.48" style="stroke:#EAF2F3;stroke-width:9.72"/>
	<line x1="1910.42" y1="1991.08" x2="1910.42" y2="1926.28" style="stroke:#EAF2F3;stroke-width:9.72"/>
	<line x1="1910.42" y1="1893.88" x2="1910.42" y2="1829.08" style="stroke:#EAF2F3;stroke-width:9.72"/>
	<line x1="1910.42" y1="1796.68" x2="1910.42" y2="1731.88" style="stroke:#EAF2F3;stroke-width:9.72"/>
	<line x1="1910.42" y1="1699.48" x2="1910.42" y2="1634.68" style="stroke:#EAF2F3;stroke-width:9.72"/>
	<line x1="1910.42" y1="1602.28" x2="1910.42" y2="1537.48" style="stroke:#EAF2F3;stroke-width:9.72"/>
	<line x1="1910.42" y1="1505.08" x2="1910.42" y2="1440.28" style="stroke:#EAF2F3;stroke-width:9.72"/>
	<line x1="1910.42" y1="1407.88" x2="1910.42" y2="1343.08" style="stroke:#EAF2F3;stroke-width:9.72"/>
	<line x1="1910.42" y1="1310.68" x2="1910.42" y2="1245.88" style="stroke:#EAF2F3;stroke-width:9.72"/>
	<line x1="1910.42" y1="1213.48" x2="1910.42" y2="1148.68" style="stroke:#EAF2F3;stroke-width:9.72"/>
	<line x1="1910.42" y1="1116.28" x2="1910.42" y2="1051.48" style="stroke:#EAF2F3;stroke-width:9.72"/>
	<line x1="1910.42" y1="1019.08" x2="1910.42" y2="954.28" style="stroke:#EAF2F3;stroke-width:9.72"/>
	<line x1="1910.42" y1="921.88" x2="1910.42" y2="857.08" style="stroke:#EAF2F3;stroke-width:9.72"/>
	<line x1="1910.42" y1="824.68" x2="1910.42" y2="759.88" style="stroke:#EAF2F3;stroke-width:9.72"/>
	<line x1="1910.42" y1="727.48" x2="1910.42" y2="662.68" style="stroke:#EAF2F3;stroke-width:9.72"/>
	<line x1="1910.42" y1="630.28" x2="1910.42" y2="565.48" style="stroke:#EAF2F3;stroke-width:9.72"/>
	<line x1="1910.42" y1="533.08" x2="1910.42" y2="468.28" style="stroke:#EAF2F3;stroke-width:9.72"/>
	<line x1="1910.42" y1="435.88" x2="1910.42" y2="371.08" style="stroke:#EAF2F3;stroke-width:9.72"/>
	<line x1="1910.42" y1="338.68" x2="1910.42" y2="309.82" style="stroke:#EAF2F3;stroke-width:9.72"/>
	<line x1="2640.60" y1="2671.48" x2="2640.60" y2="2606.68" style="stroke:#EAF2F3;stroke-width:9.72"/>
	<line x1="2640.60" y1="2574.28" x2="2640.60" y2="2509.48" style="stroke:#EAF2F3;stroke-width:9.72"/>
	<line x1="2640.60" y1="2477.08" x2="2640.60" y2="2412.28" style="stroke:#EAF2F3;stroke-width:9.72"/>
	<line x1="2640.60" y1="2379.88" x2="2640.60" y2="2315.08" style="stroke:#EAF2F3;stroke-width:9.72"/>
	<line x1="2640.60" y1="2282.68" x2="2640.60" y2="2217.88" style="stroke:#EAF2F3;stroke-width:9.72"/>
	<line x1="2640.60" y1="2185.48" x2="2640.60" y2="2120.68" style="stroke:#EAF2F3;stroke-width:9.72"/>
	<line x1="2640.60" y1="2088.28" x2="2640.60" y2="2023.48" style="stroke:#EAF2F3;stroke-width:9.72"/>
	<line x1="2640.60" y1="1991.08" x2="2640.60" y2="1926.28" style="stroke:#EAF2F3;stroke-width:9.72"/>
	<line x1="2640.60" y1="1893.88" x2="2640.60" y2="1829.08" style="stroke:#EAF2F3;stroke-width:9.72"/>
	<line x1="2640.60" y1="1796.68" x2="2640.60" y2="1731.88" style="stroke:#EAF2F3;stroke-width:9.72"/>
	<line x1="2640.60" y1="1699.48" x2="2640.60" y2="1634.68" style="stroke:#EAF2F3;stroke-width:9.72"/>
	<line x1="2640.60" y1="1602.28" x2="2640.60" y2="1537.48" style="stroke:#EAF2F3;stroke-width:9.72"/>
	<line x1="2640.60" y1="1505.08" x2="2640.60" y2="1440.28" style="stroke:#EAF2F3;stroke-width:9.72"/>
	<line x1="2640.60" y1="1407.88" x2="2640.60" y2="1343.08" style="stroke:#EAF2F3;stroke-width:9.72"/>
	<line x1="2640.60" y1="1310.68" x2="2640.60" y2="1245.88" style="stroke:#EAF2F3;stroke-width:9.72"/>
	<line x1="2640.60" y1="1213.48" x2="2640.60" y2="1148.68" style="stroke:#EAF2F3;stroke-width:9.72"/>
	<line x1="2640.60" y1="1116.28" x2="2640.60" y2="1051.48" style="stroke:#EAF2F3;stroke-width:9.72"/>
	<line x1="2640.60" y1="1019.08" x2="2640.60" y2="954.28" style="stroke:#EAF2F3;stroke-width:9.72"/>
	<line x1="2640.60" y1="921.88" x2="2640.60" y2="857.08" style="stroke:#EAF2F3;stroke-width:9.72"/>
	<line x1="2640.60" y1="824.68" x2="2640.60" y2="759.88" style="stroke:#EAF2F3;stroke-width:9.72"/>
	<line x1="2640.60" y1="727.48" x2="2640.60" y2="662.68" style="stroke:#EAF2F3;stroke-width:9.72"/>
	<line x1="2640.60" y1="630.28" x2="2640.60" y2="565.48" style="stroke:#EAF2F3;stroke-width:9.72"/>
	<line x1="2640.60" y1="533.08" x2="2640.60" y2="468.28" style="stroke:#EAF2F3;stroke-width:9.72"/>
	<line x1="2640.60" y1="435.88" x2="2640.60" y2="371.08" style="stroke:#EAF2F3;stroke-width:9.72"/>
	<line x1="2640.60" y1="338.68" x2="2640.60" y2="309.82" style="stroke:#EAF2F3;stroke-width:9.72"/>
	<line x1="3370.78" y1="2671.48" x2="3370.78" y2="2606.68" style="stroke:#EAF2F3;stroke-width:9.72"/>
	<line x1="3370.78" y1="2574.28" x2="3370.78" y2="2509.48" style="stroke:#EAF2F3;stroke-width:9.72"/>
	<line x1="3370.78" y1="2477.08" x2="3370.78" y2="2412.28" style="stroke:#EAF2F3;stroke-width:9.72"/>
	<line x1="3370.78" y1="2379.88" x2="3370.78" y2="2315.08" style="stroke:#EAF2F3;stroke-width:9.72"/>
	<line x1="3370.78" y1="2282.68" x2="3370.78" y2="2217.88" style="stroke:#EAF2F3;stroke-width:9.72"/>
	<line x1="3370.78" y1="2185.48" x2="3370.78" y2="2120.68" style="stroke:#EAF2F3;stroke-width:9.72"/>
	<line x1="3370.78" y1="2088.28" x2="3370.78" y2="2023.48" style="stroke:#EAF2F3;stroke-width:9.72"/>
	<line x1="3370.78" y1="1991.08" x2="3370.78" y2="1926.28" style="stroke:#EAF2F3;stroke-width:9.72"/>
	<line x1="3370.78" y1="1893.88" x2="3370.78" y2="1829.08" style="stroke:#EAF2F3;stroke-width:9.72"/>
	<line x1="3370.78" y1="1796.68" x2="3370.78" y2="1731.88" style="stroke:#EAF2F3;stroke-width:9.72"/>
	<line x1="3370.78" y1="1699.48" x2="3370.78" y2="1634.68" style="stroke:#EAF2F3;stroke-width:9.72"/>
	<line x1="3370.78" y1="1602.28" x2="3370.78" y2="1537.48" style="stroke:#EAF2F3;stroke-width:9.72"/>
	<line x1="3370.78" y1="1505.08" x2="3370.78" y2="1440.28" style="stroke:#EAF2F3;stroke-width:9.72"/>
	<line x1="3370.78" y1="1407.88" x2="3370.78" y2="1343.08" style="stroke:#EAF2F3;stroke-width:9.72"/>
	<line x1="3370.78" y1="1310.68" x2="3370.78" y2="1245.88" style="stroke:#EAF2F3;stroke-width:9.72"/>
	<line x1="3370.78" y1="1213.48" x2="3370.78" y2="1148.68" style="stroke:#EAF2F3;stroke-width:9.72"/>
	<line x1="3370.78" y1="1116.28" x2="3370.78" y2="1051.48" style="stroke:#EAF2F3;stroke-width:9.72"/>
	<line x1="3370.78" y1="1019.08" x2="3370.78" y2="954.28" style="stroke:#EAF2F3;stroke-width:9.72"/>
	<line x1="3370.78" y1="921.88" x2="3370.78" y2="857.08" style="stroke:#EAF2F3;stroke-width:9.72"/>
	<line x1="3370.78" y1="824.68" x2="3370.78" y2="759.88" style="stroke:#EAF2F3;stroke-width:9.72"/>
	<line x1="3370.78" y1="727.48" x2="3370.78" y2="662.68" style="stroke:#EAF2F3;stroke-width:9.72"/>
	<line x1="3370.78" y1="630.28" x2="3370.78" y2="565.48" style="stroke:#EAF2F3;stroke-width:9.72"/>
	<line x1="3370.78" y1="533.08" x2="3370.78" y2="468.28" style="stroke:#EAF2F3;stroke-width:9.72"/>
	<line x1="3370.78" y1="435.88" x2="3370.78" y2="371.08" style="stroke:#EAF2F3;stroke-width:9.72"/>
	<line x1="3370.78" y1="338.68" x2="3370.78" y2="309.82" style="stroke:#EAF2F3;stroke-width:9.72"/>
	<line x1="4100.96" y1="2671.48" x2="4100.96" y2="2606.68" style="stroke:#EAF2F3;stroke-width:9.72"/>
	<line x1="4100.96" y1="2574.28" x2="4100.96" y2="2509.48" style="stroke:#EAF2F3;stroke-width:9.72"/>
	<line x1="4100.96" y1="2477.08" x2="4100.96" y2="2412.28" style="stroke:#EAF2F3;stroke-width:9.72"/>
	<line x1="4100.96" y1="2379.88" x2="4100.96" y2="2315.08" style="stroke:#EAF2F3;stroke-width:9.72"/>
	<line x1="4100.96" y1="2282.68" x2="4100.96" y2="2217.88" style="stroke:#EAF2F3;stroke-width:9.72"/>
	<line x1="4100.96" y1="2185.48" x2="4100.96" y2="2120.68" style="stroke:#EAF2F3;stroke-width:9.72"/>
	<line x1="4100.96" y1="2088.28" x2="4100.96" y2="2023.48" style="stroke:#EAF2F3;stroke-width:9.72"/>
	<line x1="4100.96" y1="1991.08" x2="4100.96" y2="1926.28" style="stroke:#EAF2F3;stroke-width:9.72"/>
	<line x1="4100.96" y1="1893.88" x2="4100.96" y2="1829.08" style="stroke:#EAF2F3;stroke-width:9.72"/>
	<line x1="4100.96" y1="1796.68" x2="4100.96" y2="1731.88" style="stroke:#EAF2F3;stroke-width:9.72"/>
	<line x1="4100.96" y1="1699.48" x2="4100.96" y2="1634.68" style="stroke:#EAF2F3;stroke-width:9.72"/>
	<line x1="4100.96" y1="1602.28" x2="4100.96" y2="1537.48" style="stroke:#EAF2F3;stroke-width:9.72"/>
	<line x1="4100.96" y1="1505.08" x2="4100.96" y2="1440.28" style="stroke:#EAF2F3;stroke-width:9.72"/>
	<line x1="4100.96" y1="1407.88" x2="4100.96" y2="1343.08" style="stroke:#EAF2F3;stroke-width:9.72"/>
	<line x1="4100.96" y1="1310.68" x2="4100.96" y2="1245.88" style="stroke:#EAF2F3;stroke-width:9.72"/>
	<line x1="4100.96" y1="1213.48" x2="4100.96" y2="1148.68" style="stroke:#EAF2F3;stroke-width:9.72"/>
	<line x1="4100.96" y1="1116.28" x2="4100.96" y2="1051.48" style="stroke:#EAF2F3;stroke-width:9.72"/>
	<line x1="4100.96" y1="1019.08" x2="4100.96" y2="954.28" style="stroke:#EAF2F3;stroke-width:9.72"/>
	<line x1="4100.96" y1="921.88" x2="4100.96" y2="857.08" style="stroke:#EAF2F3;stroke-width:9.72"/>
	<line x1="4100.96" y1="824.68" x2="4100.96" y2="759.88" style="stroke:#EAF2F3;stroke-width:9.72"/>
	<line x1="4100.96" y1="727.48" x2="4100.96" y2="662.68" style="stroke:#EAF2F3;stroke-width:9.72"/>
	<line x1="4100.96" y1="630.28" x2="4100.96" y2="565.48" style="stroke:#EAF2F3;stroke-width:9.72"/>
	<line x1="4100.96" y1="533.08" x2="4100.96" y2="468.28" style="stroke:#EAF2F3;stroke-width:9.72"/>
	<line x1="4100.96" y1="435.88" x2="4100.96" y2="371.08" style="stroke:#EAF2F3;stroke-width:9.72"/>
	<line x1="4100.96" y1="338.68" x2="4100.96" y2="309.82" style="stroke:#EAF2F3;stroke-width:9.72"/>
	<path d=" M449.89 1770.36 L486.34 1668.26 L522.96 1544.06 L559.41 1601.61 L596.03 1734.75 L632.48 1685.98 L668.93 1650.54 L705.54 1694.93 L741.99 1566.17 L778.44 1526.18 L815.06 1623.88 L851.51 1495.13 L887.96 1437.41 L924.58 1459.69 L961.03 1379.70 L997.48 1379.70 L1034.10 1481.79 L1070.55 1477.41 L1107.00 2014.37 L1143.62 1384.26 L1180.07 1464.08 L1216.69 1140.07 L1253.14 1184.46 L1289.59 1286.55 L1326.21 1117.97 L1362.66 1162.35 L1399.11 1286.55 L1435.73 1095.69 L1472.18 1268.83 L1508.63 1255.50 L1545.24 1113.41 L1581.69 1060.26 L1618.14 1069.03 L1654.76 989.21 L1691.21 1064.64 L1727.83 1046.93 L1764.28 1184.46 L1800.73 1100.08 L1837.35 966.94 L1873.80 975.88 L1910.25 975.88 L1946.87 891.51 L1983.32 851.68 L2019.77 1015.88 L2056.39 896.06 L2092.84 847.13 L2129.29 811.69 L2165.91 802.74 L2202.36 780.64 L2238.98 740.64 L2275.43 727.31 L2311.88 718.54 L2348.49 709.59 L2384.94 691.88 L2421.39 660.82 L2458.01 660.82 L2494.46 651.88 L2530.91 660.82 L2567.53 651.88 L2603.98 638.55 L2640.43 642.94 L2677.05 620.83 L2713.50 625.22 L2750.12 629.61 L2786.57 616.44 L2823.02 611.89 L2859.64 611.89 L2896.09 594.17 L2932.54 603.11 L2969.16 589.78 L3005.61 576.45 L3042.06 567.51 L3078.68 563.12 L3115.13 554.18 L3151.58 527.68 L3188.19 501.02 L3224.64 492.07 L3261.09 474.36 L3297.71 469.97 L3334.16 452.08 L3370.78 465.41 L3407.23 452.08 L3443.68 438.92 L3480.30 438.92 L3516.75 438.92 L3553.20 438.92 L3589.82 434.36 L3626.27 429.97 L3662.72 429.97 L3699.34 416.64 L3735.79 407.70 L3772.24 398.93 L3808.86 389.98 L3845.31 403.31 L3881.93 398.93 L3918.38 398.93 L3954.83 394.54 L3991.44 385.59 L4027.89 381.21 L4064.34 385.59" stroke-linejoin="round" style="fill:none;stroke:#4361ED;stroke-width:9.72"/>
	<path d=" M449.89 2445.02 L486.34 2365.03 L522.96 2316.26 L559.41 2396.08 L596.03 2480.46 L632.48 2462.74 L668.93 2427.13 L705.54 2422.74 L741.99 2333.98 L778.44 2276.27 L815.06 2267.49 L851.51 2236.44 L887.96 2156.46 L924.58 2143.13 L961.03 2121.02 L997.48 2134.35 L1034.10 2018.93 L1070.55 2121.02 L1107.00 2489.40 L1143.62 1961.21 L1180.07 1925.61 L1216.69 1654.93 L1253.14 1579.50 L1289.59 1761.41 L1326.21 1810.35 L1362.66 1859.12 L1399.11 1907.89 L1435.73 1761.41 L1472.18 1845.79 L1508.63 1810.35 L1545.24 1748.08 L1581.69 1645.99 L1618.14 1508.46 L1654.76 1446.36 L1691.21 1548.45 L1727.83 1481.79 L1764.28 1650.54 L1800.73 1601.61 L1837.35 1521.79 L1873.80 1446.36 L1910.25 1495.13 L1946.87 1477.41 L1983.32 1348.65 L2019.77 1441.97 L2056.39 1370.93 L2092.84 1286.55 L2129.29 1224.45 L2165.91 1184.46 L2202.36 1157.79 L2238.98 1149.02 L2275.43 1140.07 L2311.88 1117.97 L2348.49 1100.08 L2384.94 1069.03 L2421.39 1006.93 L2458.01 997.99 L2494.46 997.99 L2530.91 1024.65 L2567.53 1011.32 L2603.98 980.27 L2640.43 989.21 L2677.05 953.61 L2713.50 962.55 L2750.12 975.88 L2786.57 944.83 L2823.02 931.50 L2859.64 931.50 L2896.09 891.51 L2932.54 918.17 L2969.16 887.12 L3005.61 900.45 L3042.06 873.79 L3078.68 864.84 L3115.13 856.07 L3151.58 811.69 L3188.19 767.31 L3224.64 753.97 L3261.09 736.26 L3297.71 718.54 L3334.16 696.26 L3370.78 713.98 L3407.23 682.93 L3443.68 665.21 L3480.30 669.60 L3516.75 665.21 L3553.20 674.16 L3589.82 674.16 L3626.27 674.16 L3662.72 682.93 L3699.34 678.54 L3735.79 665.21 L3772.24 656.27 L3808.86 651.88 L3845.31 660.82 L3881.93 651.88 L3918.38 651.88 L3954.83 638.55 L3991.44 616.44 L4027.89 611.89 L4064.34 616.44" stroke-linejoin="round" style="fill:none;stroke:#FD2B3B;stroke-width:9.72"/>
	<line x1="378.68" y1="2671.48" x2="378.68" y2="309.82" style="stroke:#000000;stroke-width:6.48"/>
	<line x1="378.68" y1="2600.27" x2="333.79" y2="2600.27" style="stroke:#000000;stroke-width:6.48"/>
	<text x="311.18" y="2639.71" style="font-family:'Helvetica';font-size:112.56px;fill:#000000" text-anchor="end">30</text>
	<line x1="378.68" y1="2156.46" x2="333.79" y2="2156.46" style="stroke:#000000;stroke-width:6.48"/>
	<text x="311.18" y="2195.89" style="font-family:'Helvetica';font-size:112.56px;fill:#000000" text-anchor="end">40</text>
	<line x1="378.68" y1="1712.48" x2="333.79" y2="1712.48" style="stroke:#000000;stroke-width:6.48"/>
	<text x="311.18" y="1751.91" style="font-family:'Helvetica';font-size:112.56px;fill:#000000" text-anchor="end">50</text>
	<line x1="378.68" y1="1268.66" x2="333.79" y2="1268.66" style="stroke:#000000;stroke-width:6.48"/>
	<text x="311.18" y="1308.10" style="font-family:'Helvetica';font-size:112.56px;fill:#000000" text-anchor="end">60</text>
	<line x1="378.68" y1="824.85" x2="333.79" y2="824.85" style="stroke:#000000;stroke-width:6.48"/>
	<text x="311.18" y="864.29" style="font-family:'Helvetica';font-size:112.56px;fill:#000000" text-anchor="end">70</text>
	<line x1="378.68" y1="381.04" x2="333.79" y2="381.04" style="stroke:#000000;stroke-width:6.48"/>
	<text x="311.18" y="420.47" style="font-family:'Helvetica';font-size:112.56px;fill:#000000" text-anchor="end">80</text>
	<line x1="378.68" y1="2671.48" x2="4172.34" y2="2671.48" style="stroke:#000000;stroke-width:6.48"/>
	<line x1="450.06" y1="2671.48" x2="450.06" y2="2716.54" style="stroke:#000000;stroke-width:6.48"/>
	<text x="450.06" y="2817.69" style="font-family:'Helvetica';font-size:112.56px;fill:#000000" text-anchor="middle">1900</text>
	<line x1="1180.24" y1="2671.48" x2="1180.24" y2="2716.54" style="stroke:#000000;stroke-width:6.48"/>
	<text x="1180.24" y="2817.69" style="font-family:'Helvetica';font-size:112.56px;fill:#000000" text-anchor="middle">1920</text>
	<line x1="1910.42" y1="2671.48" x2="1910.42" y2="2716.54" style="stroke:#000000;stroke-width:6.48"/>
	<text x="1910.42" y="2817.69" style="font-family:'Helvetica';font-size:112.56px;fill:#000000" text-anchor="middle">1940</text>
	<line x1="2640.60" y1="2671.48" x2="2640.60" y2="2716.54" style="stroke:#000000;stroke-width:6.48"/>
	<text x="2640.60" y="2817.69" style="font-family:'Helvetica';font-size:112.56px;fill:#000000" text-anchor="middle">1960</text>
	<line x1="3370.78" y1="2671.48" x2="3370.78" y2="2716.54" style="stroke:#000000;stroke-width:6.48"/>
	<text x="3370.78" y="2817.69" style="font-family:'Helvetica';font-size:112.56px;fill:#000000" text-anchor="middle">1980</text>
	<line x1="4100.96" y1="2671.48" x2="4100.96" y2="2716.54" style="stroke:#000000;stroke-width:6.48"/>
	<text x="4100.96" y="2817.69" style="font-family:'Helvetica';font-size:112.56px;fill:#000000" text-anchor="middle">2000</text>
	<text x="2275.43" y="2941.38" style="font-family:'Helvetica';font-size:112.56px;fill:#000000" text-anchor="middle">Year</text>
	<rect x="4211.16" y="1306.97" width="1036.63" height="367.20" style="fill:#FFFFFF"/>
	<rect x="4214.40" y="1310.21" width="1030.15" height="360.72" style="fill:none;stroke:#FFFFFF;stroke-width:6.48"/>
	<line x1="4259.76" y1="1411.93" x2="4383.45" y2="1411.93" style="stroke:#4361ED;stroke-width:9.72"/>
	<line x1="4259.76" y1="1569.38" x2="4383.45" y2="1569.38" style="stroke:#FD2B3B;stroke-width:9.72"/>
	<text x="4450.95" y="1451.37" style="font-family:'Helvetica';font-size:112.56px;fill:#000000">White females</text>
	<text x="4450.95" y="1608.81" style="font-family:'Helvetica';font-size:112.56px;fill:#000000">Black females</text>
	<text x="398.08" y="3080.13" style="font-family:'Helvetica';font-size:89.94px;fill:#000000">U.S. life expectancy for females, 1900-1999</text>
	<text x="2275.43" y="243.10" style="font-family:'Helvetica';font-size:157.44px;fill:#000000" text-anchor="middle">Life expectancy</text>
</svg>
