<?xml version="1.0" encoding="UTF-8" standalone="no"?>
<!-- This is a Stata 17.0 generated SVG file (http://www.stata.com) -->

<svg version="1.1" width="7.500in" height="4.500in" viewBox="0 0 5400 3240" xmlns="http://www.w3.org/2000/svg" xmlns:xlink="http://www.w3.org/1999/xlink">
	<desc>Stata Graph - Graph</desc>
	<rect x="0" y="0" width="5400" height="3240" style="fill:#FFFFFF;stroke:none"/>
	<rect x="0.00" y="0.00" width="5400.00" height="3240.00" style="fill:#FFFFFF"/>
	<rect x="3.24" y="3.24" width="5393.52" height="3233.52" style="fill:none;stroke:#FFFFFF;stroke-width:6.48"/>
	<rect x="444.32" y="113.40" width="3416.18" height="2687.01" style="fill:#FFFFFF"/>
	<rect x="447.56" y="116.64" width="3409.70" height="2680.53" style="fill:none;stroke:#FFFFFF;stroke-width:6.48"/>
	<line x1="444.32" y1="2729.03" x2="509.12" y2="2729.03" style="stroke:#EAF2F3;stroke-width:9.72"/>
	<line x1="541.52" y1="2729.03" x2="606.32" y2="2729.03" style="stroke:#EAF2F3;stroke-width:9.72"/>
	<line x1="638.72" y1="2729.03" x2="703.52" y2="2729.03" style="stroke:#EAF2F3;stroke-width:9.72"/>
	<line x1="735.92" y1="2729.03" x2="800.72" y2="2729.03" style="stroke:#EAF2F3;stroke-width:9.72"/>
	<line x1="833.12" y1="2729.03" x2="897.92" y2="2729.03" style="stroke:#EAF2F3;stroke-width:9.72"/>
	<line x1="930.32" y1="2729.03" x2="995.12" y2="2729.03" style="stroke:#EAF2F3;stroke-width:9.72"/>
	<line x1="1027.52" y1="2729.03" x2="1092.32" y2="2729.03" style="stroke:#EAF2F3;stroke-width:9.72"/>
	<line x1="1124.72" y1="2729.03" x2="1189.52" y2="2729.03" style="stroke:#EAF2F3;stroke-width:9.72"/>
	<line x1="1221.92" y1="2729.03" x2="1286.72" y2="2729.03" style="stroke:#EAF2F3;stroke-width:9.72"/>
	<line x1="1319.12" y1="2729.03" x2="1383.92" y2="2729.03" style="stroke:#EAF2F3;stroke-width:9.72"/>
	<line x1="1416.32" y1="2729.03" x2="1481.12" y2="2729.03" style="stroke:#EAF2F3;stroke-width:9.72"/>
	<line x1="1513.52" y1="2729.03" x2="1578.32" y2="2729.03" style="stroke:#EAF2F3;stroke-width:9.72"/>
	<line x1="1610.72" y1="2729.03" x2="1675.52" y2="2729.03" style="stroke:#EAF2F3;stroke-width:9.72"/>
	<line x1="1707.92" y1="2729.03" x2="1772.72" y2="2729.03" style="stroke:#EAF2F3;stroke-width:9.72"/>
	<line x1="1805.12" y1="2729.03" x2="1869.92" y2="2729.03" style="stroke:#EAF2F3;stroke-width:9.72"/>
	<line x1="1902.32" y1="2729.03" x2="1967.12" y2="2729.03" style="stroke:#EAF2F3;stroke-width:9.72"/>
	<line x1="1999.52" y1="2729.03" x2="2064.32" y2="2729.03" style="stroke:#EAF2F3;stroke-width:9.72"/>
	<line x1="2096.72" y1="2729.03" x2="2161.52" y2="2729.03" style="stroke:#EAF2F3;stroke-width:9.72"/>
	<line x1="2193.92" y1="2729.03" x2="2258.72" y2="2729.03" style="stroke:#EAF2F3;stroke-width:9.72"/>
	<line x1="2291.12" y1="2729.03" x2="2355.92" y2="2729.03" style="stroke:#EAF2F3;stroke-width:9.72"/>
	<line x1="2388.32" y1="2729.03" x2="2453.12" y2="2729.03" style="stroke:#EAF2F3;stroke-width:9.72"/>
	<line x1="2485.52" y1="2729.03" x2="2550.32" y2="2729.03" style="stroke:#EAF2F3;stroke-width:9.72"/>
	<line x1="2582.72" y1="2729.03" x2="2647.52" y2="2729.03" style="stroke:#EAF2F3;stroke-width:9.72"/>
	<line x1="2679.92" y1="2729.03" x2="2744.72" y2="2729.03" style="stroke:#EAF2F3;stroke-width:9.72"/>
	<line x1="2777.12" y1="2729.03" x2="2841.92" y2="2729.03" style="stroke:#EAF2F3;stroke-width:9.72"/>
	<line x1="2874.32" y1="2729.03" x2="2939.12" y2="2729.03" style="stroke:#EAF2F3;stroke-width:9.72"/>
	<line x1="2971.52" y1="2729.03" x2="3036.32" y2="2729.03" style="stroke:#EAF2F3;stroke-width:9.72"/>
	<line x1="3068.72" y1="2729.03" x2="3133.52" y2="2729.03" style="stroke:#EAF2F3;stroke-width:9.72"/>
	<line x1="3165.92" y1="2729.03" x2="3230.72" y2="2729.03" style="stroke:#EAF2F3;stroke-width:9.72"/>
	<line x1="3263.12" y1="2729.03" x2="3327.92" y2="2729.03" style="stroke:#EAF2F3;stroke-width:9.72"/>
	<line x1="3360.32" y1="2729.03" x2="3425.12" y2="2729.03" style="stroke:#EAF2F3;stroke-width:9.72"/>
	<line x1="3457.52" y1="2729.03" x2="3522.32" y2="2729.03" style="stroke:#EAF2F3;stroke-width:9.72"/>
	<line x1="3554.72" y1="2729.03" x2="3619.52" y2="2729.03" style="stroke:#EAF2F3;stroke-width:9.72"/>
	<line x1="3651.92" y1="2729.03" x2="3716.72" y2="2729.03" style="stroke:#EAF2F3;stroke-width:9.72"/>
	<line x1="3749.12" y1="2729.03" x2="3813.92" y2="2729.03" style="stroke:#EAF2F3;stroke-width:9.72"/>
	<line x1="3846.32" y1="2729.03" x2="3860.49" y2="2729.03" style="stroke:#EAF2F3;stroke-width:9.72"/>
	<line x1="444.32" y1="2220.24" x2="509.12" y2="2220.24" style="stroke:#EAF2F3;stroke-width:9.72"/>
	<line x1="541.52" y1="2220.24" x2="606.32" y2="2220.24" style="stroke:#EAF2F3;stroke-width:9.72"/>
	<line x1="638.72" y1="2220.24" x2="703.52" y2="2220.24" style="stroke:#EAF2F3;stroke-width:9.72"/>
	<line x1="735.92" y1="2220.24" x2="800.72" y2="2220.24" style="stroke:#EAF2F3;stroke-width:9.72"/>
	<line x1="833.12" y1="2220.24" x2="897.92" y2="2220.24" style="stroke:#EAF2F3;stroke-width:9.72"/>
	<line x1="930.32" y1="2220.24" x2="995.12" y2="2220.24" style="stroke:#EAF2F3;stroke-width:9.72"/>
	<line x1="1027.52" y1="2220.24" x2="1092.32" y2="2220.24" style="stroke:#EAF2F3;stroke-width:9.72"/>
	<line x1="1124.72" y1="2220.24" x2="1189.52" y2="2220.24" style="stroke:#EAF2F3;stroke-width:9.72"/>
	<line x1="1221.92" y1="2220.24" x2="1286.72" y2="2220.24" style="stroke:#EAF2F3;stroke-width:9.72"/>
	<line x1="1319.12" y1="2220.24" x2="1383.92" y2="2220.24" style="stroke:#EAF2F3;stroke-width:9.72"/>
	<line x1="1416.32" y1="2220.24" x2="1481.12" y2="2220.24" style="stroke:#EAF2F3;stroke-width:9.72"/>
	<line x1="1513.52" y1="2220.24" x2="1578.32" y2="2220.24" style="stroke:#EAF2F3;stroke-width:9.72"/>
	<line x1="1610.72" y1="2220.24" x2="1675.52" y2="2220.24" style="stroke:#EAF2F3;stroke-width:9.72"/>
	<line x1="1707.92" y1="2220.24" x2="1772.72" y2="2220.24" style="stroke:#EAF2F3;stroke-width:9.72"/>
	<line x1="1805.12" y1="2220.24" x2="1869.92" y2="2220.24" style="stroke:#EAF2F3;stroke-width:9.72"/>
	<line x1="1902.32" y1="2220.24" x2="1967.12" y2="2220.24" style="stroke:#EAF2F3;stroke-width:9.72"/>
	<line x1="1999.52" y1="2220.24" x2="2064.32" y2="2220.24" style="stroke:#EAF2F3;stroke-width:9.72"/>
	<line x1="2096.72" y1="2220.24" x2="2161.52" y2="2220.24" style="stroke:#EAF2F3;stroke-width:9.72"/>
	<line x1="2193.92" y1="2220.24" x2="2258.72" y2="2220.24" style="stroke:#EAF2F3;stroke-width:9.72"/>
	<line x1="2291.12" y1="2220.24" x2="2355.92" y2="2220.24" style="stroke:#EAF2F3;stroke-width:9.72"/>
	<line x1="2388.32" y1="2220.24" x2="2453.12" y2="2220.24" style="stroke:#EAF2F3;stroke-width:9.72"/>
	<line x1="2485.52" y1="2220.24" x2="2550.32" y2="2220.24" style="stroke:#EAF2F3;stroke-width:9.72"/>
	<line x1="2582.72" y1="2220.24" x2="2647.52" y2="2220.24" style="stroke:#EAF2F3;stroke-width:9.72"/>
	<line x1="2679.92" y1="2220.24" x2="2744.72" y2="2220.24" style="stroke:#EAF2F3;stroke-width:9.72"/>
	<line x1="2777.12" y1="2220.24" x2="2841.92" y2="2220.24" style="stroke:#EAF2F3;stroke-width:9.72"/>
	<line x1="2874.32" y1="2220.24" x2="2939.12" y2="2220.24" style="stroke:#EAF2F3;stroke-width:9.72"/>
	<line x1="2971.52" y1="2220.24" x2="3036.32" y2="2220.24" style="stroke:#EAF2F3;stroke-width:9.72"/>
	<line x1="3068.72" y1="2220.24" x2="3133.52" y2="2220.24" style="stroke:#EAF2F3;stroke-width:9.72"/>
	<line x1="3165.92" y1="2220.24" x2="3230.72" y2="2220.24" style="stroke:#EAF2F3;stroke-width:9.72"/>
	<line x1="3263.12" y1="2220.24" x2="3327.92" y2="2220.24" style="stroke:#EAF2F3;stroke-width:9.72"/>
	<line x1="3360.32" y1="2220.24" x2="3425.12" y2="2220.24" style="stroke:#EAF2F3;stroke-width:9.72"/>
	<line x1="3457.52" y1="2220.24" x2="3522.32" y2="2220.24" style="stroke:#EAF2F3;stroke-width:9.72"/>
	<line x1="3554.72" y1="2220.24" x2="3619.52" y2="2220.24" style="stroke:#EAF2F3;stroke-width:9.72"/>
	<line x1="3651.92" y1="2220.24" x2="3716.72" y2="2220.24" style="stroke:#EAF2F3;stroke-width:9.72"/>
	<line x1="3749.12" y1="2220.24" x2="3813.92" y2="2220.24" style="stroke:#EAF2F3;stroke-width:9.72"/>
	<line x1="3846.32" y1="2220.24" x2="3860.49" y2="2220.24" style="stroke:#EAF2F3;stroke-width:9.72"/>
	<line x1="444.32" y1="1711.29" x2="509.12" y2="1711.29" style="stroke:#EAF2F3;stroke-width:9.72"/>
	<line x1="541.52" y1="1711.29" x2="606.32" y2="1711.29" style="stroke:#EAF2F3;stroke-width:9.72"/>
	<line x1="638.72" y1="1711.29" x2="703.52" y2="1711.29" style="stroke:#EAF2F3;stroke-width:9.72"/>
	<line x1="735.92" y1="1711.29" x2="800.72" y2="1711.29" style="stroke:#EAF2F3;stroke-width:9.72"/>
	<line x1="833.12" y1="1711.29" x2="897.92" y2="1711.29" style="stroke:#EAF2F3;stroke-width:9.72"/>
	<line x1="930.32" y1="1711.29" x2="995.12" y2="1711.29" style="stroke:#EAF2F3;stroke-width:9.72"/>
	<line x1="1027.52" y1="1711.29" x2="1092.32" y2="1711.29" style="stroke:#EAF2F3;stroke-width:9.72"/>
	<line x1="1124.72" y1="1711.29" x2="1189.52" y2="1711.29" style="stroke:#EAF2F3;stroke-width:9.72"/>
	<line x1="1221.92" y1="1711.29" x2="1286.72" y2="1711.29" style="stroke:#EAF2F3;stroke-width:9.72"/>
	<line x1="1319.12" y1="1711.29" x2="1383.92" y2="1711.29" style="stroke:#EAF2F3;stroke-width:9.72"/>
	<line x1="1416.32" y1="1711.29" x2="1481.12" y2="1711.29" style="stroke:#EAF2F3;stroke-width:9.72"/>
	<line x1="1513.52" y1="1711.29" x2="1578.32" y2="1711.29" style="stroke:#EAF2F3;stroke-width:9.72"/>
	<line x1="1610.72" y1="1711.29" x2="1675.52" y2="1711.29" style="stroke:#EAF2F3;stroke-width:9.72"/>
	<line x1="1707.92" y1="1711.29" x2="1772.72" y2="1711.29" style="stroke:#EAF2F3;stroke-width:9.72"/>
	<line x1="1805.12" y1="1711.29" x2="1869.92" y2="1711.29" style="stroke:#EAF2F3;stroke-width:9.72"/>
	<line x1="1902.32" y1="1711.29" x2="1967.12" y2="1711.29" style="stroke:#EAF2F3;stroke-width:9.72"/>
	<line x1="1999.52" y1="1711.29" x2="2064.32" y2="1711.29" style="stroke:#EAF2F3;stroke-width:9.72"/>
	<line x1="2096.72" y1="1711.29" x2="2161.52" y2="1711.29" style="stroke:#EAF2F3;stroke-width:9.72"/>
	<line x1="2193.92" y1="1711.29" x2="2258.72" y2="1711.29" style="stroke:#EAF2F3;stroke-width:9.72"/>
	<line x1="2291.12" y1="1711.29" x2="2355.92" y2="1711.29" style="stroke:#EAF2F3;stroke-width:9.72"/>
	<line x1="2388.32" y1="1711.29" x2="2453.12" y2="1711.29" style="stroke:#EAF2F3;stroke-width:9.72"/>
	<line x1="2485.52" y1="1711.29" x2="2550.32" y2="1711.29" style="stroke:#EAF2F3;stroke-width:9.72"/>
	<line x1="2582.72" y1="1711.29" x2="2647.52" y2="1711.29" style="stroke:#EAF2F3;stroke-width:9.72"/>
	<line x1="2679.92" y1="1711.29" x2="2744.72" y2="1711.29" style="stroke:#EAF2F3;stroke-width:9.72"/>
	<line x1="2777.12" y1="1711.29" x2="2841.92" y2="1711.29" style="stroke:#EAF2F3;stroke-width:9.72"/>
	<line x1="2874.32" y1="1711.29" x2="2939.12" y2="1711.29" style="stroke:#EAF2F3;stroke-width:9.72"/>
	<line x1="2971.52" y1="1711.29" x2="3036.32" y2="1711.29" style="stroke:#EAF2F3;stroke-width:9.72"/>
	<line x1="3068.72" y1="1711.29" x2="3133.52" y2="1711.29" style="stroke:#EAF2F3;stroke-width:9.72"/>
	<line x1="3165.92" y1="1711.29" x2="3230.72" y2="1711.29" style="stroke:#EAF2F3;stroke-width:9.72"/>
	<line x1="3263.12" y1="1711.29" x2="3327.92" y2="1711.29" style="stroke:#EAF2F3;stroke-width:9.72"/>
	<line x1="3360.32" y1="1711.29" x2="3425.12" y2="1711.29" style="stroke:#EAF2F3;stroke-width:9.72"/>
	<line x1="3457.52" y1="1711.29" x2="3522.32" y2="1711.29" style="stroke:#EAF2F3;stroke-width:9.72"/>
	<line x1="3554.72" y1="1711.29" x2="3619.52" y2="1711.29" style="stroke:#EAF2F3;stroke-width:9.72"/>
	<line x1="3651.92" y1="1711.29" x2="3716.72" y2="1711.29" style="stroke:#EAF2F3;stroke-width:9.72"/>
	<line x1="3749.12" y1="1711.29" x2="3813.92" y2="1711.29" style="stroke:#EAF2F3;stroke-width:9.72"/>
	<line x1="3846.32" y1="1711.29" x2="3860.49" y2="1711.29" style="stroke:#EAF2F3;stroke-width:9.72"/>
	<line x1="444.32" y1="1202.51" x2="509.12" y2="1202.51" style="stroke:#EAF2F3;stroke-width:9.72"/>
	<line x1="541.52" y1="1202.51" x2="606.32" y2="1202.51" style="stroke:#EAF2F3;stroke-width:9.72"/>
	<line x1="638.72" y1="1202.51" x2="703.52" y2="1202.51" style="stroke:#EAF2F3;stroke-width:9.72"/>
	<line x1="735.92" y1="1202.51" x2="800.72" y2="1202.51" style="stroke:#EAF2F3;stroke-width:9.72"/>
	<line x1="833.12" y1="1202.51" x2="897.92" y2="1202.51" style="stroke:#EAF2F3;stroke-width:9.72"/>
	<line x1="930.32" y1="1202.51" x2="995.12" y2="1202.51" style="stroke:#EAF2F3;stroke-width:9.72"/>
	<line x1="1027.52" y1="1202.51" x2="1092.32" y2="1202.51" style="stroke:#EAF2F3;stroke-width:9.72"/>
	<line x1="1124.72" y1="1202.51" x2="1189.52" y2="1202.51" style="stroke:#EAF2F3;stroke-width:9.72"/>
	<line x1="1221.92" y1="1202.51" x2="1286.72" y2="1202.51" style="stroke:#EAF2F3;stroke-width:9.72"/>
	<line x1="1319.12" y1="1202.51" x2="1383.92" y2="1202.51" style="stroke:#EAF2F3;stroke-width:9.72"/>
	<line x1="1416.32" y1="1202.51" x2="1481.12" y2="1202.51" style="stroke:#EAF2F3;stroke-width:9.72"/>
	<line x1="1513.52" y1="1202.51" x2="1578.32" y2="1202.51" style="stroke:#EAF2F3;stroke-width:9.72"/>
	<line x1="1610.72" y1="1202.51" x2="1675.52" y2="1202.51" style="stroke:#EAF2F3;stroke-width:9.72"/>
	<line x1="1707.92" y1="1202.51" x2="1772.72" y2="1202.51" style="stroke:#EAF2F3;stroke-width:9.72"/>
	<line x1="1805.12" y1="1202.51" x2="1869.92" y2="1202.51" style="stroke:#EAF2F3;stroke-width:9.72"/>
	<line x1="1902.32" y1="1202.51" x2="1967.12" y2="1202.51" style="stroke:#EAF2F3;stroke-width:9.72"/>
	<line x1="1999.52" y1="1202.51" x2="2064.32" y2="1202.51" style="stroke:#EAF2F3;stroke-width:9.72"/>
	<line x1="2096.72" y1="1202.51" x2="2161.52" y2="1202.51" style="stroke:#EAF2F3;stroke-width:9.72"/>
	<line x1="2193.92" y1="1202.51" x2="2258.72" y2="1202.51" style="stroke:#EAF2F3;stroke-width:9.72"/>
	<line x1="2291.12" y1="1202.51" x2="2355.92" y2="1202.51" style="stroke:#EAF2F3;stroke-width:9.72"/>
	<line x1="2388.32" y1="1202.51" x2="2453.12" y2="1202.51" style="stroke:#EAF2F3;stroke-width:9.72"/>
	<line x1="2485.52" y1="1202.51" x2="2550.32" y2="1202.51" style="stroke:#EAF2F3;stroke-width:9.72"/>
	<line x1="2582.72" y1="1202.51" x2="2647.52" y2="1202.51" style="stroke:#EAF2F3;stroke-width:9.72"/>
	<line x1="2679.92" y1="1202.51" x2="2744.72" y2="1202.51" style="stroke:#EAF2F3;stroke-width:9.72"/>
	<line x1="2777.12" y1="1202.51" x2="2841.92" y2="1202.51" style="stroke:#EAF2F3;stroke-width:9.72"/>
	<line x1="2874.32" y1="1202.51" x2="2939.12" y2="1202.51" style="stroke:#EAF2F3;stroke-width:9.72"/>
	<line x1="2971.52" y1="1202.51" x2="3036.32" y2="1202.51" style="stroke:#EAF2F3;stroke-width:9.72"/>
	<line x1="3068.72" y1="1202.51" x2="3133.52" y2="1202.51" style="stroke:#EAF2F3;stroke-width:9.72"/>
	<line x1="3165.92" y1="1202.51" x2="3230.72" y2="1202.51" style="stroke:#EAF2F3;stroke-width:9.72"/>
	<line x1="3263.12" y1="1202.51" x2="3327.92" y2="1202.51" style="stroke:#EAF2F3;stroke-width:9.72"/>
	<line x1="3360.32" y1="1202.51" x2="3425.12" y2="1202.51" style="stroke:#EAF2F3;stroke-width:9.72"/>
	<line x1="3457.52" y1="1202.51" x2="3522.32" y2="1202.51" style="stroke:#EAF2F3;stroke-width:9.72"/>
	<line x1="3554.72" y1="1202.51" x2="3619.52" y2="1202.51" style="stroke:#EAF2F3;stroke-width:9.72"/>
	<line x1="3651.92" y1="1202.51" x2="3716.72" y2="1202.51" style="stroke:#EAF2F3;stroke-width:9.72"/>
	<line x1="3749.12" y1="1202.51" x2="3813.92" y2="1202.51" style="stroke:#EAF2F3;stroke-width:9.72"/>
	<line x1="3846.32" y1="1202.51" x2="3860.49" y2="1202.51" style="stroke:#EAF2F3;stroke-width:9.72"/>
	<line x1="444.32" y1="693.56" x2="509.12" y2="693.56" style="stroke:#EAF2F3;stroke-width:9.72"/>
	<line x1="541.52" y1="693.56" x2="606.32" y2="693.56" style="stroke:#EAF2F3;stroke-width:9.72"/>
	<line x1="638.72" y1="693.56" x2="703.52" y2="693.56" style="stroke:#EAF2F3;stroke-width:9.72"/>
	<line x1="735.92" y1="693.56" x2="800.72" y2="693.56" style="stroke:#EAF2F3;stroke-width:9.72"/>
	<line x1="833.12" y1="693.56" x2="897.92" y2="693.56" style="stroke:#EAF2F3;stroke-width:9.72"/>
	<line x1="930.32" y1="693.56" x2="995.12" y2="693.56" style="stroke:#EAF2F3;stroke-width:9.72"/>
	<line x1="1027.52" y1="693.56" x2="1092.32" y2="693.56" style="stroke:#EAF2F3;stroke-width:9.72"/>
	<line x1="1124.72" y1="693.56" x2="1189.52" y2="693.56" style="stroke:#EAF2F3;stroke-width:9.72"/>
	<line x1="1221.92" y1="693.56" x2="1286.72" y2="693.56" style="stroke:#EAF2F3;stroke-width:9.72"/>
	<line x1="1319.12" y1="693.56" x2="1383.92" y2="693.56" style="stroke:#EAF2F3;stroke-width:9.72"/>
	<line x1="1416.32" y1="693.56" x2="1481.12" y2="693.56" style="stroke:#EAF2F3;stroke-width:9.72"/>
	<line x1="1513.52" y1="693.56" x2="1578.32" y2="693.56" style="stroke:#EAF2F3;stroke-width:9.72"/>
	<line x1="1610.72" y1="693.56" x2="1675.52" y2="693.56" style="stroke:#EAF2F3;stroke-width:9.72"/>
	<line x1="1707.92" y1="693.56" x2="1772.72" y2="693.56" style="stroke:#EAF2F3;stroke-width:9.72"/>
	<line x1="1805.12" y1="693.56" x2="1869.92" y2="693.56" style="stroke:#EAF2F3;stroke-width:9.72"/>
	<line x1="1902.32" y1="693.56" x2="1967.12" y2="693.56" style="stroke:#EAF2F3;stroke-width:9.72"/>
	<line x1="1999.52" y1="693.56" x2="2064.32" y2="693.56" style="stroke:#EAF2F3;stroke-width:9.72"/>
	<line x1="2096.72" y1="693.56" x2="2161.52" y2="693.56" style="stroke:#EAF2F3;stroke-width:9.72"/>
	<line x1="2193.92" y1="693.56" x2="2258.72" y2="693.56" style="stroke:#EAF2F3;stroke-width:9.72"/>
	<line x1="2291.12" y1="693.56" x2="2355.92" y2="693.56" style="stroke:#EAF2F3;stroke-width:9.72"/>
	<line x1="2388.32" y1="693.56" x2="2453.12" y2="693.56" style="stroke:#EAF2F3;stroke-width:9.72"/>
	<line x1="2485.52" y1="693.56" x2="2550.32" y2="693.56" style="stroke:#EAF2F3;stroke-width:9.72"/>
	<line x1="2582.72" y1="693.56" x2="2647.52" y2="693.56" style="stroke:#EAF2F3;stroke-width:9.72"/>
	<line x1="2679.92" y1="693.56" x2="2744.72" y2="693.56" style="stroke:#EAF2F3;stroke-width:9.72"/>
	<line x1="2777.12" y1="693.56" x2="2841.92" y2="693.56" style="stroke:#EAF2F3;stroke-width:9.72"/>
	<line x1="2874.32" y1="693.56" x2="2939.12" y2="693.56" style="stroke:#EAF2F3;stroke-width:9.72"/>
	<line x1="2971.52" y1="693.56" x2="3036.32" y2="693.56" style="stroke:#EAF2F3;stroke-width:9.72"/>
	<line x1="3068.72" y1="693.56" x2="3133.52" y2="693.56" style="stroke:#EAF2F3;stroke-width:9.72"/>
	<line x1="3165.92" y1="693.56" x2="3230.72" y2="693.56" style="stroke:#EAF2F3;stroke-width:9.72"/>
	<line x1="3263.12" y1="693.56" x2="3327.92" y2="693.56" style="stroke:#EAF2F3;stroke-width:9.72"/>
	<line x1="3360.32" y1="693.56" x2="3425.12" y2="693.56" style="stroke:#EAF2F3;stroke-width:9.72"/>
	<line x1="3457.52" y1="693.56" x2="3522.32" y2="693.56" style="stroke:#EAF2F3;stroke-width:9.72"/>
	<line x1="3554.72" y1="693.56" x2="3619.52" y2="693.56" style="stroke:#EAF2F3;stroke-width:9.72"/>
	<line x1="3651.92" y1="693.56" x2="3716.72" y2="693.56" style="stroke:#EAF2F3;stroke-width:9.72"/>
	<line x1="3749.12" y1="693.56" x2="3813.92" y2="693.56" style="stroke:#EAF2F3;stroke-width:9.72"/>
	<line x1="3846.32" y1="693.56" x2="3860.49" y2="693.56" style="stroke:#EAF2F3;stroke-width:9.72"/>
	<line x1="444.32" y1="184.61" x2="509.12" y2="184.61" style="stroke:#EAF2F3;stroke-width:9.72"/>
	<line x1="541.52" y1="184.61" x2="606.32" y2="184.61" style="stroke:#EAF2F3;stroke-width:9.72"/>
	<line x1="638.72" y1="184.61" x2="703.52" y2="184.61" style="stroke:#EAF2F3;stroke-width:9.72"/>
	<line x1="735.92" y1="184.61" x2="800.72" y2="184.61" style="stroke:#EAF2F3;stroke-width:9.72"/>
	<line x1="833.12" y1="184.61" x2="897.92" y2="184.61" style="stroke:#EAF2F3;stroke-width:9.72"/>
	<line x1="930.32" y1="184.61" x2="995.12" y2="184.61" style="stroke:#EAF2F3;stroke-width:9.72"/>
	<line x1="1027.52" y1="184.61" x2="1092.32" y2="184.61" style="stroke:#EAF2F3;stroke-width:9.72"/>
	<line x1="1124.72" y1="184.61" x2="1189.52" y2="184.61" style="stroke:#EAF2F3;stroke-width:9.72"/>
	<line x1="1221.92" y1="184.61" x2="1286.72" y2="184.61" style="stroke:#EAF2F3;stroke-width:9.72"/>
	<line x1="1319.12" y1="184.61" x2="1383.92" y2="184.61" style="stroke:#EAF2F3;stroke-width:9.72"/>
	<line x1="1416.32" y1="184.61" x2="1481.12" y2="184.61" style="stroke:#EAF2F3;stroke-width:9.72"/>
	<line x1="1513.52" y1="184.61" x2="1578.32" y2="184.61" style="stroke:#EAF2F3;stroke-width:9.72"/>
	<line x1="1610.72" y1="184.61" x2="1675.52" y2="184.61" style="stroke:#EAF2F3;stroke-width:9.72"/>
	<line x1="1707.92" y1="184.61" x2="1772.72" y2="184.61" style="stroke:#EAF2F3;stroke-width:9.72"/>
	<line x1="1805.12" y1="184.61" x2="1869.92" y2="184.61" style="stroke:#EAF2F3;stroke-width:9.72"/>
	<line x1="1902.32" y1="184.61" x2="1967.12" y2="184.61" style="stroke:#EAF2F3;stroke-width:9.72"/>
	<line x1="1999.52" y1="184.61" x2="2064.32" y2="184.61" style="stroke:#EAF2F3;stroke-width:9.72"/>
	<line x1="2096.72" y1="184.61" x2="2161.52" y2="184.61" style="stroke:#EAF2F3;stroke-width:9.72"/>
	<line x1="2193.92" y1="184.61" x2="2258.72" y2="184.61" style="stroke:#EAF2F3;stroke-width:9.72"/>
	<line x1="2291.12" y1="184.61" x2="2355.92" y2="184.61" style="stroke:#EAF2F3;stroke-width:9.72"/>
	<line x1="2388.32" y1="184.61" x2="2453.12" y2="184.61" style="stroke:#EAF2F3;stroke-width:9.72"/>
	<line x1="2485.52" y1="184.61" x2="2550.32" y2="184.61" style="stroke:#EAF2F3;stroke-width:9.72"/>
	<line x1="2582.72" y1="184.61" x2="2647.52" y2="184.61" style="stroke:#EAF2F3;stroke-width:9.72"/>
	<line x1="2679.92" y1="184.61" x2="2744.72" y2="184.61" style="stroke:#EAF2F3;stroke-width:9.72"/>
	<line x1="2777.12" y1="184.61" x2="2841.92" y2="184.61" style="stroke:#EAF2F3;stroke-width:9.72"/>
	<line x1="2874.32" y1="184.61" x2="2939.12" y2="184.61" style="stroke:#EAF2F3;stroke-width:9.72"/>
	<line x1="2971.52" y1="184.61" x2="3036.32" y2="184.61" style="stroke:#EAF2F3;stroke-width:9.72"/>
	<line x1="3068.72" y1="184.61" x2="3133.52" y2="184.61" style="stroke:#EAF2F3;stroke-width:9.72"/>
	<line x1="3165.92" y1="184.61" x2="3230.72" y2="184.61" style="stroke:#EAF2F3;stroke-width:9.72"/>
	<line x1="3263.12" y1="184.61" x2="3327.92" y2="184.61" style="stroke:#EAF2F3;stroke-width:9.72"/>
	<line x1="3360.32" y1="184.61" x2="3425.12" y2="184.61" style="stroke:#EAF2F3;stroke-width:9.72"/>
	<line x1="3457.52" y1="184.61" x2="3522.32" y2="184.61" style="stroke:#EAF2F3;stroke-width:9.72"/>
	<line x1="3554.72" y1="184.61" x2="3619.52" y2="184.61" style="stroke:#EAF2F3;stroke-width:9.72"/>
	<line x1="3651.92" y1="184.61" x2="3716.72" y2="184.61" style="stroke:#EAF2F3;stroke-width:9.72"/>
	<line x1="3749.12" y1="184.61" x2="3813.92" y2="184.61" style="stroke:#EAF2F3;stroke-width:9.72"/>
	<line x1="3846.32" y1="184.61" x2="3860.49" y2="184.61" style="stroke:#EAF2F3;stroke-width:9.72"/>
	<line x1="788.40" y1="2800.41" x2="788.40" y2="2735.61" style="stroke:#EAF2F3;stroke-width:9.72"/>
	<line x1="788.40" y1="2703.21" x2="788.40" y2="2638.41" style="stroke:#EAF2F3;stroke-width:9.72"/>
	<line x1="788.40" y1="2606.01" x2="788.40" y2="2541.21" style="stroke:#EAF2F3;stroke-width:9.72"/>
	<line x1="788.40" y1="2508.81" x2="788.40" y2="2444.01" style="stroke:#EAF2F3;stroke-width:9.72"/>
	<line x1="788.40" y1="2411.61" x2="788.40" y2="2346.81" style="stroke:#EAF2F3;stroke-width:9.72"/>
	<line x1="788.40" y1="2314.41" x2="788.40" y2="2249.61" style="stroke:#EAF2F3;stroke-width:9.72"/>
	<line x1="788.40" y1="2217.21" x2="788.40" y2="2152.41" style="stroke:#EAF2F3;stroke-width:9.72"/>
	<line x1="788.40" y1="2120.01" x2="788.40" y2="2055.21" style="stroke:#EAF2F3;stroke-width:9.72"/>
	<line x1="788.40" y1="2022.81" x2="788.40" y2="1958.01" style="stroke:#EAF2F3;stroke-width:9.72"/>
	<line x1="788.40" y1="1925.61" x2="788.40" y2="1860.81" style="stroke:#EAF2F3;stroke-width:9.72"/>
	<line x1="788.40" y1="1828.41" x2="788.40" y2="1763.61" style="stroke:#EAF2F3;stroke-width:9.72"/>
	<line x1="788.40" y1="1731.21" x2="788.40" y2="1666.41" style="stroke:#EAF2F3;stroke-width:9.72"/>
	<line x1="788.40" y1="1634.01" x2="788.40" y2="1569.21" style="stroke:#EAF2F3;stroke-width:9.72"/>
	<line x1="788.40" y1="1536.81" x2="788.40" y2="1472.01" style="stroke:#EAF2F3;stroke-width:9.72"/>
	<line x1="788.40" y1="1439.61" x2="788.40" y2="1374.81" style="stroke:#EAF2F3;stroke-width:9.72"/>
	<line x1="788.40" y1="1342.41" x2="788.40" y2="1277.61" style="stroke:#EAF2F3;stroke-width:9.72"/>
	<line x1="788.40" y1="1245.21" x2="788.40" y2="1180.41" style="stroke:#EAF2F3;stroke-width:9.72"/>
	<line x1="788.40" y1="1148.01" x2="788.40" y2="1083.21" style="stroke:#EAF2F3;stroke-width:9.72"/>
	<line x1="788.40" y1="1050.81" x2="788.40" y2="986.01" style="stroke:#EAF2F3;stroke-width:9.72"/>
	<line x1="788.40" y1="953.61" x2="788.40" y2="888.81" style="stroke:#EAF2F3;stroke-width:9.72"/>
	<line x1="788.40" y1="856.41" x2="788.40" y2="791.61" style="stroke:#EAF2F3;stroke-width:9.72"/>
	<line x1="788.40" y1="759.21" x2="788.40" y2="694.41" style="stroke:#EAF2F3;stroke-width:9.72"/>
	<line x1="788.40" y1="662.01" x2="788.40" y2="597.21" style="stroke:#EAF2F3;stroke-width:9.72"/>
	<line x1="788.40" y1="564.81" x2="788.40" y2="500.01" style="stroke:#EAF2F3;stroke-width:9.72"/>
	<line x1="788.40" y1="467.61" x2="788.40" y2="402.81" style="stroke:#EAF2F3;stroke-width:9.72"/>
	<line x1="788.40" y1="370.41" x2="788.40" y2="305.61" style="stroke:#EAF2F3;stroke-width:9.72"/>
	<line x1="788.40" y1="273.21" x2="788.40" y2="208.41" style="stroke:#EAF2F3;stroke-width:9.72"/>
	<line x1="788.40" y1="176.01" x2="788.40" y2="113.40" style="stroke:#EAF2F3;stroke-width:9.72"/>
	<line x1="2152.41" y1="2800.41" x2="2152.41" y2="2735.61" style="stroke:#EAF2F3;stroke-width:9.72"/>
	<line x1="2152.41" y1="2703.21" x2="2152.41" y2="2638.41" style="stroke:#EAF2F3;stroke-width:9.72"/>
	<line x1="2152.41" y1="2606.01" x2="2152.41" y2="2541.21" style="stroke:#EAF2F3;stroke-width:9.72"/>
	<line x1="2152.41" y1="2508.81" x2="2152.41" y2="2444.01" style="stroke:#EAF2F3;stroke-width:9.72"/>
	<line x1="2152.41" y1="2411.61" x2="2152.41" y2="2346.81" style="stroke:#EAF2F3;stroke-width:9.72"/>
	<line x1="2152.41" y1="2314.41" x2="2152.41" y2="2249.61" style="stroke:#EAF2F3;stroke-width:9.72"/>
	<line x1="2152.41" y1="2217.21" x2="2152.41" y2="2152.41" style="stroke:#EAF2F3;stroke-width:9.72"/>
	<line x1="2152.41" y1="2120.01" x2="2152.41" y2="2055.21" style="stroke:#EAF2F3;stroke-width:9.72"/>
	<line x1="2152.41" y1="2022.81" x2="2152.41" y2="1958.01" style="stroke:#EAF2F3;stroke-width:9.72"/>
	<line x1="2152.41" y1="1925.61" x2="2152.41" y2="1860.81" style="stroke:#EAF2F3;stroke-width:9.72"/>
	<line x1="2152.41" y1="1828.41" x2="2152.41" y2="1763.61" style="stroke:#EAF2F3;stroke-width:9.72"/>
	<line x1="2152.41" y1="1731.21" x2="2152.41" y2="1666.41" style="stroke:#EAF2F3;stroke-width:9.72"/>
	<line x1="2152.41" y1="1634.01" x2="2152.41" y2="1569.21" style="stroke:#EAF2F3;stroke-width:9.72"/>
	<line x1="2152.41" y1="1536.81" x2="2152.41" y2="1472.01" style="stroke:#EAF2F3;stroke-width:9.72"/>
	<line x1="2152.41" y1="1439.61" x2="2152.41" y2="1374.81" style="stroke:#EAF2F3;stroke-width:9.72"/>
	<line x1="2152.41" y1="1342.41" x2="2152.41" y2="1277.61" style="stroke:#EAF2F3;stroke-width:9.72"/>
	<line x1="2152.41" y1="1245.21" x2="2152.41" y2="1180.41" style="stroke:#EAF2F3;stroke-width:9.72"/>
	<line x1="2152.41" y1="1148.01" x2="2152.41" y2="1083.21" style="stroke:#EAF2F3;stroke-width:9.72"/>
	<line x1="2152.41" y1="1050.81" x2="2152.41" y2="986.01" style="stroke:#EAF2F3;stroke-width:9.72"/>
	<line x1="2152.41" y1="953.61" x2="2152.41" y2="888.81" style="stroke:#EAF2F3;stroke-width:9.72"/>
	<line x1="2152.41" y1="856.41" x2="2152.41" y2="791.61" style="stroke:#EAF2F3;stroke-width:9.72"/>
	<line x1="2152.41" y1="759.21" x2="2152.41" y2="694.41" style="stroke:#EAF2F3;stroke-width:9.72"/>
	<line x1="2152.41" y1="662.01" x2="2152.41" y2="597.21" style="stroke:#EAF2F3;stroke-width:9.72"/>
	<line x1="2152.41" y1="564.81" x2="2152.41" y2="500.01" style="stroke:#EAF2F3;stroke-width:9.72"/>
	<line x1="2152.41" y1="467.61" x2="2152.41" y2="402.81" style="stroke:#EAF2F3;stroke-width:9.72"/>
	<line x1="2152.41" y1="370.41" x2="2152.41" y2="305.61" style="stroke:#EAF2F3;stroke-width:9.72"/>
	<line x1="2152.41" y1="273.21" x2="2152.41" y2="208.41" style="stroke:#EAF2F3;stroke-width:9.72"/>
	<line x1="2152.41" y1="176.01" x2="2152.41" y2="113.40" style="stroke:#EAF2F3;stroke-width:9.72"/>
	<line x1="3516.41" y1="2800.41" x2="3516.41" y2="2735.61" style="stroke:#EAF2F3;stroke-width:9.72"/>
	<line x1="3516.41" y1="2703.21" x2="3516.41" y2="2638.41" style="stroke:#EAF2F3;stroke-width:9.72"/>
	<line x1="3516.41" y1="2606.01" x2="3516.41" y2="2541.21" style="stroke:#EAF2F3;stroke-width:9.72"/>
	<line x1="3516.41" y1="2508.81" x2="3516.41" y2="2444.01" style="stroke:#EAF2F3;stroke-width:9.72"/>
	<line x1="3516.41" y1="2411.61" x2="3516.41" y2="2346.81" style="stroke:#EAF2F3;stroke-width:9.72"/>
	<line x1="3516.41" y1="2314.41" x2="3516.41" y2="2249.61" style="stroke:#EAF2F3;stroke-width:9.72"/>
	<line x1="3516.41" y1="2217.21" x2="3516.41" y2="2152.41" style="stroke:#EAF2F3;stroke-width:9.72"/>
	<line x1="3516.41" y1="2120.01" x2="3516.41" y2="2055.21" style="stroke:#EAF2F3;stroke-width:9.72"/>
	<line x1="3516.41" y1="2022.81" x2="3516.41" y2="1958.01" style="stroke:#EAF2F3;stroke-width:9.72"/>
	<line x1="3516.41" y1="1925.61" x2="3516.41" y2="1860.81" style="stroke:#EAF2F3;stroke-width:9.72"/>
	<line x1="3516.41" y1="1828.41" x2="3516.41" y2="1763.61" style="stroke:#EAF2F3;stroke-width:9.72"/>
	<line x1="3516.41" y1="1731.21" x2="3516.41" y2="1666.41" style="stroke:#EAF2F3;stroke-width:9.72"/>
	<line x1="3516.41" y1="1634.01" x2="3516.41" y2="1569.21" style="stroke:#EAF2F3;stroke-width:9.72"/>
	<line x1="3516.41" y1="1536.81" x2="3516.41" y2="1472.01" style="stroke:#EAF2F3;stroke-width:9.72"/>
	<line x1="3516.41" y1="1439.61" x2="3516.41" y2="1374.81" style="stroke:#EAF2F3;stroke-width:9.72"/>
	<line x1="3516.41" y1="1342.41" x2="3516.41" y2="1277.61" style="stroke:#EAF2F3;stroke-width:9.72"/>
	<line x1="3516.41" y1="1245.21" x2="3516.41" y2="1180.41" style="stroke:#EAF2F3;stroke-width:9.72"/>
	<line x1="3516.41" y1="1148.01" x2="3516.41" y2="1083.21" style="stroke:#EAF2F3;stroke-width:9.72"/>
	<line x1="3516.41" y1="1050.81" x2="3516.41" y2="986.01" style="stroke:#EAF2F3;stroke-width:9.72"/>
	<line x1="3516.41" y1="953.61" x2="3516.41" y2="888.81" style="stroke:#EAF2F3;stroke-width:9.72"/>
	<line x1="3516.41" y1="856.41" x2="3516.41" y2="791.61" style="stroke:#EAF2F3;stroke-width:9.72"/>
	<line x1="3516.41" y1="759.21" x2="3516.41" y2="694.41" style="stroke:#EAF2F3;stroke-width:9.72"/>
	<line x1="3516.41" y1="662.01" x2="3516.41" y2="597.21" style="stroke:#EAF2F3;stroke-width:9.72"/>
	<line x1="3516.41" y1="564.81" x2="3516.41" y2="500.01" style="stroke:#EAF2F3;stroke-width:9.72"/>
	<line x1="3516.41" y1="467.61" x2="3516.41" y2="402.81" style="stroke:#EAF2F3;stroke-width:9.72"/>
	<line x1="3516.41" y1="370.41" x2="3516.41" y2="305.61" style="stroke:#EAF2F3;stroke-width:9.72"/>
	<line x1="3516.41" y1="273.21" x2="3516.41" y2="208.41" style="stroke:#EAF2F3;stroke-width:9.72"/>
	<line x1="3516.41" y1="176.01" x2="3516.41" y2="113.40" style="stroke:#EAF2F3;stroke-width:9.72"/>
	<path d=" M515.53 1144.97 L788.40 996.97 L1061.10 1105.48 L1333.97 1100.76 L1606.67 1114.26 L1879.54 1087.26 L2152.41 1065.49 L2425.11 1136.03 L2697.98 1186.65 L2970.84 1125.39 L3243.54 1027.69 L3516.41 1130.79 L3789.11 2729.19" stroke-linejoin="round" style="fill:none;stroke:#1A85FF;stroke-width:9.72"/>
	<path d=" M515.53 2393.04 L788.40 2406.21 L1061.10 2362.84 L1333.97 2423.76 L1606.67 2415.49 L1879.54 2555.21 L2152.41 2435.57 L2425.11 2591.66 L2697.98 2395.24 L2970.84 2513.19 L3243.54 2541.88 L3516.41 2598.75 L3789.11 2729.19" stroke-linejoin="round" style="fill:none;stroke:#D41159;stroke-width:9.72"/>
	<path d=" M515.53 2104.99 L788.40 2239.82 L1061.10 2174.68 L1333.97 2118.49 L1606.67 2113.43 L1879.54 2000.70 L2152.41 2141.94 L2425.11 1915.48 L2697.98 2061.28 L2970.84 2004.41 L3243.54 2073.60 L3516.41 1913.63 L3789.11 184.78" stroke-linejoin="round" style="fill:none;stroke:#00BF7F;stroke-width:9.72"/>
	<line x1="444.32" y1="2800.41" x2="444.32" y2="113.40" style="stroke:#000000;stroke-width:6.48"/>
	<line x1="444.32" y1="2729.03" x2="399.26" y2="2729.03" style="stroke:#000000;stroke-width:6.48"/>
	<text x="376.82" y="2768.46" style="font-family:'Helvetica';font-size:112.56px;fill:#000000" text-anchor="end">0</text>
	<line x1="444.32" y1="2220.24" x2="399.26" y2="2220.24" style="stroke:#000000;stroke-width:6.48"/>
	<text x="376.82" y="2259.68" style="font-family:'Helvetica';font-size:112.56px;fill:#000000" text-anchor="end">20</text>
	<line x1="444.32" y1="1711.29" x2="399.26" y2="1711.29" style="stroke:#000000;stroke-width:6.48"/>
	<text x="376.82" y="1750.73" style="font-family:'Helvetica';font-size:112.56px;fill:#000000" text-anchor="end">40</text>
	<line x1="444.32" y1="1202.51" x2="399.26" y2="1202.51" style="stroke:#000000;stroke-width:6.48"/>
	<text x="376.82" y="1241.95" style="font-family:'Helvetica';font-size:112.56px;fill:#000000" text-anchor="end">60</text>
	<line x1="444.32" y1="693.56" x2="399.26" y2="693.56" style="stroke:#000000;stroke-width:6.48"/>
	<text x="376.82" y="733.00" style="font-family:'Helvetica';font-size:112.56px;fill:#000000" text-anchor="end">80</text>
	<line x1="444.32" y1="184.61" x2="399.26" y2="184.61" style="stroke:#000000;stroke-width:6.48"/>
	<text x="376.82" y="224.05" style="font-family:'Helvetica';font-size:112.56px;fill:#000000" text-anchor="end">100</text>
	<line x1="444.32" y1="2800.41" x2="3860.49" y2="2800.41" style="stroke:#000000;stroke-width:6.48"/>
	<line x1="788.40" y1="2800.41" x2="788.40" y2="2845.29" style="stroke:#000000;stroke-width:6.48"/>
	<text x="788.40" y="2946.61" style="font-family:'Helvetica';font-size:112.56px;fill:#000000" text-anchor="middle">35</text>
	<line x1="2152.41" y1="2800.41" x2="2152.41" y2="2845.29" style="stroke:#000000;stroke-width:6.48"/>
	<text x="2152.41" y="2946.61" style="font-family:'Helvetica';font-size:112.56px;fill:#000000" text-anchor="middle">40</text>
	<line x1="3516.41" y1="2800.41" x2="3516.41" y2="2845.29" style="stroke:#000000;stroke-width:6.48"/>
	<text x="3516.41" y="2946.61" style="font-family:'Helvetica';font-size:112.56px;fill:#000000" text-anchor="middle">45</text>
	<text x="2152.41" y="3070.31" style="font-family:'Helvetica';font-size:112.56px;fill:#000000" text-anchor="middle">Age in current year</text>
	<rect x="3899.48" y="1194.58" width="1348.31" height="524.64" style="fill:#FFFFFF"/>
	<rect x="3902.71" y="1197.82" width="1341.83" height="518.16" style="fill:none;stroke:#FFFFFF;stroke-width:6.48"/>
	<line x1="3948.08" y1="1299.38" x2="4071.77" y2="1299.38" style="stroke:#1A85FF;stroke-width:9.72"/>
	<line x1="3948.08" y1="1456.82" x2="4071.77" y2="1456.82" style="stroke:#D41159;stroke-width:9.72"/>
	<line x1="3948.08" y1="1614.43" x2="4071.77" y2="1614.43" style="stroke:#00BF7F;stroke-width:9.72"/>
	<text x="4139.27" y="1338.81" style="font-family:'Helvetica';font-size:112.56px;fill:#000000">married</text>
	<text x="4139.27" y="1496.26" style="font-family:'Helvetica';font-size:112.56px;fill:#000000">never married</text>
	<text x="4139.27" y="1653.87" style="font-family:'Helvetica';font-size:112.56px;fill:#000000">divorced or widowed</text>
</svg>
