<?xml version="1.0" encoding="UTF-8" standalone="no"?>
<!-- This is a Stata 17.0 generated SVG file (http://www.stata.com) -->

<svg version="1.1" width="7.500in" height="4.500in" viewBox="0 0 5400 3240" xmlns="http://www.w3.org/2000/svg" xmlns:xlink="http://www.w3.org/1999/xlink">
	<desc>Stata Graph - Graph</desc>
	<rect x="0" y="0" width="5400" height="3240" style="fill:#FFFFFF;stroke:none"/>
	<rect x="0.00" y="0.00" width="5400.00" height="3240.00" style="fill:#FFFFFF"/>
	<rect x="3.24" y="3.24" width="5393.52" height="3233.52" style="fill:none;stroke:#FFFFFF;stroke-width:6.48"/>
	<rect x="491.23" y="113.40" width="3884.46" height="2641.95" style="fill:#FFFFFF"/>
	<rect x="494.47" y="116.64" width="3877.98" height="2635.47" style="fill:none;stroke:#FFFFFF;stroke-width:6.48"/>
	<line x1="491.23" y1="2755.35" x2="556.03" y2="2755.35" style="stroke:#EAF2F3;stroke-width:9.72"/>
	<line x1="588.43" y1="2755.35" x2="653.23" y2="2755.35" style="stroke:#EAF2F3;stroke-width:9.72"/>
	<line x1="685.63" y1="2755.35" x2="750.43" y2="2755.35" style="stroke:#EAF2F3;stroke-width:9.72"/>
	<line x1="782.83" y1="2755.35" x2="847.63" y2="2755.35" style="stroke:#EAF2F3;stroke-width:9.72"/>
	<line x1="880.03" y1="2755.35" x2="944.83" y2="2755.35" style="stroke:#EAF2F3;stroke-width:9.72"/>
	<line x1="977.23" y1="2755.35" x2="1042.03" y2="2755.35" style="stroke:#EAF2F3;stroke-width:9.72"/>
	<line x1="1074.43" y1="2755.35" x2="1139.23" y2="2755.35" style="stroke:#EAF2F3;stroke-width:9.72"/>
	<line x1="1171.63" y1="2755.35" x2="1236.43" y2="2755.35" style="stroke:#EAF2F3;stroke-width:9.72"/>
	<line x1="1268.83" y1="2755.35" x2="1333.63" y2="2755.35" style="stroke:#EAF2F3;stroke-width:9.72"/>
	<line x1="1366.03" y1="2755.35" x2="1430.83" y2="2755.35" style="stroke:#EAF2F3;stroke-width:9.72"/>
	<line x1="1463.23" y1="2755.35" x2="1528.03" y2="2755.35" style="stroke:#EAF2F3;stroke-width:9.72"/>
	<line x1="1560.43" y1="2755.35" x2="1625.23" y2="2755.35" style="stroke:#EAF2F3;stroke-width:9.72"/>
	<line x1="1657.63" y1="2755.35" x2="1722.43" y2="2755.35" style="stroke:#EAF2F3;stroke-width:9.72"/>
	<line x1="1754.83" y1="2755.35" x2="1819.63" y2="2755.35" style="stroke:#EAF2F3;stroke-width:9.72"/>
	<line x1="1852.03" y1="2755.35" x2="1916.83" y2="2755.35" style="stroke:#EAF2F3;stroke-width:9.72"/>
	<line x1="1949.23" y1="2755.35" x2="2014.03" y2="2755.35" style="stroke:#EAF2F3;stroke-width:9.72"/>
	<line x1="2046.43" y1="2755.35" x2="2111.23" y2="2755.35" style="stroke:#EAF2F3;stroke-width:9.72"/>
	<line x1="2143.63" y1="2755.35" x2="2208.43" y2="2755.35" style="stroke:#EAF2F3;stroke-width:9.72"/>
	<line x1="2240.83" y1="2755.35" x2="2305.63" y2="2755.35" style="stroke:#EAF2F3;stroke-width:9.72"/>
	<line x1="2338.03" y1="2755.35" x2="2402.83" y2="2755.35" style="stroke:#EAF2F3;stroke-width:9.72"/>
	<line x1="2435.23" y1="2755.35" x2="2500.03" y2="2755.35" style="stroke:#EAF2F3;stroke-width:9.72"/>
	<line x1="2532.43" y1="2755.35" x2="2597.23" y2="2755.35" style="stroke:#EAF2F3;stroke-width:9.72"/>
	<line x1="2629.63" y1="2755.35" x2="2694.43" y2="2755.35" style="stroke:#EAF2F3;stroke-width:9.72"/>
	<line x1="2726.83" y1="2755.35" x2="2791.63" y2="2755.35" style="stroke:#EAF2F3;stroke-width:9.72"/>
	<line x1="2824.03" y1="2755.35" x2="2888.83" y2="2755.35" style="stroke:#EAF2F3;stroke-width:9.72"/>
	<line x1="2921.23" y1="2755.35" x2="2986.03" y2="2755.35" style="stroke:#EAF2F3;stroke-width:9.72"/>
	<line x1="3018.43" y1="2755.35" x2="3083.23" y2="2755.35" style="stroke:#EAF2F3;stroke-width:9.72"/>
	<line x1="3115.63" y1="2755.35" x2="3180.43" y2="2755.35" style="stroke:#EAF2F3;stroke-width:9.72"/>
	<line x1="3212.83" y1="2755.35" x2="3277.63" y2="2755.35" style="stroke:#EAF2F3;stroke-width:9.72"/>
	<line x1="3310.03" y1="2755.35" x2="3374.83" y2="2755.35" style="stroke:#EAF2F3;stroke-width:9.72"/>
	<line x1="3407.23" y1="2755.35" x2="3472.03" y2="2755.35" style="stroke:#EAF2F3;stroke-width:9.72"/>
	<line x1="3504.43" y1="2755.35" x2="3569.23" y2="2755.35" style="stroke:#EAF2F3;stroke-width:9.72"/>
	<line x1="3601.63" y1="2755.35" x2="3666.43" y2="2755.35" style="stroke:#EAF2F3;stroke-width:9.72"/>
	<line x1="3698.83" y1="2755.35" x2="3763.63" y2="2755.35" style="stroke:#EAF2F3;stroke-width:9.72"/>
	<line x1="3796.03" y1="2755.35" x2="3860.83" y2="2755.35" style="stroke:#EAF2F3;stroke-width:9.72"/>
	<line x1="3893.23" y1="2755.35" x2="3958.03" y2="2755.35" style="stroke:#EAF2F3;stroke-width:9.72"/>
	<line x1="3990.43" y1="2755.35" x2="4055.23" y2="2755.35" style="stroke:#EAF2F3;stroke-width:9.72"/>
	<line x1="4087.63" y1="2755.35" x2="4152.43" y2="2755.35" style="stroke:#EAF2F3;stroke-width:9.72"/>
	<line x1="4184.83" y1="2755.35" x2="4249.63" y2="2755.35" style="stroke:#EAF2F3;stroke-width:9.72"/>
	<line x1="4282.03" y1="2755.35" x2="4346.83" y2="2755.35" style="stroke:#EAF2F3;stroke-width:9.72"/>
	<line x1="491.23" y1="1912.44" x2="556.03" y2="1912.44" style="stroke:#EAF2F3;stroke-width:9.72"/>
	<line x1="588.43" y1="1912.44" x2="653.23" y2="1912.44" style="stroke:#EAF2F3;stroke-width:9.72"/>
	<line x1="685.63" y1="1912.44" x2="750.43" y2="1912.44" style="stroke:#EAF2F3;stroke-width:9.72"/>
	<line x1="782.83" y1="1912.44" x2="847.63" y2="1912.44" style="stroke:#EAF2F3;stroke-width:9.72"/>
	<line x1="880.03" y1="1912.44" x2="944.83" y2="1912.44" style="stroke:#EAF2F3;stroke-width:9.72"/>
	<line x1="977.23" y1="1912.44" x2="1042.03" y2="1912.44" style="stroke:#EAF2F3;stroke-width:9.72"/>
	<line x1="1074.43" y1="1912.44" x2="1139.23" y2="1912.44" style="stroke:#EAF2F3;stroke-width:9.72"/>
	<line x1="1171.63" y1="1912.44" x2="1236.43" y2="1912.44" style="stroke:#EAF2F3;stroke-width:9.72"/>
	<line x1="1268.83" y1="1912.44" x2="1333.63" y2="1912.44" style="stroke:#EAF2F3;stroke-width:9.72"/>
	<line x1="1366.03" y1="1912.44" x2="1430.83" y2="1912.44" style="stroke:#EAF2F3;stroke-width:9.72"/>
	<line x1="1463.23" y1="1912.44" x2="1528.03" y2="1912.44" style="stroke:#EAF2F3;stroke-width:9.72"/>
	<line x1="1560.43" y1="1912.44" x2="1625.23" y2="1912.44" style="stroke:#EAF2F3;stroke-width:9.72"/>
	<line x1="1657.63" y1="1912.44" x2="1722.43" y2="1912.44" style="stroke:#EAF2F3;stroke-width:9.72"/>
	<line x1="1754.83" y1="1912.44" x2="1819.63" y2="1912.44" style="stroke:#EAF2F3;stroke-width:9.72"/>
	<line x1="1852.03" y1="1912.44" x2="1916.83" y2="1912.44" style="stroke:#EAF2F3;stroke-width:9.72"/>
	<line x1="1949.23" y1="1912.44" x2="2014.03" y2="1912.44" style="stroke:#EAF2F3;stroke-width:9.72"/>
	<line x1="2046.43" y1="1912.44" x2="2111.23" y2="1912.44" style="stroke:#EAF2F3;stroke-width:9.72"/>
	<line x1="2143.63" y1="1912.44" x2="2208.43" y2="1912.44" style="stroke:#EAF2F3;stroke-width:9.72"/>
	<line x1="2240.83" y1="1912.44" x2="2305.63" y2="1912.44" style="stroke:#EAF2F3;stroke-width:9.72"/>
	<line x1="2338.03" y1="1912.44" x2="2402.83" y2="1912.44" style="stroke:#EAF2F3;stroke-width:9.72"/>
	<line x1="2435.23" y1="1912.44" x2="2500.03" y2="1912.44" style="stroke:#EAF2F3;stroke-width:9.72"/>
	<line x1="2532.43" y1="1912.44" x2="2597.23" y2="1912.44" style="stroke:#EAF2F3;stroke-width:9.72"/>
	<line x1="2629.63" y1="1912.44" x2="2694.43" y2="1912.44" style="stroke:#EAF2F3;stroke-width:9.72"/>
	<line x1="2726.83" y1="1912.44" x2="2791.63" y2="1912.44" style="stroke:#EAF2F3;stroke-width:9.72"/>
	<line x1="2824.03" y1="1912.44" x2="2888.83" y2="1912.44" style="stroke:#EAF2F3;stroke-width:9.72"/>
	<line x1="2921.23" y1="1912.44" x2="2986.03" y2="1912.44" style="stroke:#EAF2F3;stroke-width:9.72"/>
	<line x1="3018.43" y1="1912.44" x2="3083.23" y2="1912.44" style="stroke:#EAF2F3;stroke-width:9.72"/>
	<line x1="3115.63" y1="1912.44" x2="3180.43" y2="1912.44" style="stroke:#EAF2F3;stroke-width:9.72"/>
	<line x1="3212.83" y1="1912.44" x2="3277.63" y2="1912.44" style="stroke:#EAF2F3;stroke-width:9.72"/>
	<line x1="3310.03" y1="1912.44" x2="3374.83" y2="1912.44" style="stroke:#EAF2F3;stroke-width:9.72"/>
	<line x1="3407.23" y1="1912.44" x2="3472.03" y2="1912.44" style="stroke:#EAF2F3;stroke-width:9.72"/>
	<line x1="3504.43" y1="1912.44" x2="3569.23" y2="1912.44" style="stroke:#EAF2F3;stroke-width:9.72"/>
	<line x1="3601.63" y1="1912.44" x2="3666.43" y2="1912.44" style="stroke:#EAF2F3;stroke-width:9.72"/>
	<line x1="3698.83" y1="1912.44" x2="3763.63" y2="1912.44" style="stroke:#EAF2F3;stroke-width:9.72"/>
	<line x1="3796.03" y1="1912.44" x2="3860.83" y2="1912.44" style="stroke:#EAF2F3;stroke-width:9.72"/>
	<line x1="3893.23" y1="1912.44" x2="3958.03" y2="1912.44" style="stroke:#EAF2F3;stroke-width:9.72"/>
	<line x1="3990.43" y1="1912.44" x2="4055.23" y2="1912.44" style="stroke:#EAF2F3;stroke-width:9.72"/>
	<line x1="4087.63" y1="1912.44" x2="4152.43" y2="1912.44" style="stroke:#EAF2F3;stroke-width:9.72"/>
	<line x1="4184.83" y1="1912.44" x2="4249.63" y2="1912.44" style="stroke:#EAF2F3;stroke-width:9.72"/>
	<line x1="4282.03" y1="1912.44" x2="4346.83" y2="1912.44" style="stroke:#EAF2F3;stroke-width:9.72"/>
	<line x1="491.23" y1="1069.71" x2="556.03" y2="1069.71" style="stroke:#EAF2F3;stroke-width:9.72"/>
	<line x1="588.43" y1="1069.71" x2="653.23" y2="1069.71" style="stroke:#EAF2F3;stroke-width:9.72"/>
	<line x1="685.63" y1="1069.71" x2="750.43" y2="1069.71" style="stroke:#EAF2F3;stroke-width:9.72"/>
	<line x1="782.83" y1="1069.71" x2="847.63" y2="1069.71" style="stroke:#EAF2F3;stroke-width:9.72"/>
	<line x1="880.03" y1="1069.71" x2="944.83" y2="1069.71" style="stroke:#EAF2F3;stroke-width:9.72"/>
	<line x1="977.23" y1="1069.71" x2="1042.03" y2="1069.71" style="stroke:#EAF2F3;stroke-width:9.72"/>
	<line x1="1074.43" y1="1069.71" x2="1139.23" y2="1069.71" style="stroke:#EAF2F3;stroke-width:9.72"/>
	<line x1="1171.63" y1="1069.71" x2="1236.43" y2="1069.71" style="stroke:#EAF2F3;stroke-width:9.72"/>
	<line x1="1268.83" y1="1069.71" x2="1333.63" y2="1069.71" style="stroke:#EAF2F3;stroke-width:9.72"/>
	<line x1="1366.03" y1="1069.71" x2="1430.83" y2="1069.71" style="stroke:#EAF2F3;stroke-width:9.72"/>
	<line x1="1463.23" y1="1069.71" x2="1528.03" y2="1069.71" style="stroke:#EAF2F3;stroke-width:9.72"/>
	<line x1="1560.43" y1="1069.71" x2="1625.23" y2="1069.71" style="stroke:#EAF2F3;stroke-width:9.72"/>
	<line x1="1657.63" y1="1069.71" x2="1722.43" y2="1069.71" style="stroke:#EAF2F3;stroke-width:9.72"/>
	<line x1="1754.83" y1="1069.71" x2="1819.63" y2="1069.71" style="stroke:#EAF2F3;stroke-width:9.72"/>
	<line x1="1852.03" y1="1069.71" x2="1916.83" y2="1069.71" style="stroke:#EAF2F3;stroke-width:9.72"/>
	<line x1="1949.23" y1="1069.71" x2="2014.03" y2="1069.71" style="stroke:#EAF2F3;stroke-width:9.72"/>
	<line x1="2046.43" y1="1069.71" x2="2111.23" y2="1069.71" style="stroke:#EAF2F3;stroke-width:9.72"/>
	<line x1="2143.63" y1="1069.71" x2="2208.43" y2="1069.71" style="stroke:#EAF2F3;stroke-width:9.72"/>
	<line x1="2240.83" y1="1069.71" x2="2305.63" y2="1069.71" style="stroke:#EAF2F3;stroke-width:9.72"/>
	<line x1="2338.03" y1="1069.71" x2="2402.83" y2="1069.71" style="stroke:#EAF2F3;stroke-width:9.72"/>
	<line x1="2435.23" y1="1069.71" x2="2500.03" y2="1069.71" style="stroke:#EAF2F3;stroke-width:9.72"/>
	<line x1="2532.43" y1="1069.71" x2="2597.23" y2="1069.71" style="stroke:#EAF2F3;stroke-width:9.72"/>
	<line x1="2629.63" y1="1069.71" x2="2694.43" y2="1069.71" style="stroke:#EAF2F3;stroke-width:9.72"/>
	<line x1="2726.83" y1="1069.71" x2="2791.63" y2="1069.71" style="stroke:#EAF2F3;stroke-width:9.72"/>
	<line x1="2824.03" y1="1069.71" x2="2888.83" y2="1069.71" style="stroke:#EAF2F3;stroke-width:9.72"/>
	<line x1="2921.23" y1="1069.71" x2="2986.03" y2="1069.71" style="stroke:#EAF2F3;stroke-width:9.72"/>
	<line x1="3018.43" y1="1069.71" x2="3083.23" y2="1069.71" style="stroke:#EAF2F3;stroke-width:9.72"/>
	<line x1="3115.63" y1="1069.71" x2="3180.43" y2="1069.71" style="stroke:#EAF2F3;stroke-width:9.72"/>
	<line x1="3212.83" y1="1069.71" x2="3277.63" y2="1069.71" style="stroke:#EAF2F3;stroke-width:9.72"/>
	<line x1="3310.03" y1="1069.71" x2="3374.83" y2="1069.71" style="stroke:#EAF2F3;stroke-width:9.72"/>
	<line x1="3407.23" y1="1069.71" x2="3472.03" y2="1069.71" style="stroke:#EAF2F3;stroke-width:9.72"/>
	<line x1="3504.43" y1="1069.71" x2="3569.23" y2="1069.71" style="stroke:#EAF2F3;stroke-width:9.72"/>
	<line x1="3601.63" y1="1069.71" x2="3666.43" y2="1069.71" style="stroke:#EAF2F3;stroke-width:9.72"/>
	<line x1="3698.83" y1="1069.71" x2="3763.63" y2="1069.71" style="stroke:#EAF2F3;stroke-width:9.72"/>
	<line x1="3796.03" y1="1069.71" x2="3860.83" y2="1069.71" style="stroke:#EAF2F3;stroke-width:9.72"/>
	<line x1="3893.23" y1="1069.71" x2="3958.03" y2="1069.71" style="stroke:#EAF2F3;stroke-width:9.72"/>
	<line x1="3990.43" y1="1069.71" x2="4055.23" y2="1069.71" style="stroke:#EAF2F3;stroke-width:9.72"/>
	<line x1="4087.63" y1="1069.71" x2="4152.43" y2="1069.71" style="stroke:#EAF2F3;stroke-width:9.72"/>
	<line x1="4184.83" y1="1069.71" x2="4249.63" y2="1069.71" style="stroke:#EAF2F3;stroke-width:9.72"/>
	<line x1="4282.03" y1="1069.71" x2="4346.83" y2="1069.71" style="stroke:#EAF2F3;stroke-width:9.72"/>
	<line x1="491.23" y1="226.80" x2="556.03" y2="226.80" style="stroke:#EAF2F3;stroke-width:9.72"/>
	<line x1="588.43" y1="226.80" x2="653.23" y2="226.80" style="stroke:#EAF2F3;stroke-width:9.72"/>
	<line x1="685.63" y1="226.80" x2="750.43" y2="226.80" style="stroke:#EAF2F3;stroke-width:9.72"/>
	<line x1="782.83" y1="226.80" x2="847.63" y2="226.80" style="stroke:#EAF2F3;stroke-width:9.72"/>
	<line x1="880.03" y1="226.80" x2="944.83" y2="226.80" style="stroke:#EAF2F3;stroke-width:9.72"/>
	<line x1="977.23" y1="226.80" x2="1042.03" y2="226.80" style="stroke:#EAF2F3;stroke-width:9.72"/>
	<line x1="1074.43" y1="226.80" x2="1139.23" y2="226.80" style="stroke:#EAF2F3;stroke-width:9.72"/>
	<line x1="1171.63" y1="226.80" x2="1236.43" y2="226.80" style="stroke:#EAF2F3;stroke-width:9.72"/>
	<line x1="1268.83" y1="226.80" x2="1333.63" y2="226.80" style="stroke:#EAF2F3;stroke-width:9.72"/>
	<line x1="1366.03" y1="226.80" x2="1430.83" y2="226.80" style="stroke:#EAF2F3;stroke-width:9.72"/>
	<line x1="1463.23" y1="226.80" x2="1528.03" y2="226.80" style="stroke:#EAF2F3;stroke-width:9.72"/>
	<line x1="1560.43" y1="226.80" x2="1625.23" y2="226.80" style="stroke:#EAF2F3;stroke-width:9.72"/>
	<line x1="1657.63" y1="226.80" x2="1722.43" y2="226.80" style="stroke:#EAF2F3;stroke-width:9.72"/>
	<line x1="1754.83" y1="226.80" x2="1819.63" y2="226.80" style="stroke:#EAF2F3;stroke-width:9.72"/>
	<line x1="1852.03" y1="226.80" x2="1916.83" y2="226.80" style="stroke:#EAF2F3;stroke-width:9.72"/>
	<line x1="1949.23" y1="226.80" x2="2014.03" y2="226.80" style="stroke:#EAF2F3;stroke-width:9.72"/>
	<line x1="2046.43" y1="226.80" x2="2111.23" y2="226.80" style="stroke:#EAF2F3;stroke-width:9.72"/>
	<line x1="2143.63" y1="226.80" x2="2208.43" y2="226.80" style="stroke:#EAF2F3;stroke-width:9.72"/>
	<line x1="2240.83" y1="226.80" x2="2305.63" y2="226.80" style="stroke:#EAF2F3;stroke-width:9.72"/>
	<line x1="2338.03" y1="226.80" x2="2402.83" y2="226.80" style="stroke:#EAF2F3;stroke-width:9.72"/>
	<line x1="2435.23" y1="226.80" x2="2500.03" y2="226.80" style="stroke:#EAF2F3;stroke-width:9.72"/>
	<line x1="2532.43" y1="226.80" x2="2597.23" y2="226.80" style="stroke:#EAF2F3;stroke-width:9.72"/>
	<line x1="2629.63" y1="226.80" x2="2694.43" y2="226.80" style="stroke:#EAF2F3;stroke-width:9.72"/>
	<line x1="2726.83" y1="226.80" x2="2791.63" y2="226.80" style="stroke:#EAF2F3;stroke-width:9.72"/>
	<line x1="2824.03" y1="226.80" x2="2888.83" y2="226.80" style="stroke:#EAF2F3;stroke-width:9.72"/>
	<line x1="2921.23" y1="226.80" x2="2986.03" y2="226.80" style="stroke:#EAF2F3;stroke-width:9.72"/>
	<line x1="3018.43" y1="226.80" x2="3083.23" y2="226.80" style="stroke:#EAF2F3;stroke-width:9.72"/>
	<line x1="3115.63" y1="226.80" x2="3180.43" y2="226.80" style="stroke:#EAF2F3;stroke-width:9.72"/>
	<line x1="3212.83" y1="226.80" x2="3277.63" y2="226.80" style="stroke:#EAF2F3;stroke-width:9.72"/>
	<line x1="3310.03" y1="226.80" x2="3374.83" y2="226.80" style="stroke:#EAF2F3;stroke-width:9.72"/>
	<line x1="3407.23" y1="226.80" x2="3472.03" y2="226.80" style="stroke:#EAF2F3;stroke-width:9.72"/>
	<line x1="3504.43" y1="226.80" x2="3569.23" y2="226.80" style="stroke:#EAF2F3;stroke-width:9.72"/>
	<line x1="3601.63" y1="226.80" x2="3666.43" y2="226.80" style="stroke:#EAF2F3;stroke-width:9.72"/>
	<line x1="3698.83" y1="226.80" x2="3763.63" y2="226.80" style="stroke:#EAF2F3;stroke-width:9.72"/>
	<line x1="3796.03" y1="226.80" x2="3860.83" y2="226.80" style="stroke:#EAF2F3;stroke-width:9.72"/>
	<line x1="3893.23" y1="226.80" x2="3958.03" y2="226.80" style="stroke:#EAF2F3;stroke-width:9.72"/>
	<line x1="3990.43" y1="226.80" x2="4055.23" y2="226.80" style="stroke:#EAF2F3;stroke-width:9.72"/>
	<line x1="4087.63" y1="226.80" x2="4152.43" y2="226.80" style="stroke:#EAF2F3;stroke-width:9.72"/>
	<line x1="4184.83" y1="226.80" x2="4249.63" y2="226.80" style="stroke:#EAF2F3;stroke-width:9.72"/>
	<line x1="4282.03" y1="226.80" x2="4346.83" y2="226.80" style="stroke:#EAF2F3;stroke-width:9.72"/>
	<rect x="666.90" y="1825.71" width="311.51" height="929.64" style="fill:#1A85FF"/>
	<rect x="670.14" y="1828.95" width="305.03" height="923.16" style="fill:none;stroke:#1A85FF;stroke-width:6.48"/>
	<rect x="978.41" y="1453.95" width="311.68" height="1301.40" style="fill:#D41159"/>
	<rect x="981.65" y="1457.19" width="305.20" height="1294.92" style="fill:none;stroke:#D41159;stroke-width:6.48"/>
	<rect x="1498.84" y="1767.15" width="311.51" height="988.20" style="fill:#1A85FF"/>
	<rect x="1502.08" y="1770.39" width="305.03" height="981.72" style="fill:none;stroke:#1A85FF;stroke-width:6.48"/>
	<rect x="1810.35" y="1525.33" width="311.51" height="1230.02" style="fill:#D41159"/>
	<rect x="1813.59" y="1528.57" width="305.03" height="1223.54" style="fill:none;stroke:#D41159;stroke-width:6.48"/>
	<rect x="2745.06" y="1250.94" width="311.51" height="1504.41" style="fill:#1A85FF"/>
	<rect x="2748.30" y="1254.18" width="305.03" height="1497.93" style="fill:none;stroke:#1A85FF;stroke-width:6.48"/>
	<rect x="3056.57" y="761.40" width="311.51" height="1993.95" style="fill:#D41159"/>
	<rect x="3059.81" y="764.64" width="305.03" height="1987.47" style="fill:none;stroke:#D41159;stroke-width:6.48"/>
	<rect x="3576.83" y="1384.09" width="311.68" height="1371.26" style="fill:#1A85FF"/>
	<rect x="3580.06" y="1387.33" width="305.20" height="1364.78" style="fill:none;stroke:#1A85FF;stroke-width:6.48"/>
	<rect x="3888.51" y="950.40" width="311.51" height="1804.95" style="fill:#D41159"/>
	<rect x="3891.75" y="953.64" width="305.03" height="1798.47" style="fill:none;stroke:#D41159;stroke-width:6.48"/>
	<line x1="491.23" y1="2755.35" x2="491.23" y2="113.40" style="stroke:#000000;stroke-width:6.48"/>
	<line x1="491.23" y1="2755.35" x2="446.18" y2="2755.35" style="stroke:#000000;stroke-width:6.48"/>
	<text x="423.73" y="2794.79" style="font-family:'Helvetica';font-size:112.56px;fill:#000000" text-anchor="end">0</text>
	<line x1="491.23" y1="1912.44" x2="446.18" y2="1912.44" style="stroke:#000000;stroke-width:6.48"/>
	<text x="423.73" y="1951.88" style="font-family:'Helvetica';font-size:112.56px;fill:#000000" text-anchor="end">5</text>
	<line x1="491.23" y1="1069.71" x2="446.18" y2="1069.71" style="stroke:#000000;stroke-width:6.48"/>
	<text x="423.73" y="1109.14" style="font-family:'Helvetica';font-size:112.56px;fill:#000000" text-anchor="end">10</text>
	<line x1="491.23" y1="226.80" x2="446.18" y2="226.80" style="stroke:#000000;stroke-width:6.48"/>
	<text x="423.73" y="266.24" style="font-family:'Helvetica';font-size:112.56px;fill:#000000" text-anchor="end">15</text>
	<text x="214.55" y="1434.38" style="font-family:'Helvetica';font-size:112.56px;fill:#000000" transform="rotate(-90 214.55,1434.38)" text-anchor="middle">mean of wage</text>
	<text x="1394.38" y="3066.79" style="font-family:'Helvetica';font-size:123.69px;fill:#000000" text-anchor="middle">Not college grad</text>
	<text x="3472.54" y="3066.79" style="font-family:'Helvetica';font-size:123.69px;fill:#000000" text-anchor="middle">College grad</text>
	<line x1="491.23" y1="2755.35" x2="4375.69" y2="2755.35" style="stroke:#000000;stroke-width:6.48"/>
	<text x="978.41" y="2879.11" style="font-family:'Helvetica';font-size:112.56px;fill:#000000" text-anchor="middle">Single</text>
	<text x="1810.35" y="2879.11" style="font-family:'Helvetica';font-size:112.56px;fill:#000000" text-anchor="middle">Married</text>
	<text x="3056.57" y="2879.11" style="font-family:'Helvetica';font-size:112.56px;fill:#000000" text-anchor="middle">Single</text>
	<text x="3888.51" y="2879.11" style="font-family:'Helvetica';font-size:112.56px;fill:#000000" text-anchor="middle">Married</text>
	<rect x="4414.67" y="1250.78" width="833.12" height="367.20" style="fill:#FFFFFF"/>
	<rect x="4417.91" y="1254.02" width="826.64" height="360.72" style="fill:none;stroke:#FFFFFF;stroke-width:6.48"/>
	<rect x="4463.27" y="1299.38" width="123.69" height="112.56" style="fill:#1A85FF"/>
	<rect x="4466.51" y="1302.62" width="117.21" height="106.08" style="fill:none;stroke:#1A85FF;stroke-width:6.48"/>
	<rect x="4463.27" y="1456.82" width="123.69" height="112.56" style="fill:#D41159"/>
	<rect x="4466.51" y="1460.06" width="117.21" height="106.08" style="fill:none;stroke:#D41159;stroke-width:6.48"/>
	<text x="4654.46" y="1395.01" style="font-family:'Helvetica';font-size:112.56px;fill:#000000">Not SMSA</text>
	<text x="4654.46" y="1552.62" style="font-family:'Helvetica';font-size:112.56px;fill:#000000">SMSA</text>
</svg>
