<?xml version="1.0" encoding="UTF-8" standalone="no"?>
<!-- This is a Stata 17.0 generated SVG file (http://www.stata.com) -->

<svg version="1.1" width="7.500in" height="4.500in" viewBox="0 0 5400 3240" xmlns="http://www.w3.org/2000/svg" xmlns:xlink="http://www.w3.org/1999/xlink">
	<desc>Stata Graph - Graph</desc>
	<rect x="0" y="0" width="5400" height="3240" style="fill:#FFFFFF;stroke:none"/>
	<rect x="0.00" y="0.00" width="5400.00" height="3240.00" style="fill:#FFFFFF"/>
	<rect x="3.24" y="3.24" width="5393.52" height="3233.52" style="fill:none;stroke:#FFFFFF;stroke-width:6.48"/>
	<rect x="491.23" y="113.40" width="3267.68" height="2833.14" style="fill:#FFFFFF"/>
	<rect x="494.47" y="116.64" width="3261.20" height="2826.66" style="fill:none;stroke:#FFFFFF;stroke-width:6.48"/>
	<line x1="491.23" y1="2946.54" x2="556.03" y2="2946.54" style="stroke:#EAF2F3;stroke-width:9.72"/>
	<line x1="588.43" y1="2946.54" x2="653.23" y2="2946.54" style="stroke:#EAF2F3;stroke-width:9.72"/>
	<line x1="685.63" y1="2946.54" x2="750.43" y2="2946.54" style="stroke:#EAF2F3;stroke-width:9.72"/>
	<line x1="782.83" y1="2946.54" x2="847.63" y2="2946.54" style="stroke:#EAF2F3;stroke-width:9.72"/>
	<line x1="880.03" y1="2946.54" x2="944.83" y2="2946.54" style="stroke:#EAF2F3;stroke-width:9.72"/>
	<line x1="977.23" y1="2946.54" x2="1042.03" y2="2946.54" style="stroke:#EAF2F3;stroke-width:9.72"/>
	<line x1="1074.43" y1="2946.54" x2="1139.23" y2="2946.54" style="stroke:#EAF2F3;stroke-width:9.72"/>
	<line x1="1171.63" y1="2946.54" x2="1236.43" y2="2946.54" style="stroke:#EAF2F3;stroke-width:9.72"/>
	<line x1="1268.83" y1="2946.54" x2="1333.63" y2="2946.54" style="stroke:#EAF2F3;stroke-width:9.72"/>
	<line x1="1366.03" y1="2946.54" x2="1430.83" y2="2946.54" style="stroke:#EAF2F3;stroke-width:9.72"/>
	<line x1="1463.23" y1="2946.54" x2="1528.03" y2="2946.54" style="stroke:#EAF2F3;stroke-width:9.72"/>
	<line x1="1560.43" y1="2946.54" x2="1625.23" y2="2946.54" style="stroke:#EAF2F3;stroke-width:9.72"/>
	<line x1="1657.63" y1="2946.54" x2="1722.43" y2="2946.54" style="stroke:#EAF2F3;stroke-width:9.72"/>
	<line x1="1754.83" y1="2946.54" x2="1819.63" y2="2946.54" style="stroke:#EAF2F3;stroke-width:9.72"/>
	<line x1="1852.03" y1="2946.54" x2="1916.83" y2="2946.54" style="stroke:#EAF2F3;stroke-width:9.72"/>
	<line x1="1949.23" y1="2946.54" x2="2014.03" y2="2946.54" style="stroke:#EAF2F3;stroke-width:9.72"/>
	<line x1="2046.43" y1="2946.54" x2="2111.23" y2="2946.54" style="stroke:#EAF2F3;stroke-width:9.72"/>
	<line x1="2143.63" y1="2946.54" x2="2208.43" y2="2946.54" style="stroke:#EAF2F3;stroke-width:9.72"/>
	<line x1="2240.83" y1="2946.54" x2="2305.63" y2="2946.54" style="stroke:#EAF2F3;stroke-width:9.72"/>
	<line x1="2338.03" y1="2946.54" x2="2402.83" y2="2946.54" style="stroke:#EAF2F3;stroke-width:9.72"/>
	<line x1="2435.23" y1="2946.54" x2="2500.03" y2="2946.54" style="stroke:#EAF2F3;stroke-width:9.72"/>
	<line x1="2532.43" y1="2946.54" x2="2597.23" y2="2946.54" style="stroke:#EAF2F3;stroke-width:9.72"/>
	<line x1="2629.63" y1="2946.54" x2="2694.43" y2="2946.54" style="stroke:#EAF2F3;stroke-width:9.72"/>
	<line x1="2726.83" y1="2946.54" x2="2791.63" y2="2946.54" style="stroke:#EAF2F3;stroke-width:9.72"/>
	<line x1="2824.03" y1="2946.54" x2="2888.83" y2="2946.54" style="stroke:#EAF2F3;stroke-width:9.72"/>
	<line x1="2921.23" y1="2946.54" x2="2986.03" y2="2946.54" style="stroke:#EAF2F3;stroke-width:9.72"/>
	<line x1="3018.43" y1="2946.54" x2="3083.23" y2="2946.54" style="stroke:#EAF2F3;stroke-width:9.72"/>
	<line x1="3115.63" y1="2946.54" x2="3180.43" y2="2946.54" style="stroke:#EAF2F3;stroke-width:9.72"/>
	<line x1="3212.83" y1="2946.54" x2="3277.63" y2="2946.54" style="stroke:#EAF2F3;stroke-width:9.72"/>
	<line x1="3310.03" y1="2946.54" x2="3374.83" y2="2946.54" style="stroke:#EAF2F3;stroke-width:9.72"/>
	<line x1="3407.23" y1="2946.54" x2="3472.03" y2="2946.54" style="stroke:#EAF2F3;stroke-width:9.72"/>
	<line x1="3504.43" y1="2946.54" x2="3569.23" y2="2946.54" style="stroke:#EAF2F3;stroke-width:9.72"/>
	<line x1="3601.63" y1="2946.54" x2="3666.43" y2="2946.54" style="stroke:#EAF2F3;stroke-width:9.72"/>
	<line x1="3698.83" y1="2946.54" x2="3758.91" y2="2946.54" style="stroke:#EAF2F3;stroke-width:9.72"/>
	<line x1="491.23" y1="2420.21" x2="556.03" y2="2420.21" style="stroke:#EAF2F3;stroke-width:9.72"/>
	<line x1="588.43" y1="2420.21" x2="653.23" y2="2420.21" style="stroke:#EAF2F3;stroke-width:9.72"/>
	<line x1="685.63" y1="2420.21" x2="750.43" y2="2420.21" style="stroke:#EAF2F3;stroke-width:9.72"/>
	<line x1="782.83" y1="2420.21" x2="847.63" y2="2420.21" style="stroke:#EAF2F3;stroke-width:9.72"/>
	<line x1="880.03" y1="2420.21" x2="944.83" y2="2420.21" style="stroke:#EAF2F3;stroke-width:9.72"/>
	<line x1="977.23" y1="2420.21" x2="1042.03" y2="2420.21" style="stroke:#EAF2F3;stroke-width:9.72"/>
	<line x1="1074.43" y1="2420.21" x2="1139.23" y2="2420.21" style="stroke:#EAF2F3;stroke-width:9.72"/>
	<line x1="1171.63" y1="2420.21" x2="1236.43" y2="2420.21" style="stroke:#EAF2F3;stroke-width:9.72"/>
	<line x1="1268.83" y1="2420.21" x2="1333.63" y2="2420.21" style="stroke:#EAF2F3;stroke-width:9.72"/>
	<line x1="1366.03" y1="2420.21" x2="1430.83" y2="2420.21" style="stroke:#EAF2F3;stroke-width:9.72"/>
	<line x1="1463.23" y1="2420.21" x2="1528.03" y2="2420.21" style="stroke:#EAF2F3;stroke-width:9.72"/>
	<line x1="1560.43" y1="2420.21" x2="1625.23" y2="2420.21" style="stroke:#EAF2F3;stroke-width:9.72"/>
	<line x1="1657.63" y1="2420.21" x2="1722.43" y2="2420.21" style="stroke:#EAF2F3;stroke-width:9.72"/>
	<line x1="1754.83" y1="2420.21" x2="1819.63" y2="2420.21" style="stroke:#EAF2F3;stroke-width:9.72"/>
	<line x1="1852.03" y1="2420.21" x2="1916.83" y2="2420.21" style="stroke:#EAF2F3;stroke-width:9.72"/>
	<line x1="1949.23" y1="2420.21" x2="2014.03" y2="2420.21" style="stroke:#EAF2F3;stroke-width:9.72"/>
	<line x1="2046.43" y1="2420.21" x2="2111.23" y2="2420.21" style="stroke:#EAF2F3;stroke-width:9.72"/>
	<line x1="2143.63" y1="2420.21" x2="2208.43" y2="2420.21" style="stroke:#EAF2F3;stroke-width:9.72"/>
	<line x1="2240.83" y1="2420.21" x2="2305.63" y2="2420.21" style="stroke:#EAF2F3;stroke-width:9.72"/>
	<line x1="2338.03" y1="2420.21" x2="2402.83" y2="2420.21" style="stroke:#EAF2F3;stroke-width:9.72"/>
	<line x1="2435.23" y1="2420.21" x2="2500.03" y2="2420.21" style="stroke:#EAF2F3;stroke-width:9.72"/>
	<line x1="2532.43" y1="2420.21" x2="2597.23" y2="2420.21" style="stroke:#EAF2F3;stroke-width:9.72"/>
	<line x1="2629.63" y1="2420.21" x2="2694.43" y2="2420.21" style="stroke:#EAF2F3;stroke-width:9.72"/>
	<line x1="2726.83" y1="2420.21" x2="2791.63" y2="2420.21" style="stroke:#EAF2F3;stroke-width:9.72"/>
	<line x1="2824.03" y1="2420.21" x2="2888.83" y2="2420.21" style="stroke:#EAF2F3;stroke-width:9.72"/>
	<line x1="2921.23" y1="2420.21" x2="2986.03" y2="2420.21" style="stroke:#EAF2F3;stroke-width:9.72"/>
	<line x1="3018.43" y1="2420.21" x2="3083.23" y2="2420.21" style="stroke:#EAF2F3;stroke-width:9.72"/>
	<line x1="3115.63" y1="2420.21" x2="3180.43" y2="2420.21" style="stroke:#EAF2F3;stroke-width:9.72"/>
	<line x1="3212.83" y1="2420.21" x2="3277.63" y2="2420.21" style="stroke:#EAF2F3;stroke-width:9.72"/>
	<line x1="3310.03" y1="2420.21" x2="3374.83" y2="2420.21" style="stroke:#EAF2F3;stroke-width:9.72"/>
	<line x1="3407.23" y1="2420.21" x2="3472.03" y2="2420.21" style="stroke:#EAF2F3;stroke-width:9.72"/>
	<line x1="3504.43" y1="2420.21" x2="3569.23" y2="2420.21" style="stroke:#EAF2F3;stroke-width:9.72"/>
	<line x1="3601.63" y1="2420.21" x2="3666.43" y2="2420.21" style="stroke:#EAF2F3;stroke-width:9.72"/>
	<line x1="3698.83" y1="2420.21" x2="3758.91" y2="2420.21" style="stroke:#EAF2F3;stroke-width:9.72"/>
	<line x1="491.23" y1="1893.71" x2="556.03" y2="1893.71" style="stroke:#EAF2F3;stroke-width:9.72"/>
	<line x1="588.43" y1="1893.71" x2="653.23" y2="1893.71" style="stroke:#EAF2F3;stroke-width:9.72"/>
	<line x1="685.63" y1="1893.71" x2="750.43" y2="1893.71" style="stroke:#EAF2F3;stroke-width:9.72"/>
	<line x1="782.83" y1="1893.71" x2="847.63" y2="1893.71" style="stroke:#EAF2F3;stroke-width:9.72"/>
	<line x1="880.03" y1="1893.71" x2="944.83" y2="1893.71" style="stroke:#EAF2F3;stroke-width:9.72"/>
	<line x1="977.23" y1="1893.71" x2="1042.03" y2="1893.71" style="stroke:#EAF2F3;stroke-width:9.72"/>
	<line x1="1074.43" y1="1893.71" x2="1139.23" y2="1893.71" style="stroke:#EAF2F3;stroke-width:9.72"/>
	<line x1="1171.63" y1="1893.71" x2="1236.43" y2="1893.71" style="stroke:#EAF2F3;stroke-width:9.72"/>
	<line x1="1268.83" y1="1893.71" x2="1333.63" y2="1893.71" style="stroke:#EAF2F3;stroke-width:9.72"/>
	<line x1="1366.03" y1="1893.71" x2="1430.83" y2="1893.71" style="stroke:#EAF2F3;stroke-width:9.72"/>
	<line x1="1463.23" y1="1893.71" x2="1528.03" y2="1893.71" style="stroke:#EAF2F3;stroke-width:9.72"/>
	<line x1="1560.43" y1="1893.71" x2="1625.23" y2="1893.71" style="stroke:#EAF2F3;stroke-width:9.72"/>
	<line x1="1657.63" y1="1893.71" x2="1722.43" y2="1893.71" style="stroke:#EAF2F3;stroke-width:9.72"/>
	<line x1="1754.83" y1="1893.71" x2="1819.63" y2="1893.71" style="stroke:#EAF2F3;stroke-width:9.72"/>
	<line x1="1852.03" y1="1893.71" x2="1916.83" y2="1893.71" style="stroke:#EAF2F3;stroke-width:9.72"/>
	<line x1="1949.23" y1="1893.71" x2="2014.03" y2="1893.71" style="stroke:#EAF2F3;stroke-width:9.72"/>
	<line x1="2046.43" y1="1893.71" x2="2111.23" y2="1893.71" style="stroke:#EAF2F3;stroke-width:9.72"/>
	<line x1="2143.63" y1="1893.71" x2="2208.43" y2="1893.71" style="stroke:#EAF2F3;stroke-width:9.72"/>
	<line x1="2240.83" y1="1893.71" x2="2305.63" y2="1893.71" style="stroke:#EAF2F3;stroke-width:9.72"/>
	<line x1="2338.03" y1="1893.71" x2="2402.83" y2="1893.71" style="stroke:#EAF2F3;stroke-width:9.72"/>
	<line x1="2435.23" y1="1893.71" x2="2500.03" y2="1893.71" style="stroke:#EAF2F3;stroke-width:9.72"/>
	<line x1="2532.43" y1="1893.71" x2="2597.23" y2="1893.71" style="stroke:#EAF2F3;stroke-width:9.72"/>
	<line x1="2629.63" y1="1893.71" x2="2694.43" y2="1893.71" style="stroke:#EAF2F3;stroke-width:9.72"/>
	<line x1="2726.83" y1="1893.71" x2="2791.63" y2="1893.71" style="stroke:#EAF2F3;stroke-width:9.72"/>
	<line x1="2824.03" y1="1893.71" x2="2888.83" y2="1893.71" style="stroke:#EAF2F3;stroke-width:9.72"/>
	<line x1="2921.23" y1="1893.71" x2="2986.03" y2="1893.71" style="stroke:#EAF2F3;stroke-width:9.72"/>
	<line x1="3018.43" y1="1893.71" x2="3083.23" y2="1893.71" style="stroke:#EAF2F3;stroke-width:9.72"/>
	<line x1="3115.63" y1="1893.71" x2="3180.43" y2="1893.71" style="stroke:#EAF2F3;stroke-width:9.72"/>
	<line x1="3212.83" y1="1893.71" x2="3277.63" y2="1893.71" style="stroke:#EAF2F3;stroke-width:9.72"/>
	<line x1="3310.03" y1="1893.71" x2="3374.83" y2="1893.71" style="stroke:#EAF2F3;stroke-width:9.72"/>
	<line x1="3407.23" y1="1893.71" x2="3472.03" y2="1893.71" style="stroke:#EAF2F3;stroke-width:9.72"/>
	<line x1="3504.43" y1="1893.71" x2="3569.23" y2="1893.71" style="stroke:#EAF2F3;stroke-width:9.72"/>
	<line x1="3601.63" y1="1893.71" x2="3666.43" y2="1893.71" style="stroke:#EAF2F3;stroke-width:9.72"/>
	<line x1="3698.83" y1="1893.71" x2="3758.91" y2="1893.71" style="stroke:#EAF2F3;stroke-width:9.72"/>
	<line x1="491.23" y1="1367.38" x2="556.03" y2="1367.38" style="stroke:#EAF2F3;stroke-width:9.72"/>
	<line x1="588.43" y1="1367.38" x2="653.23" y2="1367.38" style="stroke:#EAF2F3;stroke-width:9.72"/>
	<line x1="685.63" y1="1367.38" x2="750.43" y2="1367.38" style="stroke:#EAF2F3;stroke-width:9.72"/>
	<line x1="782.83" y1="1367.38" x2="847.63" y2="1367.38" style="stroke:#EAF2F3;stroke-width:9.72"/>
	<line x1="880.03" y1="1367.38" x2="944.83" y2="1367.38" style="stroke:#EAF2F3;stroke-width:9.72"/>
	<line x1="977.23" y1="1367.38" x2="1042.03" y2="1367.38" style="stroke:#EAF2F3;stroke-width:9.72"/>
	<line x1="1074.43" y1="1367.38" x2="1139.23" y2="1367.38" style="stroke:#EAF2F3;stroke-width:9.72"/>
	<line x1="1171.63" y1="1367.38" x2="1236.43" y2="1367.38" style="stroke:#EAF2F3;stroke-width:9.72"/>
	<line x1="1268.83" y1="1367.38" x2="1333.63" y2="1367.38" style="stroke:#EAF2F3;stroke-width:9.72"/>
	<line x1="1366.03" y1="1367.38" x2="1430.83" y2="1367.38" style="stroke:#EAF2F3;stroke-width:9.72"/>
	<line x1="1463.23" y1="1367.38" x2="1528.03" y2="1367.38" style="stroke:#EAF2F3;stroke-width:9.72"/>
	<line x1="1560.43" y1="1367.38" x2="1625.23" y2="1367.38" style="stroke:#EAF2F3;stroke-width:9.72"/>
	<line x1="1657.63" y1="1367.38" x2="1722.43" y2="1367.38" style="stroke:#EAF2F3;stroke-width:9.72"/>
	<line x1="1754.83" y1="1367.38" x2="1819.63" y2="1367.38" style="stroke:#EAF2F3;stroke-width:9.72"/>
	<line x1="1852.03" y1="1367.38" x2="1916.83" y2="1367.38" style="stroke:#EAF2F3;stroke-width:9.72"/>
	<line x1="1949.23" y1="1367.38" x2="2014.03" y2="1367.38" style="stroke:#EAF2F3;stroke-width:9.72"/>
	<line x1="2046.43" y1="1367.38" x2="2111.23" y2="1367.38" style="stroke:#EAF2F3;stroke-width:9.72"/>
	<line x1="2143.63" y1="1367.38" x2="2208.43" y2="1367.38" style="stroke:#EAF2F3;stroke-width:9.72"/>
	<line x1="2240.83" y1="1367.38" x2="2305.63" y2="1367.38" style="stroke:#EAF2F3;stroke-width:9.72"/>
	<line x1="2338.03" y1="1367.38" x2="2402.83" y2="1367.38" style="stroke:#EAF2F3;stroke-width:9.72"/>
	<line x1="2435.23" y1="1367.38" x2="2500.03" y2="1367.38" style="stroke:#EAF2F3;stroke-width:9.72"/>
	<line x1="2532.43" y1="1367.38" x2="2597.23" y2="1367.38" style="stroke:#EAF2F3;stroke-width:9.72"/>
	<line x1="2629.63" y1="1367.38" x2="2694.43" y2="1367.38" style="stroke:#EAF2F3;stroke-width:9.72"/>
	<line x1="2726.83" y1="1367.38" x2="2791.63" y2="1367.38" style="stroke:#EAF2F3;stroke-width:9.72"/>
	<line x1="2824.03" y1="1367.38" x2="2888.83" y2="1367.38" style="stroke:#EAF2F3;stroke-width:9.72"/>
	<line x1="2921.23" y1="1367.38" x2="2986.03" y2="1367.38" style="stroke:#EAF2F3;stroke-width:9.72"/>
	<line x1="3018.43" y1="1367.38" x2="3083.23" y2="1367.38" style="stroke:#EAF2F3;stroke-width:9.72"/>
	<line x1="3115.63" y1="1367.38" x2="3180.43" y2="1367.38" style="stroke:#EAF2F3;stroke-width:9.72"/>
	<line x1="3212.83" y1="1367.38" x2="3277.63" y2="1367.38" style="stroke:#EAF2F3;stroke-width:9.72"/>
	<line x1="3310.03" y1="1367.38" x2="3374.83" y2="1367.38" style="stroke:#EAF2F3;stroke-width:9.72"/>
	<line x1="3407.23" y1="1367.38" x2="3472.03" y2="1367.38" style="stroke:#EAF2F3;stroke-width:9.72"/>
	<line x1="3504.43" y1="1367.38" x2="3569.23" y2="1367.38" style="stroke:#EAF2F3;stroke-width:9.72"/>
	<line x1="3601.63" y1="1367.38" x2="3666.43" y2="1367.38" style="stroke:#EAF2F3;stroke-width:9.72"/>
	<line x1="3698.83" y1="1367.38" x2="3758.91" y2="1367.38" style="stroke:#EAF2F3;stroke-width:9.72"/>
	<line x1="491.23" y1="841.05" x2="556.03" y2="841.05" style="stroke:#EAF2F3;stroke-width:9.72"/>
	<line x1="588.43" y1="841.05" x2="653.23" y2="841.05" style="stroke:#EAF2F3;stroke-width:9.72"/>
	<line x1="685.63" y1="841.05" x2="750.43" y2="841.05" style="stroke:#EAF2F3;stroke-width:9.72"/>
	<line x1="782.83" y1="841.05" x2="847.63" y2="841.05" style="stroke:#EAF2F3;stroke-width:9.72"/>
	<line x1="880.03" y1="841.05" x2="944.83" y2="841.05" style="stroke:#EAF2F3;stroke-width:9.72"/>
	<line x1="977.23" y1="841.05" x2="1042.03" y2="841.05" style="stroke:#EAF2F3;stroke-width:9.72"/>
	<line x1="1074.43" y1="841.05" x2="1139.23" y2="841.05" style="stroke:#EAF2F3;stroke-width:9.72"/>
	<line x1="1171.63" y1="841.05" x2="1236.43" y2="841.05" style="stroke:#EAF2F3;stroke-width:9.72"/>
	<line x1="1268.83" y1="841.05" x2="1333.63" y2="841.05" style="stroke:#EAF2F3;stroke-width:9.72"/>
	<line x1="1366.03" y1="841.05" x2="1430.83" y2="841.05" style="stroke:#EAF2F3;stroke-width:9.72"/>
	<line x1="1463.23" y1="841.05" x2="1528.03" y2="841.05" style="stroke:#EAF2F3;stroke-width:9.72"/>
	<line x1="1560.43" y1="841.05" x2="1625.23" y2="841.05" style="stroke:#EAF2F3;stroke-width:9.72"/>
	<line x1="1657.63" y1="841.05" x2="1722.43" y2="841.05" style="stroke:#EAF2F3;stroke-width:9.72"/>
	<line x1="1754.83" y1="841.05" x2="1819.63" y2="841.05" style="stroke:#EAF2F3;stroke-width:9.72"/>
	<line x1="1852.03" y1="841.05" x2="1916.83" y2="841.05" style="stroke:#EAF2F3;stroke-width:9.72"/>
	<line x1="1949.23" y1="841.05" x2="2014.03" y2="841.05" style="stroke:#EAF2F3;stroke-width:9.72"/>
	<line x1="2046.43" y1="841.05" x2="2111.23" y2="841.05" style="stroke:#EAF2F3;stroke-width:9.72"/>
	<line x1="2143.63" y1="841.05" x2="2208.43" y2="841.05" style="stroke:#EAF2F3;stroke-width:9.72"/>
	<line x1="2240.83" y1="841.05" x2="2305.63" y2="841.05" style="stroke:#EAF2F3;stroke-width:9.72"/>
	<line x1="2338.03" y1="841.05" x2="2402.83" y2="841.05" style="stroke:#EAF2F3;stroke-width:9.72"/>
	<line x1="2435.23" y1="841.05" x2="2500.03" y2="841.05" style="stroke:#EAF2F3;stroke-width:9.72"/>
	<line x1="2532.43" y1="841.05" x2="2597.23" y2="841.05" style="stroke:#EAF2F3;stroke-width:9.72"/>
	<line x1="2629.63" y1="841.05" x2="2694.43" y2="841.05" style="stroke:#EAF2F3;stroke-width:9.72"/>
	<line x1="2726.83" y1="841.05" x2="2791.63" y2="841.05" style="stroke:#EAF2F3;stroke-width:9.72"/>
	<line x1="2824.03" y1="841.05" x2="2888.83" y2="841.05" style="stroke:#EAF2F3;stroke-width:9.72"/>
	<line x1="2921.23" y1="841.05" x2="2986.03" y2="841.05" style="stroke:#EAF2F3;stroke-width:9.72"/>
	<line x1="3018.43" y1="841.05" x2="3083.23" y2="841.05" style="stroke:#EAF2F3;stroke-width:9.72"/>
	<line x1="3115.63" y1="841.05" x2="3180.43" y2="841.05" style="stroke:#EAF2F3;stroke-width:9.72"/>
	<line x1="3212.83" y1="841.05" x2="3277.63" y2="841.05" style="stroke:#EAF2F3;stroke-width:9.72"/>
	<line x1="3310.03" y1="841.05" x2="3374.83" y2="841.05" style="stroke:#EAF2F3;stroke-width:9.72"/>
	<line x1="3407.23" y1="841.05" x2="3472.03" y2="841.05" style="stroke:#EAF2F3;stroke-width:9.72"/>
	<line x1="3504.43" y1="841.05" x2="3569.23" y2="841.05" style="stroke:#EAF2F3;stroke-width:9.72"/>
	<line x1="3601.63" y1="841.05" x2="3666.43" y2="841.05" style="stroke:#EAF2F3;stroke-width:9.72"/>
	<line x1="3698.83" y1="841.05" x2="3758.91" y2="841.05" style="stroke:#EAF2F3;stroke-width:9.72"/>
	<line x1="491.23" y1="314.55" x2="556.03" y2="314.55" style="stroke:#EAF2F3;stroke-width:9.72"/>
	<line x1="588.43" y1="314.55" x2="653.23" y2="314.55" style="stroke:#EAF2F3;stroke-width:9.72"/>
	<line x1="685.63" y1="314.55" x2="750.43" y2="314.55" style="stroke:#EAF2F3;stroke-width:9.72"/>
	<line x1="782.83" y1="314.55" x2="847.63" y2="314.55" style="stroke:#EAF2F3;stroke-width:9.72"/>
	<line x1="880.03" y1="314.55" x2="944.83" y2="314.55" style="stroke:#EAF2F3;stroke-width:9.72"/>
	<line x1="977.23" y1="314.55" x2="1042.03" y2="314.55" style="stroke:#EAF2F3;stroke-width:9.72"/>
	<line x1="1074.43" y1="314.55" x2="1139.23" y2="314.55" style="stroke:#EAF2F3;stroke-width:9.72"/>
	<line x1="1171.63" y1="314.55" x2="1236.43" y2="314.55" style="stroke:#EAF2F3;stroke-width:9.72"/>
	<line x1="1268.83" y1="314.55" x2="1333.63" y2="314.55" style="stroke:#EAF2F3;stroke-width:9.72"/>
	<line x1="1366.03" y1="314.55" x2="1430.83" y2="314.55" style="stroke:#EAF2F3;stroke-width:9.72"/>
	<line x1="1463.23" y1="314.55" x2="1528.03" y2="314.55" style="stroke:#EAF2F3;stroke-width:9.72"/>
	<line x1="1560.43" y1="314.55" x2="1625.23" y2="314.55" style="stroke:#EAF2F3;stroke-width:9.72"/>
	<line x1="1657.63" y1="314.55" x2="1722.43" y2="314.55" style="stroke:#EAF2F3;stroke-width:9.72"/>
	<line x1="1754.83" y1="314.55" x2="1819.63" y2="314.55" style="stroke:#EAF2F3;stroke-width:9.72"/>
	<line x1="1852.03" y1="314.55" x2="1916.83" y2="314.55" style="stroke:#EAF2F3;stroke-width:9.72"/>
	<line x1="1949.23" y1="314.55" x2="2014.03" y2="314.55" style="stroke:#EAF2F3;stroke-width:9.72"/>
	<line x1="2046.43" y1="314.55" x2="2111.23" y2="314.55" style="stroke:#EAF2F3;stroke-width:9.72"/>
	<line x1="2143.63" y1="314.55" x2="2208.43" y2="314.55" style="stroke:#EAF2F3;stroke-width:9.72"/>
	<line x1="2240.83" y1="314.55" x2="2305.63" y2="314.55" style="stroke:#EAF2F3;stroke-width:9.72"/>
	<line x1="2338.03" y1="314.55" x2="2402.83" y2="314.55" style="stroke:#EAF2F3;stroke-width:9.72"/>
	<line x1="2435.23" y1="314.55" x2="2500.03" y2="314.55" style="stroke:#EAF2F3;stroke-width:9.72"/>
	<line x1="2532.43" y1="314.55" x2="2597.23" y2="314.55" style="stroke:#EAF2F3;stroke-width:9.72"/>
	<line x1="2629.63" y1="314.55" x2="2694.43" y2="314.55" style="stroke:#EAF2F3;stroke-width:9.72"/>
	<line x1="2726.83" y1="314.55" x2="2791.63" y2="314.55" style="stroke:#EAF2F3;stroke-width:9.72"/>
	<line x1="2824.03" y1="314.55" x2="2888.83" y2="314.55" style="stroke:#EAF2F3;stroke-width:9.72"/>
	<line x1="2921.23" y1="314.55" x2="2986.03" y2="314.55" style="stroke:#EAF2F3;stroke-width:9.72"/>
	<line x1="3018.43" y1="314.55" x2="3083.23" y2="314.55" style="stroke:#EAF2F3;stroke-width:9.72"/>
	<line x1="3115.63" y1="314.55" x2="3180.43" y2="314.55" style="stroke:#EAF2F3;stroke-width:9.72"/>
	<line x1="3212.83" y1="314.55" x2="3277.63" y2="314.55" style="stroke:#EAF2F3;stroke-width:9.72"/>
	<line x1="3310.03" y1="314.55" x2="3374.83" y2="314.55" style="stroke:#EAF2F3;stroke-width:9.72"/>
	<line x1="3407.23" y1="314.55" x2="3472.03" y2="314.55" style="stroke:#EAF2F3;stroke-width:9.72"/>
	<line x1="3504.43" y1="314.55" x2="3569.23" y2="314.55" style="stroke:#EAF2F3;stroke-width:9.72"/>
	<line x1="3601.63" y1="314.55" x2="3666.43" y2="314.55" style="stroke:#EAF2F3;stroke-width:9.72"/>
	<line x1="3698.83" y1="314.55" x2="3758.91" y2="314.55" style="stroke:#EAF2F3;stroke-width:9.72"/>
	<rect x="640.24" y="357.75" width="178.20" height="2588.79" style="fill:#0062D8"/>
	<rect x="643.48" y="360.99" width="171.72" height="2582.31" style="fill:none;stroke:#0062D8;stroke-width:6.48"/>
	<rect x="818.44" y="294.13" width="178.03" height="2652.41" style="fill:#D6002E"/>
	<rect x="821.68" y="297.37" width="171.55" height="2645.93" style="fill:none;stroke:#D6002E;stroke-width:6.48"/>
	<rect x="996.47" y="1215.84" width="178.20" height="1730.70" style="fill:#00AF79"/>
	<rect x="999.71" y="1219.08" width="171.72" height="1724.22" style="fill:none;stroke:#00AF79;stroke-width:6.48"/>
	<rect x="1174.67" y="913.78" width="178.20" height="2032.76" style="fill:#FFD400"/>
	<rect x="1177.91" y="917.02" width="171.72" height="2026.28" style="fill:none;stroke:#FFD400;stroke-width:6.48"/>
	<rect x="1352.87" y="1096.88" width="178.03" height="1849.67" style="fill:#362C9B"/>
	<rect x="1356.11" y="1100.12" width="171.55" height="1843.19" style="fill:none;stroke:#362C9B;stroke-width:6.48"/>
	<rect x="1530.90" y="1693.58" width="178.20" height="1252.97" style="fill:#FF5027"/>
	<rect x="1534.14" y="1696.82" width="171.72" height="1246.49" style="fill:none;stroke:#FF5027;stroke-width:6.48"/>
	<rect x="1709.10" y="2149.03" width="178.03" height="797.51" style="fill:#4DB7FF"/>
	<rect x="1712.34" y="2152.27" width="171.55" height="791.03" style="fill:none;stroke:#4DB7FF;stroke-width:6.48"/>
	<rect x="1887.13" y="1708.43" width="178.20" height="1238.12" style="fill:#7C0015"/>
	<rect x="1890.37" y="1711.67" width="171.72" height="1231.64" style="fill:none;stroke:#7C0015;stroke-width:6.48"/>
	<rect x="2184.64" y="226.80" width="178.20" height="2719.74" style="fill:#0062D8"/>
	<rect x="2187.88" y="230.04" width="171.72" height="2713.26" style="fill:none;stroke:#0062D8;stroke-width:6.48"/>
	<rect x="2362.84" y="391.16" width="178.20" height="2555.38" style="fill:#D6002E"/>
	<rect x="2366.08" y="394.40" width="171.72" height="2548.90" style="fill:none;stroke:#D6002E;stroke-width:6.48"/>
	<rect x="2541.04" y="778.95" width="178.03" height="2167.59" style="fill:#00AF79"/>
	<rect x="2544.28" y="782.19" width="171.55" height="2161.11" style="fill:none;stroke:#00AF79;stroke-width:6.48"/>
	<rect x="2719.07" y="1269.51" width="178.20" height="1677.04" style="fill:#FFD400"/>
	<rect x="2722.31" y="1272.75" width="171.72" height="1670.56" style="fill:none;stroke:#FFD400;stroke-width:6.48"/>
	<rect x="2897.27" y="713.81" width="178.20" height="2232.73" style="fill:#362C9B"/>
	<rect x="2900.51" y="717.05" width="171.72" height="2226.25" style="fill:none;stroke:#362C9B;stroke-width:6.48"/>
	<rect x="3075.47" y="1045.07" width="178.03" height="1901.48" style="fill:#FF5027"/>
	<rect x="3078.71" y="1048.31" width="171.55" height="1895.00" style="fill:none;stroke:#FF5027;stroke-width:6.48"/>
	<rect x="3253.50" y="1989.23" width="178.20" height="957.32" style="fill:#4DB7FF"/>
	<rect x="3256.74" y="1992.47" width="171.72" height="950.84" style="fill:none;stroke:#4DB7FF;stroke-width:6.48"/>
	<rect x="3431.70" y="1121.18" width="178.03" height="1825.37" style="fill:#7C0015"/>
	<rect x="3434.94" y="1124.42" width="171.55" height="1818.89" style="fill:none;stroke:#7C0015;stroke-width:6.48"/>
	<line x1="491.23" y1="2946.54" x2="491.23" y2="113.40" style="stroke:#000000;stroke-width:6.48"/>
	<line x1="491.23" y1="2946.54" x2="446.18" y2="2946.54" style="stroke:#000000;stroke-width:6.48"/>
	<text x="423.73" y="2985.98" style="font-family:'Helvetica';font-size:112.56px;fill:#000000" text-anchor="end">0</text>
	<line x1="491.23" y1="2420.21" x2="446.18" y2="2420.21" style="stroke:#000000;stroke-width:6.48"/>
	<text x="423.73" y="2459.65" style="font-family:'Helvetica';font-size:112.56px;fill:#000000" text-anchor="end">2</text>
	<line x1="491.23" y1="1893.71" x2="446.18" y2="1893.71" style="stroke:#000000;stroke-width:6.48"/>
	<text x="423.73" y="1933.15" style="font-family:'Helvetica';font-size:112.56px;fill:#000000" text-anchor="end">4</text>
	<line x1="491.23" y1="1367.38" x2="446.18" y2="1367.38" style="stroke:#000000;stroke-width:6.48"/>
	<text x="423.73" y="1406.82" style="font-family:'Helvetica';font-size:112.56px;fill:#000000" text-anchor="end">6</text>
	<line x1="491.23" y1="841.05" x2="446.18" y2="841.05" style="stroke:#000000;stroke-width:6.48"/>
	<text x="423.73" y="880.49" style="font-family:'Helvetica';font-size:112.56px;fill:#000000" text-anchor="end">8</text>
	<line x1="491.23" y1="314.55" x2="446.18" y2="314.55" style="stroke:#000000;stroke-width:6.48"/>
	<text x="423.73" y="353.99" style="font-family:'Helvetica';font-size:112.56px;fill:#000000" text-anchor="end">10</text>
	<text x="214.55" y="1530.06" style="font-family:'Helvetica';font-size:112.56px;fill:#000000" transform="rotate(-90 214.55,1530.06)" text-anchor="middle">mean of wage</text>
	<line x1="491.23" y1="2946.54" x2="3758.91" y2="2946.54" style="stroke:#000000;stroke-width:6.48"/>
	<text x="1352.87" y="3070.31" style="font-family:'Helvetica';font-size:112.56px;fill:#000000" text-anchor="middle">Nonunion</text>
	<text x="2897.27" y="3070.31" style="font-family:'Helvetica';font-size:112.56px;fill:#000000" text-anchor="middle">Union</text>
	<rect x="3797.72" y="873.96" width="1450.07" height="1312.20" style="fill:#FFFFFF"/>
	<rect x="3800.96" y="877.20" width="1443.59" height="1305.72" style="fill:none;stroke:#FFFFFF;stroke-width:6.48"/>
	<rect x="3846.32" y="922.56" width="123.69" height="112.39" style="fill:#0062D8"/>
	<rect x="3849.56" y="925.80" width="117.21" height="105.91" style="fill:none;stroke:#0062D8;stroke-width:6.48"/>
	<rect x="3846.32" y="1080.00" width="123.69" height="112.56" style="fill:#D6002E"/>
	<rect x="3849.56" y="1083.24" width="117.21" height="106.08" style="fill:none;stroke:#D6002E;stroke-width:6.48"/>
	<rect x="3846.32" y="1237.44" width="123.69" height="112.56" style="fill:#00AF79"/>
	<rect x="3849.56" y="1240.68" width="117.21" height="106.08" style="fill:none;stroke:#00AF79;stroke-width:6.48"/>
	<rect x="3846.32" y="1395.06" width="123.69" height="112.39" style="fill:#FFD400"/>
	<rect x="3849.56" y="1398.30" width="117.21" height="105.91" style="fill:none;stroke:#FFD400;stroke-width:6.48"/>
	<rect x="3846.32" y="1552.50" width="123.69" height="112.56" style="fill:#362C9B"/>
	<rect x="3849.56" y="1555.74" width="117.21" height="106.08" style="fill:none;stroke:#362C9B;stroke-width:6.48"/>
	<rect x="3846.32" y="1709.94" width="123.69" height="112.56" style="fill:#FF5027"/>
	<rect x="3849.56" y="1713.18" width="117.21" height="106.08" style="fill:none;stroke:#FF5027;stroke-width:6.48"/>
	<rect x="3846.32" y="1867.56" width="123.69" height="112.39" style="fill:#4DB7FF"/>
	<rect x="3849.56" y="1870.80" width="117.21" height="105.91" style="fill:none;stroke:#4DB7FF;stroke-width:6.48"/>
	<rect x="3846.32" y="2025.00" width="123.69" height="112.56" style="fill:#7C0015"/>
	<rect x="3849.56" y="2028.24" width="117.21" height="106.08" style="fill:none;stroke:#7C0015;stroke-width:6.48"/>
	<text x="4037.51" y="1018.19" style="font-family:'Helvetica';font-size:112.56px;fill:#000000">Professional/Technical</text>
	<text x="4037.51" y="1175.63" style="font-family:'Helvetica';font-size:112.56px;fill:#000000">Managers/Admin</text>
	<text x="4037.51" y="1333.24" style="font-family:'Helvetica';font-size:112.56px;fill:#000000">Sales</text>
	<text x="4037.51" y="1490.69" style="font-family:'Helvetica';font-size:112.56px;fill:#000000">Clerical/Unskilled</text>
	<text x="4037.51" y="1648.13" style="font-family:'Helvetica';font-size:112.56px;fill:#000000">Craftsmen</text>
	<text x="4037.51" y="1805.74" style="font-family:'Helvetica';font-size:112.56px;fill:#000000">Operatives</text>
	<text x="4037.51" y="1963.19" style="font-family:'Helvetica';font-size:112.56px;fill:#000000">Transport</text>
	<text x="4037.51" y="2120.63" style="font-family:'Helvetica';font-size:112.56px;fill:#000000">Laborers</text>
</svg>
