<?xml version="1.0" encoding="UTF-8" standalone="no"?>
<!-- This is a Stata 17.0 generated SVG file (http://www.stata.com) -->

<svg version="1.1" width="7.500in" height="4.500in" viewBox="0 0 5400 3240" xmlns="http://www.w3.org/2000/svg" xmlns:xlink="http://www.w3.org/1999/xlink">
	<desc>Stata Graph - Graph</desc>
	<rect x="0" y="0" width="5400" height="3240" style="fill:#FFFFFF;stroke:none"/>
	<rect x="0.00" y="0.00" width="5400.00" height="3240.00" style="fill:#FFFFFF"/>
	<rect x="3.24" y="3.24" width="5393.52" height="3233.52" style="fill:none;stroke:#FFFFFF;stroke-width:6.48"/>
	<rect x="556.88" y="596.19" width="4729.73" height="2030.23" style="fill:#FFFFFF"/>
	<rect x="560.12" y="599.43" width="4723.25" height="2023.75" style="fill:none;stroke:#FFFFFF;stroke-width:6.48"/>
	<line x1="556.88" y1="2513.03" x2="621.67" y2="2513.03" style="stroke:#EAF2F3;stroke-width:9.72"/>
	<line x1="654.08" y1="2513.03" x2="718.88" y2="2513.03" style="stroke:#EAF2F3;stroke-width:9.72"/>
	<line x1="751.28" y1="2513.03" x2="816.08" y2="2513.03" style="stroke:#EAF2F3;stroke-width:9.72"/>
	<line x1="848.48" y1="2513.03" x2="913.28" y2="2513.03" style="stroke:#EAF2F3;stroke-width:9.72"/>
	<line x1="945.68" y1="2513.03" x2="1010.48" y2="2513.03" style="stroke:#EAF2F3;stroke-width:9.72"/>
	<line x1="1042.88" y1="2513.03" x2="1107.68" y2="2513.03" style="stroke:#EAF2F3;stroke-width:9.72"/>
	<line x1="1140.08" y1="2513.03" x2="1204.88" y2="2513.03" style="stroke:#EAF2F3;stroke-width:9.72"/>
	<line x1="1237.28" y1="2513.03" x2="1302.08" y2="2513.03" style="stroke:#EAF2F3;stroke-width:9.72"/>
	<line x1="1334.48" y1="2513.03" x2="1399.28" y2="2513.03" style="stroke:#EAF2F3;stroke-width:9.72"/>
	<line x1="1431.68" y1="2513.03" x2="1496.48" y2="2513.03" style="stroke:#EAF2F3;stroke-width:9.72"/>
	<line x1="1528.88" y1="2513.03" x2="1593.68" y2="2513.03" style="stroke:#EAF2F3;stroke-width:9.72"/>
	<line x1="1626.08" y1="2513.03" x2="1690.88" y2="2513.03" style="stroke:#EAF2F3;stroke-width:9.72"/>
	<line x1="1723.28" y1="2513.03" x2="1788.08" y2="2513.03" style="stroke:#EAF2F3;stroke-width:9.72"/>
	<line x1="1820.48" y1="2513.03" x2="1885.28" y2="2513.03" style="stroke:#EAF2F3;stroke-width:9.72"/>
	<line x1="1917.68" y1="2513.03" x2="1982.48" y2="2513.03" style="stroke:#EAF2F3;stroke-width:9.72"/>
	<line x1="2014.88" y1="2513.03" x2="2079.68" y2="2513.03" style="stroke:#EAF2F3;stroke-width:9.72"/>
	<line x1="2112.07" y1="2513.03" x2="2176.88" y2="2513.03" style="stroke:#EAF2F3;stroke-width:9.72"/>
	<line x1="2209.28" y1="2513.03" x2="2274.07" y2="2513.03" style="stroke:#EAF2F3;stroke-width:9.72"/>
	<line x1="2306.48" y1="2513.03" x2="2371.28" y2="2513.03" style="stroke:#EAF2F3;stroke-width:9.72"/>
	<line x1="2403.68" y1="2513.03" x2="2468.48" y2="2513.03" style="stroke:#EAF2F3;stroke-width:9.72"/>
	<line x1="2500.88" y1="2513.03" x2="2565.68" y2="2513.03" style="stroke:#EAF2F3;stroke-width:9.72"/>
	<line x1="2598.07" y1="2513.03" x2="2662.88" y2="2513.03" style="stroke:#EAF2F3;stroke-width:9.72"/>
	<line x1="2695.28" y1="2513.03" x2="2760.08" y2="2513.03" style="stroke:#EAF2F3;stroke-width:9.72"/>
	<line x1="2792.48" y1="2513.03" x2="2857.28" y2="2513.03" style="stroke:#EAF2F3;stroke-width:9.72"/>
	<line x1="2889.68" y1="2513.03" x2="2954.48" y2="2513.03" style="stroke:#EAF2F3;stroke-width:9.72"/>
	<line x1="2986.88" y1="2513.03" x2="3051.68" y2="2513.03" style="stroke:#EAF2F3;stroke-width:9.72"/>
	<line x1="3084.08" y1="2513.03" x2="3148.88" y2="2513.03" style="stroke:#EAF2F3;stroke-width:9.72"/>
	<line x1="3181.28" y1="2513.03" x2="3246.08" y2="2513.03" style="stroke:#EAF2F3;stroke-width:9.72"/>
	<line x1="3278.48" y1="2513.03" x2="3343.28" y2="2513.03" style="stroke:#EAF2F3;stroke-width:9.72"/>
	<line x1="3375.68" y1="2513.03" x2="3440.48" y2="2513.03" style="stroke:#EAF2F3;stroke-width:9.72"/>
	<line x1="3472.88" y1="2513.03" x2="3537.68" y2="2513.03" style="stroke:#EAF2F3;stroke-width:9.72"/>
	<line x1="3570.08" y1="2513.03" x2="3634.88" y2="2513.03" style="stroke:#EAF2F3;stroke-width:9.72"/>
	<line x1="3667.28" y1="2513.03" x2="3732.08" y2="2513.03" style="stroke:#EAF2F3;stroke-width:9.72"/>
	<line x1="3764.48" y1="2513.03" x2="3829.28" y2="2513.03" style="stroke:#EAF2F3;stroke-width:9.72"/>
	<line x1="3861.68" y1="2513.03" x2="3926.48" y2="2513.03" style="stroke:#EAF2F3;stroke-width:9.72"/>
	<line x1="3958.88" y1="2513.03" x2="4023.68" y2="2513.03" style="stroke:#EAF2F3;stroke-width:9.72"/>
	<line x1="4056.08" y1="2513.03" x2="4120.88" y2="2513.03" style="stroke:#EAF2F3;stroke-width:9.72"/>
	<line x1="4153.27" y1="2513.03" x2="4218.08" y2="2513.03" style="stroke:#EAF2F3;stroke-width:9.72"/>
	<line x1="4250.48" y1="2513.03" x2="4315.27" y2="2513.03" style="stroke:#EAF2F3;stroke-width:9.72"/>
	<line x1="4347.68" y1="2513.03" x2="4412.48" y2="2513.03" style="stroke:#EAF2F3;stroke-width:9.72"/>
	<line x1="4444.88" y1="2513.03" x2="4509.68" y2="2513.03" style="stroke:#EAF2F3;stroke-width:9.72"/>
	<line x1="4542.08" y1="2513.03" x2="4606.88" y2="2513.03" style="stroke:#EAF2F3;stroke-width:9.72"/>
	<line x1="4639.27" y1="2513.03" x2="4704.08" y2="2513.03" style="stroke:#EAF2F3;stroke-width:9.72"/>
	<line x1="4736.48" y1="2513.03" x2="4801.27" y2="2513.03" style="stroke:#EAF2F3;stroke-width:9.72"/>
	<line x1="4833.68" y1="2513.03" x2="4898.48" y2="2513.03" style="stroke:#EAF2F3;stroke-width:9.72"/>
	<line x1="4930.88" y1="2513.03" x2="4995.68" y2="2513.03" style="stroke:#EAF2F3;stroke-width:9.72"/>
	<line x1="5028.08" y1="2513.03" x2="5092.88" y2="2513.03" style="stroke:#EAF2F3;stroke-width:9.72"/>
	<line x1="5125.27" y1="2513.03" x2="5190.08" y2="2513.03" style="stroke:#EAF2F3;stroke-width:9.72"/>
	<line x1="5222.48" y1="2513.03" x2="5286.60" y2="2513.03" style="stroke:#EAF2F3;stroke-width:9.72"/>
	<line x1="556.88" y1="1958.18" x2="621.67" y2="1958.18" style="stroke:#EAF2F3;stroke-width:9.72"/>
	<line x1="654.08" y1="1958.18" x2="718.88" y2="1958.18" style="stroke:#EAF2F3;stroke-width:9.72"/>
	<line x1="751.28" y1="1958.18" x2="816.08" y2="1958.18" style="stroke:#EAF2F3;stroke-width:9.72"/>
	<line x1="848.48" y1="1958.18" x2="913.28" y2="1958.18" style="stroke:#EAF2F3;stroke-width:9.72"/>
	<line x1="945.68" y1="1958.18" x2="1010.48" y2="1958.18" style="stroke:#EAF2F3;stroke-width:9.72"/>
	<line x1="1042.88" y1="1958.18" x2="1107.68" y2="1958.18" style="stroke:#EAF2F3;stroke-width:9.72"/>
	<line x1="1140.08" y1="1958.18" x2="1204.88" y2="1958.18" style="stroke:#EAF2F3;stroke-width:9.72"/>
	<line x1="1237.28" y1="1958.18" x2="1302.08" y2="1958.18" style="stroke:#EAF2F3;stroke-width:9.72"/>
	<line x1="1334.48" y1="1958.18" x2="1399.28" y2="1958.18" style="stroke:#EAF2F3;stroke-width:9.72"/>
	<line x1="1431.68" y1="1958.18" x2="1496.48" y2="1958.18" style="stroke:#EAF2F3;stroke-width:9.72"/>
	<line x1="1528.88" y1="1958.18" x2="1593.68" y2="1958.18" style="stroke:#EAF2F3;stroke-width:9.72"/>
	<line x1="1626.08" y1="1958.18" x2="1690.88" y2="1958.18" style="stroke:#EAF2F3;stroke-width:9.72"/>
	<line x1="1723.28" y1="1958.18" x2="1788.08" y2="1958.18" style="stroke:#EAF2F3;stroke-width:9.72"/>
	<line x1="1820.48" y1="1958.18" x2="1885.28" y2="1958.18" style="stroke:#EAF2F3;stroke-width:9.72"/>
	<line x1="1917.68" y1="1958.18" x2="1982.48" y2="1958.18" style="stroke:#EAF2F3;stroke-width:9.72"/>
	<line x1="2014.88" y1="1958.18" x2="2079.68" y2="1958.18" style="stroke:#EAF2F3;stroke-width:9.72"/>
	<line x1="2112.07" y1="1958.18" x2="2176.88" y2="1958.18" style="stroke:#EAF2F3;stroke-width:9.72"/>
	<line x1="2209.28" y1="1958.18" x2="2274.07" y2="1958.18" style="stroke:#EAF2F3;stroke-width:9.72"/>
	<line x1="2306.48" y1="1958.18" x2="2371.28" y2="1958.18" style="stroke:#EAF2F3;stroke-width:9.72"/>
	<line x1="2403.68" y1="1958.18" x2="2468.48" y2="1958.18" style="stroke:#EAF2F3;stroke-width:9.72"/>
	<line x1="2500.88" y1="1958.18" x2="2565.68" y2="1958.18" style="stroke:#EAF2F3;stroke-width:9.72"/>
	<line x1="2598.07" y1="1958.18" x2="2662.88" y2="1958.18" style="stroke:#EAF2F3;stroke-width:9.72"/>
	<line x1="2695.28" y1="1958.18" x2="2760.08" y2="1958.18" style="stroke:#EAF2F3;stroke-width:9.72"/>
	<line x1="2792.48" y1="1958.18" x2="2857.28" y2="1958.18" style="stroke:#EAF2F3;stroke-width:9.72"/>
	<line x1="2889.68" y1="1958.18" x2="2954.48" y2="1958.18" style="stroke:#EAF2F3;stroke-width:9.72"/>
	<line x1="2986.88" y1="1958.18" x2="3051.68" y2="1958.18" style="stroke:#EAF2F3;stroke-width:9.72"/>
	<line x1="3084.08" y1="1958.18" x2="3148.88" y2="1958.18" style="stroke:#EAF2F3;stroke-width:9.72"/>
	<line x1="3181.28" y1="1958.18" x2="3246.08" y2="1958.18" style="stroke:#EAF2F3;stroke-width:9.72"/>
	<line x1="3278.48" y1="1958.18" x2="3343.28" y2="1958.18" style="stroke:#EAF2F3;stroke-width:9.72"/>
	<line x1="3375.68" y1="1958.18" x2="3440.48" y2="1958.18" style="stroke:#EAF2F3;stroke-width:9.72"/>
	<line x1="3472.88" y1="1958.18" x2="3537.68" y2="1958.18" style="stroke:#EAF2F3;stroke-width:9.72"/>
	<line x1="3570.08" y1="1958.18" x2="3634.88" y2="1958.18" style="stroke:#EAF2F3;stroke-width:9.72"/>
	<line x1="3667.28" y1="1958.18" x2="3732.08" y2="1958.18" style="stroke:#EAF2F3;stroke-width:9.72"/>
	<line x1="3764.48" y1="1958.18" x2="3829.28" y2="1958.18" style="stroke:#EAF2F3;stroke-width:9.72"/>
	<line x1="3861.68" y1="1958.18" x2="3926.48" y2="1958.18" style="stroke:#EAF2F3;stroke-width:9.72"/>
	<line x1="3958.88" y1="1958.18" x2="4023.68" y2="1958.18" style="stroke:#EAF2F3;stroke-width:9.72"/>
	<line x1="4056.08" y1="1958.18" x2="4120.88" y2="1958.18" style="stroke:#EAF2F3;stroke-width:9.72"/>
	<line x1="4153.27" y1="1958.18" x2="4218.08" y2="1958.18" style="stroke:#EAF2F3;stroke-width:9.72"/>
	<line x1="4250.48" y1="1958.18" x2="4315.27" y2="1958.18" style="stroke:#EAF2F3;stroke-width:9.72"/>
	<line x1="4347.68" y1="1958.18" x2="4412.48" y2="1958.18" style="stroke:#EAF2F3;stroke-width:9.72"/>
	<line x1="4444.88" y1="1958.18" x2="4509.68" y2="1958.18" style="stroke:#EAF2F3;stroke-width:9.72"/>
	<line x1="4542.08" y1="1958.18" x2="4606.88" y2="1958.18" style="stroke:#EAF2F3;stroke-width:9.72"/>
	<line x1="4639.27" y1="1958.18" x2="4704.08" y2="1958.18" style="stroke:#EAF2F3;stroke-width:9.72"/>
	<line x1="4736.48" y1="1958.18" x2="4801.27" y2="1958.18" style="stroke:#EAF2F3;stroke-width:9.72"/>
	<line x1="4833.68" y1="1958.18" x2="4898.48" y2="1958.18" style="stroke:#EAF2F3;stroke-width:9.72"/>
	<line x1="4930.88" y1="1958.18" x2="4995.68" y2="1958.18" style="stroke:#EAF2F3;stroke-width:9.72"/>
	<line x1="5028.08" y1="1958.18" x2="5092.88" y2="1958.18" style="stroke:#EAF2F3;stroke-width:9.72"/>
	<line x1="5125.27" y1="1958.18" x2="5190.08" y2="1958.18" style="stroke:#EAF2F3;stroke-width:9.72"/>
	<line x1="5222.48" y1="1958.18" x2="5286.60" y2="1958.18" style="stroke:#EAF2F3;stroke-width:9.72"/>
	<line x1="556.88" y1="1403.16" x2="621.67" y2="1403.16" style="stroke:#EAF2F3;stroke-width:9.72"/>
	<line x1="654.08" y1="1403.16" x2="718.88" y2="1403.16" style="stroke:#EAF2F3;stroke-width:9.72"/>
	<line x1="751.28" y1="1403.16" x2="816.08" y2="1403.16" style="stroke:#EAF2F3;stroke-width:9.72"/>
	<line x1="848.48" y1="1403.16" x2="913.28" y2="1403.16" style="stroke:#EAF2F3;stroke-width:9.72"/>
	<line x1="945.68" y1="1403.16" x2="1010.48" y2="1403.16" style="stroke:#EAF2F3;stroke-width:9.72"/>
	<line x1="1042.88" y1="1403.16" x2="1107.68" y2="1403.16" style="stroke:#EAF2F3;stroke-width:9.72"/>
	<line x1="1140.08" y1="1403.16" x2="1204.88" y2="1403.16" style="stroke:#EAF2F3;stroke-width:9.72"/>
	<line x1="1237.28" y1="1403.16" x2="1302.08" y2="1403.16" style="stroke:#EAF2F3;stroke-width:9.72"/>
	<line x1="1334.48" y1="1403.16" x2="1399.28" y2="1403.16" style="stroke:#EAF2F3;stroke-width:9.72"/>
	<line x1="1431.68" y1="1403.16" x2="1496.48" y2="1403.16" style="stroke:#EAF2F3;stroke-width:9.72"/>
	<line x1="1528.88" y1="1403.16" x2="1593.68" y2="1403.16" style="stroke:#EAF2F3;stroke-width:9.72"/>
	<line x1="1626.08" y1="1403.16" x2="1690.88" y2="1403.16" style="stroke:#EAF2F3;stroke-width:9.72"/>
	<line x1="1723.28" y1="1403.16" x2="1788.08" y2="1403.16" style="stroke:#EAF2F3;stroke-width:9.72"/>
	<line x1="1820.48" y1="1403.16" x2="1885.28" y2="1403.16" style="stroke:#EAF2F3;stroke-width:9.72"/>
	<line x1="1917.68" y1="1403.16" x2="1982.48" y2="1403.16" style="stroke:#EAF2F3;stroke-width:9.72"/>
	<line x1="2014.88" y1="1403.16" x2="2079.68" y2="1403.16" style="stroke:#EAF2F3;stroke-width:9.72"/>
	<line x1="2112.07" y1="1403.16" x2="2176.88" y2="1403.16" style="stroke:#EAF2F3;stroke-width:9.72"/>
	<line x1="2209.28" y1="1403.16" x2="2274.07" y2="1403.16" style="stroke:#EAF2F3;stroke-width:9.72"/>
	<line x1="2306.48" y1="1403.16" x2="2371.28" y2="1403.16" style="stroke:#EAF2F3;stroke-width:9.72"/>
	<line x1="2403.68" y1="1403.16" x2="2468.48" y2="1403.16" style="stroke:#EAF2F3;stroke-width:9.72"/>
	<line x1="2500.88" y1="1403.16" x2="2565.68" y2="1403.16" style="stroke:#EAF2F3;stroke-width:9.72"/>
	<line x1="2598.07" y1="1403.16" x2="2662.88" y2="1403.16" style="stroke:#EAF2F3;stroke-width:9.72"/>
	<line x1="2695.28" y1="1403.16" x2="2760.08" y2="1403.16" style="stroke:#EAF2F3;stroke-width:9.72"/>
	<line x1="2792.48" y1="1403.16" x2="2857.28" y2="1403.16" style="stroke:#EAF2F3;stroke-width:9.72"/>
	<line x1="2889.68" y1="1403.16" x2="2954.48" y2="1403.16" style="stroke:#EAF2F3;stroke-width:9.72"/>
	<line x1="2986.88" y1="1403.16" x2="3051.68" y2="1403.16" style="stroke:#EAF2F3;stroke-width:9.72"/>
	<line x1="3084.08" y1="1403.16" x2="3148.88" y2="1403.16" style="stroke:#EAF2F3;stroke-width:9.72"/>
	<line x1="3181.28" y1="1403.16" x2="3246.08" y2="1403.16" style="stroke:#EAF2F3;stroke-width:9.72"/>
	<line x1="3278.48" y1="1403.16" x2="3343.28" y2="1403.16" style="stroke:#EAF2F3;stroke-width:9.72"/>
	<line x1="3375.68" y1="1403.16" x2="3440.48" y2="1403.16" style="stroke:#EAF2F3;stroke-width:9.72"/>
	<line x1="3472.88" y1="1403.16" x2="3537.68" y2="1403.16" style="stroke:#EAF2F3;stroke-width:9.72"/>
	<line x1="3570.08" y1="1403.16" x2="3634.88" y2="1403.16" style="stroke:#EAF2F3;stroke-width:9.72"/>
	<line x1="3667.28" y1="1403.16" x2="3732.08" y2="1403.16" style="stroke:#EAF2F3;stroke-width:9.72"/>
	<line x1="3764.48" y1="1403.16" x2="3829.28" y2="1403.16" style="stroke:#EAF2F3;stroke-width:9.72"/>
	<line x1="3861.68" y1="1403.16" x2="3926.48" y2="1403.16" style="stroke:#EAF2F3;stroke-width:9.72"/>
	<line x1="3958.88" y1="1403.16" x2="4023.68" y2="1403.16" style="stroke:#EAF2F3;stroke-width:9.72"/>
	<line x1="4056.08" y1="1403.16" x2="4120.88" y2="1403.16" style="stroke:#EAF2F3;stroke-width:9.72"/>
	<line x1="4153.27" y1="1403.16" x2="4218.08" y2="1403.16" style="stroke:#EAF2F3;stroke-width:9.72"/>
	<line x1="4250.48" y1="1403.16" x2="4315.27" y2="1403.16" style="stroke:#EAF2F3;stroke-width:9.72"/>
	<line x1="4347.68" y1="1403.16" x2="4412.48" y2="1403.16" style="stroke:#EAF2F3;stroke-width:9.72"/>
	<line x1="4444.88" y1="1403.16" x2="4509.68" y2="1403.16" style="stroke:#EAF2F3;stroke-width:9.72"/>
	<line x1="4542.08" y1="1403.16" x2="4606.88" y2="1403.16" style="stroke:#EAF2F3;stroke-width:9.72"/>
	<line x1="4639.27" y1="1403.16" x2="4704.08" y2="1403.16" style="stroke:#EAF2F3;stroke-width:9.72"/>
	<line x1="4736.48" y1="1403.16" x2="4801.27" y2="1403.16" style="stroke:#EAF2F3;stroke-width:9.72"/>
	<line x1="4833.68" y1="1403.16" x2="4898.48" y2="1403.16" style="stroke:#EAF2F3;stroke-width:9.72"/>
	<line x1="4930.88" y1="1403.16" x2="4995.68" y2="1403.16" style="stroke:#EAF2F3;stroke-width:9.72"/>
	<line x1="5028.08" y1="1403.16" x2="5092.88" y2="1403.16" style="stroke:#EAF2F3;stroke-width:9.72"/>
	<line x1="5125.27" y1="1403.16" x2="5190.08" y2="1403.16" style="stroke:#EAF2F3;stroke-width:9.72"/>
	<line x1="5222.48" y1="1403.16" x2="5286.60" y2="1403.16" style="stroke:#EAF2F3;stroke-width:9.72"/>
	<line x1="556.88" y1="848.31" x2="621.67" y2="848.31" style="stroke:#EAF2F3;stroke-width:9.72"/>
	<line x1="654.08" y1="848.31" x2="718.88" y2="848.31" style="stroke:#EAF2F3;stroke-width:9.72"/>
	<line x1="751.28" y1="848.31" x2="816.08" y2="848.31" style="stroke:#EAF2F3;stroke-width:9.72"/>
	<line x1="848.48" y1="848.31" x2="913.28" y2="848.31" style="stroke:#EAF2F3;stroke-width:9.72"/>
	<line x1="945.68" y1="848.31" x2="1010.48" y2="848.31" style="stroke:#EAF2F3;stroke-width:9.72"/>
	<line x1="1042.88" y1="848.31" x2="1107.68" y2="848.31" style="stroke:#EAF2F3;stroke-width:9.72"/>
	<line x1="1140.08" y1="848.31" x2="1204.88" y2="848.31" style="stroke:#EAF2F3;stroke-width:9.72"/>
	<line x1="1237.28" y1="848.31" x2="1302.08" y2="848.31" style="stroke:#EAF2F3;stroke-width:9.72"/>
	<line x1="1334.48" y1="848.31" x2="1399.28" y2="848.31" style="stroke:#EAF2F3;stroke-width:9.72"/>
	<line x1="1431.68" y1="848.31" x2="1496.48" y2="848.31" style="stroke:#EAF2F3;stroke-width:9.72"/>
	<line x1="1528.88" y1="848.31" x2="1593.68" y2="848.31" style="stroke:#EAF2F3;stroke-width:9.72"/>
	<line x1="1626.08" y1="848.31" x2="1690.88" y2="848.31" style="stroke:#EAF2F3;stroke-width:9.72"/>
	<line x1="1723.28" y1="848.31" x2="1788.08" y2="848.31" style="stroke:#EAF2F3;stroke-width:9.72"/>
	<line x1="1820.48" y1="848.31" x2="1885.28" y2="848.31" style="stroke:#EAF2F3;stroke-width:9.72"/>
	<line x1="1917.68" y1="848.31" x2="1982.48" y2="848.31" style="stroke:#EAF2F3;stroke-width:9.72"/>
	<line x1="2014.88" y1="848.31" x2="2079.68" y2="848.31" style="stroke:#EAF2F3;stroke-width:9.72"/>
	<line x1="2112.07" y1="848.31" x2="2176.88" y2="848.31" style="stroke:#EAF2F3;stroke-width:9.72"/>
	<line x1="2209.28" y1="848.31" x2="2274.07" y2="848.31" style="stroke:#EAF2F3;stroke-width:9.72"/>
	<line x1="2306.48" y1="848.31" x2="2371.28" y2="848.31" style="stroke:#EAF2F3;stroke-width:9.72"/>
	<line x1="2403.68" y1="848.31" x2="2468.48" y2="848.31" style="stroke:#EAF2F3;stroke-width:9.72"/>
	<line x1="2500.88" y1="848.31" x2="2565.68" y2="848.31" style="stroke:#EAF2F3;stroke-width:9.72"/>
	<line x1="2598.07" y1="848.31" x2="2662.88" y2="848.31" style="stroke:#EAF2F3;stroke-width:9.72"/>
	<line x1="2695.28" y1="848.31" x2="2760.08" y2="848.31" style="stroke:#EAF2F3;stroke-width:9.72"/>
	<line x1="2792.48" y1="848.31" x2="2857.28" y2="848.31" style="stroke:#EAF2F3;stroke-width:9.72"/>
	<line x1="2889.68" y1="848.31" x2="2954.48" y2="848.31" style="stroke:#EAF2F3;stroke-width:9.72"/>
	<line x1="2986.88" y1="848.31" x2="3051.68" y2="848.31" style="stroke:#EAF2F3;stroke-width:9.72"/>
	<line x1="3084.08" y1="848.31" x2="3148.88" y2="848.31" style="stroke:#EAF2F3;stroke-width:9.72"/>
	<line x1="3181.28" y1="848.31" x2="3246.08" y2="848.31" style="stroke:#EAF2F3;stroke-width:9.72"/>
	<line x1="3278.48" y1="848.31" x2="3343.28" y2="848.31" style="stroke:#EAF2F3;stroke-width:9.72"/>
	<line x1="3375.68" y1="848.31" x2="3440.48" y2="848.31" style="stroke:#EAF2F3;stroke-width:9.72"/>
	<line x1="3472.88" y1="848.31" x2="3537.68" y2="848.31" style="stroke:#EAF2F3;stroke-width:9.72"/>
	<line x1="3570.08" y1="848.31" x2="3634.88" y2="848.31" style="stroke:#EAF2F3;stroke-width:9.72"/>
	<line x1="3667.28" y1="848.31" x2="3732.08" y2="848.31" style="stroke:#EAF2F3;stroke-width:9.72"/>
	<line x1="3764.48" y1="848.31" x2="3829.28" y2="848.31" style="stroke:#EAF2F3;stroke-width:9.72"/>
	<line x1="3861.68" y1="848.31" x2="3926.48" y2="848.31" style="stroke:#EAF2F3;stroke-width:9.72"/>
	<line x1="3958.88" y1="848.31" x2="4023.68" y2="848.31" style="stroke:#EAF2F3;stroke-width:9.72"/>
	<line x1="4056.08" y1="848.31" x2="4120.88" y2="848.31" style="stroke:#EAF2F3;stroke-width:9.72"/>
	<line x1="4153.27" y1="848.31" x2="4218.08" y2="848.31" style="stroke:#EAF2F3;stroke-width:9.72"/>
	<line x1="4250.48" y1="848.31" x2="4315.27" y2="848.31" style="stroke:#EAF2F3;stroke-width:9.72"/>
	<line x1="4347.68" y1="848.31" x2="4412.48" y2="848.31" style="stroke:#EAF2F3;stroke-width:9.72"/>
	<line x1="4444.88" y1="848.31" x2="4509.68" y2="848.31" style="stroke:#EAF2F3;stroke-width:9.72"/>
	<line x1="4542.08" y1="848.31" x2="4606.88" y2="848.31" style="stroke:#EAF2F3;stroke-width:9.72"/>
	<line x1="4639.27" y1="848.31" x2="4704.08" y2="848.31" style="stroke:#EAF2F3;stroke-width:9.72"/>
	<line x1="4736.48" y1="848.31" x2="4801.27" y2="848.31" style="stroke:#EAF2F3;stroke-width:9.72"/>
	<line x1="4833.68" y1="848.31" x2="4898.48" y2="848.31" style="stroke:#EAF2F3;stroke-width:9.72"/>
	<line x1="4930.88" y1="848.31" x2="4995.68" y2="848.31" style="stroke:#EAF2F3;stroke-width:9.72"/>
	<line x1="5028.08" y1="848.31" x2="5092.88" y2="848.31" style="stroke:#EAF2F3;stroke-width:9.72"/>
	<line x1="5125.27" y1="848.31" x2="5190.08" y2="848.31" style="stroke:#EAF2F3;stroke-width:9.72"/>
	<line x1="5222.48" y1="848.31" x2="5286.60" y2="848.31" style="stroke:#EAF2F3;stroke-width:9.72"/>
	<rect x="777.43" y="1125.73" width="536.12" height="541.01" style="fill:#8DC2FF"/>
	<rect x="782.29" y="1130.59" width="526.40" height="531.29" style="fill:none;stroke:#1A85FF;stroke-width:9.72"/>
	<line x1="777.43" y1="1458.68" x2="1313.55" y2="1458.68" style="stroke:#1A85FF;stroke-width:9.72"/>
	<line x1="1045.41" y1="1666.74" x2="1045.41" y2="1958.18" style="stroke:#1A85FF;stroke-width:9.72"/>
	<line x1="1045.41" y1="1125.73" x2="1045.41" y2="709.59" style="stroke:#1A85FF;stroke-width:9.72"/>
	<line x1="865.86" y1="1958.18" x2="1225.13" y2="1958.18" style="stroke:#1A85FF;stroke-width:9.72"/>
	<line x1="865.86" y1="709.59" x2="1225.13" y2="709.59" style="stroke:#1A85FF;stroke-width:9.72"/>
	<rect x="1849.50" y="1250.61" width="536.12" height="596.53" style="fill:#8DC2FF"/>
	<rect x="1854.36" y="1255.47" width="526.40" height="586.81" style="fill:none;stroke:#1A85FF;stroke-width:9.72"/>
	<line x1="1849.50" y1="1444.84" x2="2385.62" y2="1444.84" style="stroke:#1A85FF;stroke-width:9.72"/>
	<line x1="2117.64" y1="1847.14" x2="2117.64" y2="2374.31" style="stroke:#1A85FF;stroke-width:9.72"/>
	<line x1="2117.64" y1="1250.61" x2="2117.64" y2="709.59" style="stroke:#1A85FF;stroke-width:9.72"/>
	<line x1="1938.09" y1="2374.31" x2="2297.19" y2="2374.31" style="stroke:#1A85FF;stroke-width:9.72"/>
	<line x1="1938.09" y1="709.59" x2="2297.19" y2="709.59" style="stroke:#1A85FF;stroke-width:9.72"/>
	<rect x="3457.86" y="1361.64" width="535.95" height="471.66" style="fill:#8DC2FF"/>
	<rect x="3462.72" y="1366.50" width="526.23" height="461.94" style="fill:none;stroke:#1A85FF;stroke-width:9.72"/>
	<line x1="3457.86" y1="1652.91" x2="3993.81" y2="1652.91" style="stroke:#1A85FF;stroke-width:9.72"/>
	<line x1="3725.83" y1="1833.30" x2="3725.83" y2="2013.69" style="stroke:#1A85FF;stroke-width:9.72"/>
	<line x1="3725.83" y1="1361.64" x2="3725.83" y2="709.59" style="stroke:#1A85FF;stroke-width:9.72"/>
	<line x1="3546.28" y1="2013.69" x2="3905.38" y2="2013.69" style="stroke:#1A85FF;stroke-width:9.72"/>
	<line x1="3546.28" y1="709.59" x2="3905.38" y2="709.59" style="stroke:#1A85FF;stroke-width:9.72"/>
	<rect x="4529.93" y="1625.23" width="536.12" height="388.46" style="fill:#8DC2FF"/>
	<rect x="4534.79" y="1630.09" width="526.40" height="378.74" style="fill:none;stroke:#1A85FF;stroke-width:9.72"/>
	<line x1="4529.93" y1="1791.62" x2="5066.04" y2="1791.62" style="stroke:#1A85FF;stroke-width:9.72"/>
	<line x1="4797.90" y1="2013.69" x2="4797.90" y2="2318.79" style="stroke:#1A85FF;stroke-width:9.72"/>
	<line x1="4797.90" y1="1625.23" x2="4797.90" y2="1153.57" style="stroke:#1A85FF;stroke-width:9.72"/>
	<line x1="4618.35" y1="2318.79" x2="4977.62" y2="2318.79" style="stroke:#1A85FF;stroke-width:9.72"/>
	<line x1="4618.35" y1="1153.57" x2="4977.62" y2="1153.57" style="stroke:#1A85FF;stroke-width:9.72"/>
	<circle cx="4797.90" cy="1014.69" r="21.74" style="fill:#1A85FF"/>
	<circle cx="4797.90" cy="1014.69" r="16.88" style="fill:none;stroke:#1A85FF;stroke-width:9.72"/>
	<circle cx="4797.90" cy="931.50" r="21.74" style="fill:#1A85FF"/>
	<circle cx="4797.90" cy="931.50" r="16.88" style="fill:none;stroke:#1A85FF;stroke-width:9.72"/>
	<circle cx="4797.90" cy="903.82" r="21.74" style="fill:#1A85FF"/>
	<circle cx="4797.90" cy="903.82" r="16.88" style="fill:none;stroke:#1A85FF;stroke-width:9.72"/>
	<line x1="556.88" y1="2626.43" x2="556.88" y2="596.19" style="stroke:#000000;stroke-width:6.48"/>
	<line x1="556.88" y1="2513.03" x2="511.82" y2="2513.03" style="stroke:#000000;stroke-width:6.48"/>
	<text x="489.38" y="2552.46" style="font-family:'Helvetica';font-size:112.56px;fill:#000000" text-anchor="end">120</text>
	<line x1="556.88" y1="1958.18" x2="511.82" y2="1958.18" style="stroke:#000000;stroke-width:6.48"/>
	<text x="489.38" y="1997.61" style="font-family:'Helvetica';font-size:112.56px;fill:#000000" text-anchor="end">140</text>
	<line x1="556.88" y1="1403.16" x2="511.82" y2="1403.16" style="stroke:#000000;stroke-width:6.48"/>
	<text x="489.38" y="1442.59" style="font-family:'Helvetica';font-size:112.56px;fill:#000000" text-anchor="end">160</text>
	<line x1="556.88" y1="848.31" x2="511.82" y2="848.31" style="stroke:#000000;stroke-width:6.48"/>
	<text x="489.38" y="887.74" style="font-family:'Helvetica';font-size:112.56px;fill:#000000" text-anchor="end">180</text>
	<text x="214.55" y="1611.39" style="font-family:'Helvetica';font-size:112.56px;fill:#000000" transform="rotate(-90 214.55,1611.39)" text-anchor="middle">Systolic blood pressure</text>
	<text x="1581.53" y="2938.04" style="font-family:'Helvetica';font-size:123.69px;fill:#000000" text-anchor="middle">Male</text>
	<text x="4261.95" y="2938.04" style="font-family:'Helvetica';font-size:123.69px;fill:#000000" text-anchor="middle">Female</text>
	<line x1="556.88" y1="2626.43" x2="5286.60" y2="2626.43" style="stroke:#000000;stroke-width:6.48"/>
	<text x="1045.41" y="2750.19" style="font-family:'Helvetica';font-size:112.56px;fill:#000000" text-anchor="middle">Before</text>
	<text x="2117.64" y="2750.19" style="font-family:'Helvetica';font-size:112.56px;fill:#000000" text-anchor="middle">After</text>
	<text x="3725.83" y="2750.19" style="font-family:'Helvetica';font-size:112.56px;fill:#000000" text-anchor="middle">Before</text>
	<text x="4797.90" y="2750.19" style="font-family:'Helvetica';font-size:112.56px;fill:#000000" text-anchor="middle">After</text>
	<text x="576.28" y="3080.13" style="font-family:'Helvetica';font-size:89.94px;fill:#000000">Source: Fictional Drug Trial, StataCorp, 2003</text>
	<text x="2921.74" y="415.73" style="font-family:'Helvetica';font-size:123.69px;fill:#000000" text-anchor="middle">(120 Preoperative Patients)</text>
	<text x="2921.74" y="539.59" style="font-family:'Helvetica';font-size:123.69px;fill:#000000" text-anchor="middle"> </text>
	<text x="2921.74" y="243.10" style="font-family:'Helvetica';font-size:157.44px;fill:#000000" text-anchor="middle">Response to Treatment, by Sex</text>
</svg>
