<?xml version="1.0" encoding="UTF-8" standalone="no"?>
<!-- This is a Stata 17.0 generated SVG file (http://www.stata.com) -->

<svg version="1.1" width="7.500in" height="4.500in" viewBox="0 0 5400 3240" xmlns="http://www.w3.org/2000/svg" xmlns:xlink="http://www.w3.org/1999/xlink">
	<desc>Stata Graph - Graph</desc>
	<rect x="0" y="0" width="5400" height="3240" style="fill:#FFFFFF;stroke:none"/>
	<rect x="0.00" y="0.00" width="5400.00" height="3240.00" style="fill:#FFFFFF"/>
	<rect x="3.24" y="3.24" width="5393.52" height="3233.52" style="fill:none;stroke:#FFFFFF;stroke-width:6.48"/>
	<rect x="444.32" y="113.40" width="4128.30" height="2833.14" style="fill:#FFFFFF"/>
	<rect x="447.56" y="116.64" width="4121.82" height="2826.66" style="fill:none;stroke:#FFFFFF;stroke-width:6.48"/>
	<line x1="444.32" y1="2833.14" x2="509.12" y2="2833.14" style="stroke:#EAF2F3;stroke-width:9.72"/>
	<line x1="541.52" y1="2833.14" x2="606.32" y2="2833.14" style="stroke:#EAF2F3;stroke-width:9.72"/>
	<line x1="638.72" y1="2833.14" x2="703.52" y2="2833.14" style="stroke:#EAF2F3;stroke-width:9.72"/>
	<line x1="735.92" y1="2833.14" x2="800.72" y2="2833.14" style="stroke:#EAF2F3;stroke-width:9.72"/>
	<line x1="833.12" y1="2833.14" x2="897.92" y2="2833.14" style="stroke:#EAF2F3;stroke-width:9.72"/>
	<line x1="930.32" y1="2833.14" x2="995.12" y2="2833.14" style="stroke:#EAF2F3;stroke-width:9.72"/>
	<line x1="1027.52" y1="2833.14" x2="1092.32" y2="2833.14" style="stroke:#EAF2F3;stroke-width:9.72"/>
	<line x1="1124.72" y1="2833.14" x2="1189.52" y2="2833.14" style="stroke:#EAF2F3;stroke-width:9.72"/>
	<line x1="1221.92" y1="2833.14" x2="1286.72" y2="2833.14" style="stroke:#EAF2F3;stroke-width:9.72"/>
	<line x1="1319.12" y1="2833.14" x2="1383.92" y2="2833.14" style="stroke:#EAF2F3;stroke-width:9.72"/>
	<line x1="1416.32" y1="2833.14" x2="1481.12" y2="2833.14" style="stroke:#EAF2F3;stroke-width:9.72"/>
	<line x1="1513.52" y1="2833.14" x2="1578.32" y2="2833.14" style="stroke:#EAF2F3;stroke-width:9.72"/>
	<line x1="1610.72" y1="2833.14" x2="1675.52" y2="2833.14" style="stroke:#EAF2F3;stroke-width:9.72"/>
	<line x1="1707.92" y1="2833.14" x2="1772.72" y2="2833.14" style="stroke:#EAF2F3;stroke-width:9.72"/>
	<line x1="1805.12" y1="2833.14" x2="1869.92" y2="2833.14" style="stroke:#EAF2F3;stroke-width:9.72"/>
	<line x1="1902.32" y1="2833.14" x2="1967.12" y2="2833.14" style="stroke:#EAF2F3;stroke-width:9.72"/>
	<line x1="1999.52" y1="2833.14" x2="2064.32" y2="2833.14" style="stroke:#EAF2F3;stroke-width:9.72"/>
	<line x1="2096.72" y1="2833.14" x2="2161.52" y2="2833.14" style="stroke:#EAF2F3;stroke-width:9.72"/>
	<line x1="2193.92" y1="2833.14" x2="2258.72" y2="2833.14" style="stroke:#EAF2F3;stroke-width:9.72"/>
	<line x1="2291.12" y1="2833.14" x2="2355.92" y2="2833.14" style="stroke:#EAF2F3;stroke-width:9.72"/>
	<line x1="2388.32" y1="2833.14" x2="2453.12" y2="2833.14" style="stroke:#EAF2F3;stroke-width:9.72"/>
	<line x1="2485.52" y1="2833.14" x2="2550.32" y2="2833.14" style="stroke:#EAF2F3;stroke-width:9.72"/>
	<line x1="2582.72" y1="2833.14" x2="2647.52" y2="2833.14" style="stroke:#EAF2F3;stroke-width:9.72"/>
	<line x1="2679.92" y1="2833.14" x2="2744.72" y2="2833.14" style="stroke:#EAF2F3;stroke-width:9.72"/>
	<line x1="2777.12" y1="2833.14" x2="2841.92" y2="2833.14" style="stroke:#EAF2F3;stroke-width:9.72"/>
	<line x1="2874.32" y1="2833.14" x2="2939.12" y2="2833.14" style="stroke:#EAF2F3;stroke-width:9.72"/>
	<line x1="2971.52" y1="2833.14" x2="3036.32" y2="2833.14" style="stroke:#EAF2F3;stroke-width:9.72"/>
	<line x1="3068.72" y1="2833.14" x2="3133.52" y2="2833.14" style="stroke:#EAF2F3;stroke-width:9.72"/>
	<line x1="3165.92" y1="2833.14" x2="3230.72" y2="2833.14" style="stroke:#EAF2F3;stroke-width:9.72"/>
	<line x1="3263.12" y1="2833.14" x2="3327.92" y2="2833.14" style="stroke:#EAF2F3;stroke-width:9.72"/>
	<line x1="3360.32" y1="2833.14" x2="3425.12" y2="2833.14" style="stroke:#EAF2F3;stroke-width:9.72"/>
	<line x1="3457.52" y1="2833.14" x2="3522.32" y2="2833.14" style="stroke:#EAF2F3;stroke-width:9.72"/>
	<line x1="3554.72" y1="2833.14" x2="3619.52" y2="2833.14" style="stroke:#EAF2F3;stroke-width:9.72"/>
	<line x1="3651.92" y1="2833.14" x2="3716.72" y2="2833.14" style="stroke:#EAF2F3;stroke-width:9.72"/>
	<line x1="3749.12" y1="2833.14" x2="3813.92" y2="2833.14" style="stroke:#EAF2F3;stroke-width:9.72"/>
	<line x1="3846.32" y1="2833.14" x2="3911.12" y2="2833.14" style="stroke:#EAF2F3;stroke-width:9.72"/>
	<line x1="3943.52" y1="2833.14" x2="4008.32" y2="2833.14" style="stroke:#EAF2F3;stroke-width:9.72"/>
	<line x1="4040.72" y1="2833.14" x2="4105.52" y2="2833.14" style="stroke:#EAF2F3;stroke-width:9.72"/>
	<line x1="4137.92" y1="2833.14" x2="4202.72" y2="2833.14" style="stroke:#EAF2F3;stroke-width:9.72"/>
	<line x1="4235.12" y1="2833.14" x2="4299.92" y2="2833.14" style="stroke:#EAF2F3;stroke-width:9.72"/>
	<line x1="4332.32" y1="2833.14" x2="4397.12" y2="2833.14" style="stroke:#EAF2F3;stroke-width:9.72"/>
	<line x1="4429.52" y1="2833.14" x2="4494.32" y2="2833.14" style="stroke:#EAF2F3;stroke-width:9.72"/>
	<line x1="4526.72" y1="2833.14" x2="4572.62" y2="2833.14" style="stroke:#EAF2F3;stroke-width:9.72"/>
	<line x1="444.32" y1="2031.24" x2="509.12" y2="2031.24" style="stroke:#EAF2F3;stroke-width:9.72"/>
	<line x1="541.52" y1="2031.24" x2="606.32" y2="2031.24" style="stroke:#EAF2F3;stroke-width:9.72"/>
	<line x1="638.72" y1="2031.24" x2="703.52" y2="2031.24" style="stroke:#EAF2F3;stroke-width:9.72"/>
	<line x1="735.92" y1="2031.24" x2="800.72" y2="2031.24" style="stroke:#EAF2F3;stroke-width:9.72"/>
	<line x1="833.12" y1="2031.24" x2="897.92" y2="2031.24" style="stroke:#EAF2F3;stroke-width:9.72"/>
	<line x1="930.32" y1="2031.24" x2="995.12" y2="2031.24" style="stroke:#EAF2F3;stroke-width:9.72"/>
	<line x1="1027.52" y1="2031.24" x2="1092.32" y2="2031.24" style="stroke:#EAF2F3;stroke-width:9.72"/>
	<line x1="1124.72" y1="2031.24" x2="1189.52" y2="2031.24" style="stroke:#EAF2F3;stroke-width:9.72"/>
	<line x1="1221.92" y1="2031.24" x2="1286.72" y2="2031.24" style="stroke:#EAF2F3;stroke-width:9.72"/>
	<line x1="1319.12" y1="2031.24" x2="1383.92" y2="2031.24" style="stroke:#EAF2F3;stroke-width:9.72"/>
	<line x1="1416.32" y1="2031.24" x2="1481.12" y2="2031.24" style="stroke:#EAF2F3;stroke-width:9.72"/>
	<line x1="1513.52" y1="2031.24" x2="1578.32" y2="2031.24" style="stroke:#EAF2F3;stroke-width:9.72"/>
	<line x1="1610.72" y1="2031.24" x2="1675.52" y2="2031.24" style="stroke:#EAF2F3;stroke-width:9.72"/>
	<line x1="1707.92" y1="2031.24" x2="1772.72" y2="2031.24" style="stroke:#EAF2F3;stroke-width:9.72"/>
	<line x1="1805.12" y1="2031.24" x2="1869.92" y2="2031.24" style="stroke:#EAF2F3;stroke-width:9.72"/>
	<line x1="1902.32" y1="2031.24" x2="1967.12" y2="2031.24" style="stroke:#EAF2F3;stroke-width:9.72"/>
	<line x1="1999.52" y1="2031.24" x2="2064.32" y2="2031.24" style="stroke:#EAF2F3;stroke-width:9.72"/>
	<line x1="2096.72" y1="2031.24" x2="2161.52" y2="2031.24" style="stroke:#EAF2F3;stroke-width:9.72"/>
	<line x1="2193.92" y1="2031.24" x2="2258.72" y2="2031.24" style="stroke:#EAF2F3;stroke-width:9.72"/>
	<line x1="2291.12" y1="2031.24" x2="2355.92" y2="2031.24" style="stroke:#EAF2F3;stroke-width:9.72"/>
	<line x1="2388.32" y1="2031.24" x2="2453.12" y2="2031.24" style="stroke:#EAF2F3;stroke-width:9.72"/>
	<line x1="2485.52" y1="2031.24" x2="2550.32" y2="2031.24" style="stroke:#EAF2F3;stroke-width:9.72"/>
	<line x1="2582.72" y1="2031.24" x2="2647.52" y2="2031.24" style="stroke:#EAF2F3;stroke-width:9.72"/>
	<line x1="2679.92" y1="2031.24" x2="2744.72" y2="2031.24" style="stroke:#EAF2F3;stroke-width:9.72"/>
	<line x1="2777.12" y1="2031.24" x2="2841.92" y2="2031.24" style="stroke:#EAF2F3;stroke-width:9.72"/>
	<line x1="2874.32" y1="2031.24" x2="2939.12" y2="2031.24" style="stroke:#EAF2F3;stroke-width:9.72"/>
	<line x1="2971.52" y1="2031.24" x2="3036.32" y2="2031.24" style="stroke:#EAF2F3;stroke-width:9.72"/>
	<line x1="3068.72" y1="2031.24" x2="3133.52" y2="2031.24" style="stroke:#EAF2F3;stroke-width:9.72"/>
	<line x1="3165.92" y1="2031.24" x2="3230.72" y2="2031.24" style="stroke:#EAF2F3;stroke-width:9.72"/>
	<line x1="3263.12" y1="2031.24" x2="3327.92" y2="2031.24" style="stroke:#EAF2F3;stroke-width:9.72"/>
	<line x1="3360.32" y1="2031.24" x2="3425.12" y2="2031.24" style="stroke:#EAF2F3;stroke-width:9.72"/>
	<line x1="3457.52" y1="2031.24" x2="3522.32" y2="2031.24" style="stroke:#EAF2F3;stroke-width:9.72"/>
	<line x1="3554.72" y1="2031.24" x2="3619.52" y2="2031.24" style="stroke:#EAF2F3;stroke-width:9.72"/>
	<line x1="3651.92" y1="2031.24" x2="3716.72" y2="2031.24" style="stroke:#EAF2F3;stroke-width:9.72"/>
	<line x1="3749.12" y1="2031.24" x2="3813.92" y2="2031.24" style="stroke:#EAF2F3;stroke-width:9.72"/>
	<line x1="3846.32" y1="2031.24" x2="3911.12" y2="2031.24" style="stroke:#EAF2F3;stroke-width:9.72"/>
	<line x1="3943.52" y1="2031.24" x2="4008.32" y2="2031.24" style="stroke:#EAF2F3;stroke-width:9.72"/>
	<line x1="4040.72" y1="2031.24" x2="4105.52" y2="2031.24" style="stroke:#EAF2F3;stroke-width:9.72"/>
	<line x1="4137.92" y1="2031.24" x2="4202.72" y2="2031.24" style="stroke:#EAF2F3;stroke-width:9.72"/>
	<line x1="4235.12" y1="2031.24" x2="4299.92" y2="2031.24" style="stroke:#EAF2F3;stroke-width:9.72"/>
	<line x1="4332.32" y1="2031.24" x2="4397.12" y2="2031.24" style="stroke:#EAF2F3;stroke-width:9.72"/>
	<line x1="4429.52" y1="2031.24" x2="4494.32" y2="2031.24" style="stroke:#EAF2F3;stroke-width:9.72"/>
	<line x1="4526.72" y1="2031.24" x2="4572.62" y2="2031.24" style="stroke:#EAF2F3;stroke-width:9.72"/>
	<line x1="444.32" y1="1229.34" x2="509.12" y2="1229.34" style="stroke:#EAF2F3;stroke-width:9.72"/>
	<line x1="541.52" y1="1229.34" x2="606.32" y2="1229.34" style="stroke:#EAF2F3;stroke-width:9.72"/>
	<line x1="638.72" y1="1229.34" x2="703.52" y2="1229.34" style="stroke:#EAF2F3;stroke-width:9.72"/>
	<line x1="735.92" y1="1229.34" x2="800.72" y2="1229.34" style="stroke:#EAF2F3;stroke-width:9.72"/>
	<line x1="833.12" y1="1229.34" x2="897.92" y2="1229.34" style="stroke:#EAF2F3;stroke-width:9.72"/>
	<line x1="930.32" y1="1229.34" x2="995.12" y2="1229.34" style="stroke:#EAF2F3;stroke-width:9.72"/>
	<line x1="1027.52" y1="1229.34" x2="1092.32" y2="1229.34" style="stroke:#EAF2F3;stroke-width:9.72"/>
	<line x1="1124.72" y1="1229.34" x2="1189.52" y2="1229.34" style="stroke:#EAF2F3;stroke-width:9.72"/>
	<line x1="1221.92" y1="1229.34" x2="1286.72" y2="1229.34" style="stroke:#EAF2F3;stroke-width:9.72"/>
	<line x1="1319.12" y1="1229.34" x2="1383.92" y2="1229.34" style="stroke:#EAF2F3;stroke-width:9.72"/>
	<line x1="1416.32" y1="1229.34" x2="1481.12" y2="1229.34" style="stroke:#EAF2F3;stroke-width:9.72"/>
	<line x1="1513.52" y1="1229.34" x2="1578.32" y2="1229.34" style="stroke:#EAF2F3;stroke-width:9.72"/>
	<line x1="1610.72" y1="1229.34" x2="1675.52" y2="1229.34" style="stroke:#EAF2F3;stroke-width:9.72"/>
	<line x1="1707.92" y1="1229.34" x2="1772.72" y2="1229.34" style="stroke:#EAF2F3;stroke-width:9.72"/>
	<line x1="1805.12" y1="1229.34" x2="1869.92" y2="1229.34" style="stroke:#EAF2F3;stroke-width:9.72"/>
	<line x1="1902.32" y1="1229.34" x2="1967.12" y2="1229.34" style="stroke:#EAF2F3;stroke-width:9.72"/>
	<line x1="1999.52" y1="1229.34" x2="2064.32" y2="1229.34" style="stroke:#EAF2F3;stroke-width:9.72"/>
	<line x1="2096.72" y1="1229.34" x2="2161.52" y2="1229.34" style="stroke:#EAF2F3;stroke-width:9.72"/>
	<line x1="2193.92" y1="1229.34" x2="2258.72" y2="1229.34" style="stroke:#EAF2F3;stroke-width:9.72"/>
	<line x1="2291.12" y1="1229.34" x2="2355.92" y2="1229.34" style="stroke:#EAF2F3;stroke-width:9.72"/>
	<line x1="2388.32" y1="1229.34" x2="2453.12" y2="1229.34" style="stroke:#EAF2F3;stroke-width:9.72"/>
	<line x1="2485.52" y1="1229.34" x2="2550.32" y2="1229.34" style="stroke:#EAF2F3;stroke-width:9.72"/>
	<line x1="2582.72" y1="1229.34" x2="2647.52" y2="1229.34" style="stroke:#EAF2F3;stroke-width:9.72"/>
	<line x1="2679.92" y1="1229.34" x2="2744.72" y2="1229.34" style="stroke:#EAF2F3;stroke-width:9.72"/>
	<line x1="2777.12" y1="1229.34" x2="2841.92" y2="1229.34" style="stroke:#EAF2F3;stroke-width:9.72"/>
	<line x1="2874.32" y1="1229.34" x2="2939.12" y2="1229.34" style="stroke:#EAF2F3;stroke-width:9.72"/>
	<line x1="2971.52" y1="1229.34" x2="3036.32" y2="1229.34" style="stroke:#EAF2F3;stroke-width:9.72"/>
	<line x1="3068.72" y1="1229.34" x2="3133.52" y2="1229.34" style="stroke:#EAF2F3;stroke-width:9.72"/>
	<line x1="3165.92" y1="1229.34" x2="3230.72" y2="1229.34" style="stroke:#EAF2F3;stroke-width:9.72"/>
	<line x1="3263.12" y1="1229.34" x2="3327.92" y2="1229.34" style="stroke:#EAF2F3;stroke-width:9.72"/>
	<line x1="3360.32" y1="1229.34" x2="3425.12" y2="1229.34" style="stroke:#EAF2F3;stroke-width:9.72"/>
	<line x1="3457.52" y1="1229.34" x2="3522.32" y2="1229.34" style="stroke:#EAF2F3;stroke-width:9.72"/>
	<line x1="3554.72" y1="1229.34" x2="3619.52" y2="1229.34" style="stroke:#EAF2F3;stroke-width:9.72"/>
	<line x1="3651.92" y1="1229.34" x2="3716.72" y2="1229.34" style="stroke:#EAF2F3;stroke-width:9.72"/>
	<line x1="3749.12" y1="1229.34" x2="3813.92" y2="1229.34" style="stroke:#EAF2F3;stroke-width:9.72"/>
	<line x1="3846.32" y1="1229.34" x2="3911.12" y2="1229.34" style="stroke:#EAF2F3;stroke-width:9.72"/>
	<line x1="3943.52" y1="1229.34" x2="4008.32" y2="1229.34" style="stroke:#EAF2F3;stroke-width:9.72"/>
	<line x1="4040.72" y1="1229.34" x2="4105.52" y2="1229.34" style="stroke:#EAF2F3;stroke-width:9.72"/>
	<line x1="4137.92" y1="1229.34" x2="4202.72" y2="1229.34" style="stroke:#EAF2F3;stroke-width:9.72"/>
	<line x1="4235.12" y1="1229.34" x2="4299.92" y2="1229.34" style="stroke:#EAF2F3;stroke-width:9.72"/>
	<line x1="4332.32" y1="1229.34" x2="4397.12" y2="1229.34" style="stroke:#EAF2F3;stroke-width:9.72"/>
	<line x1="4429.52" y1="1229.34" x2="4494.32" y2="1229.34" style="stroke:#EAF2F3;stroke-width:9.72"/>
	<line x1="4526.72" y1="1229.34" x2="4572.62" y2="1229.34" style="stroke:#EAF2F3;stroke-width:9.72"/>
	<line x1="444.32" y1="427.28" x2="509.12" y2="427.28" style="stroke:#EAF2F3;stroke-width:9.72"/>
	<line x1="541.52" y1="427.28" x2="606.32" y2="427.28" style="stroke:#EAF2F3;stroke-width:9.72"/>
	<line x1="638.72" y1="427.28" x2="703.52" y2="427.28" style="stroke:#EAF2F3;stroke-width:9.72"/>
	<line x1="735.92" y1="427.28" x2="800.72" y2="427.28" style="stroke:#EAF2F3;stroke-width:9.72"/>
	<line x1="833.12" y1="427.28" x2="897.92" y2="427.28" style="stroke:#EAF2F3;stroke-width:9.72"/>
	<line x1="930.32" y1="427.28" x2="995.12" y2="427.28" style="stroke:#EAF2F3;stroke-width:9.72"/>
	<line x1="1027.52" y1="427.28" x2="1092.32" y2="427.28" style="stroke:#EAF2F3;stroke-width:9.72"/>
	<line x1="1124.72" y1="427.28" x2="1189.52" y2="427.28" style="stroke:#EAF2F3;stroke-width:9.72"/>
	<line x1="1221.92" y1="427.28" x2="1286.72" y2="427.28" style="stroke:#EAF2F3;stroke-width:9.72"/>
	<line x1="1319.12" y1="427.28" x2="1383.92" y2="427.28" style="stroke:#EAF2F3;stroke-width:9.72"/>
	<line x1="1416.32" y1="427.28" x2="1481.12" y2="427.28" style="stroke:#EAF2F3;stroke-width:9.72"/>
	<line x1="1513.52" y1="427.28" x2="1578.32" y2="427.28" style="stroke:#EAF2F3;stroke-width:9.72"/>
	<line x1="1610.72" y1="427.28" x2="1675.52" y2="427.28" style="stroke:#EAF2F3;stroke-width:9.72"/>
	<line x1="1707.92" y1="427.28" x2="1772.72" y2="427.28" style="stroke:#EAF2F3;stroke-width:9.72"/>
	<line x1="1805.12" y1="427.28" x2="1869.92" y2="427.28" style="stroke:#EAF2F3;stroke-width:9.72"/>
	<line x1="1902.32" y1="427.28" x2="1967.12" y2="427.28" style="stroke:#EAF2F3;stroke-width:9.72"/>
	<line x1="1999.52" y1="427.28" x2="2064.32" y2="427.28" style="stroke:#EAF2F3;stroke-width:9.72"/>
	<line x1="2096.72" y1="427.28" x2="2161.52" y2="427.28" style="stroke:#EAF2F3;stroke-width:9.72"/>
	<line x1="2193.92" y1="427.28" x2="2258.72" y2="427.28" style="stroke:#EAF2F3;stroke-width:9.72"/>
	<line x1="2291.12" y1="427.28" x2="2355.92" y2="427.28" style="stroke:#EAF2F3;stroke-width:9.72"/>
	<line x1="2388.32" y1="427.28" x2="2453.12" y2="427.28" style="stroke:#EAF2F3;stroke-width:9.72"/>
	<line x1="2485.52" y1="427.28" x2="2550.32" y2="427.28" style="stroke:#EAF2F3;stroke-width:9.72"/>
	<line x1="2582.72" y1="427.28" x2="2647.52" y2="427.28" style="stroke:#EAF2F3;stroke-width:9.72"/>
	<line x1="2679.92" y1="427.28" x2="2744.72" y2="427.28" style="stroke:#EAF2F3;stroke-width:9.72"/>
	<line x1="2777.12" y1="427.28" x2="2841.92" y2="427.28" style="stroke:#EAF2F3;stroke-width:9.72"/>
	<line x1="2874.32" y1="427.28" x2="2939.12" y2="427.28" style="stroke:#EAF2F3;stroke-width:9.72"/>
	<line x1="2971.52" y1="427.28" x2="3036.32" y2="427.28" style="stroke:#EAF2F3;stroke-width:9.72"/>
	<line x1="3068.72" y1="427.28" x2="3133.52" y2="427.28" style="stroke:#EAF2F3;stroke-width:9.72"/>
	<line x1="3165.92" y1="427.28" x2="3230.72" y2="427.28" style="stroke:#EAF2F3;stroke-width:9.72"/>
	<line x1="3263.12" y1="427.28" x2="3327.92" y2="427.28" style="stroke:#EAF2F3;stroke-width:9.72"/>
	<line x1="3360.32" y1="427.28" x2="3425.12" y2="427.28" style="stroke:#EAF2F3;stroke-width:9.72"/>
	<line x1="3457.52" y1="427.28" x2="3522.32" y2="427.28" style="stroke:#EAF2F3;stroke-width:9.72"/>
	<line x1="3554.72" y1="427.28" x2="3619.52" y2="427.28" style="stroke:#EAF2F3;stroke-width:9.72"/>
	<line x1="3651.92" y1="427.28" x2="3716.72" y2="427.28" style="stroke:#EAF2F3;stroke-width:9.72"/>
	<line x1="3749.12" y1="427.28" x2="3813.92" y2="427.28" style="stroke:#EAF2F3;stroke-width:9.72"/>
	<line x1="3846.32" y1="427.28" x2="3911.12" y2="427.28" style="stroke:#EAF2F3;stroke-width:9.72"/>
	<line x1="3943.52" y1="427.28" x2="4008.32" y2="427.28" style="stroke:#EAF2F3;stroke-width:9.72"/>
	<line x1="4040.72" y1="427.28" x2="4105.52" y2="427.28" style="stroke:#EAF2F3;stroke-width:9.72"/>
	<line x1="4137.92" y1="427.28" x2="4202.72" y2="427.28" style="stroke:#EAF2F3;stroke-width:9.72"/>
	<line x1="4235.12" y1="427.28" x2="4299.92" y2="427.28" style="stroke:#EAF2F3;stroke-width:9.72"/>
	<line x1="4332.32" y1="427.28" x2="4397.12" y2="427.28" style="stroke:#EAF2F3;stroke-width:9.72"/>
	<line x1="4429.52" y1="427.28" x2="4494.32" y2="427.28" style="stroke:#EAF2F3;stroke-width:9.72"/>
	<line x1="4526.72" y1="427.28" x2="4572.62" y2="427.28" style="stroke:#EAF2F3;stroke-width:9.72"/>
	<rect x="686.48" y="828.22" width="643.78" height="781.99" style="fill:#A1B0F6"/>
	<rect x="691.34" y="833.08" width="634.06" height="772.27" style="fill:none;stroke:#4361ED;stroke-width:9.72"/>
	<line x1="686.48" y1="1309.50" x2="1330.26" y2="1309.50" style="stroke:#4361ED;stroke-width:9.72"/>
	<line x1="1008.45" y1="1610.21" x2="1008.45" y2="2031.24" style="stroke:#4361ED;stroke-width:9.72"/>
	<line x1="1008.45" y1="828.22" x2="1008.45" y2="226.80" style="stroke:#4361ED;stroke-width:9.72"/>
	<line x1="792.79" y1="2031.24" x2="1224.11" y2="2031.24" style="stroke:#4361ED;stroke-width:9.72"/>
	<line x1="792.79" y1="226.80" x2="1224.11" y2="226.80" style="stroke:#4361ED;stroke-width:9.72"/>
	<rect x="1542.71" y="1008.79" width="643.78" height="861.98" style="fill:#FE959D"/>
	<rect x="1547.57" y="1013.65" width="634.06" height="852.26" style="fill:none;stroke:#FD2B3B;stroke-width:9.72"/>
	<line x1="1542.71" y1="1289.42" x2="2186.49" y2="1289.42" style="stroke:#FD2B3B;stroke-width:9.72"/>
	<line x1="1864.69" y1="1870.76" x2="1864.69" y2="2632.67" style="stroke:#FD2B3B;stroke-width:9.72"/>
	<line x1="1864.69" y1="1008.79" x2="1864.69" y2="226.80" style="stroke:#FD2B3B;stroke-width:9.72"/>
	<line x1="1649.03" y1="2632.67" x2="2080.35" y2="2632.67" style="stroke:#FD2B3B;stroke-width:9.72"/>
	<line x1="1649.03" y1="226.80" x2="2080.35" y2="226.80" style="stroke:#FD2B3B;stroke-width:9.72"/>
	<rect x="2830.28" y="1169.10" width="643.95" height="681.75" style="fill:#A1B0F6"/>
	<rect x="2835.14" y="1173.96" width="634.23" height="672.03" style="fill:none;stroke:#4361ED;stroke-width:9.72"/>
	<line x1="2830.28" y1="1590.13" x2="3474.23" y2="1590.13" style="stroke:#4361ED;stroke-width:9.72"/>
	<line x1="3152.25" y1="1850.85" x2="3152.25" y2="2111.40" style="stroke:#4361ED;stroke-width:9.72"/>
	<line x1="3152.25" y1="1169.10" x2="3152.25" y2="226.80" style="stroke:#4361ED;stroke-width:9.72"/>
	<line x1="2936.59" y1="2111.40" x2="3367.91" y2="2111.40" style="stroke:#4361ED;stroke-width:9.72"/>
	<line x1="2936.59" y1="226.80" x2="3367.91" y2="226.80" style="stroke:#4361ED;stroke-width:9.72"/>
	<rect x="3686.68" y="1549.97" width="643.78" height="561.43" style="fill:#FE959D"/>
	<rect x="3691.54" y="1554.83" width="634.06" height="551.71" style="fill:none;stroke:#FD2B3B;stroke-width:9.72"/>
	<line x1="3686.68" y1="1790.61" x2="4330.46" y2="1790.61" style="stroke:#FD2B3B;stroke-width:9.72"/>
	<line x1="4008.49" y1="2111.40" x2="4008.49" y2="2552.51" style="stroke:#FD2B3B;stroke-width:9.72"/>
	<line x1="4008.49" y1="1549.97" x2="4008.49" y2="868.39" style="stroke:#FD2B3B;stroke-width:9.72"/>
	<line x1="3792.83" y1="2552.51" x2="4224.15" y2="2552.51" style="stroke:#FD2B3B;stroke-width:9.72"/>
	<line x1="3792.83" y1="868.39" x2="4224.15" y2="868.39" style="stroke:#FD2B3B;stroke-width:9.72"/>
	<circle cx="4008.49" cy="667.91" r="21.74" style="fill:#FD2B3B"/>
	<circle cx="4008.49" cy="667.91" r="16.88" style="fill:none;stroke:#FD2B3B;stroke-width:9.72"/>
	<circle cx="4008.49" cy="547.59" r="21.74" style="fill:#FD2B3B"/>
	<circle cx="4008.49" cy="547.59" r="16.88" style="fill:none;stroke:#FD2B3B;stroke-width:9.72"/>
	<circle cx="4008.49" cy="507.43" r="21.74" style="fill:#FD2B3B"/>
	<circle cx="4008.49" cy="507.43" r="16.88" style="fill:none;stroke:#FD2B3B;stroke-width:9.72"/>
	<line x1="444.32" y1="2946.54" x2="444.32" y2="113.40" style="stroke:#000000;stroke-width:6.48"/>
	<line x1="444.32" y1="2833.14" x2="399.26" y2="2833.14" style="stroke:#000000;stroke-width:6.48"/>
	<text x="376.82" y="2872.58" style="font-family:'Helvetica';font-size:112.56px;fill:#000000" text-anchor="end">120</text>
	<line x1="444.32" y1="2031.24" x2="399.26" y2="2031.24" style="stroke:#000000;stroke-width:6.48"/>
	<text x="376.82" y="2070.68" style="font-family:'Helvetica';font-size:112.56px;fill:#000000" text-anchor="end">140</text>
	<line x1="444.32" y1="1229.34" x2="399.26" y2="1229.34" style="stroke:#000000;stroke-width:6.48"/>
	<text x="376.82" y="1268.78" style="font-family:'Helvetica';font-size:112.56px;fill:#000000" text-anchor="end">160</text>
	<line x1="444.32" y1="427.28" x2="399.26" y2="427.28" style="stroke:#000000;stroke-width:6.48"/>
	<text x="376.82" y="466.71" style="font-family:'Helvetica';font-size:112.56px;fill:#000000" text-anchor="end">180</text>
	<line x1="444.32" y1="2946.54" x2="4572.62" y2="2946.54" style="stroke:#000000;stroke-width:6.48"/>
	<text x="1436.57" y="3070.31" style="font-family:'Helvetica';font-size:112.56px;fill:#000000" text-anchor="middle">Male</text>
	<text x="3580.37" y="3070.31" style="font-family:'Helvetica';font-size:112.56px;fill:#000000" text-anchor="middle">Female</text>
	<rect x="4611.43" y="1346.46" width="636.36" height="367.20" style="fill:#FFFFFF"/>
	<rect x="4614.67" y="1349.70" width="629.88" height="360.72" style="fill:none;stroke:#FFFFFF;stroke-width:6.48"/>
	<rect x="4660.03" y="1395.06" width="123.86" height="112.39" style="fill:#A1B0F6"/>
	<rect x="4664.89" y="1399.92" width="114.14" height="102.67" style="fill:none;stroke:#4361ED;stroke-width:9.72"/>
	<rect x="4660.03" y="1552.50" width="123.86" height="112.56" style="fill:#FE959D"/>
	<rect x="4664.89" y="1557.36" width="114.14" height="102.84" style="fill:none;stroke:#FD2B3B;stroke-width:9.72"/>
	<text x="4851.39" y="1490.69" style="font-family:'Helvetica';font-size:112.56px;fill:#000000">Before</text>
	<text x="4851.39" y="1648.13" style="font-family:'Helvetica';font-size:112.56px;fill:#000000">After</text>
</svg>
