<?xml version="1.0" encoding="UTF-8" standalone="no"?>
<!-- This is a Stata 17.0 generated SVG file (http://www.stata.com) -->

<svg version="1.1" width="7.500in" height="4.500in" viewBox="0 0 5400 3240" xmlns="http://www.w3.org/2000/svg" xmlns:xlink="http://www.w3.org/1999/xlink">
	<desc>Stata Graph - Graph</desc>
	<rect x="0" y="0" width="5400" height="3240" style="fill:#FFFFFF;stroke:none"/>
	<rect x="0.00" y="0.00" width="5400.00" height="3240.00" style="fill:#FFFFFF"/>
	<rect x="3.24" y="3.24" width="5393.52" height="3233.52" style="fill:none;stroke:#FFFFFF;stroke-width:6.48"/>
	<rect x="530.55" y="309.82" width="4756.05" height="2490.58" style="fill:#FFFFFF"/>
	<rect x="533.79" y="313.06" width="4749.57" height="2484.10" style="fill:none;stroke:#FFFFFF;stroke-width:6.48"/>
	<line x1="530.55" y1="2729.03" x2="595.35" y2="2729.03" style="stroke:#EAF2F3;stroke-width:9.72"/>
	<line x1="627.75" y1="2729.03" x2="692.55" y2="2729.03" style="stroke:#EAF2F3;stroke-width:9.72"/>
	<line x1="724.95" y1="2729.03" x2="789.75" y2="2729.03" style="stroke:#EAF2F3;stroke-width:9.72"/>
	<line x1="822.15" y1="2729.03" x2="886.95" y2="2729.03" style="stroke:#EAF2F3;stroke-width:9.72"/>
	<line x1="919.35" y1="2729.03" x2="984.15" y2="2729.03" style="stroke:#EAF2F3;stroke-width:9.72"/>
	<line x1="1016.55" y1="2729.03" x2="1081.35" y2="2729.03" style="stroke:#EAF2F3;stroke-width:9.72"/>
	<line x1="1113.75" y1="2729.03" x2="1178.55" y2="2729.03" style="stroke:#EAF2F3;stroke-width:9.72"/>
	<line x1="1210.95" y1="2729.03" x2="1275.75" y2="2729.03" style="stroke:#EAF2F3;stroke-width:9.72"/>
	<line x1="1308.15" y1="2729.03" x2="1372.95" y2="2729.03" style="stroke:#EAF2F3;stroke-width:9.72"/>
	<line x1="1405.35" y1="2729.03" x2="1470.15" y2="2729.03" style="stroke:#EAF2F3;stroke-width:9.72"/>
	<line x1="1502.55" y1="2729.03" x2="1567.35" y2="2729.03" style="stroke:#EAF2F3;stroke-width:9.72"/>
	<line x1="1599.75" y1="2729.03" x2="1664.55" y2="2729.03" style="stroke:#EAF2F3;stroke-width:9.72"/>
	<line x1="1696.95" y1="2729.03" x2="1761.75" y2="2729.03" style="stroke:#EAF2F3;stroke-width:9.72"/>
	<line x1="1794.15" y1="2729.03" x2="1858.95" y2="2729.03" style="stroke:#EAF2F3;stroke-width:9.72"/>
	<line x1="1891.35" y1="2729.03" x2="1956.15" y2="2729.03" style="stroke:#EAF2F3;stroke-width:9.72"/>
	<line x1="1988.55" y1="2729.03" x2="2053.35" y2="2729.03" style="stroke:#EAF2F3;stroke-width:9.72"/>
	<line x1="2085.75" y1="2729.03" x2="2150.55" y2="2729.03" style="stroke:#EAF2F3;stroke-width:9.72"/>
	<line x1="2182.95" y1="2729.03" x2="2247.75" y2="2729.03" style="stroke:#EAF2F3;stroke-width:9.72"/>
	<line x1="2280.15" y1="2729.03" x2="2344.95" y2="2729.03" style="stroke:#EAF2F3;stroke-width:9.72"/>
	<line x1="2377.35" y1="2729.03" x2="2442.15" y2="2729.03" style="stroke:#EAF2F3;stroke-width:9.72"/>
	<line x1="2474.55" y1="2729.03" x2="2539.35" y2="2729.03" style="stroke:#EAF2F3;stroke-width:9.72"/>
	<line x1="2571.75" y1="2729.03" x2="2636.55" y2="2729.03" style="stroke:#EAF2F3;stroke-width:9.72"/>
	<line x1="2668.95" y1="2729.03" x2="2733.75" y2="2729.03" style="stroke:#EAF2F3;stroke-width:9.72"/>
	<line x1="2766.15" y1="2729.03" x2="2830.95" y2="2729.03" style="stroke:#EAF2F3;stroke-width:9.72"/>
	<line x1="2863.35" y1="2729.03" x2="2928.15" y2="2729.03" style="stroke:#EAF2F3;stroke-width:9.72"/>
	<line x1="2960.55" y1="2729.03" x2="3025.35" y2="2729.03" style="stroke:#EAF2F3;stroke-width:9.72"/>
	<line x1="3057.75" y1="2729.03" x2="3122.55" y2="2729.03" style="stroke:#EAF2F3;stroke-width:9.72"/>
	<line x1="3154.95" y1="2729.03" x2="3219.75" y2="2729.03" style="stroke:#EAF2F3;stroke-width:9.72"/>
	<line x1="3252.15" y1="2729.03" x2="3316.95" y2="2729.03" style="stroke:#EAF2F3;stroke-width:9.72"/>
	<line x1="3349.35" y1="2729.03" x2="3414.15" y2="2729.03" style="stroke:#EAF2F3;stroke-width:9.72"/>
	<line x1="3446.55" y1="2729.03" x2="3511.35" y2="2729.03" style="stroke:#EAF2F3;stroke-width:9.72"/>
	<line x1="3543.75" y1="2729.03" x2="3608.55" y2="2729.03" style="stroke:#EAF2F3;stroke-width:9.72"/>
	<line x1="3640.95" y1="2729.03" x2="3705.75" y2="2729.03" style="stroke:#EAF2F3;stroke-width:9.72"/>
	<line x1="3738.15" y1="2729.03" x2="3802.95" y2="2729.03" style="stroke:#EAF2F3;stroke-width:9.72"/>
	<line x1="3835.35" y1="2729.03" x2="3900.15" y2="2729.03" style="stroke:#EAF2F3;stroke-width:9.72"/>
	<line x1="3932.55" y1="2729.03" x2="3997.35" y2="2729.03" style="stroke:#EAF2F3;stroke-width:9.72"/>
	<line x1="4029.75" y1="2729.03" x2="4094.55" y2="2729.03" style="stroke:#EAF2F3;stroke-width:9.72"/>
	<line x1="4126.95" y1="2729.03" x2="4191.75" y2="2729.03" style="stroke:#EAF2F3;stroke-width:9.72"/>
	<line x1="4224.15" y1="2729.03" x2="4288.95" y2="2729.03" style="stroke:#EAF2F3;stroke-width:9.72"/>
	<line x1="4321.35" y1="2729.03" x2="4386.15" y2="2729.03" style="stroke:#EAF2F3;stroke-width:9.72"/>
	<line x1="4418.55" y1="2729.03" x2="4483.35" y2="2729.03" style="stroke:#EAF2F3;stroke-width:9.72"/>
	<line x1="4515.75" y1="2729.03" x2="4580.55" y2="2729.03" style="stroke:#EAF2F3;stroke-width:9.72"/>
	<line x1="4612.95" y1="2729.03" x2="4677.75" y2="2729.03" style="stroke:#EAF2F3;stroke-width:9.72"/>
	<line x1="4710.15" y1="2729.03" x2="4774.95" y2="2729.03" style="stroke:#EAF2F3;stroke-width:9.72"/>
	<line x1="4807.35" y1="2729.03" x2="4872.15" y2="2729.03" style="stroke:#EAF2F3;stroke-width:9.72"/>
	<line x1="4904.55" y1="2729.03" x2="4969.35" y2="2729.03" style="stroke:#EAF2F3;stroke-width:9.72"/>
	<line x1="5001.75" y1="2729.03" x2="5066.55" y2="2729.03" style="stroke:#EAF2F3;stroke-width:9.72"/>
	<line x1="5098.95" y1="2729.03" x2="5163.75" y2="2729.03" style="stroke:#EAF2F3;stroke-width:9.72"/>
	<line x1="5196.15" y1="2729.03" x2="5260.95" y2="2729.03" style="stroke:#EAF2F3;stroke-width:9.72"/>
	<line x1="530.55" y1="1946.36" x2="595.35" y2="1946.36" style="stroke:#EAF2F3;stroke-width:9.72"/>
	<line x1="627.75" y1="1946.36" x2="692.55" y2="1946.36" style="stroke:#EAF2F3;stroke-width:9.72"/>
	<line x1="724.95" y1="1946.36" x2="789.75" y2="1946.36" style="stroke:#EAF2F3;stroke-width:9.72"/>
	<line x1="822.15" y1="1946.36" x2="886.95" y2="1946.36" style="stroke:#EAF2F3;stroke-width:9.72"/>
	<line x1="919.35" y1="1946.36" x2="984.15" y2="1946.36" style="stroke:#EAF2F3;stroke-width:9.72"/>
	<line x1="1016.55" y1="1946.36" x2="1081.35" y2="1946.36" style="stroke:#EAF2F3;stroke-width:9.72"/>
	<line x1="1113.75" y1="1946.36" x2="1178.55" y2="1946.36" style="stroke:#EAF2F3;stroke-width:9.72"/>
	<line x1="1210.95" y1="1946.36" x2="1275.75" y2="1946.36" style="stroke:#EAF2F3;stroke-width:9.72"/>
	<line x1="1308.15" y1="1946.36" x2="1372.95" y2="1946.36" style="stroke:#EAF2F3;stroke-width:9.72"/>
	<line x1="1405.35" y1="1946.36" x2="1470.15" y2="1946.36" style="stroke:#EAF2F3;stroke-width:9.72"/>
	<line x1="1502.55" y1="1946.36" x2="1567.35" y2="1946.36" style="stroke:#EAF2F3;stroke-width:9.72"/>
	<line x1="1599.75" y1="1946.36" x2="1664.55" y2="1946.36" style="stroke:#EAF2F3;stroke-width:9.72"/>
	<line x1="1696.95" y1="1946.36" x2="1761.75" y2="1946.36" style="stroke:#EAF2F3;stroke-width:9.72"/>
	<line x1="1794.15" y1="1946.36" x2="1858.95" y2="1946.36" style="stroke:#EAF2F3;stroke-width:9.72"/>
	<line x1="1891.35" y1="1946.36" x2="1956.15" y2="1946.36" style="stroke:#EAF2F3;stroke-width:9.72"/>
	<line x1="1988.55" y1="1946.36" x2="2053.35" y2="1946.36" style="stroke:#EAF2F3;stroke-width:9.72"/>
	<line x1="2085.75" y1="1946.36" x2="2150.55" y2="1946.36" style="stroke:#EAF2F3;stroke-width:9.72"/>
	<line x1="2182.95" y1="1946.36" x2="2247.75" y2="1946.36" style="stroke:#EAF2F3;stroke-width:9.72"/>
	<line x1="2280.15" y1="1946.36" x2="2344.95" y2="1946.36" style="stroke:#EAF2F3;stroke-width:9.72"/>
	<line x1="2377.35" y1="1946.36" x2="2442.15" y2="1946.36" style="stroke:#EAF2F3;stroke-width:9.72"/>
	<line x1="2474.55" y1="1946.36" x2="2539.35" y2="1946.36" style="stroke:#EAF2F3;stroke-width:9.72"/>
	<line x1="2571.75" y1="1946.36" x2="2636.55" y2="1946.36" style="stroke:#EAF2F3;stroke-width:9.72"/>
	<line x1="2668.95" y1="1946.36" x2="2733.75" y2="1946.36" style="stroke:#EAF2F3;stroke-width:9.72"/>
	<line x1="2766.15" y1="1946.36" x2="2830.95" y2="1946.36" style="stroke:#EAF2F3;stroke-width:9.72"/>
	<line x1="2863.35" y1="1946.36" x2="2928.15" y2="1946.36" style="stroke:#EAF2F3;stroke-width:9.72"/>
	<line x1="2960.55" y1="1946.36" x2="3025.35" y2="1946.36" style="stroke:#EAF2F3;stroke-width:9.72"/>
	<line x1="3057.75" y1="1946.36" x2="3122.55" y2="1946.36" style="stroke:#EAF2F3;stroke-width:9.72"/>
	<line x1="3154.95" y1="1946.36" x2="3219.75" y2="1946.36" style="stroke:#EAF2F3;stroke-width:9.72"/>
	<line x1="3252.15" y1="1946.36" x2="3316.95" y2="1946.36" style="stroke:#EAF2F3;stroke-width:9.72"/>
	<line x1="3349.35" y1="1946.36" x2="3414.15" y2="1946.36" style="stroke:#EAF2F3;stroke-width:9.72"/>
	<line x1="3446.55" y1="1946.36" x2="3511.35" y2="1946.36" style="stroke:#EAF2F3;stroke-width:9.72"/>
	<line x1="3543.75" y1="1946.36" x2="3608.55" y2="1946.36" style="stroke:#EAF2F3;stroke-width:9.72"/>
	<line x1="3640.95" y1="1946.36" x2="3705.75" y2="1946.36" style="stroke:#EAF2F3;stroke-width:9.72"/>
	<line x1="3738.15" y1="1946.36" x2="3802.95" y2="1946.36" style="stroke:#EAF2F3;stroke-width:9.72"/>
	<line x1="3835.35" y1="1946.36" x2="3900.15" y2="1946.36" style="stroke:#EAF2F3;stroke-width:9.72"/>
	<line x1="3932.55" y1="1946.36" x2="3997.35" y2="1946.36" style="stroke:#EAF2F3;stroke-width:9.72"/>
	<line x1="4029.75" y1="1946.36" x2="4094.55" y2="1946.36" style="stroke:#EAF2F3;stroke-width:9.72"/>
	<line x1="4126.95" y1="1946.36" x2="4191.75" y2="1946.36" style="stroke:#EAF2F3;stroke-width:9.72"/>
	<line x1="4224.15" y1="1946.36" x2="4288.95" y2="1946.36" style="stroke:#EAF2F3;stroke-width:9.72"/>
	<line x1="4321.35" y1="1946.36" x2="4386.15" y2="1946.36" style="stroke:#EAF2F3;stroke-width:9.72"/>
	<line x1="4418.55" y1="1946.36" x2="4483.35" y2="1946.36" style="stroke:#EAF2F3;stroke-width:9.72"/>
	<line x1="4515.75" y1="1946.36" x2="4580.55" y2="1946.36" style="stroke:#EAF2F3;stroke-width:9.72"/>
	<line x1="4612.95" y1="1946.36" x2="4677.75" y2="1946.36" style="stroke:#EAF2F3;stroke-width:9.72"/>
	<line x1="4710.15" y1="1946.36" x2="4774.95" y2="1946.36" style="stroke:#EAF2F3;stroke-width:9.72"/>
	<line x1="4807.35" y1="1946.36" x2="4872.15" y2="1946.36" style="stroke:#EAF2F3;stroke-width:9.72"/>
	<line x1="4904.55" y1="1946.36" x2="4969.35" y2="1946.36" style="stroke:#EAF2F3;stroke-width:9.72"/>
	<line x1="5001.75" y1="1946.36" x2="5066.55" y2="1946.36" style="stroke:#EAF2F3;stroke-width:9.72"/>
	<line x1="5098.95" y1="1946.36" x2="5163.75" y2="1946.36" style="stroke:#EAF2F3;stroke-width:9.72"/>
	<line x1="5196.15" y1="1946.36" x2="5260.95" y2="1946.36" style="stroke:#EAF2F3;stroke-width:9.72"/>
	<line x1="530.55" y1="1163.70" x2="595.35" y2="1163.70" style="stroke:#EAF2F3;stroke-width:9.72"/>
	<line x1="627.75" y1="1163.70" x2="692.55" y2="1163.70" style="stroke:#EAF2F3;stroke-width:9.72"/>
	<line x1="724.95" y1="1163.70" x2="789.75" y2="1163.70" style="stroke:#EAF2F3;stroke-width:9.72"/>
	<line x1="822.15" y1="1163.70" x2="886.95" y2="1163.70" style="stroke:#EAF2F3;stroke-width:9.72"/>
	<line x1="919.35" y1="1163.70" x2="984.15" y2="1163.70" style="stroke:#EAF2F3;stroke-width:9.72"/>
	<line x1="1016.55" y1="1163.70" x2="1081.35" y2="1163.70" style="stroke:#EAF2F3;stroke-width:9.72"/>
	<line x1="1113.75" y1="1163.70" x2="1178.55" y2="1163.70" style="stroke:#EAF2F3;stroke-width:9.72"/>
	<line x1="1210.95" y1="1163.70" x2="1275.75" y2="1163.70" style="stroke:#EAF2F3;stroke-width:9.72"/>
	<line x1="1308.15" y1="1163.70" x2="1372.95" y2="1163.70" style="stroke:#EAF2F3;stroke-width:9.72"/>
	<line x1="1405.35" y1="1163.70" x2="1470.15" y2="1163.70" style="stroke:#EAF2F3;stroke-width:9.72"/>
	<line x1="1502.55" y1="1163.70" x2="1567.35" y2="1163.70" style="stroke:#EAF2F3;stroke-width:9.72"/>
	<line x1="1599.75" y1="1163.70" x2="1664.55" y2="1163.70" style="stroke:#EAF2F3;stroke-width:9.72"/>
	<line x1="1696.95" y1="1163.70" x2="1761.75" y2="1163.70" style="stroke:#EAF2F3;stroke-width:9.72"/>
	<line x1="1794.15" y1="1163.70" x2="1858.95" y2="1163.70" style="stroke:#EAF2F3;stroke-width:9.72"/>
	<line x1="1891.35" y1="1163.70" x2="1956.15" y2="1163.70" style="stroke:#EAF2F3;stroke-width:9.72"/>
	<line x1="1988.55" y1="1163.70" x2="2053.35" y2="1163.70" style="stroke:#EAF2F3;stroke-width:9.72"/>
	<line x1="2085.75" y1="1163.70" x2="2150.55" y2="1163.70" style="stroke:#EAF2F3;stroke-width:9.72"/>
	<line x1="2182.95" y1="1163.70" x2="2247.75" y2="1163.70" style="stroke:#EAF2F3;stroke-width:9.72"/>
	<line x1="2280.15" y1="1163.70" x2="2344.95" y2="1163.70" style="stroke:#EAF2F3;stroke-width:9.72"/>
	<line x1="2377.35" y1="1163.70" x2="2442.15" y2="1163.70" style="stroke:#EAF2F3;stroke-width:9.72"/>
	<line x1="2474.55" y1="1163.70" x2="2539.35" y2="1163.70" style="stroke:#EAF2F3;stroke-width:9.72"/>
	<line x1="2571.75" y1="1163.70" x2="2636.55" y2="1163.70" style="stroke:#EAF2F3;stroke-width:9.72"/>
	<line x1="2668.95" y1="1163.70" x2="2733.75" y2="1163.70" style="stroke:#EAF2F3;stroke-width:9.72"/>
	<line x1="2766.15" y1="1163.70" x2="2830.95" y2="1163.70" style="stroke:#EAF2F3;stroke-width:9.72"/>
	<line x1="2863.35" y1="1163.70" x2="2928.15" y2="1163.70" style="stroke:#EAF2F3;stroke-width:9.72"/>
	<line x1="2960.55" y1="1163.70" x2="3025.35" y2="1163.70" style="stroke:#EAF2F3;stroke-width:9.72"/>
	<line x1="3057.75" y1="1163.70" x2="3122.55" y2="1163.70" style="stroke:#EAF2F3;stroke-width:9.72"/>
	<line x1="3154.95" y1="1163.70" x2="3219.75" y2="1163.70" style="stroke:#EAF2F3;stroke-width:9.72"/>
	<line x1="3252.15" y1="1163.70" x2="3316.95" y2="1163.70" style="stroke:#EAF2F3;stroke-width:9.72"/>
	<line x1="3349.35" y1="1163.70" x2="3414.15" y2="1163.70" style="stroke:#EAF2F3;stroke-width:9.72"/>
	<line x1="3446.55" y1="1163.70" x2="3511.35" y2="1163.70" style="stroke:#EAF2F3;stroke-width:9.72"/>
	<line x1="3543.75" y1="1163.70" x2="3608.55" y2="1163.70" style="stroke:#EAF2F3;stroke-width:9.72"/>
	<line x1="3640.95" y1="1163.70" x2="3705.75" y2="1163.70" style="stroke:#EAF2F3;stroke-width:9.72"/>
	<line x1="3738.15" y1="1163.70" x2="3802.95" y2="1163.70" style="stroke:#EAF2F3;stroke-width:9.72"/>
	<line x1="3835.35" y1="1163.70" x2="3900.15" y2="1163.70" style="stroke:#EAF2F3;stroke-width:9.72"/>
	<line x1="3932.55" y1="1163.70" x2="3997.35" y2="1163.70" style="stroke:#EAF2F3;stroke-width:9.72"/>
	<line x1="4029.75" y1="1163.70" x2="4094.55" y2="1163.70" style="stroke:#EAF2F3;stroke-width:9.72"/>
	<line x1="4126.95" y1="1163.70" x2="4191.75" y2="1163.70" style="stroke:#EAF2F3;stroke-width:9.72"/>
	<line x1="4224.15" y1="1163.70" x2="4288.95" y2="1163.70" style="stroke:#EAF2F3;stroke-width:9.72"/>
	<line x1="4321.35" y1="1163.70" x2="4386.15" y2="1163.70" style="stroke:#EAF2F3;stroke-width:9.72"/>
	<line x1="4418.55" y1="1163.70" x2="4483.35" y2="1163.70" style="stroke:#EAF2F3;stroke-width:9.72"/>
	<line x1="4515.75" y1="1163.70" x2="4580.55" y2="1163.70" style="stroke:#EAF2F3;stroke-width:9.72"/>
	<line x1="4612.95" y1="1163.70" x2="4677.75" y2="1163.70" style="stroke:#EAF2F3;stroke-width:9.72"/>
	<line x1="4710.15" y1="1163.70" x2="4774.95" y2="1163.70" style="stroke:#EAF2F3;stroke-width:9.72"/>
	<line x1="4807.35" y1="1163.70" x2="4872.15" y2="1163.70" style="stroke:#EAF2F3;stroke-width:9.72"/>
	<line x1="4904.55" y1="1163.70" x2="4969.35" y2="1163.70" style="stroke:#EAF2F3;stroke-width:9.72"/>
	<line x1="5001.75" y1="1163.70" x2="5066.55" y2="1163.70" style="stroke:#EAF2F3;stroke-width:9.72"/>
	<line x1="5098.95" y1="1163.70" x2="5163.75" y2="1163.70" style="stroke:#EAF2F3;stroke-width:9.72"/>
	<line x1="5196.15" y1="1163.70" x2="5260.95" y2="1163.70" style="stroke:#EAF2F3;stroke-width:9.72"/>
	<line x1="530.55" y1="381.04" x2="595.35" y2="381.04" style="stroke:#EAF2F3;stroke-width:9.72"/>
	<line x1="627.75" y1="381.04" x2="692.55" y2="381.04" style="stroke:#EAF2F3;stroke-width:9.72"/>
	<line x1="724.95" y1="381.04" x2="789.75" y2="381.04" style="stroke:#EAF2F3;stroke-width:9.72"/>
	<line x1="822.15" y1="381.04" x2="886.95" y2="381.04" style="stroke:#EAF2F3;stroke-width:9.72"/>
	<line x1="919.35" y1="381.04" x2="984.15" y2="381.04" style="stroke:#EAF2F3;stroke-width:9.72"/>
	<line x1="1016.55" y1="381.04" x2="1081.35" y2="381.04" style="stroke:#EAF2F3;stroke-width:9.72"/>
	<line x1="1113.75" y1="381.04" x2="1178.55" y2="381.04" style="stroke:#EAF2F3;stroke-width:9.72"/>
	<line x1="1210.95" y1="381.04" x2="1275.75" y2="381.04" style="stroke:#EAF2F3;stroke-width:9.72"/>
	<line x1="1308.15" y1="381.04" x2="1372.95" y2="381.04" style="stroke:#EAF2F3;stroke-width:9.72"/>
	<line x1="1405.35" y1="381.04" x2="1470.15" y2="381.04" style="stroke:#EAF2F3;stroke-width:9.72"/>
	<line x1="1502.55" y1="381.04" x2="1567.35" y2="381.04" style="stroke:#EAF2F3;stroke-width:9.72"/>
	<line x1="1599.75" y1="381.04" x2="1664.55" y2="381.04" style="stroke:#EAF2F3;stroke-width:9.72"/>
	<line x1="1696.95" y1="381.04" x2="1761.75" y2="381.04" style="stroke:#EAF2F3;stroke-width:9.72"/>
	<line x1="1794.15" y1="381.04" x2="1858.95" y2="381.04" style="stroke:#EAF2F3;stroke-width:9.72"/>
	<line x1="1891.35" y1="381.04" x2="1956.15" y2="381.04" style="stroke:#EAF2F3;stroke-width:9.72"/>
	<line x1="1988.55" y1="381.04" x2="2053.35" y2="381.04" style="stroke:#EAF2F3;stroke-width:9.72"/>
	<line x1="2085.75" y1="381.04" x2="2150.55" y2="381.04" style="stroke:#EAF2F3;stroke-width:9.72"/>
	<line x1="2182.95" y1="381.04" x2="2247.75" y2="381.04" style="stroke:#EAF2F3;stroke-width:9.72"/>
	<line x1="2280.15" y1="381.04" x2="2344.95" y2="381.04" style="stroke:#EAF2F3;stroke-width:9.72"/>
	<line x1="2377.35" y1="381.04" x2="2442.15" y2="381.04" style="stroke:#EAF2F3;stroke-width:9.72"/>
	<line x1="2474.55" y1="381.04" x2="2539.35" y2="381.04" style="stroke:#EAF2F3;stroke-width:9.72"/>
	<line x1="2571.75" y1="381.04" x2="2636.55" y2="381.04" style="stroke:#EAF2F3;stroke-width:9.72"/>
	<line x1="2668.95" y1="381.04" x2="2733.75" y2="381.04" style="stroke:#EAF2F3;stroke-width:9.72"/>
	<line x1="2766.15" y1="381.04" x2="2830.95" y2="381.04" style="stroke:#EAF2F3;stroke-width:9.72"/>
	<line x1="2863.35" y1="381.04" x2="2928.15" y2="381.04" style="stroke:#EAF2F3;stroke-width:9.72"/>
	<line x1="2960.55" y1="381.04" x2="3025.35" y2="381.04" style="stroke:#EAF2F3;stroke-width:9.72"/>
	<line x1="3057.75" y1="381.04" x2="3122.55" y2="381.04" style="stroke:#EAF2F3;stroke-width:9.72"/>
	<line x1="3154.95" y1="381.04" x2="3219.75" y2="381.04" style="stroke:#EAF2F3;stroke-width:9.72"/>
	<line x1="3252.15" y1="381.04" x2="3316.95" y2="381.04" style="stroke:#EAF2F3;stroke-width:9.72"/>
	<line x1="3349.35" y1="381.04" x2="3414.15" y2="381.04" style="stroke:#EAF2F3;stroke-width:9.72"/>
	<line x1="3446.55" y1="381.04" x2="3511.35" y2="381.04" style="stroke:#EAF2F3;stroke-width:9.72"/>
	<line x1="3543.75" y1="381.04" x2="3608.55" y2="381.04" style="stroke:#EAF2F3;stroke-width:9.72"/>
	<line x1="3640.95" y1="381.04" x2="3705.75" y2="381.04" style="stroke:#EAF2F3;stroke-width:9.72"/>
	<line x1="3738.15" y1="381.04" x2="3802.95" y2="381.04" style="stroke:#EAF2F3;stroke-width:9.72"/>
	<line x1="3835.35" y1="381.04" x2="3900.15" y2="381.04" style="stroke:#EAF2F3;stroke-width:9.72"/>
	<line x1="3932.55" y1="381.04" x2="3997.35" y2="381.04" style="stroke:#EAF2F3;stroke-width:9.72"/>
	<line x1="4029.75" y1="381.04" x2="4094.55" y2="381.04" style="stroke:#EAF2F3;stroke-width:9.72"/>
	<line x1="4126.95" y1="381.04" x2="4191.75" y2="381.04" style="stroke:#EAF2F3;stroke-width:9.72"/>
	<line x1="4224.15" y1="381.04" x2="4288.95" y2="381.04" style="stroke:#EAF2F3;stroke-width:9.72"/>
	<line x1="4321.35" y1="381.04" x2="4386.15" y2="381.04" style="stroke:#EAF2F3;stroke-width:9.72"/>
	<line x1="4418.55" y1="381.04" x2="4483.35" y2="381.04" style="stroke:#EAF2F3;stroke-width:9.72"/>
	<line x1="4515.75" y1="381.04" x2="4580.55" y2="381.04" style="stroke:#EAF2F3;stroke-width:9.72"/>
	<line x1="4612.95" y1="381.04" x2="4677.75" y2="381.04" style="stroke:#EAF2F3;stroke-width:9.72"/>
	<line x1="4710.15" y1="381.04" x2="4774.95" y2="381.04" style="stroke:#EAF2F3;stroke-width:9.72"/>
	<line x1="4807.35" y1="381.04" x2="4872.15" y2="381.04" style="stroke:#EAF2F3;stroke-width:9.72"/>
	<line x1="4904.55" y1="381.04" x2="4969.35" y2="381.04" style="stroke:#EAF2F3;stroke-width:9.72"/>
	<line x1="5001.75" y1="381.04" x2="5066.55" y2="381.04" style="stroke:#EAF2F3;stroke-width:9.72"/>
	<line x1="5098.95" y1="381.04" x2="5163.75" y2="381.04" style="stroke:#EAF2F3;stroke-width:9.72"/>
	<line x1="5196.15" y1="381.04" x2="5260.95" y2="381.04" style="stroke:#EAF2F3;stroke-width:9.72"/>
	<line x1="956.81" y1="2800.41" x2="956.81" y2="2735.61" style="stroke:#EAF2F3;stroke-width:9.72"/>
	<line x1="956.81" y1="2703.21" x2="956.81" y2="2638.41" style="stroke:#EAF2F3;stroke-width:9.72"/>
	<line x1="956.81" y1="2606.01" x2="956.81" y2="2541.21" style="stroke:#EAF2F3;stroke-width:9.72"/>
	<line x1="956.81" y1="2508.81" x2="956.81" y2="2444.01" style="stroke:#EAF2F3;stroke-width:9.72"/>
	<line x1="956.81" y1="2411.61" x2="956.81" y2="2346.81" style="stroke:#EAF2F3;stroke-width:9.72"/>
	<line x1="956.81" y1="2314.41" x2="956.81" y2="2249.61" style="stroke:#EAF2F3;stroke-width:9.72"/>
	<line x1="956.81" y1="2217.21" x2="956.81" y2="2152.41" style="stroke:#EAF2F3;stroke-width:9.72"/>
	<line x1="956.81" y1="2120.01" x2="956.81" y2="2055.21" style="stroke:#EAF2F3;stroke-width:9.72"/>
	<line x1="956.81" y1="2022.81" x2="956.81" y2="1958.01" style="stroke:#EAF2F3;stroke-width:9.72"/>
	<line x1="956.81" y1="1925.61" x2="956.81" y2="1860.81" style="stroke:#EAF2F3;stroke-width:9.72"/>
	<line x1="956.81" y1="1828.41" x2="956.81" y2="1763.61" style="stroke:#EAF2F3;stroke-width:9.72"/>
	<line x1="956.81" y1="1731.21" x2="956.81" y2="1666.41" style="stroke:#EAF2F3;stroke-width:9.72"/>
	<line x1="956.81" y1="1634.01" x2="956.81" y2="1569.21" style="stroke:#EAF2F3;stroke-width:9.72"/>
	<line x1="956.81" y1="1536.81" x2="956.81" y2="1472.01" style="stroke:#EAF2F3;stroke-width:9.72"/>
	<line x1="956.81" y1="1439.61" x2="956.81" y2="1374.81" style="stroke:#EAF2F3;stroke-width:9.72"/>
	<line x1="956.81" y1="1342.41" x2="956.81" y2="1277.61" style="stroke:#EAF2F3;stroke-width:9.72"/>
	<line x1="956.81" y1="1245.21" x2="956.81" y2="1180.41" style="stroke:#EAF2F3;stroke-width:9.72"/>
	<line x1="956.81" y1="1148.01" x2="956.81" y2="1083.21" style="stroke:#EAF2F3;stroke-width:9.72"/>
	<line x1="956.81" y1="1050.81" x2="956.81" y2="986.01" style="stroke:#EAF2F3;stroke-width:9.72"/>
	<line x1="956.81" y1="953.61" x2="956.81" y2="888.81" style="stroke:#EAF2F3;stroke-width:9.72"/>
	<line x1="956.81" y1="856.41" x2="956.81" y2="791.61" style="stroke:#EAF2F3;stroke-width:9.72"/>
	<line x1="956.81" y1="759.21" x2="956.81" y2="694.41" style="stroke:#EAF2F3;stroke-width:9.72"/>
	<line x1="956.81" y1="662.01" x2="956.81" y2="597.21" style="stroke:#EAF2F3;stroke-width:9.72"/>
	<line x1="956.81" y1="564.81" x2="956.81" y2="500.01" style="stroke:#EAF2F3;stroke-width:9.72"/>
	<line x1="956.81" y1="467.61" x2="956.81" y2="402.81" style="stroke:#EAF2F3;stroke-width:9.72"/>
	<line x1="956.81" y1="370.41" x2="956.81" y2="309.82" style="stroke:#EAF2F3;stroke-width:9.72"/>
	<line x1="2376.34" y1="2800.41" x2="2376.34" y2="2735.61" style="stroke:#EAF2F3;stroke-width:9.72"/>
	<line x1="2376.34" y1="2703.21" x2="2376.34" y2="2638.41" style="stroke:#EAF2F3;stroke-width:9.72"/>
	<line x1="2376.34" y1="2606.01" x2="2376.34" y2="2541.21" style="stroke:#EAF2F3;stroke-width:9.72"/>
	<line x1="2376.34" y1="2508.81" x2="2376.34" y2="2444.01" style="stroke:#EAF2F3;stroke-width:9.72"/>
	<line x1="2376.34" y1="2411.61" x2="2376.34" y2="2346.81" style="stroke:#EAF2F3;stroke-width:9.72"/>
	<line x1="2376.34" y1="2314.41" x2="2376.34" y2="2249.61" style="stroke:#EAF2F3;stroke-width:9.72"/>
	<line x1="2376.34" y1="2217.21" x2="2376.34" y2="2152.41" style="stroke:#EAF2F3;stroke-width:9.72"/>
	<line x1="2376.34" y1="2120.01" x2="2376.34" y2="2055.21" style="stroke:#EAF2F3;stroke-width:9.72"/>
	<line x1="2376.34" y1="2022.81" x2="2376.34" y2="1958.01" style="stroke:#EAF2F3;stroke-width:9.72"/>
	<line x1="2376.34" y1="1925.61" x2="2376.34" y2="1860.81" style="stroke:#EAF2F3;stroke-width:9.72"/>
	<line x1="2376.34" y1="1828.41" x2="2376.34" y2="1763.61" style="stroke:#EAF2F3;stroke-width:9.72"/>
	<line x1="2376.34" y1="1731.21" x2="2376.34" y2="1666.41" style="stroke:#EAF2F3;stroke-width:9.72"/>
	<line x1="2376.34" y1="1634.01" x2="2376.34" y2="1569.21" style="stroke:#EAF2F3;stroke-width:9.72"/>
	<line x1="2376.34" y1="1536.81" x2="2376.34" y2="1472.01" style="stroke:#EAF2F3;stroke-width:9.72"/>
	<line x1="2376.34" y1="1439.61" x2="2376.34" y2="1374.81" style="stroke:#EAF2F3;stroke-width:9.72"/>
	<line x1="2376.34" y1="1342.41" x2="2376.34" y2="1277.61" style="stroke:#EAF2F3;stroke-width:9.72"/>
	<line x1="2376.34" y1="1245.21" x2="2376.34" y2="1180.41" style="stroke:#EAF2F3;stroke-width:9.72"/>
	<line x1="2376.34" y1="1148.01" x2="2376.34" y2="1083.21" style="stroke:#EAF2F3;stroke-width:9.72"/>
	<line x1="2376.34" y1="1050.81" x2="2376.34" y2="986.01" style="stroke:#EAF2F3;stroke-width:9.72"/>
	<line x1="2376.34" y1="953.61" x2="2376.34" y2="888.81" style="stroke:#EAF2F3;stroke-width:9.72"/>
	<line x1="2376.34" y1="856.41" x2="2376.34" y2="791.61" style="stroke:#EAF2F3;stroke-width:9.72"/>
	<line x1="2376.34" y1="759.21" x2="2376.34" y2="694.41" style="stroke:#EAF2F3;stroke-width:9.72"/>
	<line x1="2376.34" y1="662.01" x2="2376.34" y2="597.21" style="stroke:#EAF2F3;stroke-width:9.72"/>
	<line x1="2376.34" y1="564.81" x2="2376.34" y2="500.01" style="stroke:#EAF2F3;stroke-width:9.72"/>
	<line x1="2376.34" y1="467.61" x2="2376.34" y2="402.81" style="stroke:#EAF2F3;stroke-width:9.72"/>
	<line x1="2376.34" y1="370.41" x2="2376.34" y2="309.82" style="stroke:#EAF2F3;stroke-width:9.72"/>
	<line x1="3795.86" y1="2800.41" x2="3795.86" y2="2735.61" style="stroke:#EAF2F3;stroke-width:9.72"/>
	<line x1="3795.86" y1="2703.21" x2="3795.86" y2="2638.41" style="stroke:#EAF2F3;stroke-width:9.72"/>
	<line x1="3795.86" y1="2606.01" x2="3795.86" y2="2541.21" style="stroke:#EAF2F3;stroke-width:9.72"/>
	<line x1="3795.86" y1="2508.81" x2="3795.86" y2="2444.01" style="stroke:#EAF2F3;stroke-width:9.72"/>
	<line x1="3795.86" y1="2411.61" x2="3795.86" y2="2346.81" style="stroke:#EAF2F3;stroke-width:9.72"/>
	<line x1="3795.86" y1="2314.41" x2="3795.86" y2="2249.61" style="stroke:#EAF2F3;stroke-width:9.72"/>
	<line x1="3795.86" y1="2217.21" x2="3795.86" y2="2152.41" style="stroke:#EAF2F3;stroke-width:9.72"/>
	<line x1="3795.86" y1="2120.01" x2="3795.86" y2="2055.21" style="stroke:#EAF2F3;stroke-width:9.72"/>
	<line x1="3795.86" y1="2022.81" x2="3795.86" y2="1958.01" style="stroke:#EAF2F3;stroke-width:9.72"/>
	<line x1="3795.86" y1="1925.61" x2="3795.86" y2="1860.81" style="stroke:#EAF2F3;stroke-width:9.72"/>
	<line x1="3795.86" y1="1828.41" x2="3795.86" y2="1763.61" style="stroke:#EAF2F3;stroke-width:9.72"/>
	<line x1="3795.86" y1="1731.21" x2="3795.86" y2="1666.41" style="stroke:#EAF2F3;stroke-width:9.72"/>
	<line x1="3795.86" y1="1634.01" x2="3795.86" y2="1569.21" style="stroke:#EAF2F3;stroke-width:9.72"/>
	<line x1="3795.86" y1="1536.81" x2="3795.86" y2="1472.01" style="stroke:#EAF2F3;stroke-width:9.72"/>
	<line x1="3795.86" y1="1439.61" x2="3795.86" y2="1374.81" style="stroke:#EAF2F3;stroke-width:9.72"/>
	<line x1="3795.86" y1="1342.41" x2="3795.86" y2="1277.61" style="stroke:#EAF2F3;stroke-width:9.72"/>
	<line x1="3795.86" y1="1245.21" x2="3795.86" y2="1180.41" style="stroke:#EAF2F3;stroke-width:9.72"/>
	<line x1="3795.86" y1="1148.01" x2="3795.86" y2="1083.21" style="stroke:#EAF2F3;stroke-width:9.72"/>
	<line x1="3795.86" y1="1050.81" x2="3795.86" y2="986.01" style="stroke:#EAF2F3;stroke-width:9.72"/>
	<line x1="3795.86" y1="953.61" x2="3795.86" y2="888.81" style="stroke:#EAF2F3;stroke-width:9.72"/>
	<line x1="3795.86" y1="856.41" x2="3795.86" y2="791.61" style="stroke:#EAF2F3;stroke-width:9.72"/>
	<line x1="3795.86" y1="759.21" x2="3795.86" y2="694.41" style="stroke:#EAF2F3;stroke-width:9.72"/>
	<line x1="3795.86" y1="662.01" x2="3795.86" y2="597.21" style="stroke:#EAF2F3;stroke-width:9.72"/>
	<line x1="3795.86" y1="564.81" x2="3795.86" y2="500.01" style="stroke:#EAF2F3;stroke-width:9.72"/>
	<line x1="3795.86" y1="467.61" x2="3795.86" y2="402.81" style="stroke:#EAF2F3;stroke-width:9.72"/>
	<line x1="3795.86" y1="370.41" x2="3795.86" y2="309.82" style="stroke:#EAF2F3;stroke-width:9.72"/>
	<line x1="5215.39" y1="2800.41" x2="5215.39" y2="2735.61" style="stroke:#EAF2F3;stroke-width:9.72"/>
	<line x1="5215.39" y1="2703.21" x2="5215.39" y2="2638.41" style="stroke:#EAF2F3;stroke-width:9.72"/>
	<line x1="5215.39" y1="2606.01" x2="5215.39" y2="2541.21" style="stroke:#EAF2F3;stroke-width:9.72"/>
	<line x1="5215.39" y1="2508.81" x2="5215.39" y2="2444.01" style="stroke:#EAF2F3;stroke-width:9.72"/>
	<line x1="5215.39" y1="2411.61" x2="5215.39" y2="2346.81" style="stroke:#EAF2F3;stroke-width:9.72"/>
	<line x1="5215.39" y1="2314.41" x2="5215.39" y2="2249.61" style="stroke:#EAF2F3;stroke-width:9.72"/>
	<line x1="5215.39" y1="2217.21" x2="5215.39" y2="2152.41" style="stroke:#EAF2F3;stroke-width:9.72"/>
	<line x1="5215.39" y1="2120.01" x2="5215.39" y2="2055.21" style="stroke:#EAF2F3;stroke-width:9.72"/>
	<line x1="5215.39" y1="2022.81" x2="5215.39" y2="1958.01" style="stroke:#EAF2F3;stroke-width:9.72"/>
	<line x1="5215.39" y1="1925.61" x2="5215.39" y2="1860.81" style="stroke:#EAF2F3;stroke-width:9.72"/>
	<line x1="5215.39" y1="1828.41" x2="5215.39" y2="1763.61" style="stroke:#EAF2F3;stroke-width:9.72"/>
	<line x1="5215.39" y1="1731.21" x2="5215.39" y2="1666.41" style="stroke:#EAF2F3;stroke-width:9.72"/>
	<line x1="5215.39" y1="1634.01" x2="5215.39" y2="1569.21" style="stroke:#EAF2F3;stroke-width:9.72"/>
	<line x1="5215.39" y1="1536.81" x2="5215.39" y2="1472.01" style="stroke:#EAF2F3;stroke-width:9.72"/>
	<line x1="5215.39" y1="1439.61" x2="5215.39" y2="1374.81" style="stroke:#EAF2F3;stroke-width:9.72"/>
	<line x1="5215.39" y1="1342.41" x2="5215.39" y2="1277.61" style="stroke:#EAF2F3;stroke-width:9.72"/>
	<line x1="5215.39" y1="1245.21" x2="5215.39" y2="1180.41" style="stroke:#EAF2F3;stroke-width:9.72"/>
	<line x1="5215.39" y1="1148.01" x2="5215.39" y2="1083.21" style="stroke:#EAF2F3;stroke-width:9.72"/>
	<line x1="5215.39" y1="1050.81" x2="5215.39" y2="986.01" style="stroke:#EAF2F3;stroke-width:9.72"/>
	<line x1="5215.39" y1="953.61" x2="5215.39" y2="888.81" style="stroke:#EAF2F3;stroke-width:9.72"/>
	<line x1="5215.39" y1="856.41" x2="5215.39" y2="791.61" style="stroke:#EAF2F3;stroke-width:9.72"/>
	<line x1="5215.39" y1="759.21" x2="5215.39" y2="694.41" style="stroke:#EAF2F3;stroke-width:9.72"/>
	<line x1="5215.39" y1="662.01" x2="5215.39" y2="597.21" style="stroke:#EAF2F3;stroke-width:9.72"/>
	<line x1="5215.39" y1="564.81" x2="5215.39" y2="500.01" style="stroke:#EAF2F3;stroke-width:9.72"/>
	<line x1="5215.39" y1="467.61" x2="5215.39" y2="402.81" style="stroke:#EAF2F3;stroke-width:9.72"/>
	<line x1="5215.39" y1="370.41" x2="5215.39" y2="309.82" style="stroke:#EAF2F3;stroke-width:9.72"/>
	<defs>
		<path id="path_kdhWMNuG" d="M601.93 2552.01 L601.93 2552.01 L641.92 2535.13 L682.09 2518.43 L722.25 2501.72 L762.41 2484.84 L802.58 2468.14 L842.74 2451.43 L882.90 2434.73 L923.06 2418.02 L963.23 2401.31 L1003.39 2384.61 L1043.55 2368.07 L1083.71 2351.36 L1123.71 2334.82 L1163.87 2318.29 L1204.03 2301.75 L1244.19 2285.21 L1284.36 2268.68 L1324.52 2252.14 L1364.68 2235.77 L1404.84 2219.23 L1445.01 2202.86 L1485.17 2186.49 L1525.33 2170.13 L1565.49 2153.93 L1605.49 2137.56 L1645.65 2121.36 L1685.81 2105.16 L1725.98 2089.13 L1766.14 2072.93 L1806.30 2056.89 L1846.46 2040.86 L1886.63 2025.00 L1926.79 2009.14 L1966.95 1993.28 L2007.11 1977.58 L2047.28 1961.89 L2087.27 1946.19 L2127.43 1930.67 L2167.59 1915.14 L2207.76 1899.79 L2247.92 1884.43 L2288.08 1869.24 L2328.24 1854.06 L2368.41 1839.04 L2408.57 1824.19 L2448.73 1809.34 L2488.89 1794.66 L2529.06 1780.14 L2569.05 1765.63 L2609.21 1751.46 L2649.38 1737.28 L2689.54 1723.28 L2729.70 1709.44 L2769.86 1695.77 L2810.03 1682.27 L2850.19 1668.94 L2890.35 1655.78 L2930.51 1642.95 L2970.68 1630.29 L3010.67 1617.64 L3050.83 1605.32 L3090.99 1593.34 L3131.16 1581.36 L3171.32 1569.71 L3211.48 1558.41 L3251.64 1547.10 L3291.81 1536.13 L3331.97 1525.50 L3372.13 1514.87 L3412.29 1504.58 L3452.46 1494.45 L3492.45 1484.66 L3532.61 1474.88 L3572.78 1465.43 L3612.94 1456.14 L3653.10 1447.03 L3693.26 1438.09 L3733.43 1429.31 L3773.59 1420.88 L3813.75 1412.44 L3853.91 1404.17 L3894.08 1396.07 L3934.24 1388.14 L3974.23 1380.21 L4014.39 1372.61 L4054.56 1365.02 L4094.72 1357.43 L4134.88 1350.17 L4175.04 1342.91 L4215.21 1335.66 L4255.37 1328.74 L4295.53 1321.65 L4335.69 1314.73 L4375.86 1307.98 L4416.02 1301.23 L4456.01 1294.48 L4496.18 1287.90 L4536.34 1281.32 L4576.50 1274.91 L4576.50 751.44 L4536.34 767.31 L4496.18 783.00 L4456.01 798.86 L4416.02 814.56 L4375.86 830.08 L4335.69 845.61 L4295.53 861.13 L4255.37 876.49 L4215.21 891.84 L4175.04 907.03 L4134.88 922.22 L4094.72 937.07 L4054.56 952.09 L4014.39 966.77 L3974.23 981.45 L3934.24 995.96 L3894.08 1010.47 L3853.91 1024.65 L3813.75 1038.82 L3773.59 1052.83 L3733.43 1066.50 L3693.26 1080.17 L3653.10 1093.67 L3612.94 1107.00 L3572.78 1119.99 L3532.61 1132.82 L3492.45 1145.64 L3452.46 1158.13 L3412.29 1170.28 L3372.13 1182.43 L3331.97 1194.24 L3291.81 1205.89 L3251.64 1217.19 L3211.48 1228.33 L3171.32 1239.30 L3131.16 1250.10 L3090.99 1260.56 L3050.83 1270.86 L3010.67 1280.81 L2970.68 1290.77 L2930.51 1300.39 L2890.35 1309.84 L2850.19 1319.12 L2810.03 1328.06 L2769.86 1337.01 L2729.70 1345.78 L2689.54 1354.22 L2649.38 1362.66 L2609.21 1370.93 L2569.05 1378.86 L2529.06 1386.96 L2488.89 1394.72 L2448.73 1402.31 L2408.57 1409.91 L2368.41 1417.33 L2328.24 1424.76 L2288.08 1432.01 L2247.92 1439.10 L2207.76 1446.19 L2167.59 1453.11 L2127.43 1460.03 L2087.27 1466.78 L2047.28 1473.53 L2007.11 1480.28 L1966.95 1486.86 L1926.79 1493.27 L1886.63 1499.85 L1846.46 1506.26 L1806.30 1512.68 L1766.14 1518.92 L1725.98 1525.16 L1685.81 1531.41 L1645.65 1537.65 L1605.49 1543.73 L1565.49 1549.80 L1525.33 1555.88 L1485.17 1561.95 L1445.01 1568.03 L1404.84 1573.93 L1364.68 1579.84 L1324.52 1585.74 L1284.36 1591.65 L1244.19 1597.56 L1204.03 1603.46 L1163.87 1609.20 L1123.71 1614.94 L1083.71 1620.68 L1043.55 1626.58 L1003.39 1632.15 L963.23 1637.89 L923.06 1643.63 L882.90 1649.36 L842.74 1654.93 L802.58 1660.67 L762.41 1666.24 L722.25 1671.81 L682.09 1677.38 L641.92 1682.94 L601.93 1688.51 L601.93 2552.01 Z" stroke-linejoin="round"/>
	</defs>
	<defs>
		<clipPath id="clipPath_bTOnDEJo">
			<use xlink:href="#path_kdhWMNuG"/>
		</clipPath>
	</defs>
	<use xlink:href="#path_kdhWMNuG" style="stroke:none;fill:#E0E0E0"/>
	<use xlink:href="#path_kdhWMNuG" style="fill:none;stroke:#E0E0E0;stroke-width:19.44" clip-path="url(#clipPath_bTOnDEJo)"/>
	<path d=" M601.76 2120.34 L641.92 2109.21 L682.09 2098.07 L722.25 2086.76 L762.41 2075.63 L802.58 2064.49 L842.74 2053.35 L882.73 2042.04 L922.89 2030.91 L963.06 2019.77 L1003.22 2008.46 L1043.38 1997.33 L1083.54 1986.19 L1123.71 1975.05 L1163.87 1963.74 L1204.03 1952.61 L1244.19 1941.47 L1284.36 1930.33 L1324.52 1919.03 L1364.51 1907.89 L1404.68 1896.75 L1444.84 1885.44 L1485.00 1874.31 L1525.16 1863.17 L1565.33 1852.03 L1605.49 1840.73 L1645.65 1829.59 L1685.81 1818.45 L1725.98 1807.31 L1766.14 1796.01 L1806.30 1784.87 L1846.29 1773.73 L1886.46 1762.43 L1926.62 1751.29 L1966.78 1740.15 L2006.94 1729.01 L2047.11 1717.71 L2087.27 1706.57 L2127.43 1695.43 L2167.59 1684.29 L2207.76 1672.99 L2247.92 1661.85 L2288.08 1650.71 L2328.07 1639.41 L2368.24 1628.27 L2408.40 1617.13 L2448.56 1605.99 L2488.73 1594.69 L2528.89 1583.55 L2569.05 1572.41 L2609.21 1561.28 L2649.38 1549.97 L2689.54 1538.83 L2729.70 1527.69 L2769.86 1516.39 L2809.86 1505.25 L2850.02 1494.11 L2890.18 1482.98 L2930.34 1471.67 L2970.51 1460.53 L3010.67 1449.39 L3050.83 1438.26 L3090.99 1426.95 L3131.16 1415.81 L3171.32 1404.68 L3211.48 1393.37 L3251.48 1382.23 L3291.64 1371.09 L3331.80 1359.96 L3371.96 1348.65 L3412.13 1337.51 L3452.29 1326.38 L3492.45 1315.24 L3532.61 1303.93 L3572.78 1292.79 L3612.94 1281.66 L3653.10 1270.35 L3693.26 1259.21 L3733.26 1248.08 L3773.42 1236.94 L3813.58 1225.63 L3853.74 1214.49 L3893.91 1203.36 L3934.07 1192.22 L3974.23 1180.91 L4014.39 1169.78 L4054.56 1158.64 L4094.72 1147.33 L4134.88 1136.19 L4175.04 1125.06 L4215.04 1113.92 L4255.20 1102.61 L4295.36 1091.47 L4335.52 1080.34 L4375.69 1069.20 L4415.85 1057.89 L4456.01 1046.76 L4496.18 1035.62 L4536.34 1024.48 L4576.50 1013.18" stroke-linejoin="round" style="fill:none;stroke:#1A85FF;stroke-width:9.72"/>
	<circle cx="1382.57" cy="1907.21" r="21.74" style="fill:#00BF7F"/>
	<circle cx="1382.57" cy="1907.21" r="16.88" style="fill:none;stroke:#00BF7F;stroke-width:9.72"/>
	<text x="1421.89" y="1938.74" style="font-family:'Helvetica';font-size:89.94px;fill:#00BF7f">Bolivia</text>
	<circle cx="3369.94" cy="1555.03" r="21.74" style="fill:#00BF7F"/>
	<circle cx="3369.94" cy="1555.03" r="16.88" style="fill:none;stroke:#00BF7F;stroke-width:9.72"/>
	<text x="3409.26" y="1586.55" style="font-family:'Helvetica';font-size:89.94px;fill:#00BF7f">Brazil</text>
	<circle cx="4434.58" cy="811.52" r="21.74" style="fill:#00BF7F"/>
	<circle cx="4434.58" cy="811.52" r="16.88" style="fill:none;stroke:#00BF7F;stroke-width:9.72"/>
	<text x="4473.90" y="843.04" style="font-family:'Helvetica';font-size:89.94px;fill:#00BF7f">Chile</text>
	<circle cx="3582.90" cy="968.12" r="21.74" style="fill:#00BF7F"/>
	<circle cx="3582.90" cy="968.12" r="16.88" style="fill:none;stroke:#00BF7F;stroke-width:9.72"/>
	<text x="3622.22" y="999.64" style="font-family:'Helvetica';font-size:89.94px;fill:#00BF7f">Colombia</text>
	<circle cx="4079.70" cy="811.52" r="21.74" style="fill:#00BF7F"/>
	<circle cx="4079.70" cy="811.52" r="16.88" style="fill:none;stroke:#00BF7F;stroke-width:9.72"/>
	<text x="4040.38" y="843.04" style="font-family:'Helvetica';font-size:89.94px;fill:#00BF7f" text-anchor="end">CostaRica</text>
	<circle cx="4434.58" cy="381.04" r="21.74" style="fill:#00BF7F"/>
	<circle cx="4434.58" cy="381.04" r="16.88" style="fill:none;stroke:#00BF7F;stroke-width:9.72"/>
	<text x="4473.90" y="412.56" style="font-family:'Helvetica';font-size:89.94px;fill:#00BF7f">Cuba</text>
	<circle cx="2944.01" cy="1124.55" r="21.74" style="fill:#00BF7F"/>
	<circle cx="2944.01" cy="1124.55" r="16.88" style="fill:none;stroke:#00BF7F;stroke-width:9.72"/>
	<text x="2983.33" y="1156.07" style="font-family:'Helvetica';font-size:89.94px;fill:#00BF7f">DominicanRep</text>
	<circle cx="3086.10" cy="1946.36" r="21.74" style="fill:#00BF7F"/>
	<circle cx="3086.10" cy="1946.36" r="16.88" style="fill:none;stroke:#00BF7F;stroke-width:9.72"/>
	<text x="3125.42" y="1977.89" style="font-family:'Helvetica';font-size:89.94px;fill:#00BF7f">Ecuador</text>
	<circle cx="2376.34" cy="1437.75" r="21.74" style="fill:#00BF7F"/>
	<circle cx="2376.34" cy="1437.75" r="16.88" style="fill:none;stroke:#00BF7F;stroke-width:9.72"/>
	<text x="2415.66" y="1469.27" style="font-family:'Helvetica';font-size:89.94px;fill:#00BF7f">ElSalvador</text>
	<circle cx="2021.46" cy="1789.93" r="21.74" style="fill:#00BF7F"/>
	<circle cx="2021.46" cy="1789.93" r="16.88" style="fill:none;stroke:#00BF7F;stroke-width:9.72"/>
	<text x="2060.78" y="1821.45" style="font-family:'Helvetica';font-size:89.94px;fill:#00BF7f">Guatemala</text>
	<circle cx="601.93" cy="1946.36" r="21.74" style="fill:#00BF7F"/>
	<circle cx="601.93" cy="1946.36" r="16.88" style="fill:none;stroke:#00BF7F;stroke-width:9.72"/>
	<text x="641.25" y="1977.89" style="font-family:'Helvetica';font-size:89.94px;fill:#00BF7f">Haiti</text>
	<circle cx="1737.45" cy="1672.48" r="21.74" style="fill:#00BF7F"/>
	<circle cx="1737.45" cy="1672.48" r="16.88" style="fill:none;stroke:#00BF7F;stroke-width:9.72"/>
	<text x="1776.77" y="1704.00" style="font-family:'Helvetica';font-size:89.94px;fill:#00BF7f">Honduras</text>
	<circle cx="4292.66" cy="1124.55" r="21.74" style="fill:#00BF7F"/>
	<circle cx="4292.66" cy="1124.55" r="16.88" style="fill:none;stroke:#00BF7F;stroke-width:9.72"/>
	<text x="4331.98" y="1156.07" style="font-family:'Helvetica';font-size:89.94px;fill:#00BF7f">Jamaica</text>
	<circle cx="4008.66" cy="1594.18" r="21.74" style="fill:#00BF7F"/>
	<circle cx="4008.66" cy="1594.18" r="16.88" style="fill:none;stroke:#00BF7F;stroke-width:9.72"/>
	<text x="4047.98" y="1625.70" style="font-family:'Helvetica';font-size:89.94px;fill:#00BF7f">Mexico</text>
	<circle cx="2944.01" cy="1672.48" r="21.74" style="fill:#00BF7F"/>
	<circle cx="2944.01" cy="1672.48" r="16.88" style="fill:none;stroke:#00BF7F;stroke-width:9.72"/>
	<text x="2978.10" y="1652.74" style="font-family:'Helvetica';font-size:89.94px;fill:#00BF7f">Nicaragua</text>
	<circle cx="4079.70" cy="1085.40" r="21.74" style="fill:#00BF7F"/>
	<circle cx="4079.70" cy="1085.40" r="16.88" style="fill:none;stroke:#00BF7F;stroke-width:9.72"/>
	<text x="4113.79" y="1065.66" style="font-family:'Helvetica';font-size:89.94px;fill:#00BF7f">Panama</text>
	<circle cx="3369.94" cy="1711.63" r="21.74" style="fill:#00BF7F"/>
	<circle cx="3369.94" cy="1711.63" r="16.88" style="fill:none;stroke:#00BF7F;stroke-width:9.72"/>
	<text x="3409.26" y="1743.15" style="font-family:'Helvetica';font-size:89.94px;fill:#00BF7f">Paraguay</text>
	<circle cx="3298.89" cy="1868.06" r="21.74" style="fill:#00BF7F"/>
	<circle cx="3298.89" cy="1868.06" r="16.88" style="fill:none;stroke:#00BF7F;stroke-width:9.72"/>
	<text x="3338.21" y="1899.59" style="font-family:'Helvetica';font-size:89.94px;fill:#00BF7f">Peru</text>
	<circle cx="4079.70" cy="811.52" r="21.74" style="fill:#00BF7F"/>
	<circle cx="4079.70" cy="811.52" r="16.88" style="fill:none;stroke:#00BF7F;stroke-width:9.72"/>
	<text x="4059.96" y="777.43" style="font-family:'Helvetica';font-size:89.94px;fill:#00BF7f" text-anchor="end">TrinidadTobago</text>
	<circle cx="4576.50" cy="1515.88" r="21.74" style="fill:#00BF7F"/>
	<circle cx="4576.50" cy="1515.88" r="16.88" style="fill:none;stroke:#00BF7F;stroke-width:9.72"/>
	<text x="4615.82" y="1547.40" style="font-family:'Helvetica';font-size:89.94px;fill:#00BF7f">Venezuela</text>
	<line x1="530.55" y1="2800.41" x2="530.55" y2="309.82" style="stroke:#000000;stroke-width:6.48"/>
	<line x1="530.55" y1="2729.03" x2="485.66" y2="2729.03" style="stroke:#000000;stroke-width:6.48"/>
	<text x="463.05" y="2768.46" style="font-family:'Helvetica';font-size:112.56px;fill:#000000" text-anchor="end">-20</text>
	<line x1="530.55" y1="1946.36" x2="485.66" y2="1946.36" style="stroke:#000000;stroke-width:6.48"/>
	<text x="463.05" y="1985.80" style="font-family:'Helvetica';font-size:112.56px;fill:#000000" text-anchor="end">0</text>
	<line x1="530.55" y1="1163.70" x2="485.66" y2="1163.70" style="stroke:#000000;stroke-width:6.48"/>
	<text x="463.05" y="1203.14" style="font-family:'Helvetica';font-size:112.56px;fill:#000000" text-anchor="end">20</text>
	<line x1="530.55" y1="381.04" x2="485.66" y2="381.04" style="stroke:#000000;stroke-width:6.48"/>
	<text x="463.05" y="420.47" style="font-family:'Helvetica';font-size:112.56px;fill:#000000" text-anchor="end">40</text>
	<text x="214.55" y="1555.03" style="font-family:'Helvetica';font-size:112.56px;fill:#000000" transform="rotate(-90 214.55,1555.03)" text-anchor="middle">Fertility Decline</text>
	<line x1="530.55" y1="2800.41" x2="5286.60" y2="2800.41" style="stroke:#000000;stroke-width:6.48"/>
	<line x1="956.81" y1="2800.41" x2="956.81" y2="2845.29" style="stroke:#000000;stroke-width:6.48"/>
	<text x="956.81" y="2946.61" style="font-family:'Helvetica';font-size:112.56px;fill:#000000" text-anchor="middle">40</text>
	<line x1="2376.34" y1="2800.41" x2="2376.34" y2="2845.29" style="stroke:#000000;stroke-width:6.48"/>
	<text x="2376.34" y="2946.61" style="font-family:'Helvetica';font-size:112.56px;fill:#000000" text-anchor="middle">60</text>
	<line x1="3795.86" y1="2800.41" x2="3795.86" y2="2845.29" style="stroke:#000000;stroke-width:6.48"/>
	<text x="3795.86" y="2946.61" style="font-family:'Helvetica';font-size:112.56px;fill:#000000" text-anchor="middle">80</text>
	<line x1="5215.39" y1="2800.41" x2="5215.39" y2="2845.29" style="stroke:#000000;stroke-width:6.48"/>
	<text x="5215.39" y="2946.61" style="font-family:'Helvetica';font-size:112.56px;fill:#000000" text-anchor="middle">100</text>
	<text x="2908.58" y="3070.31" style="font-family:'Helvetica';font-size:112.56px;fill:#000000" text-anchor="middle">setting</text>
	<rect x="4558.95" y="2394.23" width="688.84" height="367.20" style="fill:#FFFFFF"/>
	<rect x="4562.19" y="2397.46" width="682.36" height="360.72" style="fill:none;stroke:#FFFFFF;stroke-width:6.48"/>
	<line x1="4607.55" y1="2499.19" x2="4731.24" y2="2499.19" style="stroke:#1A85FF;stroke-width:9.72"/>
	<rect x="4607.55" y="2600.44" width="123.69" height="112.39" style="fill:#E0E0E0"/>
	<rect x="4612.41" y="2605.30" width="113.97" height="102.67" style="fill:none;stroke:#E0E0E0;stroke-width:9.72"/>
	<text x="4798.74" y="2538.62" style="font-family:'Helvetica';font-size:112.56px;fill:#000000">linear fit</text>
	<text x="4798.74" y="2696.07" style="font-family:'Helvetica';font-size:112.56px;fill:#000000">95% CI</text>
	<text x="2908.58" y="243.10" style="font-family:'Helvetica';font-size:157.44px;fill:#000000" text-anchor="middle">Fertility Decline by Social Setting</text>
</svg>
