<?xml version="1.0" encoding="UTF-8" standalone="no"?>
<!-- This is a Stata 17.0 generated SVG file (http://www.stata.com) -->

<svg version="1.1" width="7.500in" height="4.500in" viewBox="0 0 5400 3240" xmlns="http://www.w3.org/2000/svg" xmlns:xlink="http://www.w3.org/1999/xlink">
	<desc>Stata Graph - Graph</desc>
	<rect x="0" y="0" width="5400" height="3240" style="fill:#FFFFFF;stroke:none"/>
	<rect x="0.00" y="0.00" width="5400.00" height="3240.00" style="fill:#FFFFFF"/>
	<rect x="3.24" y="3.24" width="5393.52" height="3233.52" style="fill:none;stroke:#FFFFFF;stroke-width:6.48"/>
	<rect x="452.76" y="290.59" width="2358.62" height="2383.59" style="fill:#FFFFFF"/>
	<rect x="455.51" y="293.34" width="2353.11" height="2378.09" style="fill:none;stroke:#FFFFFF;stroke-width:5.51"/>
	<line x1="452.76" y1="2674.18" x2="517.56" y2="2674.18" style="stroke:#EAF2F3;stroke-width:8.26"/>
	<line x1="549.96" y1="2674.18" x2="614.76" y2="2674.18" style="stroke:#EAF2F3;stroke-width:8.26"/>
	<line x1="647.16" y1="2674.18" x2="711.96" y2="2674.18" style="stroke:#EAF2F3;stroke-width:8.26"/>
	<line x1="744.36" y1="2674.18" x2="809.16" y2="2674.18" style="stroke:#EAF2F3;stroke-width:8.26"/>
	<line x1="841.56" y1="2674.18" x2="906.36" y2="2674.18" style="stroke:#EAF2F3;stroke-width:8.26"/>
	<line x1="938.76" y1="2674.18" x2="1003.56" y2="2674.18" style="stroke:#EAF2F3;stroke-width:8.26"/>
	<line x1="1035.96" y1="2674.18" x2="1100.76" y2="2674.18" style="stroke:#EAF2F3;stroke-width:8.26"/>
	<line x1="1133.16" y1="2674.18" x2="1197.96" y2="2674.18" style="stroke:#EAF2F3;stroke-width:8.26"/>
	<line x1="1230.36" y1="2674.18" x2="1295.16" y2="2674.18" style="stroke:#EAF2F3;stroke-width:8.26"/>
	<line x1="1327.56" y1="2674.18" x2="1392.36" y2="2674.18" style="stroke:#EAF2F3;stroke-width:8.26"/>
	<line x1="1424.76" y1="2674.18" x2="1489.56" y2="2674.18" style="stroke:#EAF2F3;stroke-width:8.26"/>
	<line x1="1521.96" y1="2674.18" x2="1586.76" y2="2674.18" style="stroke:#EAF2F3;stroke-width:8.26"/>
	<line x1="1619.16" y1="2674.18" x2="1683.96" y2="2674.18" style="stroke:#EAF2F3;stroke-width:8.26"/>
	<line x1="1716.36" y1="2674.18" x2="1781.16" y2="2674.18" style="stroke:#EAF2F3;stroke-width:8.26"/>
	<line x1="1813.56" y1="2674.18" x2="1878.36" y2="2674.18" style="stroke:#EAF2F3;stroke-width:8.26"/>
	<line x1="1910.76" y1="2674.18" x2="1975.56" y2="2674.18" style="stroke:#EAF2F3;stroke-width:8.26"/>
	<line x1="2007.96" y1="2674.18" x2="2072.76" y2="2674.18" style="stroke:#EAF2F3;stroke-width:8.26"/>
	<line x1="2105.16" y1="2674.18" x2="2169.96" y2="2674.18" style="stroke:#EAF2F3;stroke-width:8.26"/>
	<line x1="2202.36" y1="2674.18" x2="2267.16" y2="2674.18" style="stroke:#EAF2F3;stroke-width:8.26"/>
	<line x1="2299.56" y1="2674.18" x2="2364.36" y2="2674.18" style="stroke:#EAF2F3;stroke-width:8.26"/>
	<line x1="2396.76" y1="2674.18" x2="2461.56" y2="2674.18" style="stroke:#EAF2F3;stroke-width:8.26"/>
	<line x1="2493.96" y1="2674.18" x2="2558.76" y2="2674.18" style="stroke:#EAF2F3;stroke-width:8.26"/>
	<line x1="2591.16" y1="2674.18" x2="2655.96" y2="2674.18" style="stroke:#EAF2F3;stroke-width:8.26"/>
	<line x1="2688.36" y1="2674.18" x2="2753.16" y2="2674.18" style="stroke:#EAF2F3;stroke-width:8.26"/>
	<line x1="2785.56" y1="2674.18" x2="2811.38" y2="2674.18" style="stroke:#EAF2F3;stroke-width:8.26"/>
	<line x1="452.76" y1="1512.68" x2="517.56" y2="1512.68" style="stroke:#EAF2F3;stroke-width:8.26"/>
	<line x1="549.96" y1="1512.68" x2="614.76" y2="1512.68" style="stroke:#EAF2F3;stroke-width:8.26"/>
	<line x1="647.16" y1="1512.68" x2="711.96" y2="1512.68" style="stroke:#EAF2F3;stroke-width:8.26"/>
	<line x1="744.36" y1="1512.68" x2="809.16" y2="1512.68" style="stroke:#EAF2F3;stroke-width:8.26"/>
	<line x1="841.56" y1="1512.68" x2="906.36" y2="1512.68" style="stroke:#EAF2F3;stroke-width:8.26"/>
	<line x1="938.76" y1="1512.68" x2="1003.56" y2="1512.68" style="stroke:#EAF2F3;stroke-width:8.26"/>
	<line x1="1035.96" y1="1512.68" x2="1100.76" y2="1512.68" style="stroke:#EAF2F3;stroke-width:8.26"/>
	<line x1="1133.16" y1="1512.68" x2="1197.96" y2="1512.68" style="stroke:#EAF2F3;stroke-width:8.26"/>
	<line x1="1230.36" y1="1512.68" x2="1295.16" y2="1512.68" style="stroke:#EAF2F3;stroke-width:8.26"/>
	<line x1="1327.56" y1="1512.68" x2="1392.36" y2="1512.68" style="stroke:#EAF2F3;stroke-width:8.26"/>
	<line x1="1424.76" y1="1512.68" x2="1489.56" y2="1512.68" style="stroke:#EAF2F3;stroke-width:8.26"/>
	<line x1="1521.96" y1="1512.68" x2="1586.76" y2="1512.68" style="stroke:#EAF2F3;stroke-width:8.26"/>
	<line x1="1619.16" y1="1512.68" x2="1683.96" y2="1512.68" style="stroke:#EAF2F3;stroke-width:8.26"/>
	<line x1="1716.36" y1="1512.68" x2="1781.16" y2="1512.68" style="stroke:#EAF2F3;stroke-width:8.26"/>
	<line x1="1813.56" y1="1512.68" x2="1878.36" y2="1512.68" style="stroke:#EAF2F3;stroke-width:8.26"/>
	<line x1="1910.76" y1="1512.68" x2="1975.56" y2="1512.68" style="stroke:#EAF2F3;stroke-width:8.26"/>
	<line x1="2007.96" y1="1512.68" x2="2072.76" y2="1512.68" style="stroke:#EAF2F3;stroke-width:8.26"/>
	<line x1="2105.16" y1="1512.68" x2="2169.96" y2="1512.68" style="stroke:#EAF2F3;stroke-width:8.26"/>
	<line x1="2202.36" y1="1512.68" x2="2267.16" y2="1512.68" style="stroke:#EAF2F3;stroke-width:8.26"/>
	<line x1="2299.56" y1="1512.68" x2="2364.36" y2="1512.68" style="stroke:#EAF2F3;stroke-width:8.26"/>
	<line x1="2396.76" y1="1512.68" x2="2461.56" y2="1512.68" style="stroke:#EAF2F3;stroke-width:8.26"/>
	<line x1="2493.96" y1="1512.68" x2="2558.76" y2="1512.68" style="stroke:#EAF2F3;stroke-width:8.26"/>
	<line x1="2591.16" y1="1512.68" x2="2655.96" y2="1512.68" style="stroke:#EAF2F3;stroke-width:8.26"/>
	<line x1="2688.36" y1="1512.68" x2="2753.16" y2="1512.68" style="stroke:#EAF2F3;stroke-width:8.26"/>
	<line x1="2785.56" y1="1512.68" x2="2811.38" y2="1512.68" style="stroke:#EAF2F3;stroke-width:8.26"/>
	<line x1="452.76" y1="351.17" x2="517.56" y2="351.17" style="stroke:#EAF2F3;stroke-width:8.26"/>
	<line x1="549.96" y1="351.17" x2="614.76" y2="351.17" style="stroke:#EAF2F3;stroke-width:8.26"/>
	<line x1="647.16" y1="351.17" x2="711.96" y2="351.17" style="stroke:#EAF2F3;stroke-width:8.26"/>
	<line x1="744.36" y1="351.17" x2="809.16" y2="351.17" style="stroke:#EAF2F3;stroke-width:8.26"/>
	<line x1="841.56" y1="351.17" x2="906.36" y2="351.17" style="stroke:#EAF2F3;stroke-width:8.26"/>
	<line x1="938.76" y1="351.17" x2="1003.56" y2="351.17" style="stroke:#EAF2F3;stroke-width:8.26"/>
	<line x1="1035.96" y1="351.17" x2="1100.76" y2="351.17" style="stroke:#EAF2F3;stroke-width:8.26"/>
	<line x1="1133.16" y1="351.17" x2="1197.96" y2="351.17" style="stroke:#EAF2F3;stroke-width:8.26"/>
	<line x1="1230.36" y1="351.17" x2="1295.16" y2="351.17" style="stroke:#EAF2F3;stroke-width:8.26"/>
	<line x1="1327.56" y1="351.17" x2="1392.36" y2="351.17" style="stroke:#EAF2F3;stroke-width:8.26"/>
	<line x1="1424.76" y1="351.17" x2="1489.56" y2="351.17" style="stroke:#EAF2F3;stroke-width:8.26"/>
	<line x1="1521.96" y1="351.17" x2="1586.76" y2="351.17" style="stroke:#EAF2F3;stroke-width:8.26"/>
	<line x1="1619.16" y1="351.17" x2="1683.96" y2="351.17" style="stroke:#EAF2F3;stroke-width:8.26"/>
	<line x1="1716.36" y1="351.17" x2="1781.16" y2="351.17" style="stroke:#EAF2F3;stroke-width:8.26"/>
	<line x1="1813.56" y1="351.17" x2="1878.36" y2="351.17" style="stroke:#EAF2F3;stroke-width:8.26"/>
	<line x1="1910.76" y1="351.17" x2="1975.56" y2="351.17" style="stroke:#EAF2F3;stroke-width:8.26"/>
	<line x1="2007.96" y1="351.17" x2="2072.76" y2="351.17" style="stroke:#EAF2F3;stroke-width:8.26"/>
	<line x1="2105.16" y1="351.17" x2="2169.96" y2="351.17" style="stroke:#EAF2F3;stroke-width:8.26"/>
	<line x1="2202.36" y1="351.17" x2="2267.16" y2="351.17" style="stroke:#EAF2F3;stroke-width:8.26"/>
	<line x1="2299.56" y1="351.17" x2="2364.36" y2="351.17" style="stroke:#EAF2F3;stroke-width:8.26"/>
	<line x1="2396.76" y1="351.17" x2="2461.56" y2="351.17" style="stroke:#EAF2F3;stroke-width:8.26"/>
	<line x1="2493.96" y1="351.17" x2="2558.76" y2="351.17" style="stroke:#EAF2F3;stroke-width:8.26"/>
	<line x1="2591.16" y1="351.17" x2="2655.96" y2="351.17" style="stroke:#EAF2F3;stroke-width:8.26"/>
	<line x1="2688.36" y1="351.17" x2="2753.16" y2="351.17" style="stroke:#EAF2F3;stroke-width:8.26"/>
	<line x1="2785.56" y1="351.17" x2="2811.38" y2="351.17" style="stroke:#EAF2F3;stroke-width:8.26"/>
	<line x1="513.51" y1="2674.18" x2="513.51" y2="2609.38" style="stroke:#EAF2F3;stroke-width:8.26"/>
	<line x1="513.51" y1="2576.98" x2="513.51" y2="2512.18" style="stroke:#EAF2F3;stroke-width:8.26"/>
	<line x1="513.51" y1="2479.78" x2="513.51" y2="2414.98" style="stroke:#EAF2F3;stroke-width:8.26"/>
	<line x1="513.51" y1="2382.58" x2="513.51" y2="2317.78" style="stroke:#EAF2F3;stroke-width:8.26"/>
	<line x1="513.51" y1="2285.38" x2="513.51" y2="2220.58" style="stroke:#EAF2F3;stroke-width:8.26"/>
	<line x1="513.51" y1="2188.18" x2="513.51" y2="2123.38" style="stroke:#EAF2F3;stroke-width:8.26"/>
	<line x1="513.51" y1="2090.98" x2="513.51" y2="2026.18" style="stroke:#EAF2F3;stroke-width:8.26"/>
	<line x1="513.51" y1="1993.78" x2="513.51" y2="1928.98" style="stroke:#EAF2F3;stroke-width:8.26"/>
	<line x1="513.51" y1="1896.58" x2="513.51" y2="1831.78" style="stroke:#EAF2F3;stroke-width:8.26"/>
	<line x1="513.51" y1="1799.38" x2="513.51" y2="1734.58" style="stroke:#EAF2F3;stroke-width:8.26"/>
	<line x1="513.51" y1="1702.18" x2="513.51" y2="1637.38" style="stroke:#EAF2F3;stroke-width:8.26"/>
	<line x1="513.51" y1="1604.98" x2="513.51" y2="1540.18" style="stroke:#EAF2F3;stroke-width:8.26"/>
	<line x1="513.51" y1="1507.78" x2="513.51" y2="1442.98" style="stroke:#EAF2F3;stroke-width:8.26"/>
	<line x1="513.51" y1="1410.58" x2="513.51" y2="1345.78" style="stroke:#EAF2F3;stroke-width:8.26"/>
	<line x1="513.51" y1="1313.38" x2="513.51" y2="1248.58" style="stroke:#EAF2F3;stroke-width:8.26"/>
	<line x1="513.51" y1="1216.18" x2="513.51" y2="1151.38" style="stroke:#EAF2F3;stroke-width:8.26"/>
	<line x1="513.51" y1="1118.98" x2="513.51" y2="1054.18" style="stroke:#EAF2F3;stroke-width:8.26"/>
	<line x1="513.51" y1="1021.78" x2="513.51" y2="956.98" style="stroke:#EAF2F3;stroke-width:8.26"/>
	<line x1="513.51" y1="924.58" x2="513.51" y2="859.78" style="stroke:#EAF2F3;stroke-width:8.26"/>
	<line x1="513.51" y1="827.38" x2="513.51" y2="762.58" style="stroke:#EAF2F3;stroke-width:8.26"/>
	<line x1="513.51" y1="730.18" x2="513.51" y2="665.38" style="stroke:#EAF2F3;stroke-width:8.26"/>
	<line x1="513.51" y1="632.98" x2="513.51" y2="568.18" style="stroke:#EAF2F3;stroke-width:8.26"/>
	<line x1="513.51" y1="535.78" x2="513.51" y2="470.98" style="stroke:#EAF2F3;stroke-width:8.26"/>
	<line x1="513.51" y1="438.58" x2="513.51" y2="373.78" style="stroke:#EAF2F3;stroke-width:8.26"/>
	<line x1="513.51" y1="341.38" x2="513.51" y2="290.59" style="stroke:#EAF2F3;stroke-width:8.26"/>
	<line x1="1223.78" y1="2674.18" x2="1223.78" y2="2609.38" style="stroke:#EAF2F3;stroke-width:8.26"/>
	<line x1="1223.78" y1="2576.98" x2="1223.78" y2="2512.18" style="stroke:#EAF2F3;stroke-width:8.26"/>
	<line x1="1223.78" y1="2479.78" x2="1223.78" y2="2414.98" style="stroke:#EAF2F3;stroke-width:8.26"/>
	<line x1="1223.78" y1="2382.58" x2="1223.78" y2="2317.78" style="stroke:#EAF2F3;stroke-width:8.26"/>
	<line x1="1223.78" y1="2285.38" x2="1223.78" y2="2220.58" style="stroke:#EAF2F3;stroke-width:8.26"/>
	<line x1="1223.78" y1="2188.18" x2="1223.78" y2="2123.38" style="stroke:#EAF2F3;stroke-width:8.26"/>
	<line x1="1223.78" y1="2090.98" x2="1223.78" y2="2026.18" style="stroke:#EAF2F3;stroke-width:8.26"/>
	<line x1="1223.78" y1="1993.78" x2="1223.78" y2="1928.98" style="stroke:#EAF2F3;stroke-width:8.26"/>
	<line x1="1223.78" y1="1896.58" x2="1223.78" y2="1831.78" style="stroke:#EAF2F3;stroke-width:8.26"/>
	<line x1="1223.78" y1="1799.38" x2="1223.78" y2="1734.58" style="stroke:#EAF2F3;stroke-width:8.26"/>
	<line x1="1223.78" y1="1702.18" x2="1223.78" y2="1637.38" style="stroke:#EAF2F3;stroke-width:8.26"/>
	<line x1="1223.78" y1="1604.98" x2="1223.78" y2="1540.18" style="stroke:#EAF2F3;stroke-width:8.26"/>
	<line x1="1223.78" y1="1507.78" x2="1223.78" y2="1442.98" style="stroke:#EAF2F3;stroke-width:8.26"/>
	<line x1="1223.78" y1="1410.58" x2="1223.78" y2="1345.78" style="stroke:#EAF2F3;stroke-width:8.26"/>
	<line x1="1223.78" y1="1313.38" x2="1223.78" y2="1248.58" style="stroke:#EAF2F3;stroke-width:8.26"/>
	<line x1="1223.78" y1="1216.18" x2="1223.78" y2="1151.38" style="stroke:#EAF2F3;stroke-width:8.26"/>
	<line x1="1223.78" y1="1118.98" x2="1223.78" y2="1054.18" style="stroke:#EAF2F3;stroke-width:8.26"/>
	<line x1="1223.78" y1="1021.78" x2="1223.78" y2="956.98" style="stroke:#EAF2F3;stroke-width:8.26"/>
	<line x1="1223.78" y1="924.58" x2="1223.78" y2="859.78" style="stroke:#EAF2F3;stroke-width:8.26"/>
	<line x1="1223.78" y1="827.38" x2="1223.78" y2="762.58" style="stroke:#EAF2F3;stroke-width:8.26"/>
	<line x1="1223.78" y1="730.18" x2="1223.78" y2="665.38" style="stroke:#EAF2F3;stroke-width:8.26"/>
	<line x1="1223.78" y1="632.98" x2="1223.78" y2="568.18" style="stroke:#EAF2F3;stroke-width:8.26"/>
	<line x1="1223.78" y1="535.78" x2="1223.78" y2="470.98" style="stroke:#EAF2F3;stroke-width:8.26"/>
	<line x1="1223.78" y1="438.58" x2="1223.78" y2="373.78" style="stroke:#EAF2F3;stroke-width:8.26"/>
	<line x1="1223.78" y1="341.38" x2="1223.78" y2="290.59" style="stroke:#EAF2F3;stroke-width:8.26"/>
	<line x1="1934.04" y1="2674.18" x2="1934.04" y2="2609.38" style="stroke:#EAF2F3;stroke-width:8.26"/>
	<line x1="1934.04" y1="2576.98" x2="1934.04" y2="2512.18" style="stroke:#EAF2F3;stroke-width:8.26"/>
	<line x1="1934.04" y1="2479.78" x2="1934.04" y2="2414.98" style="stroke:#EAF2F3;stroke-width:8.26"/>
	<line x1="1934.04" y1="2382.58" x2="1934.04" y2="2317.78" style="stroke:#EAF2F3;stroke-width:8.26"/>
	<line x1="1934.04" y1="2285.38" x2="1934.04" y2="2220.58" style="stroke:#EAF2F3;stroke-width:8.26"/>
	<line x1="1934.04" y1="2188.18" x2="1934.04" y2="2123.38" style="stroke:#EAF2F3;stroke-width:8.26"/>
	<line x1="1934.04" y1="2090.98" x2="1934.04" y2="2026.18" style="stroke:#EAF2F3;stroke-width:8.26"/>
	<line x1="1934.04" y1="1993.78" x2="1934.04" y2="1928.98" style="stroke:#EAF2F3;stroke-width:8.26"/>
	<line x1="1934.04" y1="1896.58" x2="1934.04" y2="1831.78" style="stroke:#EAF2F3;stroke-width:8.26"/>
	<line x1="1934.04" y1="1799.38" x2="1934.04" y2="1734.58" style="stroke:#EAF2F3;stroke-width:8.26"/>
	<line x1="1934.04" y1="1702.18" x2="1934.04" y2="1637.38" style="stroke:#EAF2F3;stroke-width:8.26"/>
	<line x1="1934.04" y1="1604.98" x2="1934.04" y2="1540.18" style="stroke:#EAF2F3;stroke-width:8.26"/>
	<line x1="1934.04" y1="1507.78" x2="1934.04" y2="1442.98" style="stroke:#EAF2F3;stroke-width:8.26"/>
	<line x1="1934.04" y1="1410.58" x2="1934.04" y2="1345.78" style="stroke:#EAF2F3;stroke-width:8.26"/>
	<line x1="1934.04" y1="1313.38" x2="1934.04" y2="1248.58" style="stroke:#EAF2F3;stroke-width:8.26"/>
	<line x1="1934.04" y1="1216.18" x2="1934.04" y2="1151.38" style="stroke:#EAF2F3;stroke-width:8.26"/>
	<line x1="1934.04" y1="1118.98" x2="1934.04" y2="1054.18" style="stroke:#EAF2F3;stroke-width:8.26"/>
	<line x1="1934.04" y1="1021.78" x2="1934.04" y2="956.98" style="stroke:#EAF2F3;stroke-width:8.26"/>
	<line x1="1934.04" y1="924.58" x2="1934.04" y2="859.78" style="stroke:#EAF2F3;stroke-width:8.26"/>
	<line x1="1934.04" y1="827.38" x2="1934.04" y2="762.58" style="stroke:#EAF2F3;stroke-width:8.26"/>
	<line x1="1934.04" y1="730.18" x2="1934.04" y2="665.38" style="stroke:#EAF2F3;stroke-width:8.26"/>
	<line x1="1934.04" y1="632.98" x2="1934.04" y2="568.18" style="stroke:#EAF2F3;stroke-width:8.26"/>
	<line x1="1934.04" y1="535.78" x2="1934.04" y2="470.98" style="stroke:#EAF2F3;stroke-width:8.26"/>
	<line x1="1934.04" y1="438.58" x2="1934.04" y2="373.78" style="stroke:#EAF2F3;stroke-width:8.26"/>
	<line x1="1934.04" y1="341.38" x2="1934.04" y2="290.59" style="stroke:#EAF2F3;stroke-width:8.26"/>
	<line x1="2644.31" y1="2674.18" x2="2644.31" y2="2609.38" style="stroke:#EAF2F3;stroke-width:8.26"/>
	<line x1="2644.31" y1="2576.98" x2="2644.31" y2="2512.18" style="stroke:#EAF2F3;stroke-width:8.26"/>
	<line x1="2644.31" y1="2479.78" x2="2644.31" y2="2414.98" style="stroke:#EAF2F3;stroke-width:8.26"/>
	<line x1="2644.31" y1="2382.58" x2="2644.31" y2="2317.78" style="stroke:#EAF2F3;stroke-width:8.26"/>
	<line x1="2644.31" y1="2285.38" x2="2644.31" y2="2220.58" style="stroke:#EAF2F3;stroke-width:8.26"/>
	<line x1="2644.31" y1="2188.18" x2="2644.31" y2="2123.38" style="stroke:#EAF2F3;stroke-width:8.26"/>
	<line x1="2644.31" y1="2090.98" x2="2644.31" y2="2026.18" style="stroke:#EAF2F3;stroke-width:8.26"/>
	<line x1="2644.31" y1="1993.78" x2="2644.31" y2="1928.98" style="stroke:#EAF2F3;stroke-width:8.26"/>
	<line x1="2644.31" y1="1896.58" x2="2644.31" y2="1831.78" style="stroke:#EAF2F3;stroke-width:8.26"/>
	<line x1="2644.31" y1="1799.38" x2="2644.31" y2="1734.58" style="stroke:#EAF2F3;stroke-width:8.26"/>
	<line x1="2644.31" y1="1702.18" x2="2644.31" y2="1637.38" style="stroke:#EAF2F3;stroke-width:8.26"/>
	<line x1="2644.31" y1="1604.98" x2="2644.31" y2="1540.18" style="stroke:#EAF2F3;stroke-width:8.26"/>
	<line x1="2644.31" y1="1507.78" x2="2644.31" y2="1442.98" style="stroke:#EAF2F3;stroke-width:8.26"/>
	<line x1="2644.31" y1="1410.58" x2="2644.31" y2="1345.78" style="stroke:#EAF2F3;stroke-width:8.26"/>
	<line x1="2644.31" y1="1313.38" x2="2644.31" y2="1248.58" style="stroke:#EAF2F3;stroke-width:8.26"/>
	<line x1="2644.31" y1="1216.18" x2="2644.31" y2="1151.38" style="stroke:#EAF2F3;stroke-width:8.26"/>
	<line x1="2644.31" y1="1118.98" x2="2644.31" y2="1054.18" style="stroke:#EAF2F3;stroke-width:8.26"/>
	<line x1="2644.31" y1="1021.78" x2="2644.31" y2="956.98" style="stroke:#EAF2F3;stroke-width:8.26"/>
	<line x1="2644.31" y1="924.58" x2="2644.31" y2="859.78" style="stroke:#EAF2F3;stroke-width:8.26"/>
	<line x1="2644.31" y1="827.38" x2="2644.31" y2="762.58" style="stroke:#EAF2F3;stroke-width:8.26"/>
	<line x1="2644.31" y1="730.18" x2="2644.31" y2="665.38" style="stroke:#EAF2F3;stroke-width:8.26"/>
	<line x1="2644.31" y1="632.98" x2="2644.31" y2="568.18" style="stroke:#EAF2F3;stroke-width:8.26"/>
	<line x1="2644.31" y1="535.78" x2="2644.31" y2="470.98" style="stroke:#EAF2F3;stroke-width:8.26"/>
	<line x1="2644.31" y1="438.58" x2="2644.31" y2="373.78" style="stroke:#EAF2F3;stroke-width:8.26"/>
	<line x1="2644.31" y1="341.38" x2="2644.31" y2="290.59" style="stroke:#EAF2F3;stroke-width:8.26"/>
	<rect x="2889.17" y="290.59" width="2358.62" height="2383.59" style="fill:#FFFFFF"/>
	<rect x="2891.92" y="293.34" width="2353.11" height="2378.09" style="fill:none;stroke:#FFFFFF;stroke-width:5.51"/>
	<line x1="2889.17" y1="2674.18" x2="2953.97" y2="2674.18" style="stroke:#EAF2F3;stroke-width:8.26"/>
	<line x1="2986.37" y1="2674.18" x2="3051.17" y2="2674.18" style="stroke:#EAF2F3;stroke-width:8.26"/>
	<line x1="3083.57" y1="2674.18" x2="3148.37" y2="2674.18" style="stroke:#EAF2F3;stroke-width:8.26"/>
	<line x1="3180.77" y1="2674.18" x2="3245.57" y2="2674.18" style="stroke:#EAF2F3;stroke-width:8.26"/>
	<line x1="3277.97" y1="2674.18" x2="3342.77" y2="2674.18" style="stroke:#EAF2F3;stroke-width:8.26"/>
	<line x1="3375.17" y1="2674.18" x2="3439.97" y2="2674.18" style="stroke:#EAF2F3;stroke-width:8.26"/>
	<line x1="3472.37" y1="2674.18" x2="3537.17" y2="2674.18" style="stroke:#EAF2F3;stroke-width:8.26"/>
	<line x1="3569.57" y1="2674.18" x2="3634.37" y2="2674.18" style="stroke:#EAF2F3;stroke-width:8.26"/>
	<line x1="3666.77" y1="2674.18" x2="3731.57" y2="2674.18" style="stroke:#EAF2F3;stroke-width:8.26"/>
	<line x1="3763.97" y1="2674.18" x2="3828.77" y2="2674.18" style="stroke:#EAF2F3;stroke-width:8.26"/>
	<line x1="3861.17" y1="2674.18" x2="3925.97" y2="2674.18" style="stroke:#EAF2F3;stroke-width:8.26"/>
	<line x1="3958.37" y1="2674.18" x2="4023.17" y2="2674.18" style="stroke:#EAF2F3;stroke-width:8.26"/>
	<line x1="4055.57" y1="2674.18" x2="4120.37" y2="2674.18" style="stroke:#EAF2F3;stroke-width:8.26"/>
	<line x1="4152.77" y1="2674.18" x2="4217.57" y2="2674.18" style="stroke:#EAF2F3;stroke-width:8.26"/>
	<line x1="4249.97" y1="2674.18" x2="4314.77" y2="2674.18" style="stroke:#EAF2F3;stroke-width:8.26"/>
	<line x1="4347.17" y1="2674.18" x2="4411.97" y2="2674.18" style="stroke:#EAF2F3;stroke-width:8.26"/>
	<line x1="4444.37" y1="2674.18" x2="4509.17" y2="2674.18" style="stroke:#EAF2F3;stroke-width:8.26"/>
	<line x1="4541.57" y1="2674.18" x2="4606.37" y2="2674.18" style="stroke:#EAF2F3;stroke-width:8.26"/>
	<line x1="4638.77" y1="2674.18" x2="4703.57" y2="2674.18" style="stroke:#EAF2F3;stroke-width:8.26"/>
	<line x1="4735.97" y1="2674.18" x2="4800.77" y2="2674.18" style="stroke:#EAF2F3;stroke-width:8.26"/>
	<line x1="4833.17" y1="2674.18" x2="4897.97" y2="2674.18" style="stroke:#EAF2F3;stroke-width:8.26"/>
	<line x1="4930.37" y1="2674.18" x2="4995.17" y2="2674.18" style="stroke:#EAF2F3;stroke-width:8.26"/>
	<line x1="5027.57" y1="2674.18" x2="5092.37" y2="2674.18" style="stroke:#EAF2F3;stroke-width:8.26"/>
	<line x1="5124.77" y1="2674.18" x2="5189.57" y2="2674.18" style="stroke:#EAF2F3;stroke-width:8.26"/>
	<line x1="5221.97" y1="2674.18" x2="5247.79" y2="2674.18" style="stroke:#EAF2F3;stroke-width:8.26"/>
	<line x1="2889.17" y1="1512.68" x2="2953.97" y2="1512.68" style="stroke:#EAF2F3;stroke-width:8.26"/>
	<line x1="2986.37" y1="1512.68" x2="3051.17" y2="1512.68" style="stroke:#EAF2F3;stroke-width:8.26"/>
	<line x1="3083.57" y1="1512.68" x2="3148.37" y2="1512.68" style="stroke:#EAF2F3;stroke-width:8.26"/>
	<line x1="3180.77" y1="1512.68" x2="3245.57" y2="1512.68" style="stroke:#EAF2F3;stroke-width:8.26"/>
	<line x1="3277.97" y1="1512.68" x2="3342.77" y2="1512.68" style="stroke:#EAF2F3;stroke-width:8.26"/>
	<line x1="3375.17" y1="1512.68" x2="3439.97" y2="1512.68" style="stroke:#EAF2F3;stroke-width:8.26"/>
	<line x1="3472.37" y1="1512.68" x2="3537.17" y2="1512.68" style="stroke:#EAF2F3;stroke-width:8.26"/>
	<line x1="3569.57" y1="1512.68" x2="3634.37" y2="1512.68" style="stroke:#EAF2F3;stroke-width:8.26"/>
	<line x1="3666.77" y1="1512.68" x2="3731.57" y2="1512.68" style="stroke:#EAF2F3;stroke-width:8.26"/>
	<line x1="3763.97" y1="1512.68" x2="3828.77" y2="1512.68" style="stroke:#EAF2F3;stroke-width:8.26"/>
	<line x1="3861.17" y1="1512.68" x2="3925.97" y2="1512.68" style="stroke:#EAF2F3;stroke-width:8.26"/>
	<line x1="3958.37" y1="1512.68" x2="4023.17" y2="1512.68" style="stroke:#EAF2F3;stroke-width:8.26"/>
	<line x1="4055.57" y1="1512.68" x2="4120.37" y2="1512.68" style="stroke:#EAF2F3;stroke-width:8.26"/>
	<line x1="4152.77" y1="1512.68" x2="4217.57" y2="1512.68" style="stroke:#EAF2F3;stroke-width:8.26"/>
	<line x1="4249.97" y1="1512.68" x2="4314.77" y2="1512.68" style="stroke:#EAF2F3;stroke-width:8.26"/>
	<line x1="4347.17" y1="1512.68" x2="4411.97" y2="1512.68" style="stroke:#EAF2F3;stroke-width:8.26"/>
	<line x1="4444.37" y1="1512.68" x2="4509.17" y2="1512.68" style="stroke:#EAF2F3;stroke-width:8.26"/>
	<line x1="4541.57" y1="1512.68" x2="4606.37" y2="1512.68" style="stroke:#EAF2F3;stroke-width:8.26"/>
	<line x1="4638.77" y1="1512.68" x2="4703.57" y2="1512.68" style="stroke:#EAF2F3;stroke-width:8.26"/>
	<line x1="4735.97" y1="1512.68" x2="4800.77" y2="1512.68" style="stroke:#EAF2F3;stroke-width:8.26"/>
	<line x1="4833.17" y1="1512.68" x2="4897.97" y2="1512.68" style="stroke:#EAF2F3;stroke-width:8.26"/>
	<line x1="4930.37" y1="1512.68" x2="4995.17" y2="1512.68" style="stroke:#EAF2F3;stroke-width:8.26"/>
	<line x1="5027.57" y1="1512.68" x2="5092.37" y2="1512.68" style="stroke:#EAF2F3;stroke-width:8.26"/>
	<line x1="5124.77" y1="1512.68" x2="5189.57" y2="1512.68" style="stroke:#EAF2F3;stroke-width:8.26"/>
	<line x1="5221.97" y1="1512.68" x2="5247.79" y2="1512.68" style="stroke:#EAF2F3;stroke-width:8.26"/>
	<line x1="2889.17" y1="351.17" x2="2953.97" y2="351.17" style="stroke:#EAF2F3;stroke-width:8.26"/>
	<line x1="2986.37" y1="351.17" x2="3051.17" y2="351.17" style="stroke:#EAF2F3;stroke-width:8.26"/>
	<line x1="3083.57" y1="351.17" x2="3148.37" y2="351.17" style="stroke:#EAF2F3;stroke-width:8.26"/>
	<line x1="3180.77" y1="351.17" x2="3245.57" y2="351.17" style="stroke:#EAF2F3;stroke-width:8.26"/>
	<line x1="3277.97" y1="351.17" x2="3342.77" y2="351.17" style="stroke:#EAF2F3;stroke-width:8.26"/>
	<line x1="3375.17" y1="351.17" x2="3439.97" y2="351.17" style="stroke:#EAF2F3;stroke-width:8.26"/>
	<line x1="3472.37" y1="351.17" x2="3537.17" y2="351.17" style="stroke:#EAF2F3;stroke-width:8.26"/>
	<line x1="3569.57" y1="351.17" x2="3634.37" y2="351.17" style="stroke:#EAF2F3;stroke-width:8.26"/>
	<line x1="3666.77" y1="351.17" x2="3731.57" y2="351.17" style="stroke:#EAF2F3;stroke-width:8.26"/>
	<line x1="3763.97" y1="351.17" x2="3828.77" y2="351.17" style="stroke:#EAF2F3;stroke-width:8.26"/>
	<line x1="3861.17" y1="351.17" x2="3925.97" y2="351.17" style="stroke:#EAF2F3;stroke-width:8.26"/>
	<line x1="3958.37" y1="351.17" x2="4023.17" y2="351.17" style="stroke:#EAF2F3;stroke-width:8.26"/>
	<line x1="4055.57" y1="351.17" x2="4120.37" y2="351.17" style="stroke:#EAF2F3;stroke-width:8.26"/>
	<line x1="4152.77" y1="351.17" x2="4217.57" y2="351.17" style="stroke:#EAF2F3;stroke-width:8.26"/>
	<line x1="4249.97" y1="351.17" x2="4314.77" y2="351.17" style="stroke:#EAF2F3;stroke-width:8.26"/>
	<line x1="4347.17" y1="351.17" x2="4411.97" y2="351.17" style="stroke:#EAF2F3;stroke-width:8.26"/>
	<line x1="4444.37" y1="351.17" x2="4509.17" y2="351.17" style="stroke:#EAF2F3;stroke-width:8.26"/>
	<line x1="4541.57" y1="351.17" x2="4606.37" y2="351.17" style="stroke:#EAF2F3;stroke-width:8.26"/>
	<line x1="4638.77" y1="351.17" x2="4703.57" y2="351.17" style="stroke:#EAF2F3;stroke-width:8.26"/>
	<line x1="4735.97" y1="351.17" x2="4800.77" y2="351.17" style="stroke:#EAF2F3;stroke-width:8.26"/>
	<line x1="4833.17" y1="351.17" x2="4897.97" y2="351.17" style="stroke:#EAF2F3;stroke-width:8.26"/>
	<line x1="4930.37" y1="351.17" x2="4995.17" y2="351.17" style="stroke:#EAF2F3;stroke-width:8.26"/>
	<line x1="5027.57" y1="351.17" x2="5092.37" y2="351.17" style="stroke:#EAF2F3;stroke-width:8.26"/>
	<line x1="5124.77" y1="351.17" x2="5189.57" y2="351.17" style="stroke:#EAF2F3;stroke-width:8.26"/>
	<line x1="5221.97" y1="351.17" x2="5247.79" y2="351.17" style="stroke:#EAF2F3;stroke-width:8.26"/>
	<line x1="2949.75" y1="2674.18" x2="2949.75" y2="2609.38" style="stroke:#EAF2F3;stroke-width:8.26"/>
	<line x1="2949.75" y1="2576.98" x2="2949.75" y2="2512.18" style="stroke:#EAF2F3;stroke-width:8.26"/>
	<line x1="2949.75" y1="2479.78" x2="2949.75" y2="2414.98" style="stroke:#EAF2F3;stroke-width:8.26"/>
	<line x1="2949.75" y1="2382.58" x2="2949.75" y2="2317.78" style="stroke:#EAF2F3;stroke-width:8.26"/>
	<line x1="2949.75" y1="2285.38" x2="2949.75" y2="2220.58" style="stroke:#EAF2F3;stroke-width:8.26"/>
	<line x1="2949.75" y1="2188.18" x2="2949.75" y2="2123.38" style="stroke:#EAF2F3;stroke-width:8.26"/>
	<line x1="2949.75" y1="2090.98" x2="2949.75" y2="2026.18" style="stroke:#EAF2F3;stroke-width:8.26"/>
	<line x1="2949.75" y1="1993.78" x2="2949.75" y2="1928.98" style="stroke:#EAF2F3;stroke-width:8.26"/>
	<line x1="2949.75" y1="1896.58" x2="2949.75" y2="1831.78" style="stroke:#EAF2F3;stroke-width:8.26"/>
	<line x1="2949.75" y1="1799.38" x2="2949.75" y2="1734.58" style="stroke:#EAF2F3;stroke-width:8.26"/>
	<line x1="2949.75" y1="1702.18" x2="2949.75" y2="1637.38" style="stroke:#EAF2F3;stroke-width:8.26"/>
	<line x1="2949.75" y1="1604.98" x2="2949.75" y2="1540.18" style="stroke:#EAF2F3;stroke-width:8.26"/>
	<line x1="2949.75" y1="1507.78" x2="2949.75" y2="1442.98" style="stroke:#EAF2F3;stroke-width:8.26"/>
	<line x1="2949.75" y1="1410.58" x2="2949.75" y2="1345.78" style="stroke:#EAF2F3;stroke-width:8.26"/>
	<line x1="2949.75" y1="1313.38" x2="2949.75" y2="1248.58" style="stroke:#EAF2F3;stroke-width:8.26"/>
	<line x1="2949.75" y1="1216.18" x2="2949.75" y2="1151.38" style="stroke:#EAF2F3;stroke-width:8.26"/>
	<line x1="2949.75" y1="1118.98" x2="2949.75" y2="1054.18" style="stroke:#EAF2F3;stroke-width:8.26"/>
	<line x1="2949.75" y1="1021.78" x2="2949.75" y2="956.98" style="stroke:#EAF2F3;stroke-width:8.26"/>
	<line x1="2949.75" y1="924.58" x2="2949.75" y2="859.78" style="stroke:#EAF2F3;stroke-width:8.26"/>
	<line x1="2949.75" y1="827.38" x2="2949.75" y2="762.58" style="stroke:#EAF2F3;stroke-width:8.26"/>
	<line x1="2949.75" y1="730.18" x2="2949.75" y2="665.38" style="stroke:#EAF2F3;stroke-width:8.26"/>
	<line x1="2949.75" y1="632.98" x2="2949.75" y2="568.18" style="stroke:#EAF2F3;stroke-width:8.26"/>
	<line x1="2949.75" y1="535.78" x2="2949.75" y2="470.98" style="stroke:#EAF2F3;stroke-width:8.26"/>
	<line x1="2949.75" y1="438.58" x2="2949.75" y2="373.78" style="stroke:#EAF2F3;stroke-width:8.26"/>
	<line x1="2949.75" y1="341.38" x2="2949.75" y2="290.59" style="stroke:#EAF2F3;stroke-width:8.26"/>
	<line x1="3660.02" y1="2674.18" x2="3660.02" y2="2609.38" style="stroke:#EAF2F3;stroke-width:8.26"/>
	<line x1="3660.02" y1="2576.98" x2="3660.02" y2="2512.18" style="stroke:#EAF2F3;stroke-width:8.26"/>
	<line x1="3660.02" y1="2479.78" x2="3660.02" y2="2414.98" style="stroke:#EAF2F3;stroke-width:8.26"/>
	<line x1="3660.02" y1="2382.58" x2="3660.02" y2="2317.78" style="stroke:#EAF2F3;stroke-width:8.26"/>
	<line x1="3660.02" y1="2285.38" x2="3660.02" y2="2220.58" style="stroke:#EAF2F3;stroke-width:8.26"/>
	<line x1="3660.02" y1="2188.18" x2="3660.02" y2="2123.38" style="stroke:#EAF2F3;stroke-width:8.26"/>
	<line x1="3660.02" y1="2090.98" x2="3660.02" y2="2026.18" style="stroke:#EAF2F3;stroke-width:8.26"/>
	<line x1="3660.02" y1="1993.78" x2="3660.02" y2="1928.98" style="stroke:#EAF2F3;stroke-width:8.26"/>
	<line x1="3660.02" y1="1896.58" x2="3660.02" y2="1831.78" style="stroke:#EAF2F3;stroke-width:8.26"/>
	<line x1="3660.02" y1="1799.38" x2="3660.02" y2="1734.58" style="stroke:#EAF2F3;stroke-width:8.26"/>
	<line x1="3660.02" y1="1702.18" x2="3660.02" y2="1637.38" style="stroke:#EAF2F3;stroke-width:8.26"/>
	<line x1="3660.02" y1="1604.98" x2="3660.02" y2="1540.18" style="stroke:#EAF2F3;stroke-width:8.26"/>
	<line x1="3660.02" y1="1507.78" x2="3660.02" y2="1442.98" style="stroke:#EAF2F3;stroke-width:8.26"/>
	<line x1="3660.02" y1="1410.58" x2="3660.02" y2="1345.78" style="stroke:#EAF2F3;stroke-width:8.26"/>
	<line x1="3660.02" y1="1313.38" x2="3660.02" y2="1248.58" style="stroke:#EAF2F3;stroke-width:8.26"/>
	<line x1="3660.02" y1="1216.18" x2="3660.02" y2="1151.38" style="stroke:#EAF2F3;stroke-width:8.26"/>
	<line x1="3660.02" y1="1118.98" x2="3660.02" y2="1054.18" style="stroke:#EAF2F3;stroke-width:8.26"/>
	<line x1="3660.02" y1="1021.78" x2="3660.02" y2="956.98" style="stroke:#EAF2F3;stroke-width:8.26"/>
	<line x1="3660.02" y1="924.58" x2="3660.02" y2="859.78" style="stroke:#EAF2F3;stroke-width:8.26"/>
	<line x1="3660.02" y1="827.38" x2="3660.02" y2="762.58" style="stroke:#EAF2F3;stroke-width:8.26"/>
	<line x1="3660.02" y1="730.18" x2="3660.02" y2="665.38" style="stroke:#EAF2F3;stroke-width:8.26"/>
	<line x1="3660.02" y1="632.98" x2="3660.02" y2="568.18" style="stroke:#EAF2F3;stroke-width:8.26"/>
	<line x1="3660.02" y1="535.78" x2="3660.02" y2="470.98" style="stroke:#EAF2F3;stroke-width:8.26"/>
	<line x1="3660.02" y1="438.58" x2="3660.02" y2="373.78" style="stroke:#EAF2F3;stroke-width:8.26"/>
	<line x1="3660.02" y1="341.38" x2="3660.02" y2="290.59" style="stroke:#EAF2F3;stroke-width:8.26"/>
	<line x1="4370.29" y1="2674.18" x2="4370.29" y2="2609.38" style="stroke:#EAF2F3;stroke-width:8.26"/>
	<line x1="4370.29" y1="2576.98" x2="4370.29" y2="2512.18" style="stroke:#EAF2F3;stroke-width:8.26"/>
	<line x1="4370.29" y1="2479.78" x2="4370.29" y2="2414.98" style="stroke:#EAF2F3;stroke-width:8.26"/>
	<line x1="4370.29" y1="2382.58" x2="4370.29" y2="2317.78" style="stroke:#EAF2F3;stroke-width:8.26"/>
	<line x1="4370.29" y1="2285.38" x2="4370.29" y2="2220.58" style="stroke:#EAF2F3;stroke-width:8.26"/>
	<line x1="4370.29" y1="2188.18" x2="4370.29" y2="2123.38" style="stroke:#EAF2F3;stroke-width:8.26"/>
	<line x1="4370.29" y1="2090.98" x2="4370.29" y2="2026.18" style="stroke:#EAF2F3;stroke-width:8.26"/>
	<line x1="4370.29" y1="1993.78" x2="4370.29" y2="1928.98" style="stroke:#EAF2F3;stroke-width:8.26"/>
	<line x1="4370.29" y1="1896.58" x2="4370.29" y2="1831.78" style="stroke:#EAF2F3;stroke-width:8.26"/>
	<line x1="4370.29" y1="1799.38" x2="4370.29" y2="1734.58" style="stroke:#EAF2F3;stroke-width:8.26"/>
	<line x1="4370.29" y1="1702.18" x2="4370.29" y2="1637.38" style="stroke:#EAF2F3;stroke-width:8.26"/>
	<line x1="4370.29" y1="1604.98" x2="4370.29" y2="1540.18" style="stroke:#EAF2F3;stroke-width:8.26"/>
	<line x1="4370.29" y1="1507.78" x2="4370.29" y2="1442.98" style="stroke:#EAF2F3;stroke-width:8.26"/>
	<line x1="4370.29" y1="1410.58" x2="4370.29" y2="1345.78" style="stroke:#EAF2F3;stroke-width:8.26"/>
	<line x1="4370.29" y1="1313.38" x2="4370.29" y2="1248.58" style="stroke:#EAF2F3;stroke-width:8.26"/>
	<line x1="4370.29" y1="1216.18" x2="4370.29" y2="1151.38" style="stroke:#EAF2F3;stroke-width:8.26"/>
	<line x1="4370.29" y1="1118.98" x2="4370.29" y2="1054.18" style="stroke:#EAF2F3;stroke-width:8.26"/>
	<line x1="4370.29" y1="1021.78" x2="4370.29" y2="956.98" style="stroke:#EAF2F3;stroke-width:8.26"/>
	<line x1="4370.29" y1="924.58" x2="4370.29" y2="859.78" style="stroke:#EAF2F3;stroke-width:8.26"/>
	<line x1="4370.29" y1="827.38" x2="4370.29" y2="762.58" style="stroke:#EAF2F3;stroke-width:8.26"/>
	<line x1="4370.29" y1="730.18" x2="4370.29" y2="665.38" style="stroke:#EAF2F3;stroke-width:8.26"/>
	<line x1="4370.29" y1="632.98" x2="4370.29" y2="568.18" style="stroke:#EAF2F3;stroke-width:8.26"/>
	<line x1="4370.29" y1="535.78" x2="4370.29" y2="470.98" style="stroke:#EAF2F3;stroke-width:8.26"/>
	<line x1="4370.29" y1="438.58" x2="4370.29" y2="373.78" style="stroke:#EAF2F3;stroke-width:8.26"/>
	<line x1="4370.29" y1="341.38" x2="4370.29" y2="290.59" style="stroke:#EAF2F3;stroke-width:8.26"/>
	<line x1="5080.56" y1="2674.18" x2="5080.56" y2="2609.38" style="stroke:#EAF2F3;stroke-width:8.26"/>
	<line x1="5080.56" y1="2576.98" x2="5080.56" y2="2512.18" style="stroke:#EAF2F3;stroke-width:8.26"/>
	<line x1="5080.56" y1="2479.78" x2="5080.56" y2="2414.98" style="stroke:#EAF2F3;stroke-width:8.26"/>
	<line x1="5080.56" y1="2382.58" x2="5080.56" y2="2317.78" style="stroke:#EAF2F3;stroke-width:8.26"/>
	<line x1="5080.56" y1="2285.38" x2="5080.56" y2="2220.58" style="stroke:#EAF2F3;stroke-width:8.26"/>
	<line x1="5080.56" y1="2188.18" x2="5080.56" y2="2123.38" style="stroke:#EAF2F3;stroke-width:8.26"/>
	<line x1="5080.56" y1="2090.98" x2="5080.56" y2="2026.18" style="stroke:#EAF2F3;stroke-width:8.26"/>
	<line x1="5080.56" y1="1993.78" x2="5080.56" y2="1928.98" style="stroke:#EAF2F3;stroke-width:8.26"/>
	<line x1="5080.56" y1="1896.58" x2="5080.56" y2="1831.78" style="stroke:#EAF2F3;stroke-width:8.26"/>
	<line x1="5080.56" y1="1799.38" x2="5080.56" y2="1734.58" style="stroke:#EAF2F3;stroke-width:8.26"/>
	<line x1="5080.56" y1="1702.18" x2="5080.56" y2="1637.38" style="stroke:#EAF2F3;stroke-width:8.26"/>
	<line x1="5080.56" y1="1604.98" x2="5080.56" y2="1540.18" style="stroke:#EAF2F3;stroke-width:8.26"/>
	<line x1="5080.56" y1="1507.78" x2="5080.56" y2="1442.98" style="stroke:#EAF2F3;stroke-width:8.26"/>
	<line x1="5080.56" y1="1410.58" x2="5080.56" y2="1345.78" style="stroke:#EAF2F3;stroke-width:8.26"/>
	<line x1="5080.56" y1="1313.38" x2="5080.56" y2="1248.58" style="stroke:#EAF2F3;stroke-width:8.26"/>
	<line x1="5080.56" y1="1216.18" x2="5080.56" y2="1151.38" style="stroke:#EAF2F3;stroke-width:8.26"/>
	<line x1="5080.56" y1="1118.98" x2="5080.56" y2="1054.18" style="stroke:#EAF2F3;stroke-width:8.26"/>
	<line x1="5080.56" y1="1021.78" x2="5080.56" y2="956.98" style="stroke:#EAF2F3;stroke-width:8.26"/>
	<line x1="5080.56" y1="924.58" x2="5080.56" y2="859.78" style="stroke:#EAF2F3;stroke-width:8.26"/>
	<line x1="5080.56" y1="827.38" x2="5080.56" y2="762.58" style="stroke:#EAF2F3;stroke-width:8.26"/>
	<line x1="5080.56" y1="730.18" x2="5080.56" y2="665.38" style="stroke:#EAF2F3;stroke-width:8.26"/>
	<line x1="5080.56" y1="632.98" x2="5080.56" y2="568.18" style="stroke:#EAF2F3;stroke-width:8.26"/>
	<line x1="5080.56" y1="535.78" x2="5080.56" y2="470.98" style="stroke:#EAF2F3;stroke-width:8.26"/>
	<line x1="5080.56" y1="438.58" x2="5080.56" y2="373.78" style="stroke:#EAF2F3;stroke-width:8.26"/>
	<line x1="5080.56" y1="341.38" x2="5080.56" y2="290.59" style="stroke:#EAF2F3;stroke-width:8.26"/>
	<rect x="619.99" y="2227.50" width="71.04" height="446.68" style="fill:#4361ED"/>
	<rect x="624.12" y="2231.63" width="62.78" height="438.42" style="fill:none;stroke:#4361ED;stroke-width:8.26"/>
	<rect x="762.08" y="1557.39" width="71.04" height="1116.79" style="fill:#4361ED"/>
	<rect x="766.21" y="1561.52" width="62.78" height="1108.53" style="fill:none;stroke:#4361ED;stroke-width:8.26"/>
	<rect x="833.12" y="2227.50" width="71.04" height="446.68" style="fill:#4361ED"/>
	<rect x="837.25" y="2231.63" width="62.78" height="438.42" style="fill:none;stroke:#4361ED;stroke-width:8.26"/>
	<rect x="904.16" y="1780.65" width="70.88" height="893.53" style="fill:#4361ED"/>
	<rect x="908.29" y="1784.78" width="62.61" height="885.27" style="fill:none;stroke:#4361ED;stroke-width:8.26"/>
	<rect x="975.04" y="2227.50" width="71.04" height="446.68" style="fill:#4361ED"/>
	<rect x="979.17" y="2231.63" width="62.78" height="438.42" style="fill:none;stroke:#4361ED;stroke-width:8.26"/>
	<rect x="1046.08" y="1110.54" width="71.04" height="1563.64" style="fill:#4361ED"/>
	<rect x="1050.21" y="1114.67" width="62.78" height="1555.38" style="fill:none;stroke:#4361ED;stroke-width:8.26"/>
	<rect x="1117.13" y="887.29" width="71.04" height="1786.89" style="fill:#4361ED"/>
	<rect x="1121.26" y="891.42" width="62.78" height="1778.63" style="fill:none;stroke:#4361ED;stroke-width:8.26"/>
	<rect x="1188.17" y="2004.08" width="71.04" height="670.11" style="fill:#4361ED"/>
	<rect x="1192.30" y="2008.21" width="62.78" height="661.84" style="fill:none;stroke:#4361ED;stroke-width:8.26"/>
	<rect x="1259.21" y="2004.08" width="71.04" height="670.11" style="fill:#4361ED"/>
	<rect x="1263.34" y="2008.21" width="62.78" height="661.84" style="fill:none;stroke:#4361ED;stroke-width:8.26"/>
	<rect x="1330.26" y="1557.39" width="71.04" height="1116.79" style="fill:#4361ED"/>
	<rect x="1334.39" y="1561.52" width="62.78" height="1108.53" style="fill:none;stroke:#4361ED;stroke-width:8.26"/>
	<rect x="1472.34" y="2004.08" width="71.04" height="670.11" style="fill:#4361ED"/>
	<rect x="1476.47" y="2008.21" width="62.78" height="661.84" style="fill:none;stroke:#4361ED;stroke-width:8.26"/>
	<rect x="1543.39" y="2450.93" width="71.04" height="223.26" style="fill:#4361ED"/>
	<rect x="1547.52" y="2455.06" width="62.78" height="214.99" style="fill:none;stroke:#4361ED;stroke-width:8.26"/>
	<rect x="1614.43" y="2227.50" width="70.88" height="446.68" style="fill:#4361ED"/>
	<rect x="1618.56" y="2231.63" width="62.61" height="438.42" style="fill:none;stroke:#4361ED;stroke-width:8.26"/>
	<rect x="1756.35" y="2227.50" width="71.04" height="446.68" style="fill:#4361ED"/>
	<rect x="1760.48" y="2231.63" width="62.78" height="438.42" style="fill:none;stroke:#4361ED;stroke-width:8.26"/>
	<rect x="1827.39" y="2450.93" width="71.04" height="223.26" style="fill:#4361ED"/>
	<rect x="1831.52" y="2455.06" width="62.78" height="214.99" style="fill:none;stroke:#4361ED;stroke-width:8.26"/>
	<rect x="1898.44" y="2450.93" width="71.04" height="223.26" style="fill:#4361ED"/>
	<rect x="1902.57" y="2455.06" width="62.78" height="214.99" style="fill:none;stroke:#4361ED;stroke-width:8.26"/>
	<rect x="2182.61" y="2450.93" width="71.04" height="223.26" style="fill:#4361ED"/>
	<rect x="2186.74" y="2455.06" width="62.78" height="214.99" style="fill:none;stroke:#4361ED;stroke-width:8.26"/>
	<rect x="3198.32" y="2146.33" width="71.04" height="527.85" style="fill:#4361ED"/>
	<rect x="3202.45" y="2150.46" width="62.78" height="519.59" style="fill:none;stroke:#4361ED;stroke-width:8.26"/>
	<rect x="3411.45" y="1618.31" width="71.04" height="1055.87" style="fill:#4361ED"/>
	<rect x="3415.58" y="1622.44" width="62.78" height="1047.61" style="fill:none;stroke:#4361ED;stroke-width:8.26"/>
	<rect x="3482.49" y="1618.31" width="71.04" height="1055.87" style="fill:#4361ED"/>
	<rect x="3486.62" y="1622.44" width="62.78" height="1047.61" style="fill:none;stroke:#4361ED;stroke-width:8.26"/>
	<rect x="3695.63" y="1618.31" width="70.88" height="1055.87" style="fill:#4361ED"/>
	<rect x="3699.76" y="1622.44" width="62.61" height="1047.61" style="fill:none;stroke:#4361ED;stroke-width:8.26"/>
	<rect x="3837.54" y="1090.29" width="71.04" height="1583.89" style="fill:#4361ED"/>
	<rect x="3841.67" y="1094.42" width="62.78" height="1575.63" style="fill:none;stroke:#4361ED;stroke-width:8.26"/>
	<rect x="3908.59" y="2146.33" width="71.04" height="527.85" style="fill:#4361ED"/>
	<rect x="3912.72" y="2150.46" width="62.78" height="519.59" style="fill:none;stroke:#4361ED;stroke-width:8.26"/>
	<rect x="3979.63" y="562.28" width="71.04" height="2111.91" style="fill:#4361ED"/>
	<rect x="3983.76" y="566.41" width="62.78" height="2103.64" style="fill:none;stroke:#4361ED;stroke-width:8.26"/>
	<rect x="4050.68" y="2146.33" width="71.04" height="527.85" style="fill:#4361ED"/>
	<rect x="4054.81" y="2150.46" width="62.78" height="519.59" style="fill:none;stroke:#4361ED;stroke-width:8.26"/>
	<rect x="4192.76" y="2146.33" width="71.04" height="527.85" style="fill:#4361ED"/>
	<rect x="4196.89" y="2150.46" width="62.78" height="519.59" style="fill:none;stroke:#4361ED;stroke-width:8.26"/>
	<rect x="4334.85" y="2146.33" width="71.04" height="527.85" style="fill:#4361ED"/>
	<rect x="4338.98" y="2150.46" width="62.78" height="519.59" style="fill:none;stroke:#4361ED;stroke-width:8.26"/>
	<rect x="4405.89" y="2146.33" width="70.88" height="527.85" style="fill:#4361ED"/>
	<rect x="4410.02" y="2150.46" width="62.61" height="519.59" style="fill:none;stroke:#4361ED;stroke-width:8.26"/>
	<rect x="4689.90" y="1618.31" width="71.04" height="1055.87" style="fill:#4361ED"/>
	<rect x="4694.03" y="1622.44" width="62.78" height="1047.61" style="fill:none;stroke:#4361ED;stroke-width:8.26"/>
	<rect x="5116.16" y="2146.33" width="71.04" height="527.85" style="fill:#4361ED"/>
	<rect x="5120.29" y="2150.46" width="62.78" height="519.59" style="fill:none;stroke:#4361ED;stroke-width:8.26"/>
	<line x1="452.76" y1="2674.18" x2="452.76" y2="290.59" style="stroke:#000000;stroke-width:5.51"/>
	<line x1="452.76" y1="2674.18" x2="414.62" y2="2674.18" style="stroke:#000000;stroke-width:5.51"/>
	<text x="395.38" y="2707.71" style="font-family:'Helvetica';font-size:95.68px;fill:#000000" text-anchor="end">0</text>
	<line x1="452.76" y1="1512.68" x2="414.62" y2="1512.68" style="stroke:#000000;stroke-width:5.51"/>
	<text x="395.38" y="1546.21" style="font-family:'Helvetica';font-size:95.68px;fill:#000000" text-anchor="end">.1</text>
	<line x1="452.76" y1="351.17" x2="414.62" y2="351.17" style="stroke:#000000;stroke-width:5.51"/>
	<text x="395.38" y="384.70" style="font-family:'Helvetica';font-size:95.68px;fill:#000000" text-anchor="end">.2</text>
	<line x1="452.76" y1="2674.18" x2="2811.38" y2="2674.18" style="stroke:#000000;stroke-width:5.51"/>
	<line x1="513.51" y1="2674.18" x2="513.51" y2="2712.49" style="stroke:#000000;stroke-width:5.51"/>
	<text x="513.51" y="2798.45" style="font-family:'Helvetica';font-size:95.68px;fill:#000000" text-anchor="middle">10</text>
	<line x1="1223.78" y1="2674.18" x2="1223.78" y2="2712.49" style="stroke:#000000;stroke-width:5.51"/>
	<text x="1223.78" y="2798.45" style="font-family:'Helvetica';font-size:95.68px;fill:#000000" text-anchor="middle">20</text>
	<line x1="1934.04" y1="2674.18" x2="1934.04" y2="2712.49" style="stroke:#000000;stroke-width:5.51"/>
	<text x="1934.04" y="2798.45" style="font-family:'Helvetica';font-size:95.68px;fill:#000000" text-anchor="middle">30</text>
	<line x1="2644.31" y1="2674.18" x2="2644.31" y2="2712.49" style="stroke:#000000;stroke-width:5.51"/>
	<text x="2644.31" y="2798.45" style="font-family:'Helvetica';font-size:95.68px;fill:#000000" text-anchor="middle">40</text>
	<line x1="2889.17" y1="2674.18" x2="5247.79" y2="2674.18" style="stroke:#000000;stroke-width:5.51"/>
	<line x1="2949.75" y1="2674.18" x2="2949.75" y2="2712.49" style="stroke:#000000;stroke-width:5.51"/>
	<text x="2949.75" y="2798.45" style="font-family:'Helvetica';font-size:95.68px;fill:#000000" text-anchor="middle">10</text>
	<line x1="3660.02" y1="2674.18" x2="3660.02" y2="2712.49" style="stroke:#000000;stroke-width:5.51"/>
	<text x="3660.02" y="2798.45" style="font-family:'Helvetica';font-size:95.68px;fill:#000000" text-anchor="middle">20</text>
	<line x1="4370.29" y1="2674.18" x2="4370.29" y2="2712.49" style="stroke:#000000;stroke-width:5.51"/>
	<text x="4370.29" y="2798.45" style="font-family:'Helvetica';font-size:95.68px;fill:#000000" text-anchor="middle">30</text>
	<line x1="5080.56" y1="2674.18" x2="5080.56" y2="2712.49" style="stroke:#000000;stroke-width:5.51"/>
	<text x="5080.56" y="2798.45" style="font-family:'Helvetica';font-size:95.68px;fill:#000000" text-anchor="middle">40</text>
	<rect x="452.76" y="152.21" width="2358.62" height="138.38" style="fill:#FFFFFF"/>
	<rect x="455.51" y="154.97" width="2353.11" height="132.87" style="fill:none;stroke:#FFFFFF;stroke-width:5.51"/>
	<text x="1632.15" y="242.43" style="font-family:'Helvetica';font-size:105.13px;fill:#000000" text-anchor="middle">Domestic</text>
	<rect x="2889.17" y="152.21" width="2358.62" height="138.38" style="fill:#FFFFFF"/>
	<rect x="2891.92" y="154.97" width="2353.11" height="132.87" style="fill:none;stroke:#FFFFFF;stroke-width:5.51"/>
	<text x="4068.39" y="242.43" style="font-family:'Helvetica';font-size:105.13px;fill:#000000" text-anchor="middle">Foreign</text>
	<text x="192.11" y="1499.34" style="font-family:'Helvetica';font-size:112.56px;fill:#000000" transform="rotate(-90 192.11,1499.34)" text-anchor="middle">Density</text>
	<text x="2756.19" y="2963.82" style="font-family:'Helvetica';font-size:112.56px;fill:#000000" text-anchor="middle">Mileage (mpg)</text>
	<text x="245.36" y="3080.13" style="font-family:'Helvetica';font-size:89.94px;fill:#000000">Graphs by Car origin</text>
</svg>
